<?xml version="1.0" encoding="utf-8"?>
<!-- Generator: Adobe Illustrator 21.0.0, SVG Export Plug-In . SVG Version: 6.00 Build 0)  -->
<svg version="1.1" id="MM_x5F_SELECT" xmlns:amcharts="http://amcharts.com/ammap"
	 xmlns="http://www.w3.org/2000/svg" xmlns:xlink="http://www.w3.org/1999/xlink" x="0px" y="0px" viewBox="0 0 465 1028"
	 style="enable-background:new 0 0 465 1028;" xml:space="preserve">
<style type="text/css">
	.st0{fill:#FFFFFF;stroke:#D76FD2;stroke-miterlimit:10;}
</style>
<path id="MM-01" class="st0" d="M250.3,106.2l-0.6-0.2l-0.4-0.4l-0.3-0.5l-0.4-0.4l-6.7-3.1l-1.1-0.9v-0.9l0.5-0.9l0.4-1.1l-0.3-0.4
	l-1.6-1.3l-0.6-0.7l-1-1.8l-0.6-0.7l-0.9-0.6l-1.7-0.8l-0.9-0.2l-0.9-0.1l-0.6,0.2l-0.8,0.9l-0.5,0.3h-0.6l-0.3-0.2L230,92l-0.4-0.3
	l-1.3-0.3l-0.5,0.4l-0.4,0.9l-1,1.2l-0.8,0.4l-1,0.3l-1,0.1l-0.8-0.3l-3.3-0.2l-13,2.2l-3.3,1.5l-3,2.1l-1.9,2.6l-1.8,3.5l-1.1,1.6
	l-1.3,1.3l-1.3,0.7l-2.8,0.5l-1.3,0.5l-2.1,2.6l-1.3,2.2l-0.5,0.6l-0.6,0.3l-2.3,0.3l-0.8,0.3l-0.5,0.7l-0.5,1.3l-0.6,1.1l-0.8,0.4
	h-1l-1.1-0.2l-2,0.5l-1.3,1.8l-1.1,2.3l-1.4,1.8l-0.9,0.5l-3.8,1.2l-1.8,0.9l-0.9,0.3l-0.7-0.1h-0.4l-0.8-1.1l-0.9,0.1l-0.5,0.4
	l-0.7,1l-0.4,0.4l-0.5,0.2l-1.1,0.3L157,131l-0.5,0.5l-0.2,0.4l-0.2,1.6v0.3l-0.1,0.4l-0.3,0.6l-0.5,0.8L154,138l-0.8,0.6l0,0
	l-0.7,1.1l0.1,0.9l0.9,1.8l0.2,1l-0.1,0.8l-0.7,1.8l-0.3,1.7l-0.1,2.2l0.2,2.2l0.6,1.7l0.4,0.4l0.4,0.1l0.4,0.1l0.4,0.2l0.2,0.4
	l-0.2,0.4l-0.4,0.4l-0.2,0.5l0.5,3.7l0.7,0.6l1.7,0.6l0.6,0.7l0.1,1.1l-0.6,1.1l-1.5,1.9l-2.1,2.2l-0.8,0.6l-1.8,0.7l-0.6,0.5
	l-0.3,1.2v1.1l1,5.6l0.1,1.2l-0.3,1l-0.4,0.3l-1,0.1l-0.5,0.2l-0.4,0.4l-4.4,6.5l-0.2,0.2l-0.5,0.3l-0.2,0.2v0.3l0.4,0.5v0.2
	l-0.5,0.2h-1l-0.4,0.2l-0.7,0.9l-1.3,2.1l-0.9,0.7l-0.9,0.3l-1.7,0.2l-0.9,0.4l-1.6,1.1l-0.4,0.5l-1,1l-1.1,1.8l-2.8,8.1l0.2,2.2
	l1.2,1.7l1.8,0.7l2,0.4l1.8,0.8l0.9,1.5l0.3,2.3l-0.3,2.3l-0.9,1.7l-0.8,1.1l-0.9,4.6l-0.8,1.4l-2,2.7l-0.3,1.6v1l-0.2,1l-0.4,0.9
	l-0.6,0.7l-0.7,0.4l-0.6,0.1h-0.6L127,236l-0.4,0.9l-1,3.7l-0.6,1.2l-2.2,1.4l-0.6,0.6l-0.4,0.8l-0.7,2.7l-0.7,0.5l-0.6,0.5
	l-0.3,0.6l-0.1,2.2l-0.4,0.6l-0.6,0.4l-0.6,0.6v0.3l0.2,0.9v0.4l-0.3,0.4l-1,0.7l-0.4,0.5l-0.3,0.8l-0.1,1.8l-0.2,0.9l-2.4,5.7
	l-0.6,2l-0.2,1.9l-0.2,0.9l-0.5,0.6l-0.2,0.5l-0.3,2.1l-0.2,0.8l-2.2,3l-0.5,1.1l-0.1,1.1l0.1,1.2l-0.2,1.1l-0.1,0.2l0.3,0.6
	l0.3,3.5l0.3,1l0.9,2.1l0.3,1.4l-0.6,5l-0.3,1.5l-0.4,3.9v0.1l-0.1,0.3l-0.2,0.3l-0.4,0.4l-0.2,0.1h-0.5l-0.7-0.2l-1.6-1l0,0
	l-0.3-0.1h-0.3l-0.2,0.1l-0.3,0.5v1.6l0.4,1.3l0.1,0.7l-0.2,4l-0.2,0.4l-0.4,0.2l-1.2-0.1l-0.5,0.4l0.5,1.9v0.9l-0.6,2.5l-0.1,0.6
	l0.2,2.8l0.9,5.1v1.1l-0.2,2.1l-1.1,4.2v0.6l0.3,0.6l0.2,0.7l0.3,0.8l0.2,3.5l-0.4,1.9l-0.2,0.4l-0.3,1.5l0.6,3.5l1.4-0.2h0.7
	l0.7-0.1l0.7-0.3l0.3-0.2l0.3-0.3l0.4-0.7h0.3l0.5,0.2l0.3,0.8l0.1,0.5v0.4l-0.1,0.2v0.2l0.5,0.4l0.1,0.1l0.1,0.1l0.1,0.5l0.1,0.2
	l0.5,0.8l0.5,0.5l0.8,0.7l2.1,2.6l2.3,4.2l1.3,3l0.2,0.7l0.1,1l-0.2,0.7l-1.9,4l-0.3,0.8l-0.1,0.5l-0.1,0.8l0.6,6.1l0.3,1l0.4,0.6
	l0.4,0.5l0.4,0.2h0.6l1.5-0.4l1,0.1l0.8,1.6l0.4,0.3l0.6,0.4l0.6,0.2l0.4,0.4l0.3,0.9l0.2,1.1l0.1,1.5l-1,8.7l0.2,0.6l0.4,0.4
	l0.9,0.7l1.3,0.7l1,0.4l0.8,0.1l0.5-0.2l0.3-0.1l1.1-1.1l1-0.5l2.6-0.9l0.9-0.1l1.4,0.2l0.9,0.3l0.8,0.1h0.7l1.9-0.4l2-0.2l0.9-0.3
	l2.2-0.2l3.8,0.8l6.4,0.2l1.3-0.9l1.6-0.3l0.8,0.2l1.2,0.4l0.4,0.7l1.4,1.6l0.9,1.8l0.5,0.7l0.8,0.6l0.4,0.5l0.1,0.7v1.3l0.1,0.7
	l0.7,0.5l1,1.1l0.9,0.5l2,0.7l0.3-0.6l0.3-0.5V399l0.6-1.5l0.6-2.2l0.8-0.6l6.2-1.4h1.1l0.8,0.3l1.6,1.7l3,4.2l4.2-0.6l1.1,0.3
	l0.3,0.4l2.4-2.8l0.8-1.3l1.6-6.3l0.7-1.4l0.5-0.5l0.9,0.2l1.1-0.1l0.9-0.2l0.9-0.3l1-0.5l1.4-1l1-1.4l0.5-1.7l-0.2-2l-1.1-3.4
	l-0.9-1.6l-0.4-3.6l-0.6-3.1l-0.1-2.9l0.1-0.6l0.2-0.6l0.3-0.3l0.3-0.2l0.3-0.3l0.4-0.8v-0.5l-1.1-1.1l-0.9-1.1l-0.3-1V355l0.2-1
	l0.6-1l0.4-1l-0.2-1.1l-3.3-5.9l-0.8-2.4l0.4-1.7l0.5-0.2l1.1-0.1l0.6-0.3l0.3-0.5l0.1-0.5l0.5-20.4l-0.4-1.3l-0.5-2.2l-0.3-0.9
	l-0.2-0.3l-0.1-0.2l-0.1-0.1l-0.3-0.7l-1.3-4.4l-0.1-0.8l0.1-1.1l0.3-1.2l0.4-1l1-1.7l3-3.8l0.5-1.1l0.1-0.7l0.7-1.6l1.1-1.3
	l1.2-1.1l1.1-0.1l0.4,0.1l0.6,0.4l0.4,1.1v0.7l-0.1,0.7l-0.3,0.8l-0.1,0.6v0.7l0.3,0.5l0.4,0.4l1.6,0.8l1,0.3l1.2-0.2l2.2-1.2
	l0.8-0.2h0.5l1.5,1.3l0.9-0.6l1.4-1.6l0.8-0.6l0.7-0.7l0.9-1.4l0.2-0.5l0.2-0.4l0.1-0.3l0.3-0.8l0.1-0.3v-0.4V292l0.1-0.2l0.2-0.5
	l0.1-0.4v-0.4l1.1-1.6l0.6-0.5l0.8-0.4l0.2-0.2l0.2-0.2l1-1.9l0.2-0.5l1.5-2.9l0.2-0.5v-0.5l-0.1-0.4l-0.1-0.3l-0.1-0.3l-0.2-0.3
	l-0.7-0.7l-0.2-0.2l-0.1-0.3l-0.3-1.2l-0.1-0.3l-0.4-0.8l-0.1-0.3l-0.1-2.8l-0.1-0.4l-0.3-0.4l-0.1-0.1l-0.2-0.1l-0.2-0.1l-0.3-0.1
	h-0.3h-0.3h-0.3l-0.6,0.2l-0.2,0.1l-0.6,0.6l-0.5,0.9l-0.4,0.5l-0.4,0.1l-0.5-0.2l-0.6-0.8l-0.2-0.7l0.2-0.7l0.5-0.6l0.7-0.6
	l8.6-3.9l2.1-0.6l2-0.3l-1-2l-0.8-0.6l-0.8-0.9l-0.5-1l-0.1-1.2v-5.7l0.2-0.5l0.4-0.6l1.4-1.1l0.4-1.1l-1.7-1l-0.6-0.2l-0.9-0.1
	l-1-0.3l-7.1-2.9l-1.5-0.1l-2.5,0.7l-3.1,0.5l-0.5,0.2l-0.4,0.3l-0.3,0.4l-0.5,0.3h-0.5l-0.5-0.6l-0.4-0.6l-0.5-0.5l-2-1.7l-1.4-1.5
	l-0.2-0.3l-1.6-4.4l-1.1-0.6l-4.6-1l-0.9-0.3l-0.6-0.4l-0.5-0.5l-0.5-1.1l-2.5-8.2l-2.2-5.5l1-0.7l1.7-0.7l1.7-0.5l1.9-0.6l0.9-0.5
	l0.6-0.4l0.4-0.5l0.3-0.5l0.2-0.3l0.2-0.1h0.3l0.2,0.2l0.1,0.3v0.4l-0.1,0.4l-0.4,1.3l-0.3,0.5l-0.3,0.8v0.6l0.1,0.5l0.3,0.3
	l0.4,0.1h0.5l0.5-0.3l0.3-0.3l0.3-0.3l0.3-0.6l0.4-2.2l0.1-1l-0.2-1.8l-0.6-1.5l-1.1-1.9l-2.5-3.2l-0.5-2.3l-0.7-10.1l0.2-4.7
	l0.5-2.2l0.5-0.6l0.4-0.1l0.3,0.1l0.5,0.4l0.4,0.4l0.3,0.4l0.3,0.3l0.4,0.2h0.5l0.4-0.2l0.3-0.4l0.4-0.6l0.7-0.8l2.9-2.2l1-1.1
	l0.6-1.1l0.2-1.1l-0.5-1.6l-2.6-3.2l-0.4-0.9l-0.6-2.5l-0.9-2.1v-0.7l0.1-0.9l2.5-6l0,0l0.1-0.1l0.3-0.2l0.4-0.3l0.4-0.5l0.3-0.6
	l0.3-1.9l-0.7-4.2l-1.1-1.7l-0.3-0.8l-0.3-1.3l-0.7-1.2l-0.7-0.9l-0.2-0.6l-0.1-1.4l-0.2-0.8l-0.5-1l-2.6-3.7l-0.2-0.5l-0.1-0.6
	v-0.5l0.6-1l2.7-0.7l1.3-0.5l1.3-0.7l0.8-0.8l0.3-0.5l0.1-0.2l-0.4-2.7l-0.2-0.8L206,134l-0.5-0.8l-0.8-0.8l-1-0.8l-1.5-1.6
	l-0.4-0.8l0.2-0.7l0.9-0.8l6.3-3.9l0.2-0.3l0.1-0.4v-2.4l0.3-0.4l0.6-0.3l1.4-0.3l0.7-0.3l0.4-0.5l0.1-1l0.2-0.8l0.4-0.8l0.3-0.6
	l-0.2-0.4l-1.7-1l-0.6-0.5v-0.4l0.7-0.3h4.3l2.8,0.7l0.7,0.3l0.9,0.1h0.9l8.5-1.2h2.6l1.2-0.2l3.1-1l5.4-0.4l3.7,0.3l0.7-0.1
	l0.6-0.2l0.4-0.2l0.2-0.2l0.6-0.7l2.8-4.2l-0.5,0.2L250.3,106.2z"/>
<path id="MM-11" class="st0" d="M278.4,29l-1.2-0.7l-1.1-1.7l-1-0.7l-0.9,0.5l-0.7,1.9l-0.5,0.9l-0.7,2l-0.7,0.9l-0.2,0.6l-0.3,0.5
	l-0.8,0.8l-0.2,0.5l0.1,0.5l0.2,0.5l0.1,0.5v2.1l-0.2,1.1l-0.5,0.6h-1l-0.9-0.2l-0.7,0.2l-0.3,1.2l-0.4,0.6l-1.8,1l-0.5,1l0.3,1.5
	l-1.5,3.4l-0.3,1.9l0.7,1.4l2.4,2.6l0.3,1.6l-0.3,0.8l-0.8,1.6l-0.2,0.9v1.2l0.1,0.6l-0.2,0.4l-0.9,0.5l-1.1,0.4l-0.2-0.4v-0.7
	l-0.6-0.7l-0.8-0.1l-1,0.2l-0.9,0.5l-0.6,0.6l-0.6,0.9l-0.8,0.9l-2.5,2.2l-0.4,0.3l-0.5,0.2l-0.3,0.2l-0.4,0.8l-0.3,0.3l-1,0.3
	l-0.3,0.3l-0.2,0.6l-0.1,0.7l-0.2,0.2h-0.3l-0.7,0.2l-1.6,0.5l-0.6,0.4l-1.7,2.1l-0.9,0.8l-1.9,1.4l-0.8,0.7l-0.7,1l-0.4,1.1v1.2
	l0.2,0.5l0.5,0.8l0.1,0.5v0.5l0.2,1L243,83l0.1,0.8l-0.6,1.6l0.2,1l1.2,2l8,10.5l1.3,1.4l0.3,0.4v1l0.1,0.5l0.4,0.4l0.4,0.3l0.4,0.3
	l0.3,0.6l-0.1,0.4l-0.5,1.4l-0.2,0.3l-0.6,0.3l-0.4-0.2l-0.4-0.3l-0.6-0.2l-0.5,0.1l-0.4,0.2l-2.8,4.2l-0.6,0.7l-0.2,0.2l-0.4,0.2
	l-0.6,0.2l-0.7,0.1l-3.7-0.3l-5.4,0.4l-3.1,1l-1.2,0.2h-2.6l-8.5,1.2h-0.9l-0.9-0.1l-0.7-0.3l-2.8-0.7H212l-0.7,0.3v0.4l0.6,0.5
	l1.7,1l0.2,0.4l-0.3,0.6l-0.4,0.8l-0.2,0.8l-0.1,1l-0.4,0.5l-0.7,0.3l-1.4,0.3l-0.6,0.3l-0.3,0.4v2.4l-0.1,0.4l-0.2,0.3l-6.3,3.9
	l-0.9,0.8l-0.2,0.7l0.4,0.8l1.5,1.6l1,0.8l0.8,0.8l0.5,0.8l0.3,0.9l0.2,0.8l0.4,2.7l-0.1,0.2l-0.3,0.5l-0.8,0.8l-1.3,0.7l-1.3,0.5
	l-2.7,0.7l-0.6,1v0.5l0.1,0.6l0.2,0.5l2.6,3.7l0.5,1l0.2,0.8l0.1,1.4l0.2,0.6l0.7,0.9l0.7,1.2l0.3,1.3l0.3,0.8l1.1,1.7l0.7,4.2
	l-0.3,1.9l-0.3,0.6l-0.4,0.5L206,165l-0.3,0.2l-0.1,0.1l0,0l-2.5,6l-0.1,0.9v0.7l0.9,2.1l0.6,2.5l0.4,0.9l2.6,3.2l0.5,1.6l-0.2,1.1
	l-0.6,1.1l-1,1.1l-2.9,2.2l-0.7,0.8l-0.4,0.6l-0.3,0.4l-0.4,0.2H201l-0.4-0.2l-0.3-0.3l-0.3-0.4l-0.4-0.4l-0.5-0.4l-0.3-0.1
	l-0.4,0.1l-0.5,0.6l-0.5,2.2l-0.2,4.7l0.7,10.1l0.5,2.3l2.5,3.2l1.1,1.9l0.6,1.5l0.2,1.8l-0.1,1l-0.4,2.2l-0.3,0.6l-0.3,0.3
	l-0.3,0.3l-0.5,0.3h-0.5l-0.4-0.1l-0.3-0.3l-0.1-0.5v-0.6l0.3-0.8l0.3-0.5l0.4-1.3l0.1-0.4v-0.4l0.3-0.1l-0.2-0.2h-0.3l-0.2,0.1
	l-0.2,0.3l-0.3,0.5l-0.4,0.5l-0.6,0.4l-0.9,0.5l-1.9,0.6l-1.7,0.5l-1.7,0.7l-1,0.7l2.2,5.5l2.5,8.2l0.5,1.1l0.5,0.5l0.6,0.4l0.9,0.3
	l4.6,1l1.1,0.6l1.6,4.4l0.2,0.3l1.4,1.5l2,1.7l0.5,0.5l0.4,0.6l0.5,0.6h0.5l0.5-0.3l0.3-0.4l0.4-0.3l0.5-0.2l3.1-0.5l2.5-0.7
	l1.5,0.1l7.1,2.9l1,0.3l0.9,0.1l0.6,0.2l1.7,1l-0.4,1.1l-1.4,1.1l-0.4,0.6l-0.2,0.5v5.7l0.1,1.2l0.5,1l0.8,0.9l0.8,0.6l1,2l1.1,1.3
	l0.2,2.6l0.4,1l1,1.3l3.6,2.6l0.9,0.5l0.6,0.2h0.5l0.4-0.2l0.3-0.4l0.5-0.4l0.5-0.2h0.4l0.3,0.3l0.3,0.6l0.3,1.2l0.4,1.2l0.2,1.3
	v1.7l-0.5,1.6l-0.6,1l-0.5,0.5l-0.6,0.4l-4.1,1.6l-0.3,0.2l-0.1,0.2v0.2l0.1,0.3l0.2,0.4v0.1l4.6,1.5h0.2l0.6-0.3h0.8l2.3,0.5
	l1.7,0.6l0.4,0.4v0.2v1.2v0.3l0.1,0.5l0.1,0.3l0.2,0.2l0.3,0.1l0.7,0.1h0.4l1-0.1h1.8l3.7-1.6l0.5-0.1h1.5h0.4l0.3-0.1l0.2-0.1
	l0.1-0.1l0.6-0.6l0.4-0.3l0.3-0.2l0.4-0.1l0.8-0.1h0.3l0.8,0.2l0.2-0.1l0.1-0.1l0.1-0.2l0.1-0.2l0.2-0.2l0.3-0.3l0.3-0.1h0.2
	l0.4,0.2l1.2-1.3l0.4-0.3h0.2l0,0l0.2,0.1l0.6,0.1l1.1-0.1l2.5-1.9l0.7-0.2l5-0.9l1.5-0.6l0.9-0.5l0.3-0.4l0.4-1l-0.1-0.9l-0.5,0.3
	l-0.6,0.9l-0.2-1l-0.2-0.5l-0.3-0.4l-1.8-1.3l-1.9-0.9l-0.8-1l9.3-9.8l0.6-1.2l0.1-1.3l-0.2-0.6l-0.7-0.9L283,262l0.2-0.6l0.3-0.4
	l0.4-0.3l0.3-0.4l-0.3-1.9l-3.6-1.3l-0.3-1.4l0.8-0.6l1-0.1l0.7-0.3l-0.1-1.1l-0.4-0.5l-0.9-0.7l-0.3-0.6l-0.1-0.5l-0.2-0.6
	l-0.2-0.5l-0.4-0.4l-0.8-0.2h-1.2l-4,0.6l-0.3-0.4v-1.2l1.2-7.3l-0.3-6.8l0.2-1.2l0,0l3.3-2.2l1.9-1.6l1-0.7l1.1-0.2l2,0.4h1.1
	l0.8-0.4l0.4-1.1l-0.6-0.8l-1.8-1.5l-0.8-1.6l-0.2-1.8l0.1-3.7l-0.3-2l0.2-0.5l0.9-0.3l0.8-0.6l0.8-1.2l1.1-2.4l1.2-4.3l1.1-1.3
	l1.8,0.9l0.6,0.9l0.3,0.8l0.5,0.4l1-0.1l1-0.6l2.2-2.9l0.8-0.6l2-1l0.6-0.6l0.9-2.3l0.6-1.2l0.7-0.5l0.9-0.2l0.2-0.4l-0.1-0.8
	l0.1-2.1l-0.2-0.5l-0.2-0.5l-0.3-1.4v-0.4l0.2-0.4l0.9-0.8l0.5-0.7l0.3-0.8v-2.6l0.1-0.7l0.5-0.1l4,1.4l0.7,0.4l1.4,1.4l0.6,0.1
	l1.1-0.4l1-0.5l0.7-0.6l0.5-0.8l0.6-2.4l0.3-0.7l1.9-2.3l0.1-0.4v-0.7l0.1-0.6l0.3-0.4l0.4-0.3l0.3-0.4l0.6-1.9l0.4-0.9l0.6-0.6
	l1.2-1.4l0.6-0.4h0.8l0.6,0.3l1.1,0.9l1.4,0.5l0.5,0.3l0.5,0.1l0.8-0.3l2.5-2l0.3-0.5l0.3-0.7l0.1-0.7l-0.1-0.7l-0.3-0.3l-0.6-0.2
	l-0.2-0.2l-0.5-1.1l-1.6-2.4l-0.4-0.5l-0.6-0.2l-0.6,0.1l-0.5-0.1l-0.3-0.7l0.1-1.2l-0.2-1l-0.9-1.9l-0.3-0.9l-0.1-0.9l0.2-0.8
	l0.6-0.6l1.9-0.5l0.8-0.3l0.3,0.1l-0.1,2l0.3,0.6l0.7-0.1l1.8-1.5l0.3-0.5v-1.1l0.3-0.3l0.4-0.3l0.3-0.5l-0.2-0.9l-1.2-2.6l-0.4-0.5
	l-1,0.2l-0.3-0.5l0.1-0.9l0.2-1l0.4-1.1l2-2.3l0.5-0.9l0.3-1l0.2-1.1l0.2-7.1l0.3-1.8l1-1.8l0.3-1l-0.2-1.2l-0.2-0.5v-0.5v-0.5v-0.5
	l-0.7-1.8l0.1-1.1l0.7-2l0.1-1.1l-0.4-1l-1.2-1.8l-0.2-1.1l0.2-0.6l0.7-0.8l0.2-0.6v-0.5l-1.1-4.8l0.4-1l0.5-0.9l0.3-1l-0.3-1.1
	l-0.7-0.8l-0.7-0.2l-0.6-0.3l-0.4-1l-0.5-3.6v-1.8l0.3-1.6l1.2-3.7l0.2-1.8l-0.5-1.7l-0.3-0.2h-0.4l-0.3-0.1l-0.1-0.6l-0.3-4.9
	l0.1-2.3l0.5-2.2l-0.1-1.2l-0.2-0.5l-0.4-0.6l-0.5-0.5l-0.4-0.3h-0.6l-0.4,0.3l-0.5,0.4l-0.6,0.3l-1.3,0.1l-0.7-0.6l-1-2.2l-1-0.8
	l-1.5,0.7l-0.9-0.8l-2.6-1.3l-0.6-0.2l-0.5,0.5l-0.1,1v2l-0.3,1.8l-0.5,1.7l-0.9,1.3l-1.7,0.5l-1.7-0.8l-0.9-1.8l-1-4.3l-0.8-1.8
	l-1.6-2.6l-0.1-0.5l0.5-1.3l-0.1-0.3l-0.3-0.3l-0.2-0.5v-1.1l0.1-0.7l-0.2-0.5l-1.7-1.1l-0.8-1l-0.3-1l0.8-0.6l1-0.5v-0.8l-0.6-0.9
	l-0.8-0.8l-1.7-1l-0.3-0.6l0.6-1.2l0.2-1.1l0.3-5v-1l-0.4-0.9l-0.2-0.2l-3.2-3.1l-0.8-0.5l-2-0.3l-0.3-0.6l0.4-1.6v-0.9l-0.7-0.6
	l-1.7-1l-2.3-3.1l-1.9-0.8l-3,1.5l-1.6-0.5l-1.2-1.7l-2-5.9l-1.4-1.3l-1.4,0.7L278.4,29z"/>
<path id="MM-05" class="st0" d="M300.1,1001.8v-0.9l-0.5-0.7l-0.8-0.3l-0.7,0.3l-0.4,0.9l0.5,0.6l0.9,0.2L300.1,1001.8z
	 M309.8,988.6l-1,0.4l-1.4,1.2l-1.3,0.7l-0.4,0.3l-0.2,0.3l-0.2,0.5l-0.2,0.4l-0.3,0.2l-0.1,0.2l-0.2,0.3l-0.4,0.4l-0.6,0.2
	l-0.2,1.4l-0.2,0.4l-0.1,0.7v1.3l0.2,1l0.5-0.2l0.1,0.9l0.6-0.6l1.3-2l-0.1-0.3l0.1-0.4l0.2-0.5l0.2-0.6l0.7,0.1l1.7-1.1l0.8-0.3
	l0.4-0.4l0.3-0.9l0.5-0.8l0.9-0.3l0.3-0.6l-0.2-0.3l-0.4-0.2l-0.3-0.4l-0.1-0.3V989l0.3-0.1l0.8,0.1v0l-0.6-0.2h-0.1l-0.2,0.1
	L309.8,988.6z M306.9,988.2l0.3-2.4l0.3-0.5l0.5-0.4l0.7-0.4l-0.3-0.3V984l0.1-0.2l0.1-0.3h0.2h0.1l0.1-0.1v-0.2l-0.9-0.3l-1.3-0.8
	H306v0.4l0.3,0.4l-0.2,0.4l-0.3,0.5l-0.2,0.6l0.1,0.4l0.5,0.6l0.1,0.3v3.9L306.9,988.2z M292.9,968.2l-0.3-0.3l0.4-0.8l-0.7,0.3
	l-0.1,0.8l0.2,0.9l0.3,0.6l-0.7,1l0.2,0.7l0.8,0.2l1.1-0.5l-0.2-0.3l-0.5-0.8l0.4,0.1l0.3-0.1l0.2-0.2l0.2-0.3l-0.4-0.9l-0.2-0.3
	l-0.3-0.3h-0.3L292.9,968.2z M307.5,967.7l0.7-0.7l0.3-1.1l0.1-0.1l0.1-0.2l0.1-0.1H308l-0.8,0.2l-0.6,0.4l-0.2,0.7l0.4,0.9
	L307.5,967.7z M324.4,950.3l-0.5-1.4l-1.1-0.9l-1.2-0.6l-0.1,0.5v0.7l0.2,0.8l0.3,0.7v0.7l0.4-0.2l0.5-0.1l0.4,0.1l0.1,0.3l-0.1,0.5
	l-0.3,0.1h-0.4l-0.4,0.2l-0.3,0.6l0.5,0.3h0.9l0.7-0.5L324.4,950.3z M292.9,949.1l0.9-0.7l0.7-1l0.5-1.4l-1-0.2h-1l-0.8,0.5
	l-0.3,1.4l0.2,0.5v0.5l-0.2,0.5l-0.3,0.5L292.9,949.1z M308.2,945.6l-0.3-0.9l-0.5-0.8l-0.7-0.6l-0.9-0.4l-0.9-0.1l-0.6,0.2
	l-0.2,0.3l-0.2,0.9l-0.1,0.3l-0.2,0.2l-0.6,0.4l-0.1,0.2l-1.2,1.3l-0.4,0.8l0.6,0.5l0.5-0.2l1.5-1l0.3-0.3l0.1-0.5l0.3-0.2h0.4
	l0.5,0.2l0.3,1.7l0.1-0.2l0.2-0.2l0.1-0.2l1,0.8l0.9,1.1l0.1,0.2v0.3v0.4l0.1,0.2l0.7,0.2l0.2,0.1l0.1,0.8l-0.4,1.6v0.7l0.9,0.6
	l0.2,0.5l-0.7,0.6L309,955l-0.2-0.1l-0.1,1.6l0.2,0.6l0.7,0.2l0.8-0.2l0.4-0.4l0.6-1.1v-0.2v-0.1l0.1-0.1h0.3l-0.5-0.5l-0.1-0.6
	l0.2-0.6l0.4-0.6l-0.9-0.1l-0.3-0.7v-1l-0.1-0.9l-0.5-0.6l-0.7-0.5l-0.6-0.5l-0.2-0.9l-0.1-1L308.2,945.6z M318.9,943.7l0.4-0.4
	l0.2-0.6l-0.1-0.8H319l-0.5,0.5l-0.2,0.8l0.2,0.6L318.9,943.7z M323.8,942.6l0.2-1.4v-0.8l-0.4-1.9l-0.3-0.7l-0.4-0.1l-0.5,0.8v0.3
	l0.1,0.9l-0.1,0.5l-0.2,0.4l-0.3,0.3l-0.8,0.6l-0.4,0.8l-0.1,1l0.4,0.9l1.1,0.5v-0.5l0.2-0.4l0.3-0.3l0.5-0.2v0.4l0.1,0.5l0.2,0.3
	l0.4-0.1l0.1-0.3L323.8,942.6z M310.8,929.6v-0.4l0.3-1h-1.4l-1,0.1l-0.6,0.2l0.1,0.4l0.5,0.4l0.5,0.5l0.2,0.8v0.6l1.6-0.4l0.8-0.4
	l0.3-0.5l-0.2-0.4h-0.4l-0.4,0.1L310.8,929.6z M311.2,916.6v-2.8l0.6-1.2l-0.4-1l0.1-1l0.6-2.1l-0.1-1.6l0.1-0.5l0.2-0.2l0.3-0.1
	l0.3-0.2l0.1-0.5l-0.2-0.9l-0.6-1.4l-0.7-1.1h-0.7l-0.3,0.7l-0.2,2.2l-1.4,2.7l-0.2,1v0.5l0.3,1v0.6l-0.2,0.1l-0.3,0.1l-0.3,0.2
	l-0.3,0.9l-0.7,0.5l-0.2,0.4l0.1,0.6l0.2,0.2l0.2,0.2l0.1,0.4l-0.3,0.2l-0.5,0.3l-0.4,0.4l0.1,0.5l0.2,0.4l0.2,1l0.1,0.4l-0.4,0.5
	l-0.4,0.3l-0.4,0.1l-0.5-0.2v0.8v0.2l0.5,0.2l0.5,0.1h0.6l0.6-0.1l0.5-0.2l-0.7-0.2l-0.1-0.4l0.4-0.3l0.8-0.1l-0.2-0.5v-0.3l0.2-0.3
	l0.3-0.4l0.2,0.4l0.7,0.9l0.5,0.4v-0.3l0.1-0.2l0.1-0.2l0.1-0.3l0.4,0.4L311.2,916.6z M271.8,902.6l-0.7-0.6h-0.9l0.7,0.7l0.3,0.2
	l0.7,0.2L271.8,902.6z M323.9,902.1l-0.4-0.2l-0.6-0.1l-1.1,0.3l-0.6,0.1l-1.4-0.4h-0.6l0.1,0.4l0.1,0.1l0.2,0.2l-0.7,0.1l-2.2-0.3
	l-1.1,0.2l0.2,0.5l0.3,0.2h0.4h0.5l0.6,0.1l-0.1,0.2l-0.4,0.2l-0.2,0.1l-0.3,0.2l-0.3,0.1l-0.3,0.2l-0.1,0.6l0.2,0.3l0.9,0.8
	l0.3,0.4l-1.1,0.2l-0.1,0.7l0.6,1.4l0.3,0.4l0.6,0.5l0.4,0.7l-0.3,1l0.2,0.4l0.2,0.2h0.2l0.4-0.3l-0.1,1.1l0.2,0.8l0.5,0.1l0.8-1
	l0.3,0.4l0.6,0.2l0.6,0.2l0.5,0.2l0.4,0.4l0.8,0.9l0.5,0.4l-0.1-0.7l-0.2-1.2v-0.7l0.1-0.6l0.7-0.8l0.2-0.6l-0.1-3.9l0.5-1.4v-1.5
	l-0.1-0.5l-0.1-0.6l-0.2-0.5L323.9,902.1z M299.9,904.6v-1.3l-0.4-0.7l-1.3-1.1l-0.3-0.3l-0.1-0.5l0.1-1.9l-0.7,1.2l0.6,2.7
	l-0.2,1.3l0.8,0.3l0.3,0.9v1l-0.2,0.5l-0.6,0.2l0.2,0.4l0.9,0.5l0.7,1.1l0.3,0.3l0.1,0.3l0.4,0.3l1.2,0.7l-0.2-0.6l-0.3-0.4l-0.9-1
	l0.3-0.5v-0.4l-0.2-0.3L300,907l0.5-0.3l0.4-0.3l0.3-0.5l0.1-0.6l-1.2,0.3L299.9,904.6z M281,898.9l0.1-0.2l0.4-0.5l0.1-0.5
	l-0.2-0.5l-0.5-0.4l-1,1.3v0.6l0.4,1.2l0.8,0.3h0.2L281,898.9z M311.2,898.8l0.2-0.8l-0.2-0.7l-1-0.6l-0.4,0.3l-0.1,0.9v1.3l0.4,0.2
	h0.6L311.2,898.8z M310.1,895.8l0.3-0.4V895l-0.3-1l-0.1-0.5l-0.4-0.2l-0.8,0.3l-0.4,0.7l0.9,1.4l0.4,0.1L310.1,895.8z M322.8,891.7
	l-0.5-0.5l-0.8-1.6l-1-1.4l-1.3-1.2l-0.3-0.5l-0.4,0.6v0.6l0.4,1.5v1.5l0.1,0.5l0.2,0.2l0.2,0.1l0.5,0.6l0.3,0.2l0.2,0.2l0.1,0.5
	l-0.1,0.4l-0.5,0.7l-0.1,0.4v0.7l0.2,0.6l0.7,1.5l0.9,0.1l1-0.4l1-0.6l0.8-0.7l1-0.4h2.9l1.3-0.4v0.3v-0.7l-0.8-0.4l-1.9-0.5
	l-1.4-1.3l-0.7-0.4l-0.9,0.3L322.8,891.7z M302.1,882.1l0.3-0.4l0.4-0.3l0.3-0.4l0.1-0.4l0.2-1v-0.5l-0.2-0.8l-0.5-0.5l-0.8-0.2H301
	l-0.7,0.4l-0.6,1l-0.4,1.1L299,881l0.2,0.7l1,1l0.7,1.2l0.1,0.1l0.1,0.1l0.3,0.1l0.9-0.5l0.8,0.2l0.6,0.6l0.4,0.7l0.1-0.5l-0.1-2.1
	l-0.3-0.4h-0.6l-0.7,0.3l-0.5,0.3L302.1,882.1z M302.1,873.8l0.4-0.9l-0.2-1.1l-0.5-0.9l-0.7-0.3l-0.2,0.3l-0.2,0.6l-0.3,0.6
	l-0.9,0.4l-0.2,0.4v0.6v0.5l-0.5-0.1h-0.3l-0.6,0.1l-0.4-0.4l-0.1-0.3l0.2-0.3l0.5-0.5l0.3-0.5l-0.3-0.2l-0.5,0.1l-1.5,0.9l-1,0.3
	l-0.7,0.6l-0.1,1.4h0.4l0.2-0.3l0.2-0.2l0.6-0.5l0.2,0.7l-0.5,0.5l-0.6,0.5l-0.1,0.7l0.5,0.2l0.7-0.1l0.6,0.1l0.2,0.8l0.2,0.1
	l0.5,0.9l0.4-1.8l0.1-0.3l0.4-0.1l0.5-0.2l0.5-0.3l0.4-0.4l0.8-1.5v-0.3l0.5,0.1l0.3,0.1h0.3L302.1,873.8z M322.2,871.5l0.3-0.7
	l0.1-2.8l-0.1-0.8l-0.7-0.9l-0.6,1l-0.7,3.4l0.4,0.7l0.7,0.2L322.2,871.5z M311.2,866.8l0.3-1.1l-1.1-1.5V864l-0.2-0.4l-0.3-0.3
	l-0.1,0.3l-0.2,0.4l-0.3,0.1H309l-0.2,0.2l-0.2,1.3v0.5l0.3,0.5l1.2,0.5L311.2,866.8z M290.6,864l-0.1-0.5l-0.3-0.4l-0.2-0.8
	l-0.2-0.2l-0.5,0.1l-0.5,0.2l-0.2,0.2l0.1,0.4l0.3,0.2l0.1,0.2l-0.2,0.3v0.4h0.3h0.2l0.1,0.1l0.1,0.3l0.1,0.2l0.1,0.1l0.1,0.1v0.2
	L290.6,864z M317,863.4l-0.2-0.8l0.4-2.1V860l-0.9-0.9l-2.7-0.7l-0.9-0.8l-0.7,2.1v2.4l0.6,2.3l0.9,1.7v0.3l-0.3,0.3L313,867
	l-0.2,0.3v0.3l0.2,0.2l0.2,0.6l0.4,0.7l0.1,0.5l-0.1,1.2l-0.7,2.1l-0.2,1.1l-0.2,0.3l-0.5,1.1l2.3,0.6l2-1.8l3.2-4.8l0.5-1.2
	l0.2-1.8v-1.9l-0.2-1.4l-0.8-1l-0.6,0.8l-0.4,1.6l-0.2,1.3L317,863.4z M290.7,853.7l0.2-0.4l-0.2-0.8l-0.6-0.8h-0.5l-0.3,0.6l0.1,1
	l0.8,0.3L290.7,853.7z M311.8,837.7l-0.3-0.7l-1-5l-0.4-0.8h-0.7l-0.3,0.6L309,834l0.1,1l0.2,1l1.1,3.1l0.6,3.2l0.4,1v0.9l0.7,1.2v1
	l0.6-0.6v-1l-0.6-2.1L312,841l0.1-0.5l0.2-0.5l0.2-0.2l0.3-0.2l0.3-0.4l0.6-0.5l0.1-0.3l-0.3-0.5l-0.6-0.3l-0.4,0.2l-0.3,0.3
	L311.8,837.7z M293.7,802.6l0.2-1.9l0.2-1l0.3-0.6l-0.3-0.4l-0.6,0.3l-0.2,1.2v1.4l0.1,0.8h0.3V802.6z M303.2,741.5l-0.6-0.2
	l-0.3-0.1l-0.2-0.1l-0.5-0.5l-0.6-0.7l-1.9-3.2l-0.4-0.5l-0.4-0.1l-0.4,0.1l-1.3,0.5l-0.9,0.2l-1.7,0.2h-0.6l-1,0.1l-0.3,0.3
	l-0.2,0.4l-0.3,1.9l-0.3,1.3l-0.4,1.1l-0.8,1.7l-1,1.6l-0.7,0.8l-1.2,0.8l-0.1,0.1l0,0l1,1.5l1.3,5.8l0.2,0.3l0.2,0.3l0.3,0.3
	l0.3,0.1h0.6l0.4-0.2l0.3-0.3l0.3-0.1l0.4-0.4l-0.4-2.1l0.1-0.9h0.3l0.1,1.1l0.5,0.9l0.7,0.3l0.7-0.6v-0.3l-0.1-0.4l-0.2-0.3
	l-0.1-0.1l0.4-0.5l0.2-0.2l0.1,0.2l0.1,0.3l0.2,0.5l0.3,0.5l0.4,0.3l-0.4,0.8l0.3,0.6l0.7,0.4l0.7,0.3l-0.9,0.3l0.5,1.1l1.7,2.3
	l-1.7-0.8l-1.2-1.7l-1.2-1.2l-1.9,0.6l-0.9,1.3v1.4l0.7,1.3l1.2,0.9l-0.6,1.3l0.4,1.5l1.5,2.8l0.5,2.3l0.2,0.5l0.5,0.2l0.4-0.3
	l0.4-0.5l0.4-0.4l-0.2,1l-0.7,1.5l-0.1,1.1l0.1,1.1l0.2,1.2l0.4,1.1l1,1.6l1.3,2.9l2.3,3.1l0.3-0.6l0.3,0.1l0.3,0.5l0.2,0.7h-0.7
	l0.6,1.8l0.1,0.5l-0.1,0.7l-0.5,0.9v0.7l-0.4,0.8l-1.1,1.5l-0.2,1.1l0.2,1l0.7,2.1l0.1,1.2l0.2,0.3l0.4,0.3l0.4,0.2l0.3,0.1l0.2,0.2
	l-0.1,0.5l-0.3,0.8v2.1l0.3,2.2l-1-0.2l-0.3,1.3l0.5,1.5l1.2,0.5l-0.2,0.3l-0.3,0.8l-0.2,0.3l0.6,0.3l0.4,0.1l1.2-0.1l0.6,0.2
	l0.4,0.5l-0.1,0.4h-0.8l0.3,0.8v0.8l-0.3,0.6l-0.7,0.2l0.2,0.3l0.3,0.5l0.2,0.3l-0.4,0.2l-0.4,0.5l-0.2,0.5l0.2,0.2l0.3,0.2l0.1,0.6
	v0.7l0.1,0.6l0.1-0.3l0.2-0.4l0.1-0.4l0.6,0.7l0.4,0.3h0.4l0.4-0.3l-0.2-0.4l-0.6-0.6l-0.1-1v-0.5l0.1-0.6l0.2-0.5l0.2-0.3l0.2-0.2
	l0.2-0.3l0.4-0.9l0.1-0.8l-0.1-0.9l-0.7-2.3l0.4-4.2l0.5-1.8l0.1-1l-0.2-0.9l-0.7-1.9l0.1-0.6l0.5-0.7l0.2-0.7l0.1-1.4l-0.2-0.3
	l-0.7-0.8l-0.2-0.3v-0.6l0.2-1.1l0.1-0.6h0.3l0.2,0.8l0.6,0.9l0.7,0.8l0.6,0.5v0.3l-0.3,0.4v0.4l0.2,0.4l0.1,0.5v2.2l0.7,2.7
	l0.3,0.6l-0.3,0.7v0.7l0.2,0.6l0.1,0.7l-0.1,0.8l-0.6,1.8l0.2,1.6l0.6,0.4h0.9l1.2,0.3l-0.3,0.7l-0.4-0.3l0.5,1.2l1.8,2.6v1.1l1,0.7
	l0.2,0.4l-0.2,0.6l0.7,0.2l0.6,0.4l0.5,0.5l0.5,1l1.1,1.6l0.3,0.6l-0.1,0.4l-0.5,0.5v0.4l0.2,0.4l0.3,0.2l0.3,0.2l0.2,0.2l0.3,0.5
	l0.3,0.6l0.1,0.8v0.9l0.3-1l0.3-0.4l0.4-0.3l-0.1,0.9v0.4l0.1,0.4l-0.6,0.5v0.7l0.6,1.6v0.6v0.5l0.1,0.5l0.2,0.5l0.5-0.7l0.3,0.6
	l0.3,1.8l2.6,2.1l0.6,0.3l0.6,0.7l0.2,3.7l0.3,1.5l-0.4,0.4l-0.1,0.6l0.2,1.9l0.1,0.5l0.5,1l0.7,1.8l0.2,0.3l-0.4,0.2l-0.3,0.5
	l-0.5,1.1l0.6,0.4l1.2,1.3l0.5,0.3l0.8,4.1l-0.2,0.6l-0.3,0.2l-0.4,0.1l-0.5,0.3l-0.2,0.1l-0.1-0.1v0.6l0.5,0.5l2.1-0.2l0.4,0.2
	l-0.3,0.5l-0.5,0.1h-0.5l-0.4,0.2l-0.2,0.4v0.3l0.3,0.2l0.6,0.1l1.4-0.3l0.2,0.1l-0.1,0.7l-0.2,0.4l-0.3,0.3l-0.4,0.5l-0.3,0.6
	l-0.1,1.4l0.3,0.7v0.3h-0.2h-0.4h-0.4l-0.2,0.2l-0.3,1.1l-0.6,1.1l-0.4,1.1l0.4,1l0.4,0.3h0.5h0.5l0.5,0.1l0.4,0.2l0.7,0.4l0.4,0.1
	l0.3,0.2v0.3l-0.4,0.3l-0.6,0.2h-1.9l-1.1,0.2l-0.6,0.3l-0.2,0.6v1.1l-0.3,1.1l0.1,0.5l0.7,0.2l0.3,0.2l1.2,1.2l1.6,0.6l0.8,0.5
	l0.3,0.8l-0.4,1l-1,0.6l-4.4,0.9l-0.9,0.3l-0.8,0.6l-0.6,0.9l-0.1,1l0.4,0.9l0.8,0.8l0.4,0.2l0.9,0.3l0.4,0.2l1.2-0.7l1-0.8l1.1-0.6
	l1.6-0.3l0.3,0.2l0.3,0.5l0.2,0.6l-0.2,0.6l-0.7,0.6l-1.4,0.8l-0.5,0.6h0.7v0.4l-1.1,0.2l-0.6,0.2l-0.3,0.2l-0.1,0.7l0.3,0.5
	l0.2,0.4l-0.3,0.6v0.5l0.6,0.6l0.7,0.6l0.3,0.3l2.3-0.2l-0.5,0.8l0.1,0.6l0.4,0.6l0.3,0.8l0.1,0.5l-0.1,1.7l-0.3,0.2l-0.6,0.1
	l-0.6,0.2l-0.6,1.1l-0.7,0.6l-0.9,0.5l-0.9,0.2H325l-1,0.4l-0.4,1h4l2.1-0.7h1l0.6,0.7l-1.3,0.1l-0.6,0.7l-0.4,0.9l-0.4,0.7
	l-0.1-0.1h-0.4h-0.5l-0.4,0.1l-0.2,0.2l-0.8,1.1h1.3l0.1,0.5h-0.2l-0.3-0.1l-0.3,0.2l-0.6,1l-0.1,0.4v0.4l0.3,0.6l0.1,0.5l0.3,0.4
	l1.5,1.2l1.3,0.8l0.5,0.1l0.4-0.2l0.5-0.5l0.3-0.6v-0.7l0.2-0.6l0.6-0.2l0.1-0.1l0.6-0.6l0.1-0.1l0.2-0.2l0.8,0.1h0.3l1.1-2l0.5-0.6
	l0.5-0.4l0.3-0.6l-0.4-0.9l0.8,1.3l-0.7,1.2l-1.1,1.1l-0.4,1.2l1.1,0.9l3.5,0.7l0.7,1.4h-0.3l0.2-1.1l-0.9-0.3l-0.9-0.2l-0.6,0.1
	l-0.2,0.5v0.6l-0.1,0.5l-0.6,0.2l-0.5-0.2l-0.4-0.3l-0.4-0.2l-0.6,0.3l-0.8-0.1l-0.5,0.8l-0.3,1.2l-0.1,0.9l0.2,1.8l-0.1,0.8
	l-0.7,0.8l0.3,0.4l-0.4,0.8l0.1,0.5l0.4,0.2l0.8-0.4l0.4,0.1l0.4,0.8l0.1,1.9l0.5,0.7l-1.9,0.2l-1,0.3l-0.4,1l-0.4,1.8l0.2,0.4
	l1.2-0.3l-0.3,0.9v0.9l0.2,0.8l1,2.4l0.6,0.8l-0.1,0.3l-0.3,0.3l-0.3,1l-0.6,1.4v1.6l-0.4,1l-1.1,0.6l-2.2,0.6l0.9,1.6l0.6,0.4
	l0.9-0.3l0.2,1.1l0.4,0.9l0.2,0.7l-0.3,0.6l-0.4,0.2l-0.4,0.1l-0.3,0.2l-0.1,0.6l0.2,0.3l0.8,0.6l0.3,0.5l-0.4,0.3l0.2,0.7v0.9
	l-0.2,0.9l-0.3,0.6l-0.1-0.2l-0.7,0.1l-0.7,0.2l-0.1,0.1l-0.5-0.1l-0.5-0.4l0,0.2l-0.7,0.3l-0.4,0.6l-0.6,0.6l-1.6,0.4l-0.1,0.3
	l0.1,0.4l0.2,0.3l0.4,0.2l1.2,0.1l0.5,0.2l-0.3,0.4l-0.4,0.2l-0.4,0.1h-0.5l0.3,0.9l-0.1,0.7l-0.8,1.2l-0.3,0.6l-0.4,1.4l-0.3,0.8
	l-0.4-0.5l-0.5-0.4l-0.5-0.1l-0.6,0.3l0.5,0.4l0.4,0.7v0.7l-0.5,0.6l-0.9-1.5l-0.6-0.4l-1.1-0.2l-0.6,0.3l-0.2,0.7v2.1l0.2,2.1
	l1.6,3.6l0.2,2.1l-0.3,2.1v1l0.9,1.5l0.8,2.9v1l-0.6,1.8l-0.2,2.3l-0.2,0.8l-0.8,2l-0.1,0.3v0.4l0.2,0.6l1,1.6v2.3l0.3,1.6v0.5
	l-0.1,1v0.5l0.2,0.4l0.4,0.7l0.1,0.5l0.4,0.5l0.8-0.7l1.4-2l2.7-5.6l1-1.5l1.1-1.1l0.4-0.8l0.3-1.9l0.8-2.5l0.6-1.2l0.2-0.3l0.2-0.2
	l0.4-0.2l0.9-3l0.5-2.5l0.7-1.9v-1l-0.7-3.1l-0.3-0.5l-0.9-0.8l-0.2-0.6l0.4-2.1l0.5-1.1l2.2-2.9l0.9-0.8l0.5-0.1l1-0.1l0.4-0.1
	l0.3-0.4l0.2-0.5l0.2-0.5l0.4-0.5l0.7-0.3l0.5,0.1l0.4,0.2h0.5l1.7-0.8l0.2-0.1l0.4-0.4l0.2-0.4l0.2-1v-0.7l-0.4-1L345,947v-0.5
	l0.1-0.5l0.2-0.5l0.3-0.4l0.5-0.5l0.2-0.1l0.2,0.1l0.6,0.1l0.6,0.2l0.5,0.3h0.5l0.4-0.6l0.4-1.5l0.2-0.4l0.8-0.8l2-1l0.4-0.3
	l0.5-0.4l0.3-0.5l0.5-1l0.4-0.5l0.5-0.3l1-0.4l0.3-0.4l1.5-4.5l0.6-1.1l1.6-1.9l0.6-1.1l0.7-2l0.5-0.8l1.9-2l0.3-0.8l0.1-0.9
	l0.3-1.2l0.5-0.8l1.4-1.4l0.6-0.8l0.5-1l0.2-0.8l-0.1-2l0.1-1.2l0.5-0.8l0.8-0.5l1.1-0.2l2-0.1l0.6-0.5l3.1-4.3l0.4-1.2l0.7-3.3
	l-0.1-0.5l-0.8-0.2l-0.9-0.6l-0.9-0.8l-0.6-0.8l-0.4-1.1l0.2-1l0.8-2l0.1-1L374,893l-0.7-0.6l-0.9-0.3l-0.8-0.7l0.2-1.4l0.8-2.4
	l0.1-0.6l0.2-0.5l0.1-0.5l-0.2-0.4l-0.4-0.2h-0.5l-2.8,0.9l-0.7-0.2l-0.2-0.9l0.3-0.5l0.5-0.4l0.4-0.5l0.1-0.7l-0.2-0.5l-0.5-1
	l-0.2-0.5v-0.5l0.1-0.9l-0.1-0.5l-0.3-0.6l-0.8-0.9l-0.3-0.6l-0.2-1l-0.1-2.8l-0.3-1.1l-1.1-2l-0.2-1l0.1-0.5l0.5-1.1l0.2-0.5
	l0.1-1.1v-1.1l-0.1-0.8l-0.1-0.5l-0.5-0.7l-2.4-1.3l-0.5-0.4l-0.5-0.5l-0.3-0.5l-0.4-0.4l-1.2-0.3l-0.5-0.3l-0.2-0.4l-0.1-1
	l-0.2-0.5l-0.5-0.3l-1.1-0.2l-0.4-0.2l-0.5-0.9v-0.9l0.1-1l-0.2-1l-0.4-0.6l-1-0.9l-0.4-0.5l-0.2-0.5l-0.2-1.5l-0.6-1.5l-0.1-0.5
	v-0.7l0.2-0.5l0.3-0.4l0.2-0.6l-0.1-1l-0.7-1l-0.9-0.8l-0.8-0.5l-1.1-0.8l-0.2-1l0.3-1.1l0.4-1.2l0.1-1.3l-0.1-1.1v-1l0.6-0.8
	l0.9-0.4l1.9-0.2l0.7-0.6l0,0l0.1-0.9l-0.2-1l-0.6-1.9v-0.7l0.2-0.5l0.3-0.4l0.2-0.5v-0.5l-0.2-1l0.2-2.5v-1l-1.8-7.8l-0.1-4.2
	l0.2-1.1v-1.3l-0.3-0.4l-0.3-0.4l-1.6-1.5l-0.4-0.8l-0.6-2.4v-0.9l0.1-0.6v-0.4l-0.1-0.3l-0.3-0.4l-0.2-0.2l-0.7-0.2l-0.3-0.1l0-0.9
	l-0.2-0.8l-0.2-0.3l-1.5-1.2l-0.4-0.6l-0.5-1.1l-0.6-1l-1.6-1.9l-0.3-0.9l-0.1-1.1l-0.5-0.8l-0.9-0.6l-1.2-0.3l-1-0.5l-5.8-4.4
	l-1.1-1.2l-1.2-2.3l-0.5-0.1l-0.6,0.2h-0.7l-0.3-0.2l-0.6-0.8l-0.3-0.3l-0.4-0.2l-0.8-0.2l-0.3-0.1l-0.6-0.4l-0.4-0.4l-2.2-2.8
	l-3.4-7l-0.6-0.3l-0.6-0.2l-0.4-0.7l-0.3-1.2l-0.4-1.1l-0.6-1l-5.9-5.7l-2.6-4.2l-0.4-1l0.2-0.7v-0.2l-0.2-0.3l-0.5-0.4l-0.1-0.3
	l-0.1-1.1l0.1-1.8l-0.3-1.1l-1-1.7l-0.2-0.5v-0.3l-2.6,0.1L303.2,741.5z"/>
<path id="MM-17" class="st0" d="M336.9,301.6l-0.5-0.4l-0.9-2.8l0.2-0.8l0.6-0.6l2.3-1.4l0.3-0.4l0.4-0.7l-0.1-0.3l-0.3-0.2l-2-3.3
	l-0.4-0.9l-0.1-2.7l-0.3-0.8l-0.7-0.6l-1.9-0.3l-1.5-0.5h-1.1l-0.5-0.1l-0.6-0.5V284l0.2-0.3l0.1-0.4l-0.4-3.9v-0.7l0.4-1.3l0.1-0.5
	l-0.4-0.9l-0.3-0.4l0.2-0.5l0.8-0.4l0.9-0.3l0.9-0.4l2.4-2.1l4.4-3l0.8-1.6l-0.3-1.5l-0.1-0.1l-0.5,0.4l-1.8,0.5l-5,0.4l-1.7,0.8
	l-2,0.3l-1.4,0.7l-0.8,0.2l-0.6,0.4l-0.7-0.3l-1.3-0.6L322,267l-1.4-0.4l-1.9-0.1l-1.9,0.1l-0.8,0.3l-1.5,0.9l-0.8,0.3h-1.8
	l-3.6-0.9l-1.8-0.1l-3.7,0.9l-10.5,4.2l-0.6,0.4l-2,2.3l-0.9,0.7l-0.7,0.2L287,276l-1.1,0.4l-1,0.7l-2.5,2.5l-1,0.5l-1,0.3l-0.4,0.2
	l0.1,0.9l-0.4,1l-0.3,0.4l-0.9,0.5L277,284l-5,0.9l-0.7,0.2l-2.5,1.9l-1.1,0.1l-0.6-0.1l-0.2-0.1l0,0h-0.2l-0.4,0.3l-1.2,1.3
	l-0.4-0.2h-0.2l-0.3,0.1l-0.3,0.3l-0.2,0.2l-0.1,0.2l-0.1,0.2l-0.1,0.1l-0.2,0.1l-0.8-0.2h-0.3l-0.8,0.1l-0.4,0.1l-0.3,0.2l-0.4,0.3
	l-0.6,0.6l-0.1,0.1l-0.2,0.1l-0.3,0.1h-0.4h-1.5l-0.5,0.1l-3.7,1.6h-1.8l-1,0.1h-0.4l-0.7-0.1l-0.3-0.1l-0.2-0.2l-0.1-0.3l-0.1-0.5
	v-0.3V290v-0.2l-0.4-0.4l-1.7-0.6l-2.3-0.5h-0.8l-0.6,0.3h-0.2l-4.6-1.5V287l-0.2-0.4l-0.1-0.3v-0.2l0.1-0.2l0.3-0.2l4.1-1.6
	l0.6-0.4l0.5-0.5l0.6-1l0.5-1.6v-1.7l-0.2-1.3l-0.4-1.2l-0.3-1.2l-0.3-0.6l-0.3-0.3h-0.4l-0.5,0.2l-0.5,0.4l-0.3,0.4l-0.4,0.2H240
	l-0.6-0.2l-0.9-0.5l-3.6-2.6l-1-1.3l-0.4-1l-0.2-2.6l-1.1-1.3l-2,0.3l-2.1,0.6l-8.6,3.9l-0.7,0.6l-0.5,0.6l-0.2,0.7l0.2,0.7l0.6,0.8
	l0.5,0.2l0.4-0.1l0.4-0.5l0.5-0.9l0.6-0.6l0.2-0.1l0.6-0.2h0.3h0.3h0.3l0.3,0.1l0.2,0.1l0.2,0.1l0.1,0.1l0.3,0.4l0.1,0.4l0.1,2.8
	l0.1,0.3l0.4,0.8l0.1,0.3l0.3,1.2l0.1,0.3l0.2,0.2l0.7,0.7l0.2,0.3l0.1,0.3l0.1,0.3l0.1,0.4v0.5l-0.2,0.5L225,285l-0.2,0.5l-1,1.9
	l-0.2,0.2l-0.2,0.2l-0.8,0.4l-0.6,0.5l-1.1,1.6v0.4l0.1,0.3l-0.2,0.5l-0.1,0.2v0.5v0.4l-0.1,0.3l-0.3,0.8l-0.1,0.3l-0.2,0.4
	l-0.2,0.5l-0.9,1.4l-0.7,0.7l-0.8,0.6l-1.4,1.6l-0.9,0.6v0.9l-0.1,0.2l-0.1,0.3l-0.6,0.5l-0.2,0.2l-0.1,0.2l0.1,0.8l0.1,0.2l0.2,0.5
	v0.2v0.2l-0.1,0.2l-0.3,0.1l-0.5,0.1l-0.2,0.1l-1.1,1.1l-0.4,0.3l-0.1,0.1l-0.1,0.1l-0.5,0.7l-0.1,0.3l-0.1,0.3l0.1,0.3l0.1,0.2
	l0.1,0.2v0.2l-0.3,0.3l-0.2,0.1l-0.2,0.1h-0.2l-0.1-0.1l-0.1-0.1l-0.2-0.2l-0.2-0.1l-0.2-0.1h-0.2h-0.2l-0.2,0.1l-0.1,0.1l-0.1,0.2
	v0.3l0.2,0.7l0.2,0.3l0.2,0.2l0.1,0.1v0.2v0.3l-0.3,0.6l-0.2,0.8v1.1v1.2v0.2v0.3v0.4v0.2l-0.1,0.2l-0.2,0.3l-0.3,0.4l-0.1,0.1
	l-0.1,0.2l-0.1,0.4l-0.1,0.2l-0.1,0.1l-0.4,0.3l-0.1,0.1l-0.1,0.2v0.2v0.2l0.1,0.7l0.1,0.4l0.3,0.4l1.1,1.1l0.4,0.5l0.4,0.8l0.1,0.4
	v0.3l-0.1,0.2l-0.1,0.2l-0.1,0.2l0.4,0.6l2.4,1.4l4.2,0.3l3.8-0.7h0.7h0.2l0.7-0.3h0.2h0.9h0.2l0.2-0.1l0.1-0.1l0.4-0.5l0.1-0.1
	l0.6-0.3l0.2-0.1l0.3,0.1l0.4,0.2l0.7,0.6l0.3,0.3l0.2,0.2l0.2,0.1l0.2,0.1h0.4l0.2-0.1l0.2-0.1l0.3-0.2h0.1h0.1l0.1,0.3v0.2
	l-0.1,0.2l-0.1,0.2v0.2v0.4v0.2l-0.1,0.2l-0.1,0.1v0.1l0,0l0,0l0.2,0.2l1.4,0.9l0.4,0.2l0.4,0.1h1.5l0.8,0.1l1.5,0.7l0.3,0.3
	l0.1,0.1v0.2l0.1,0.4v0.2l-0.1,0.2l-0.2,0.2l-0.5,0.4l-0.1,0.2l-0.3,0.5l-0.6,0.8l-0.1,0.2l-0.4,0.6l-0.1,0.1l-0.2,0.3l-0.1,0.3v0.2
	l-0.1,0.9l-0.1,0.2l-0.9,0.8l-0.2,0.1h-0.4l-0.3,0.1l-0.6,0.4l-0.2,0.1h-0.3l-1.2-0.4l-1.3-0.1h-0.3l-0.4,0.1l-1,0.7l-1.3,0.7
	l-0.2,0.1l-0.6,0.2l-2,0.1l-0.4-0.3l-0.4-0.4l-0.1-0.1h-0.2h-0.2l-0.4,0.2l-0.5,0.2H218l-0.7,0.4l-0.2,0.2l-0.3,0.1h-0.6l-1.8-0.1
	l-0.7-0.1l-0.5-0.2l-0.3,0.1l-0.2,0.1l-1.2,0.9l-1.9,1.2l0.6,1.2l0.1,0.3v0.8l0.1,0.2l0.3,0.1h0.2l0.3-0.1h0.1l0.1,0.2l-0.1,1.9v0.2
	l0.1,0.3l0.5,1l0.4,0.6l1.6,2l0.2,0.3l0.1,0.3v0.4l-0.1,1.2v0.4l0.3,0.5l0.2,0.2l0.2,0.1h0.2h0.2l0.1,0.1l0.1,0.1l0.1,0.2l0.4,1v0.3
	v0.3l-0.2,0.7l-0.1,0.5l-0.1,1.5l-0.3,1.4l0.2,1.1l0.1,0.2l0.2,0.1l0.4,0.1l1.9,0.2l0.6-0.1h0.4h0.2l0.2,0.2l0.3,0.3l0.4,0.7
	l0.3,0.3l0.2,0.4l0.1,0.3l0.2,2.1l0.8,0.6l0.5,0.7l0.8,1.9v0.2v0.5v1v0.2l-0.1,0.6v0.2v0.2v0.2l0.3,0.2l0.5,0.3l2.6,0.8l1.2,0.9
	l0.7,0.1l1.9,0.6l1.6,0.8l0.8,0.3h0.2h1.3l0.6,0.1l0.2,0.1l0.6,0.4l0.5,0.6l0.3,2.4l0.5,1.5l0.1,0.2l0.2,0.3l1.3,1.4l0.2,0.3
	l0.7,1.5l0.2,0.6l0.1,0.2l1.4,1.7l0.1,0.1l0.2,0.5v0.3v0.4l-0.1,0.7v0.4l0.1,0.2l0.1,0.1l0.5,0.2l0.1,0.1l0.1,0.1l0.1,0.1l0.2,0.3
	v0.2v0.3v0.4v0.3v0.2l0.1,0.1l0.2,0.3l0.1,0.2l0.1,0.2l0.1,0.5v0.8v0.2l-0.1,0.2l-0.1,0.1l-0.3,0.1H242l-1.2-0.2l-0.3-0.1l-0.1-0.1
	l-0.3-0.2L240,393l-0.4-0.4l-0.1-0.1h-0.2l-0.3,0.2l-0.2,0.4l-0.7,0.9l-2.4,1h-0.6l-0.1-0.2l-0.1-0.1l-0.1-0.1h-0.2h-0.2l-0.3,0.2
	l-0.4,0.4l-0.6,0.5l-0.5,0.5l-0.3,0.4l-1.1,1.3l-0.3,0.3l-0.1,0.2l-0.1,0.2l-0.1,0.3l-0.1,0.2l-0.2,0.2l-1.7,1.3l-0.1,0.1l-0.1,0.1
	L228,401l-0.3,0.2l-0.7,0.2h-0.4h-0.3h-0.2l-0.5,0.1l-3.6,1.8l-0.8,0.1h-0.3h-0.4l-2.6,0.5l-1.6,0.1l-0.2,0.2l-0.2,0.3l-0.3,0.7
	l-0.1,0.4v0.3l0.4,0.6l-0.3,0.5l-2.1,1.3l0.1,1.5l0.6,3.2v0.5l0.1,0.2l0.1,0.2l0.1,0.1l0.1,0.2v0.2l0.1,0.7l0.2,0.7l0.7,3.6l0.1,0.2
	l0.2,0.3l0.2,0.2l0.3,0.4l0.3,0.6l0.2,0.7l0.3,0.5l0.1,0.2l0.1,0.4l0.1,0.2l0.1,0.1l0.1,0.2v0.2l-0.1,0.3l-0.1,0.2l-0.2,0.1H217
	l-0.7-0.1H216h-0.3L215,424l-0.8-0.2l-0.2-0.1l-0.2-0.1h-0.3l-1.1,0.2l-1.2,0.7l-0.7,0.6l-0.1,0.2v0.3l0.3,1.4v0.2l-0.1,0.3
	l-0.3,0.4l-0.2,0.2l-0.2,0.2l-0.1,0.1l-0.1,0.7l0.2,2.7l1.7,1.5l0.4,0.3l0.9,0.3l0.9,0.2l1.4,0.5l2.1,1l0.5,0.1l0.9,0.4l0.3,0.1h0.3
	l0.2-0.1l0.5-0.2h0.2l0.3,0.1l1.8,1.3l0.4,0.2h0.2h0.2l0.2-0.1l0.4-0.5l0.3-0.2l0.1-0.1l0.2,0.1l0.3,0.3l0.6,0.8l0.4,0.3l0.3,0.1
	l0.2-0.1h0.2h0.2h0.2l0.2,0.1l0.2,0.1l0.1,0.1l0.7,0.8l0.2,0.4l0.1,0.3l0.1,0.3v0.3l-0.1,0.3l-0.2,0.3l-0.3,0.3l-0.2,0.5v1.3
	l-0.2,1.1l-1.5,0.1l-0.8-0.1h-0.5h-0.2l-0.3,0.1l-0.3,0.2l-0.2,0.5v0.1l0,0l-0.3,0.3l-1.3,1.1l0.3,1.2l-0.3,0.7l-0.1,0.2v0.2
	l0.1,0.3l0.2,0.4l0.2,0.2l0.5,0.3l0.1,0.1l0.1,0.1l0.1,0.1l0.7,1.2l0.2,0.6l0.1,0.2l0.1,0.1l0.1,0.1h0.2h0.2l0.2,0.1l0.1,0.2
	l0.2,0.3l0.2,0.1h0.2l0.5-0.2h0.1l0.1,0.1l0.1,0.2v0.2v0.3l-0.1,1.4v0.4l0.2,0.8v0.2v0.2l-0.1,0.2l-0.4,0.2l-0.3,0.1l-1.8,0.1
	l-0.2,0.4l0.3,0.8v0.2v0.3l-0.2,0.3l-0.1,0.2l-0.3,0.2l-0.1,0.1l-0.1,0.2l-0.1,0.2l-0.1,0.8l-0.2,0.8v0.5l0.5,2.5l0.4,1.2l0.1,0.3
	l0.1,0.2v0.1l1.7,4.3l0.4,0.6l0.2,0.3l0.1,0.2v0.2v0.4l-0.4,0.6l-1.3,1.1l-0.4,0.3L224,475l-0.1,0.1l-0.4,0.7l-0.1,0.2l-0.4,0.4
	l-0.9,0.6l-0.1,0.1l-0.1,0.1l-0.1,0.2v0.2l0.1,0.3l0.1,0.5l0.1,0.4v0.6l0.1,0.2l0.1,0.1l0.3,0.2l0.1,0.1l0.1,0.1l0.1,0.1l0.1,0.2
	v0.2l-0.1,0.2l-0.2,0.3l-0.4,0.4l-0.2,0.3l-0.2,0.5l-0.2,0.3l-0.2,0.3l-0.5,0.3l-0.3,0.1h-0.2l-0.3-0.2l-0.3-0.2h-0.2l-0.2,0.1
	l-0.2,0.1l-0.3,0.2h-0.2l-0.2-0.1l-0.2-0.1h-0.2H218l-0.2,0.1l-0.1,0.2v0.5l0.1,0.3l1,1.9l2.5,3.4l0.3,0.9l-0.1,0.2l-0.1,0.4v0.2
	v0.2v0.2l0.1,0.2l0.3,0.2l0.6,0.2h0.3h0.3l0.9-0.3l0.4-0.1h0.2l0.6,0.1l0.5,0.2l0.2,0.3l0.3,0.4l0.6,1.4l0.3,0.5l2,2.4l0.6,1.1
	l0.7,0.4l0.3,0.2l0.3,0.2l0.2,0.2l0.2,0.3l0.2,0.3l0.1,0.4v0.4l-0.2,0.5l-0.3,0.3l-0.7,0.3l-0.3,0.3l-0.2,0.4l-0.2,0.5l-0.2,0.3
	l-0.3,0.2l-0.6,0.2l-0.3,0.2l-0.3,0.1h0h-0.3l-0.3,0.1l-0.3,0.2l-0.2,0.2l-0.1,0.3v0.3l0.1,0.4l0.2,0.4l0.8,0.5l0.3,0.1l0.5,0.1
	l0.5,0.2h0.3h0.3l0.5,0.1h0.3l0.3-0.1h0.3l0.4,0.2l0.3,0.4l0.6,1.4l0.1,0.5v0.3l-0.3,1.1l1,1.5l0.3,0.8l0.1,0.2l0.2,0.1h0.2l0.6,0.1
	l0.4,0.2l0.6,0.3l2.1,1.5l1.4,0.8l0.3,0.3l0.2,0.3l0.1,0.4l0.1,0.2l0.7,1.1l0.1,0.1l0.1,0.2v0.2v0.2l-0.1,0.2l-0.2,0.3l-0.1,0.2
	l-0.1,0.9v0.7v0.1v-0.1l1.2-1.1l1.8-2.2l1.3-2.6v-1.6l-0.4-1l-0.8-1.2l-0.2-0.4l-0.1-0.4v-0.2v-0.2l0.2-0.5l0.7-1.8l1.2-1.9l1.7-2
	l2.7-2.2l5.3-3.2l0.3-1.6l0.1-5.5l0.5-0.6l0.2-0.3l0.4-2.9l-0.2-1.7l0.3-1l0,0h1l0.5,0.1l1,0.4l0.4,0.3l0.2,0.3l0.1,0.5v0.3v0.4v0.3
	v0.3v0.3l0.1,0.6l0.2,0.3l0.2,0.2l0.7,0.4l0.3,0.1l0.4,0.1h0.5l1.8-0.4h0.4h0.3h0.2l0,0l0.2-0.1l0.2-0.2l0.3-0.6l0.2-0.8l0.6-0.8
	l0,0l1.2-0.4l0.1,0.7l2.6,3l0.7,0.1h0.5l0.3-0.1l0,0l0.3-0.1l0.3-0.2l0.2-0.2l0.2-0.2l0.2-0.1l0.2-0.1h0.1h0.3l0.3,0.1l0.3,0.4
	l0.7,1.6l0.7,0.9l0.4,0.3l0.3,0.2l0.5,0.1l0.2,0.1l0.2,0.2v0.5l-0.1,0.4l-0.8,2l-0.2,0.7l-0.1,0.6v0.3l0.1,0.3l0.3,0.3l0.6,0.3
	l0.4,0.3l0.4,0.4l0.6,1l0.2,0.2l0.6,0.4l1.2,0.2l3.7,1h0.5l0,0l0.3-0.2l0.2-0.3l0.2-0.2l0,0l0.3-0.1l0.4,0.1l0.5,0.2l1,0.6l0.6,0.2
	h0.5l0.3-0.1h0.3l0.4,0.1l0.4,0.3l0.3,0.3l0.2,0.6l0.1,0.7l0.5,2l0,0l0.8-0.1l3-1.5l0.4-0.4l0.7-0.9l0.4-0.4l0.5-0.2h0.5l0.4-0.1
	l0.3-0.7v-0.9l-0.4-1.9v-0.9l0.6-3.4l0.3-0.7l1-0.2l0.7,0.7l0.6,0.9l0.6,0.2l1.2-0.2l1,0.6l1.9,1.8l1.7,0.5l0.4,0.2l0.2,0.5
	l-0.1,1.1l0.1,0.5l0.9,0.6l1.2-0.3l2.2-1h2l2.3,0.2l2.2-0.1l1.7-0.9h0.2l0.5-0.1l0.4,0.3l0.4,0.5l0.5,0.4l0.8,0.4l0.2-0.1l0.1-0.4
	l0.5-0.5l1-0.4l1.1-0.2l0.4-0.3l0.8-1.1l0.4-0.4l0.9-0.4l4.3-0.6l0.9-0.3l2.9-2.2l1.5,0.7l0.7,0.5l0.6,0.6l0.9,1.4l0.8-0.2l1.8-1.3
	l1.9-0.8l0.7-0.6l0.6-1.1l0.4-1.3l-0.1-1l-0.2-1l-0.2-1.3l0.1-0.5l0.2-0.4l0.2-0.3l0.1-0.2V487l-0.3-0.9l-0.1-0.5l0.5-3.6l1-1.8
	l1.8-1.4l2.2-0.9l2-0.3l0.9,0.1l2,0.6l0.9,0.4l1.9,1.6l1,0.5l1.2-0.2l5.9-1.8l1.6-1.4l0.6-0.7l0.6-0.3l0.5-0.3h0.1l0.5-0.9l0.3-1.3
	l-0.3-0.8l-1.6-1.7l-0.6-3l-0.4-1l-1.8-1.9l-0.4-0.9l0.9-0.3l0.7,0.3l2.4,1.7l3.8,1.2h0.5l0.9-0.1h0.5l0.4,0.2l0.7,0.5l0.5,0.1
	l0.9-0.2l1.8-0.8l1-0.2h2l0.9-0.3l0.8-0.8l0.4-0.8l0.6-1.9l0.6-0.8l0.9-0.6l1.1-0.4l2.7-0.4l0.2-0.1h0.2l0.5,0.4l0.3,0.5l0.1,0.5
	l0.2,0.5l0.5,0.4l0.6,0.7l0.5,0.2h0.6l0.7,0.1l0.6,0.4l0.3,0.4l0.2,0.5l0.4,0.6l2.1,1.4l-0.1-0.9v-0.7l0.1-0.7l0.6-0.7l0.5-0.7
	l0.2-0.9l0.1-1.1l0.5-1.6l0.6-4.6l0.5-1.8l0.6-1.4v-0.7l0.4-0.8l1.1-1.6l0.2-0.7l0.2-0.9l0.5-0.6l1.3-1.2l1.3-1.6l0.8-0.7l1.9-0.6
	l0.6-0.7l0.5-0.8l0.7-0.7l0.9-0.2l4.3,0.7l2.1,0.6h1.1l1.6-0.5l1.5-0.8l0.4-0.3l0.9-0.7l1.2-1.2v-0.3l-1.4-0.3l-4.3,0.8l-0.9-0.7
	l0.1-1l0.5-2.1l0.1-1.1l0.2-0.3l0.9-0.6l0.3-0.3l-0.1-0.4l-0.6-1.4l0.9-0.4l2.2-0.5l0.9-0.5l0.6-0.8l2.5-4.7l1.6-6.4l0.1-0.6v-0.6
	l0.2-0.4l0.6-0.2h0.5l0.4,0.1l0.4,0.2l0.4,0.3l1,0.4l1.1-0.1l1.8-0.8l0.5-0.4l1.6-1.7l0.7-0.2l4.6-2.4l6.8-5.6l0.7-0.3l0.2-0.8
	l-0.1-0.9l-0.2-0.8l0.2-1l0.5-0.7l0.3-0.6l-0.4-0.6l0.1-0.8l-0.4-1.1l-0.6-1l-0.6-0.4l-0.4-0.6l-0.1-2.6l-0.3-0.8L448,392l-0.7,0.2
	l-0.7,0.4l-0.6,0.5l-2.4,1.8l-0.9,0.4l-4.7,1.4l-2.1,1l-1.8,1.7l-2,3l-2.6,2.8l-2.1,1.1l0,0l0,0l0,0l-0.8,0.8l-1.2,0.6l-2.4,0.7
	l-1.3,0.1l-2.4-0.5l-1.1,0.3l-0.9,0.1l-0.6-0.4l-0.5-0.8l-0.2-0.9l-1.5-1.2l-0.8-0.5l-1-0.2l-1,0.1l-0.8,0.3l-0.6,0.6l-0.6,0.9l0,0
	l0,0l0,0l-0.6,0.6l-0.7,0.4l-1.5,0.6l-0.7,0.4l-1.6,1.2l-0.5,0.3l-1.2-0.4l-1.7-2.4l-1-0.7l-0.5-0.7l-0.4-1.1l-0.2-1.2v-0.9l0.1-0.8
	l0.3-0.9l0.4-0.9l0.6-0.7l0.5-0.3l0.5-0.1l0.4-0.2l0.1-0.5l-0.2-0.3l-0.4-0.4l-0.7-0.6l-1.9-0.6l-4.2-0.1l-1.8-1l-0.5-0.9l-0.5-2.9
	l-0.8-1.9l-0.2-0.9l0.1-1.2l1.7-3.8l0.5-2l-0.7-1.7l-0.5-0.6l-0.3-0.7v-0.7l0.4-0.7l-3.7-0.7l-0.9,0.2l-0.3,0.4v1.1l-0.4,0.4
	l-0.6,0.1l-0.4-0.3l-0.3-0.4l-0.4-0.3l-3-1.5l-0.8-0.2l-1,0.5l-0.5,0.8l-0.5,0.4l-1-0.5l-0.2-0.3l0-0.7l-0.4-0.4l-0.4-0.3l-4.6-1.2
	l-1.7,0.2h-0.7l-2.5-1.1l-0.7,0.1l-2.9,1.2l-1.7,0.2l-3.8-0.4l-2-0.5l-2.2-1l-1.1-1.1l1.5-0.8l-0.8-0.8l0.3-1.1l1.6-2.1l0.3-0.8
	l0.6-2.6l0.4-0.6l0.9-1.1l0.2-0.7l-0.1-0.6l-0.3-0.4l-0.2-0.4l0.3-0.7l1.9-1l3-3.2l0.4-0.6l0.2-0.6l-0.1-0.6l-0.5-0.9l-0.1-0.5
	l0.1-1.1l0.5-1.8l-0.1-1.1l-2.3-5.9v-1.4l0.4-0.5l0.5-0.3l0.6-0.2l0.6-0.2l0.4-0.4l1-2l1.2-1.5l0.5-0.8l0.1-0.9l-0.3-2.4l0.1-0.6
	l0.8-0.3l2.7,1.4l1.5,0.1l1.1-0.9l-0.2-1.2l-1.8-2.4l-0.4-0.9l0.1-0.9l0.2-0.8l-0.1-0.7l-0.7-0.4l-3.7-0.1l-1.1-0.7l-1.5-2l-0.8-0.6
	l-1,0.2l-0.6,0.7l-0.4,0.8l-0.4,0.5l-0.9,0.2l-0.5,0.2l-1,0.9l-0.6,0.3h-0.4l-0.3-0.2l-0.4-0.3l-0.1-0.3v-1l-0.3-0.2h-0.5h-0.1
	l-0.2-0.1l-0.7-0.1l-1.2-0.4l-0.4-0.1l-1.8,0.3h-0.8l-1-0.4l-0.8-0.9l-0.3-1l-0.3-0.7l-0.8-0.1l-0.9,0.1l-1-0.1l-1.8-0.5l-3.6-0.4
	l0.1-1.8l2.5-4.5l-0.7-1.4h-1.8l-0.3-0.1v-0.5l0.4-0.3l0.6-0.2l0.4-0.3l0.4-1l0.1-1l-0.1-1.1l-0.7-2.1l-0.6-1.1l-0.7-0.7h-0.9
	L336.9,301.6z"/>
<path id="MM-03" class="st0" d="M116.4,374.4h-0.6l-0.4-0.2l-0.4-0.5l-0.4-0.6l-0.3-1l-0.6-6.1l0.1-0.8l0.1-0.5l0.3-0.8l1.9-4
	l0.2-0.7l-0.1-1l-0.2-0.7l-1.3-3l-2.3-4.2l-2.1-2.6l-0.8-0.7l-0.5-0.5l-0.5-0.8l-0.1-0.2l-0.1-0.5l-0.1-0.1l-0.1-0.1l-0.5-0.4v-0.2
	l0.1-0.2v-0.4l-0.1-0.5l-0.3-0.8l-0.5-0.2h-0.3l-0.4,0.7l-0.3,0.3l-0.3,0.2l-0.7,0.3l-0.7,0.1h-0.7L102,344l0.4,2.9l0.5,1.8l0.1,0.9
	l-0.2,1.9l0.6,5.5l-0.1,0.7l-0.5,1.3l0.1,0.4l0.6,0.1l0.4,0.2l0.2,0.4l-0.2,0.8l-1.1,1.8l-0.2,0.7v1l1.4,7.1v1.1l-0.2,1.3l-1,2.4
	l-0.2,1.1l1.1,3.6l0.4,1l0.1,0.2v0.4L104,383l-0.8,0.4l-0.5,0.4l-0.3,0.4l-0.5,1.6l-0.2,3.3l0.2,2l0.7,1.8l1.9,3.6l2.3,3.9l0.9,1.5
	l0.2,0.7v0.9l-0.2,0.9l-2.4,5.4l-0.9,6.1l-1.5,2.9l1.2,1.2l2,1.2l0.7,0.6l0.3,0.7l0.2,1l0.1,3.5l-0.1,1.3l-0.3,1.1l-3.1,5.7
	l-0.3,2.1l0.1,0.5l1.6,3.4l0.4,1.2l0.4,2.2l0.3,0.8l0.4,0.7l1.4,1.8l0.1,0.3l0.1,0.3v0.4l-0.4,0.5l-1.1,0.5l-4.2,1.1l-1.4-0.1
	l-0.8-0.1L97,448v6.3l0.5,0.9l0.6,0.3l2,0.4l0.8,0.4l0.8,0.7l0.6,0.7l0.6,0.9l0.2,0.5l6.3,10.7l0.7,1.5l1.2,3.5l0.7,1.3l2.4,2.9
	l-0.2,3.3l0.3,0.8l0.3,0.8l0.9,0.8l0.1,0.1l1.5,1.5l0.8,1.1l0.4,0.9l0.1,0.7l-0.1,0.7l-0.5,1.6l-0.3,1.4v0.8l0.1,0.7l2,4.5l1.9,8.9
	l1,5.6l0.5,1l4.5,6.6l1.2,2.2l0.3,0.9l-0.1,0.5l-0.3,0.1h-0.5l-0.4,0.6l-0.1,1.2l0.8,3l0.5,1.3l0.6,0.8l0.6,0.2l0.8,0.1l1.6,0.9
	l2.3,2.6l1.8,4.2l0.8,1h0.6l2.1,2.8l0.3,0.6l0.4,1.1v0.7l-0.3,0.5l-0.6,0.4l-0.8,0.3l-1.6,0.2l-0.6,0.3l-0.1,0.4v0.4l0.2,0.3
	l0.2,0.3l2.1,2l1,1.6v0.6l-0.2,0.6l-1.5,1.5l-0.6,1.1l0.1,0.9l1.3,2.7l0.1,0.9l-0.1,0.8l-0.2,0.7l-0.2,1.2v0.6v0.4l2.2,4l0.6,0.8
	l0.8,0.8l0,0l0,0l0.8-0.6l1.5-1.3l1.3-0.9l1.2-0.3l1.5,0.3l1.2,0.9l1.1,1.1l1.3,0.6h1.3l1-0.9l0.4-0.9l0.4-1.3v-1.2l0.4-0.8l1-0.6
	l0.9-0.1h0.3l-3.4-2.6l-0.8-1.1l-0.2-0.9l0.2-0.9l0.4-1.1l0.1-2.3l0.2-1.1l0.7-0.6l0.2-0.7l0.1-0.2h0.2l0.5,0.1h0.2l1.5-0.7l0.5-0.3
	l1.1-1.1l0.9-1.6l0.4-1.9l-0.4-2.2l-0.5-0.9l-0.4-0.5v-0.7l0.1-0.2l0.2-0.4l1.2-1.1l2.5-1.6l0.7-0.6l0.3-0.7l0.1-0.4l0.1-0.4v-2.1
	l0.8-1.1l3.6-0.7l2.6-3.2l1.5-0.8l3-0.9l1-0.1l2.9,0.1l6.5-0.9h1.5l0.7,0.1l0.4,0.1l1.3,0.8l0.3-0.2l0.1-0.1l0.1-0.1l0.1-0.2v-0.2
	V526v-0.3v-0.2l0.1-0.2l0.2-0.3l0.6-0.5l0.1-0.1l0.1-0.3l0.2-1.9v-1.4l-0.1-0.9l-0.1-0.5l-0.3-0.6l-1.1-1.6l-0.1-0.3l-0.1-0.5
	l-0.1-0.9l-0.4-1.6l-0.5-1v-0.6l-1.1-0.4l-1.2-0.9l-0.4-0.5l-0.2-0.5l-0.4-1.5l-0.3-3.8l0.5-2l0.6-1.2l0.2-0.3l0.4-0.4l0.3-0.4
	l0.3-1l0.1-0.5v-0.4l-0.1-0.2l-0.1-0.1l-0.1-0.1l-0.1-0.2l-0.1-0.2l-0.1-0.4l0.1-0.3l0.8-1.3l0.1-0.5l0.1-0.7l0.1-0.3l0.1-0.2h0.4
	l0.2-0.1l0.4-0.4l0.1-0.3V493l-0.1-0.2l-0.2-0.3l-0.1-0.2l-0.1-0.2v-1.2v-0.2l-0.1-0.2l-0.2-0.3l-0.2-0.3l-0.3-0.4l-0.1-1.9l-0.3-1
	l-0.2-0.2l-0.4-0.2L188,486l-0.1-0.2v-0.2l0.6-1l0.1-0.2l0.2-0.4l0.1-0.4v-0.3l-0.3-1.4l0.9-0.7l0.1-0.2l0.1-0.3v-0.6l0.2-0.6
	l0.8-1.1l0.2-0.4l0.1-0.5l-0.1-0.2l-0.1-0.2l-0.7-0.3l-0.3-0.2l-0.2-0.3l-0.1-0.1l-0.1-0.3l-0.3-1.5l-0.1-0.3l-0.1-0.1l-0.2-0.3
	l-0.2-0.5l-0.1-0.1l-0.1-0.2l-0.1-0.3l-0.3-1.2v-0.1l-0.3-0.5l-0.2-0.3l-0.1-0.1l-0.3-0.6l-0.6-2.2l-0.2-0.8l0.1-0.1l0.2-0.3
	l0.3-0.3l0.4-0.7l0.1-0.4v-0.3l-0.5-1.2l-0.3-0.6l-0.2-0.8l-0.4-2.2l-0.5-1.5l-4.2-7.6l-0.3-2.3l-0.2-1.9l-0.2-0.5l-0.5-0.7
	l-0.2-0.2l-0.2-0.1l-0.8-0.3l-2-0.3h-1.9h-0.4l-0.8,0.1l-0.5,0.3l-1,1.1l-0.6,0.5l-1.9,0.7l-2.3,0.6l-1.1,0.6l-2,1.7l-0.4,0.3
	l-0.8,0.2l-1.3-0.1h-0.6l-1.3,0.4l-0.7,0.4l-1.8,1.6l-0.5,0.6l-0.5,2.2l-0.3,0.8l-0.3,0.2l-0.4,0.1l-0.4-0.1l-0.4-0.5l-1.2-2.4
	l-0.3-1.1l0.1-1.2l0.3-0.8l0.1-0.9v-0.6L153,446v-0.7l0.1-0.5l0.5-1l0.2-0.3l0.2-0.5l0.2-0.9v-0.5v-0.3l-0.1-0.3l-0.3-0.5l-1.2-1.1
	l-2.4-1.1h-0.1l-2.5,0.1l-1-0.2l-1.2-0.4L144,437l-1.3-1.2l0.1-0.6l-1.2-0.4l0.3-1l-0.2-2.3l-0.8-4.4v-2.3l0.2-1l0.3-1.2l0.5-1
	l0.7-0.5l0.5-0.5l0.3-0.2l0.4-0.1h0.2l0.2,0.1h2.3l3.2-1l0.5-0.3l0.2-1.3l0.6-1.1l1-0.8l1.3-0.2l0.4,0.1l0.6,0.5l0.4,0.1l2-0.3
	l1.1-0.3l0.8-0.8l1.6-2.1l3.2-2.7l0.7-0.9l0.1-0.2l0.2-0.2l0.2-0.2l0.3-0.2h0.5l0.4,0.1l0.4-0.1l0.4-0.7l0.4,0.1l-0.3-3.9l0.1-0.4
	l0.5-2.6l0.2-0.7l-2-0.7l-0.9-0.5l-1-1.1l-0.7-0.5l-0.1-0.7v-1.3l-0.1-0.7l-0.4-0.5l-0.8-0.6L161,393l-0.9-1.8l-1.4-1.6l-0.4-0.7
	l-1.2-0.4l-0.8-0.2l-1.6,0.3l-1.3,0.9l-6.4-0.2l-3.8-0.8l-2.2,0.2l-0.9,0.3l-2,0.2l-1.9,0.4h-0.7l-0.8-0.1l-0.9-0.3l-1.4-0.2
	l-0.9,0.1l-2.6,0.9l-1,0.5l-1.1,1.1l-0.3,0.1l-0.5,0.2l-0.8-0.1l-1-0.4l-1.3-0.7L122,390l-0.4-0.4l-0.2-0.6l1-8.7l-0.1-1.5l-0.2-1.1
	l-0.3-0.9l-0.4-0.4l-0.6-0.2l-0.6-0.4l-0.4-0.3l-0.8-1.6l-1-0.1L116.4,374.4z"/>
<path id="MM-07" class="st0" d="M72.1,787.8l0.3-1l-0.2-2.3l-0.3-0.7l-0.2,0.1l-0.1,0.6l-0.4,3.7L72.1,787.8z M87.2,747.7l0.6-1
	l0.4-0.9v-0.3l-1,0.5l-0.5,0.8l-0.3,0.8l-0.5,0.6l0.7,0.1L87.2,747.7z M141,700.7l0.7-1.9l0.9-1.5l0.2-0.7l-0.1-0.6l-0.5-1.3
	l-0.1-0.8l0,0l-0.2-0.7l-0.8,0.7l-1.3,1.9l-1,2.1l-0.7,1l-1,0.7v0.3l1.1,0.6l1.5,0.4L141,700.7z M121.8,698.6l1.1-1.5l0.4-0.8
	l-0.2-0.8l0.5-0.6l1.1-0.9l0.5-0.6v-0.3l-0.1-0.5v-0.4l0.3-0.3l0.7-0.5l2.7-0.9l0.8-0.4l0.5-0.4l2.4-3.1l1.2-2.4l0.6-2.5l-0.3-2.5
	l-0.9-1.2l-1.5,1.2l-3,3.7l-1.5,1.5l-0.4,0.7l-0.7,1.6l-0.5,0.8l-1.6,1.3l-1.7,0.8l-1.3,0.9l-0.4,1.6l1.3,3.2l0.4,1.8l-0.7,1.3v0.4
	h0.3V698.6z M160.2,565.8l-0.9-0.8l-0.8-0.9l-0.5-0.4h-0.3l-0.9,0.1l-1,0.6l-0.4,0.8v1.2l-0.4,1.3l-0.4,0.9l-1,0.9h-1.3l-1.3-0.6
	l-1.1-1.1l-1.2-0.9l-1.5-0.3l-1.2,0.3l-1.3,0.9l-1.5,1.3l-0.8,0.6l0,0l2.1,4.1l0.5,2.1l0.1,2.9l-0.9,4.1l0.1,5.3l-0.8,2.1v0.8
	l0.1,0.7l0.2,0.5l0.2,0.3l0.4,0.7l1.3,2.4v0.9l-0.1,0.9l-0.6,1.6l-0.3,2.7l-0.7,1.7l-2.5,2.9l-0.4,0.9l-0.1,0.9v1.5l-0.3,1.9
	l-0.1,3.9l-0.6,1.8l-1.6,3l-0.5,0.3l-0.4-0.1l-0.3-0.2l-0.7-0.7l-0.9-0.7l-0.8-0.2l-1.2-0.1l-1-0.5l-3.3-2.4l0,0l0,0l0.4,5.4
	l0.9,3.4l-0.5-0.6l-0.6-0.4l-0.6-0.3l-0.6-0.2v1.2l-0.6,0.3l-0.7,0.1l-0.3,0.7l-0.2,2.3l0.2,0.7l0.3,0.2l0.4,0.2l0.4,0.2l0.2,0.4
	l-0.1,0.5l-0.4,0.3l-0.4,0.2l-0.2,0.3l-0.4,0.2l-2.3-1l-0.5,0.5l-0.1,0.7l0.2,0.6l1.4,0.6l0.2,0.9l-0.2,0.9l-0.3,0.6l-0.8,1.2
	l-0.2,0.5l-0.1,0.5v3.5l-0.2,0.9l-0.5,0.8h1l-1.4,2l-0.6,0.5h-0.6l-0.6-0.2l-0.5-0.1l-0.4,0.3l-0.2,0.7l0.2,0.8l0.6,1.3l0.2,0.8
	l0.1,2.2l-0.2,0.6l-0.9,1l-0.2,0.7l-0.1,0.6l-0.4,1.4l-0.1,0.8v2.6l-0.5,0.9l-1.2,0.6v0.3l0.9,0.4l0.1,0.7l-0.4,1.5l-0.5,1h-1.1
	L115,663l-0.2,0.5l0.2,3.1l-0.7,4l-0.2,0.4l-0.6,0.7l-0.2,0.3l-0.1,0.6l0.1,3.8l-1.1,5.9l-0.3,5.8v0.8l0.2,0.7l1.2,2l0.6,0.4
	l0.7-0.3l1-1.1l0.7,0.4h1l0.9-0.3l0.4-0.6l0.2-1.4l0.5-0.8l0.7-0.3l1-0.1l1.5-0.8l1.3-1.6l2.5-4.3l0.3-0.8l0.2-1l0.1-1.2l-0.2-2
	l0.3-0.4l0.9,0.2l0.4,0.3l0.3,0.4l0.4,0.3l0.6,0.1l0.5-0.2l0.4-0.4l0.3-0.5l0.4-1.7l0.6-0.8l0.6-0.1l0.3,0.9l-1,2.1l-1.1,1.3
	l-0.5,0.8l0.1,0.4l1.1-0.3l1-0.9l0.8-1.2l0.3-1.3l0.3-0.7l1.1-1.3l0.3-0.8v-3l-0.7-4.5l0.3-1.1l0.3,1.1l0.7,0.1l1.7-0.8v0.7
	l-0.3,0.3l-0.4,0.1l-0.3,0.3l-0.2,0.7v0.6l0.8,4.8l0.5,0.6v0.3l-0.6-0.1l-0.5,0.1l-0.3,0.4l-1,3.1l-0.6,0.9l-0.4,0.9l0.2,0.9
	l0.7,1.6l0.1,2.2l-0.4,2.2l-0.8,2.1l-1,1.8l-2.6,2.5l-1.3,1.7l0.2,1.3l1.1,0.2l1.2-0.6l2.8-2.7l0.9-0.6l0.8-0.7l0.6-1.2l0.4-1
	l1.3-2.2l0.7-1.6l0.5-0.6l0.9-0.5v0.7l-0.4,0.4l-0.4,0.2l-0.2,0.2v1l-0.1,0.4l-0.2,0.5l-0.4,0.5l-0.4,0.4L138,687l-0.5,2.5l-1.4,1.8
	l-1.8,1.2l-1.8,1l-1.3,0.9l0.4,0.8l0.6,0.7l0.5,0.1l0.1-0.9l0.4,1.1l0.2,0.9l0.5,0.7l1.2,0.4l1-0.1l0.8-0.4l0.7-0.6l0.5-0.6l1.4-3.2
	l0.6-1l2.9-1.9l0.4-0.7l0.1-0.2l0.6-1.1l-0.1-0.2l-0.2-0.2l-0.1-0.3l-0.1-0.5l-0.5-1l-0.1-0.5v-2.2l0.3-1l0.5-0.4l0.1-0.3l1.2-1.6
	l0.5-0.2h1.1l0.9-0.4l1.2-0.2l0.2-0.3l0.1-0.3l0.6-0.7l0.2-0.3l-0.3,0.9l-0.6,0.9l-0.8,0.7l-0.9,0.3l-1.2,0.2l-0.8,0.4l-0.6,0.7
	l-0.9,1.5l-0.3,0.7v0.8l0.8,1.7l0.2,2.2l0.2,0.9l1.7-1.1l-0.2,1l-0.7,0.6l-0.9,0.3l-0.8,0.1l-0.5,0.3l-0.6,0.7l-0.5,0.8l-0.2,0.7
	l0.1,0.6l0.6,1.5l0.1,0.6l-0.1,1.6l0.2,1.2l0.5-0.2l0.9-1.2l0.3,0.2l0.3,0.4l0.2,0.5v0.4l-0.3,0.6l-0.5,0.3l-0.5,0.3l-0.5,0.3
	l-0.6,0.9l0.6,0.4l2.2,0.2l1.7,0.7l0.6,0.1l1.3-0.1l0.3-0.1l0.3-0.3l0.2-0.4l0.1-0.4l0.2-0.4l0.6-0.2l0.7-0.1l0.5-0.2l0.6-0.8
	l0.4-1.2l0.9-6.3v-1.4l-0.3-2.6l0.1-1.3l1.1-1l1.3-1.9l0.4-0.9h0.3l0.3,0.7l0.3,0.1l0.3-0.1h0.4l0.8-0.3h0.2l0.3,0.1l0.2,0.5
	l0.3,0.1h0.6l0.5,0.1l0.2,0.2l-0.4,0.3l-0.5,0.1l-1.6-0.1l-1.7,0.7l-1.4,1.7l-0.6,2.2l0.5,2.1l1-2.8l0.4,1.6l-1.1,5.7v2l0.5,1.9
	l0.9,1.4l1.4,0.6l1.9-0.4l0.6-1.2l-0.3-3.8l0.3-1.7l0.7-1.6l1.7-2.7l0.1,1.7l-0.6,1.5l-0.8,1.3l-0.4,1.1l0.6,1.3l1.1-0.4l1.1-1.4
	l0.7-2.2l1.5-1.9l0.2-0.6l0.1-2.3l-0.1-1l-0.7-1.5l-0.2-0.8l0.1-0.6l0.4-0.5l0.5-0.5l0.4-0.5h0.3l-0.2,1l-0.3,0.6l-0.2,0.6l0.2,1
	l0.7,1.6l0.2,0.8v1.1l-0.2,1.7l-0.5,1.7l-0.8,1.5l-1.2,1.1l0.2,0.8l-0.2,0.9l-0.5,0.7l-0.6,0.3l-0.4,0.4l0.3,5l0.3,0.6l0.8,0.2
	l3.1,0.4l1.1-0.1l0.9-0.3l0.8-0.5l1.4-1.4l3-2.2l6.9-7.4l1.1-2l0.2-0.6v-2.4l0.3-0.9l1.4-2.1l0.3-1.1l-0.4-4.9l0.5,0.5l0.3,0.9
	l0.2,1l0.1,0.8l0.5,0.7l1,0.2l1-0.2l1-1.6l3.5-3.5l-0.2,1.3l-0.2,0.4l1.2-0.1l0.7-0.7l0.6-0.9l0.9-0.7l-0.1,0.9l-0.3,0.6v0.4l1,0.1
	l0.9-0.3l1.9-1.7l2.4-2.7v-1.3L200,671l0,0l-0.5-0.2l-0.5-0.5l-0.3-0.1l-0.5-0.1h-2.5l-1-0.2l-0.3-0.1l-1-0.6l-0.8-0.9l-0.1-0.7
	l-0.1-0.3l-0.2-0.3l-0.8-0.4l-0.5-0.5l0.3-0.8l0.2-0.4l1.7-1.7l0.4-0.5l0.2-0.4l-0.1-0.3l-0.1-0.2l-0.3-0.5l0.1-2.1l-0.1-0.3
	l-0.2-0.5l-0.2-0.2l-0.5-1l0.7-0.4l0.5-0.6l0.7-1.7l0.3-2l-0.4-1.4l-0.8-1.4l-0.5-1.1v-1.2l0.4-0.9v-0.2h0.1l1-2l-0.2-1.4l-1-1.3
	l-1-1l-0.4-0.6l-0.1-0.4v-0.5v-0.4v-1l-0.4-0.7l-0.6-0.6l-0.8-1.3l-0.4-1l-0.4-0.6l-1.2-1.2l-1-0.7l-0.5-0.6l-0.3-0.5l-0.2-0.5
	l-0.3-0.3l-0.9-0.7l-0.7-3.4l-0.1-1.4l0.4-2.1l0.3-1l1.4-2.9l0.6-2.3l-2.6-4.1l-1-1.3l-1.1-0.8l-3.3-1.2l-0.8-0.4l-0.7-0.4l-0.9-0.2
	l-0.8-0.5l-0.7-0.6l-0.5-0.5l-0.9-1.6l-0.7-2.1l-0.4-2.3v-1l0.6-0.6l0.9-1l0.2-0.8v-2.1l0.2-1.3l0.1-0.2v-0.4l-0.2-0.3l-0.9-0.9
	l-1.2-1l0.5-2l-0.2-1.9l-1.9-5.3l-0.3-0.5l-0.2-0.5V579l-0.2-0.5l-0.2-0.5l-0.3-1.3l-0.2-0.6l-0.3-0.3l-0.8-0.5l-0.3-0.2l-2.1-2.5
	l-1.2-1l-0.2-0.5l-0.5-0.5l-0.6-0.8L160.2,565.8z"/>
<path id="MM-14" class="st0" d="M76,275.8l-0.9-0.1l-0.4-0.5l-0.2-0.7l-0.3-0.7l-1.6-1.6l-0.5-0.6l-1.4-2.2l-1-0.6l-1.3,0.5
	l-0.6,0.9l-0.3,1.2v0.3l-0.1,1l0.1,1.1l0.2,1l0.4,0.9l1.1,1.8l0.4,0.5l0.3,0.3l0.2,0.4l0.2,0.9v1.9l0.8,6.2l1.5,1.1l0.3,0.6l0.7,1
	l0.2,0.6l0.1,1.8l-1.6,10.3v1.5l0.3,3.1l0.1,0.6v0.5l-0.2,0.5l-1,1.4l-0.3,0.9l-0.1,0.9l0.2,2.3l-0.4,3.6v0.8l0.1,0.6v0.7l-2,4.1
	l-0.7,1l-0.9,0.8l-1.3,0.6l-1.3,0.1l-1-0.8l-0.7-1l-0.8-0.7l-1-0.2l-1.2,0.5l-0.6,1l-0.1,1.4l0.2,1.5l0.4,1.1l1,1.9l0.3,1.1l-0.1,1
	l-0.7,1.1l-1.8,2.1l-0.5,1.2l-0.2-0.1l-1.6,1.4l-0.4,4.2l0.2,1.1l0.4,1l1.1,2l0.3,1l-0.1,1.2l-0.5,2.1v1.2l0.5,1.7l0.4,0.9l1.7,1.9
	l0.6,2.2l0.4,6.2v0.5l-0.2,0.7l-0.4,0.2l-0.5,0.1l-1.1,0.5h-0.2l-0.1,0.1v0.6l0.9,1.6l-1.1,0.3l-0.7-0.3l-0.7-0.5l-0.9-0.3l-1.3-0.2
	h-0.5l-0.6,0.2l-0.1,0.3l0.1,0.4l-0.1,3.6l0.1,0.4l-0.9,0.4l-0.6,0.1l-0.5,0.4l-0.9,1.8l-0.1,0.7l0.1,0.7l0.3,0.7l0.1,0.4l0.1,0.4
	v0.4v0.4l-0.1,0.1l-0.1,0.1l-0.3,0.2h-0.3l-0.3-0.1l-0.3-0.3l-0.6-0.9l-0.8-0.5l-0.7,0.2l-0.4,1.2l-0.5,1.5l-0.6,0.5l-0.5-0.5
	l-0.2-1.5l-0.4-1.5l-0.9-1.2l-3.2-3l-3.1-2.3l-1.2-0.3l-0.5,0.4l-0.1,0.7l0.2,1.5v0.5l-0.2,0.1l-0.2-0.1h-0.1l-0.3,1v0.8l0.1,0.7
	v0.7l-0.4,0.7l-0.5,0.3l-0.6,0.1l-0.6,0.2l-0.6,0.7l-0.3,0.3l-0.3,0.3l-0.4,0.2L32,381l0.7,3.2l0.1,1.6l-0.9,8.1l0.7,12.5l0.1,1.3
	l0.5,2.6l1.8,5.3l0.1,0.5l1.4,0.6l2.5,4l3,3.4l1.2,1.8l0.4,1.1l0.4,0.9l0.7,1.1l1,0.9l0.7,0.3l0.6-0.1l0.6-0.4l1.1-1.3l0.6-0.4
	l0.6-0.1l0.9,0.1l8.5,1.8l0.5,0.5l0.3,0.8l0.6,5.3l0.4,0.9l0.4,0.7l2.3,1.5l0.4,1.8l0.2,0.4l0.5,0.6l0.8,0.7l7.3,5l3,1.4l1.3,0.1
	l1.3-0.4l1-0.1l0.9,0.2l1,0.5l0.8,0.1l0.6-0.1l1.1-0.9l0.6-0.4l1.1-0.4l0.4-0.4l0.2-0.5l-0.2-0.6l-0.7-1.4l-0.1-0.2l-0.2-0.4
	l-0.2-0.3l-0.1-0.3l-0.1-0.3v-0.7l0.2-3l0.3-0.7l0.3-0.6l1-0.7l1.7,0.2l0.5,0.3l0.7,0.6l0.7,1.1l0.7,1.3L91,442l0.2,0.4l0.3,1.1
	l0.2,0.8l0.2,0.6l0.3,0.3l1.4,0.1l0.8,0.2l0.7,0.5l1.2,1.2L97,448l3.6,2.4l0.8,0.1l1.4,0.1l4.2-1.1l1.1-0.5l0.4-0.5v-0.4l-0.1-0.3
	l-0.1-0.3l-1.4-1.8l-0.4-0.7l-0.3-0.8l-0.4-2.2l-0.4-1.2l-1.6-3.4l-0.1-0.5l0.3-2.1l3.1-5.7l0.3-1.1l0.1-1.3l-0.1-3.5l-0.2-1
	l-0.3-0.7l-0.7-0.6l-2-1.2l-1.2-1.2l1.5-2.9l0.9-6.1l2.4-5.4l0.2-0.9v-0.9l-0.2-0.7l-0.9-1.5l-2.3-3.9l-1.9-3.6l-0.7-1.8l-0.2-2
	l0.2-3.3l0.5-1.6l0.3-0.4l0.5-0.4l0.8-0.4l0.2-0.4v-0.4l-0.1-0.2l-0.4-1l-1.1-3.6l0.2-1.1l1-2.4l0.2-1.3v-1.1l-1.4-7.1v-1l0.2-0.7
	l1.1-1.8l0.2-0.8l-0.2-0.4l-0.4-0.2l-0.6-0.1l-0.1-0.4l0.5-1.3l0.1-0.7l-0.6-5.5l0.2-1.9l-0.1-0.9l-0.5-1.8L102,344l-0.6-3.5
	l0.3-1.5l0.2-0.4l0.4-1.9l-0.2-3.5l-0.3-0.8l-0.2-0.7l-0.3-0.6v-0.6l1.1-4.2l0.2-2.1v-1.1l-0.9-5.1l-0.2-2.8l0.1-0.6l0.6-2.5v-0.9
	l-0.5-1.9l0.5-0.4l1.2,0.1l0.4-0.2l0.2-0.4l0.2-4l-0.1-0.7l-0.4-1.3v-1.6l0.3-0.5l0.2-0.1h0.3l0.3,0.1l0,0l1.6,1l0.7,0.2h0.5
	l0.2-0.1l0.4-0.4l0.2-0.3l0.1-0.3v-0.1l0.4-3.9l0.3-1.5l0.6-5l-0.3-1.4l-0.9-2.1l-0.3-1l-0.3-3.5l-0.3-0.6l-0.6,0.7h-0.8l-0.7-0.8
	l-0.7-1l-0.8-0.6l-2.8-1.6l-1.1-0.2l-1.7-0.4l-1.4-0.5l-1.4-0.3l-3.9,0.5l-1-0.5l-1.9-2.7l-1.6-0.5l-2.5-0.3l-2.4,0.1l-1.2,0.7
	l-0.1,0.4l-0.2,0.4L81,275l-0.3,0.3l-0.5,0.1l-0.3-0.3l-0.3-0.4l-0.3-0.2l-0.8,0.3l-1.5,0.9L76,275.8z"/>
<path id="MM-16" class="st0" d="M86.2,543.3l-0.5-0.1l-0.5-0.1l-1.1-0.8l-1-1.1l-0.5,0.3l-0.5,0.8l-1.1,0.4l-4.6,0.4l0.4,1.3
	l0.2,0.4l4.7,5.7l1.2,1l0.6,0.6l0.2,0.6l0.5,0.4l1.1,0.2l1.2,0.1l0.9-0.1l1-0.7l0.7-1l0.5-1.2l0.1-1.2l-0.1-0.5l-0.4-1.2l-0.1-0.6
	v-0.6l0.3-1.5l-0.1-1.3l-0.3-0.4l-1.7,0.2L86.2,543.3z M92.1,511.2l-2.3-1.8l-0.3-0.4l-0.2-0.4l-0.2-0.4l-0.5-0.4l-0.4-0.1l-0.9-0.1
	l-0.4-0.1h-0.4l-1.9,2.4l0.3,0.5l0.1,0.4l-0.2,0.2l-0.5,0.1l0.8,1.8l0.5,0.6l0.7,0.5l1.6,0.5l0.7,0.4l0.4,0.8l-0.1,0.3h-0.2h-0.3
	l-0.1,0.2v0.3l0.1,0.2l0.1,0.1l0.1,0.1l0.1,0.6l0.5,0.6l0.1,0.5l0.2,0.6l1.2,1.8l0.6,0.6l0.6,0.4l0.3,0.1l1-0.1l1.1,0.1h0.6l0.4-0.2
	l0.1-0.4L95,521v-0.4l0.6-0.3l0.2,0.1l0.1,0.3L96,521l0.3,0.1l0.3-0.1l0.2-0.1l0.1-0.1l0.8-0.7l1.1-1.6l0.7-0.3l0.6-0.4l0.3-1
	l0.1-1.1l-0.1-0.7l-0.7-0.8l-1.9-1.1l-0.9-0.7l-0.9-0.6l-1.1-0.2l-1.1,0.2l-0.8,0.4L92.1,511.2z M78.1,497l-0.1-0.8l-0.6-1.6
	l-0.2-0.9l0.2-2.4l-0.3-0.8l-0.7-0.5l-0.7-0.4l-0.3-0.4l-0.1-0.3l-0.4-0.5l-0.5-0.5l-1-0.7l-0.9-0.1l0.2,1.7l1.7,5.7l0.8,1.2
	l2.7,2.2L78.1,497z M54,493.6l-0.1-2.2l-0.4-1.8l-2.3-6.1l-0.2-0.8l-0.1-0.5l-0.2-0.5l-0.3-0.4l-0.3-0.4l-0.8-0.6L49,480l-0.3-0.1
	l-0.2,0.2l-0.2,0.5v0.5l0.2,0.3l0.3,0.2L49,482l0.2,0.9l3,5.7l0.7,1l0.4,0.9l0.2,2.3l0.3,1H54V493.6z M22.1,410.4l-0.2-0.9l-0.6-0.9
	l-1.6-0.5l-1.9,2.3h-1.5l-0.8,0.1l-0.5,1l-0.7,2.2l-1.4,2l-0.3,0.9v1l0.3,2.1l-0.1,1l-0.3,1.6l-0.2,0.8l0.3,0.9l0.4,0.7l1.1,1.1
	l0.3,0.8l0.3,0.8l2,1.7l0.3,0.6l0.5,4.7l0.3,0.8l0.8,1.4l2.7,7.9L22,447l0.5,1.1l0.8,0.5l0.5,0.2l1,0.7l0.5,0.2l0.7,0.1l0.3,0.3
	l0.2,0.5l0.4,0.6l1.8,1.8l0.6,1l0.4,2.4l0.5,0.8l4.5,4.2l1,1.5l2.2,5.7l0.4,0.8l0.9,1.1l0.4,0.6L40,470l-0.4-5.4l0.4-2.4v-0.9
	l-1-2.9l-0.4-4.1l-0.2-0.5l-2.2-3.3l-1.2-2.4l1.4,1l1.8,3.1l1,1.4l0.8,1.5l0.3,1.8l0.5,1.6l1.4,1.1h-0.3L41,460l0.5,0.9l0.8-0.4
	l0.6-1.1l-0.2-1.2l1.1,0.1l0.6,0.5l0.2,0.8l0.4,4.6l0.3,0.7l0.5,0.5l1.2,1l0.3,0.5l0.1,0.3l0.2,0.2l0.6,0.1h1l0.4,0.1l0.4,0.2
	l-2,0.7l-1.8,0.4l-3.2,2.2l-0.6,0.7l-0.4,0.7l-0.2,0.8l-0.1,0.8l0.5,0.6l3.1,2.4l0.4,0.6L46,478l0.4,0.2l0.6-0.1l0.4-0.2l0.3-0.3
	l0.2-0.1l1.8-4l2.9-3.9l1-2l0.4-2.3l-0.2-2.9l0.1-1.5l0.6-1.2l0.7-0.9l0.6-1.1l0.4-1.2l0.2-1l0.6,1.1l-0.7,1.9l-1.9,3.4l-0.1,1.1
	l0.2,1.3l0.4,1l0.8,0.1l0.6-0.8l0.5-2.1l0.9-0.7l-0.4,2.6l-0.5,1.2l-1.2,0.5l-0.7,0.9l-1.1,3.9l-0.9,0.9l-0.7,2.7l0.1,1.7l1.4,0.3
	l1.4-0.9l2-2.2l1.6-0.4v0.3l-0.3,0.5l-1,2.7H57v-0.4l-0.1-0.2l-0.1-0.2l-0.1-0.3l-0.7,1.2l-0.5,0.6l-0.6,0.3l-2.6,0.2l-0.9-0.2
	l0.2,0.6l0.1,1.5l0.2,0.5l0.5,0.5l1,1.4l1.3,1.4l0.5,0.9l0.2,1.4l0.3,0.9l2.6,4l0.6,1.4l0.5,0.7l0.2,0.1l0.5,0.1l1,1.1v-0.1
	l-0.5-0.7l-0.2-0.2l-0.2-0.1l-0.2-0.1l-0.6-0.8l-0.2-0.7l-0.3-1.6l-0.9-1.9l-0.2-1.7l0.3-1.5l1.1-0.7l0.8,0.6l0.6,1.5l0.8,2.6
	l1.2,2.8l0.8,1.3l1,0.8l-0.1-1.4l-2.9-5.7l-1-3.6l-0.9-1.7l-0.3-0.8l-0.1-1l0.4,0.7l0.5,1l0.7,0.5l0.7,0.4l0.7-0.6l1.2,0.3l1.4,0.5
	l1.4,0.1l1.1-0.3l0.9-0.6l0.7-0.8l0.4-1.1h0.3l0.7,3.3l0.3,0.6L71,483l0.1-1v-2h0.4l0.1,1.3l1,2.7l0.3,1.3l0.2,0.6l0.5,0.6l0.6,0.5
	l0.6,0.2l0.5-0.1l0.3-0.4l0.4-1.2l0.2,0.3l0.6,0.5l0.2,0.3l0.2-0.6l0.4-0.5l0.5-0.4l0.6-0.3l0.2,0.4l0.1,0.4l-0.7,0.2l-0.2,0.6
	l0.2,0.6l0.7,0.4l-0.7,0.6l0.5,0.5l1.8,0.7l-0.3,0.2l-0.4,0.4l-0.2,0.1l0.4,0.5l0.6,0.4l0.7,0.2l0.6-0.1l0.3-0.3l0.4-0.9l0.1-0.2
	h0.9h0.4l0.4-0.2l0.5-0.1h2.5l0.2-0.2v-0.7l0.3-0.2l0.4,0.1l0.4,0.2l0.3,0.4l0.3,0.4l-0.7,0.1l-0.2,0.5l0.2,0.6l0.5,0.6l-1.7-0.1
	l-1.2,0.1l-0.9,0.6l-2.7,3.9l-0.2,0.7v3.4l0.7-0.3l0.4-0.5l0.6-1.3v1.3l0.6,0.5H87l0.4-0.5l0.3-1l0.6-0.8l1.5,0.2l-0.5,0.6l-1.1,0.5
	l-0.4,0.6l-0.1,0.9l0.2,0.8L88,501l0.5,0.4l1.5,0.1l1.1-0.8l0.7-1.4l0.4-1.5l0.3,0.3l0.7,1.1l-0.6,0.8l-0.7,0.8l-0.4,0.8l0.3,0.9
	l-1-0.3l-1.1,0.1l-0.9,0.5l-0.4,1l0.4,0.8l1.8,0.7l0.4,0.6l0.4,1l1,0.9l2,1.4l1.3,1.3l0.5,0.2h1.2l0.5,0.1l0.5,0.3l-0.9,0.4
	l-0.2,0.6l0.5,0.5l1.1,0.2l1.5-0.3h0.3l0.3,0.4v0.4l-0.3,0.6l0.2,1.7v0.9l-0.3,0.7l-0.8,1.3l-0.1,0.1l-0.4,0.1l-0.1,0.1l-0.1,0.2
	l0.1,0.6v0.2l-1,1.1l-3.1,2.4l-1.5,0.8l-1.8,0.2l-2.1-0.6l-1.6-1.1l-0.3-1.3l-1.5-0.2l-1.1-0.5l-2.2-1.5l0.8-0.8l-0.3-1.2l-1-1.6H81
	l-0.4-0.2l-0.2-0.4l-0.2-0.5l-0.4-0.4l-1.1-0.1l-1.1,0.5l-0.8,0.8l-0.3,0.8v2.2l0.2,0.9l0.5,1l2.9,3.9l0.5,0.4l1.3,2.8l0.7,0.7
	l1.7,1.5l0.3,0.8l0.1,0.5l0.2,0.6l0.3,0.6l0.3,0.4l0.2,0.5l-0.2,1.2l0.1,0.6l0.5,0.7l0.3,0.1l0.4-0.1l0.5,0.1l0.5,0.4l0.3,0.5
	l0.3,0.5l0.4,0.5l0.8,0.6l2.1,0.8l1,0.5l2.5,2.5l2,0.7l0.6,0.7l0.5,0.5l0.7-0.5l-0.1-0.1l-0.1-0.3l-0.1-0.4V542l0.1-0.1l0.4-0.2
	l0.1-0.1l1.2-1.4l0.2-0.6l0.1-0.4l0.2-0.8v-0.6l-0.2-0.7L100,536l-0.3-0.6l-0.3-1l-0.1-3.4l0.1-0.6l0.2-0.4v-0.4l-0.4-0.6l-1.6-1.6
	l-0.2-0.4v-0.7l0.3-0.7l0.5-0.3l0.6,0.3l0.2,0.5l0.1,1.3l0.2,0.5l1.3,0.7l1-0.7l0.8-1.1l0.6-0.6l0.5-0.7v-1.6l-0.4-2.7l0.3-1.5
	l1.3-2.5l0.5-1.3l0.3,0.8l-0.2,1.2l-0.5,1.1l-0.5,0.5l-0.2,0.8l0.4,4.3l-0.1,0.7l-0.6,1.4l-0.2,0.6v0.8l0.3,1.1l0.1,0.5l-0.2,0.8
	l-0.3,0.5l0.1,0.4l0.8,0.4h0.5l1.1-0.3h0.7l-0.4,0.4l-1.3,0.9l0.1,0.3l0.1,0.4l0.1,0.3l-0.1,0.1l-0.5,0.9l-0.1,0.4l-0.5,0.9
	l-0.1,0.7l0.1,0.7l0.6,1.8l-0.8,1l-0.2,1.5l0.3,1.5l0.7,0.9l0.2-0.1l0.5-0.2l0.6,0.8l1,0.6l1,0.3l0.8-0.2l-0.1-0.6V544l0.2-0.7
	l0.5-0.4l-0.1,1.5l0.3,1l1.5,1.8l1.4,2.3l0.8,0.3l1.2-0.9l0.6,0.3l0.8,0.4l-3.3,0.7h-1.8l-0.9-0.7H109v0.4l4.9,4.8l0.2,0.6l0.5,4.3
	l-0.2,0.5l-0.7-0.2l0.7,1.6l1,1.5l2.5,2.8l0.4,0.8l0.2,1l0.3,0.8l0.7,0.3l1.2,0.3l0.5,0.7l0.3,0.9l0.6,0.8l-0.4,0.3l-0.6,0.9
	l-0.4,0.3h-0.5l-0.6-0.6l-0.8,0.3l-0.5-0.7l-0.4,0.1l-0.1,0.4l-0.1,0.7v0.7l0.1,0.5l0.7,0.6l0.9,0.1l2.2-0.3l0.8,0.5l0.4,1l0.3,2
	l0.2,0.3l0.6,0.6l0.3,0.5l0.1,0.6v0.6l0.1,0.6l0.9,1.4l0.5,1.1l0.2,1.2l-0.1,1.2l-0.5,0.6l-1.5,0.7l-0.3,0.7l0.1,0.8l1.8,3.6
	l0.3,1.3l0.1,3l0.5,1.6l2.1,2l0.5,1.1l0.2,2.3l0.3,1.1l0.5,1l0.8,0.8l0.3,0.6l-0.2,0.6v0.6l0.9,1.7l0.3,0.7l-0.9-0.6l-1-0.9
	l-0.8-0.3l-0.3,1.3v0.7l0.1,0.3l0.2,0.3l0.4,0.7l0.2,0.7v0.6l-0.2,0.9l0.1,0.7l0,0l3.3,2.4l1,0.5l1.2,0.1l0.8,0.2l0.9,0.7l0.7,0.7
	l0.3,0.2l0.4,0.1l0.5-0.3l1.6-3l0.6-1.8l0.1-3.9l0.3-1.9v-1.5l0.1-0.9l0.4-0.9l2.5-2.9l0.7-1.7l0.3-2.7l0.6-1.6l0.1-0.9v-0.9
	l-1.3-2.4l-0.4-0.7l-0.2-0.3l-0.2-0.5l-0.1-0.7v-0.8l0.8-2.1l-0.1-5.3l0.9-4.1l-0.1-2.9l-0.5-2.1l-2.1-4.1l0,0l-0.8-0.8l-0.6-0.8
	l-2.2-4v-0.4V563l0.2-1.2l0.2-0.7l0.1-0.8l-0.1-0.9l-1.3-2.7l-0.1-0.9l0.6-1.1l1.5-1.5l0.2-0.6V552l-1-1.6l-2.1-2l-0.2-0.3L137,548
	v-0.4l0.1-0.4l0.6-0.3l1.6-0.2l0.8-0.3l0.6-0.4l0.3-0.5v-0.7l-0.4-1.1l-0.3-0.6l-2.1-2.8h-0.6l-0.8-1l-1.8-4.2l-2.3-2.6l-1.6-0.9
	l-0.8-0.1l-0.6-0.2l-0.6-0.8l-0.5-1.3l-0.8-3l0.1-1.2l0.4-0.6h0.5l0.3-0.1l0.1-0.5l-0.3-0.9l-1.2-2.2l-4.5-6.6l-0.5-1l-1-5.6
	l-1.9-8.9l-2-4.5l-0.1-0.7v-0.8l0.3-1.4l0.5-1.6l0.1-0.7l-0.1-0.7l-0.4-0.9l-0.8-1.1l-1.5-1.5l-0.1-0.1l-0.9-0.8l-0.3-0.8l-0.3-0.8
	l0.2-3.3L112,476l-0.7-1.3l-1.2-3.5l-0.7-1.5l-6.3-10.7l-0.2-0.5l-0.6-0.9l-0.6-0.7l-0.8-0.7l-0.8-0.4l-2-0.4l-0.6-0.3l-0.5-0.9
	v-6.3l-0.5-0.8l-1.2-1.2l-0.7-0.5l-0.8-0.2l-1.4-0.1l-0.3-0.3l-0.2-0.6l-0.2-0.8l-0.3-1.1L91,442l-0.1-0.3l-0.7-1.3l-0.7-1.1
	l-0.7-0.6l-0.5-0.3l-1.7-0.2l-1,0.7l-0.3,0.6l-0.3,0.7l-0.2,3v0.7l0.1,0.3l0.1,0.3l0.2,0.3l0.2,0.4l0.1,0.2l0.7,1.4l0.2,0.6
	l-0.2,0.5l-0.4,0.4l-1.1,0.4l-0.6,0.4L83,450l-0.6,0.1l-0.8-0.1l-1-0.5l-0.9-0.2l-1,0.1l-1.3,0.4l-1.3-0.1l-3-1.4l-7.3-4.8l-0.8-0.7
	l-0.5-0.6l-0.2-0.4l-0.4-1.8l-2.3-1.5l-0.4-0.7l-0.4-0.9l-0.6-5.3l-0.3-0.8l-0.5-0.5l-8.5-1.8l-0.9-0.1l-0.6,0.1l-0.6,0.4l-1.1,1.3
	l-0.6,0.4l-0.6,0.1l-0.7-0.3l-1-0.9l-0.7-1.1l-0.4-0.9l-0.4-1.1l-1.2-1.8l-3-3.4l-2.5-4l-1.4-0.6l0.1,0.5l-0.4,0.8l-1,1l-1.1,0.7
	l-1,0.1l-0.6-0.7l-0.3-1.1l-0.4-2.1l-1-2.1l-1.3-0.3l-1.6,0.4l-2.1-0.2l-1.1-0.4l-0.5-0.3l-0.4-0.4l-0.3-0.9L22.1,410.4z"/>
<path id="MM-15" class="st0" d="M281.2,714.9l0.2-0.8v-0.8l-0.4-0.8l-0.1-0.4l-0.1-0.3l-0.2-0.3l-0.3-0.3l0.3,3.5l0.3,1L281.2,714.9
	z M276.4,679l-0.2-1.6l0.2-1.8l-0.1-0.4l0.1-0.7l0.3-0.5l0.3-0.4l0.3-0.6l0.1-1.1l-0.1-2v-0.8l1-1.6v-0.9l-0.2-1l-1-0.1l-1.1-0.3
	l-2-0.9l-0.8,0.1l-0.9,0.4l-0.8,0.5L271,666l0.3,0.5l-0.2,0.3l-0.3,0.2l-0.2,0.3l0.1,0.6l0.3,0.6l0.6,0.9l0.4,1l0.2,1.3L272,673
	l-0.7,0.5l-0.5,1.6l2,1.6l0.6,0.8l0.3,2.3l1.5,0.5L276.4,679z M286.7,663.9l-1.6-1.6l-0.5-0.4l0,0l-1.8,0.4l-1.4,1l-1.1,1.3
	l-0.7,1.5l-0.5,2l-0.2,2.2l0.2,2.2l0.5,2l0.5,1l0.2,0.5v0.6l-0.1,0.6l-0.5,1.1l-0.9,5.7l-0.4,0.9l-0.6,0.8l-0.7,0.3l-0.4,0.1
	l-0.3,0.2l-0.1,0.4v0.5l0.3,2v0.2l0.3,0.4l1.3,1.3l1.3,1.8l2.6,1.9l1,1.3l-0.3,1.4l0.7,0.2l0.3,0.7v3.3l-0.1,0.3l-0.5,0.4l-0.1,0.3
	l0.2,0.4l0.7,0.8l0.2,0.4l-0.1,0.4l-0.2,0.4l-0.1,0.4l0.2,0.5l0.4,0.6l0.3,0.8v0.7l-0.2,0.5l0.2,0.3l0.1,0.4v0.4l-0.2,0.4v0.3
	l1.2,3.1l0.3,0.6l-0.6,1.4v0.7l1.2,3.6l0.4,0.6l-1,0.7l-0.4,0.2l-0.3-0.2l-0.5,1.7l-0.5,0.1l-0.3,0.2l-0.2,0.3l-0.1,0.5l0.6,0.5
	l0.2,0.6l-0.1,1.3v0.8l0.1,0.4l1.3,2.2l0.5,0.6l0.7,0.1h1.4l-0.6,0.9l-0.2,0.8l0.2,4l-0.2,1l-0.6,0.8l0.2,0.4l0.3,0.7l0.2,0.4
	l-0.6-0.1l-0.5,0.1l-0.4,0.2L286,740l0.8,0.4l0.6,0.5l0.4,0.8l0.1,1.2l-0.1,0.4l-0.5,0.7l-0.1,0.6v1.2l-0.1,0.5l-0.3,0.5l0,0
	l0.1-0.1l1.2-0.8l0.7-0.8l1-1.6l0.8-1.7l0.4-1.1l0.3-1.3l0.3-1.9l0.2-0.4l0.3-0.3l1-0.1h0.6l1.7-0.2l0.9-0.2l1.3-0.5l0.4-0.1
	l0.4,0.1l0.4,0.5l1.9,3.2l0.6,0.7l0.5,0.5l0.2,0.1l0.3,0.1l0.6,0.2l0.9,0.1l2.6-0.1v-0.4l0.2-0.5l0.3-0.4l0.2-0.5l-0.3-1.1l0,0
	l-1.5-1.6l0,0l-0.4-1.2l0.2-1l1-1.8l0.2-0.9L306,731l-0.3-0.8l0,0v-0.6l1.5,0.1l0,0l0,0v-0.5l0.1-1.1l-0.1-0.6l-0.5-1.3l-0.3-0.7
	l-0.2-0.2l-1-0.7l-0.2-0.1l-0.3-0.3l-0.4-0.5l-0.9-1.2l-0.4-0.8l-0.4-0.9L302,720l-0.2-0.3l-0.5-0.4l-0.2-0.3l-1.6-3.4l-0.1-0.2
	l-0.8-0.7l-0.4-0.6l-0.2-0.5l-0.4-1l-0.1-0.2l-0.1-0.2l-0.1-0.1l-0.5-0.5l-0.5-0.4l-0.9-0.7l-0.2-0.2l-0.1-0.2v-0.7V709l-0.1-0.2
	l-0.1-0.2l-0.1-0.1l-0.1-0.1l-0.4-0.1h-0.2l-1.1-1l-1.4-0.4l-0.3-0.5l-0.1-0.4v-0.3v-0.2l0.1-0.3l0.1-0.4l0.1-0.2l0.1-0.1l0.3-0.2
	l0.1-0.1l0.1-0.3v-0.2l-0.1-0.2l-0.4-0.6l-0.1-0.3v-0.4v-0.3l-0.1-0.3l-0.3-0.6v-0.3v-0.3v-0.2l-0.1-0.3l-0.6-1.4l-0.4-0.7l-0.1-0.5
	l-0.2-1.7v-0.9l0.1-0.2l0.1-0.3l0.1-0.4l-0.1-1.7v-0.2l0.1-0.2l0.1-0.1l0.1-0.1l0.1-0.1l0.1-0.2V691v-0.7v-0.2l0.1-0.1l0.1-0.1
	l0.1-0.1l0.1-0.1l0.1-0.2l0.1-0.2l0.1-0.5v-0.3v-0.2l-0.1-0.2l-0.4-0.6l-0.1-1l-0.2-0.4l-1-1.6l-0.2-0.4l0.1-0.5l2.1-0.3h2.7h0.4
	l0.2-0.1l1.5-0.4l2-0.1l0.4,0.1l0.9,0.7l0.2,0.1l0.2,0.1l0.4,0.1l0.2,0.1l0.5,0.2l0.5,0.2h0.3l0.2-0.1l0.2-0.3l0.1-0.3l0.1-0.1
	l0.1-0.1l0.2-0.1l0.4-0.1l0.2-0.1l0.6-0.4l0.6-0.3l0.2-0.2l0.1-0.2l-0.1-1v-0.1l-0.1-0.1l-0.1-0.1l-0.7-0.5l-0.7-0.7l-0.1-0.1
	l-0.1-0.2l-0.1-0.3l-0.1-0.1l-0.1-0.1l-0.1-0.1l-0.2-0.1l-0.1-0.1v-0.2l0.1-0.3v-0.3v-0.2l-0.1-0.4l-0.1-0.2l-0.1-0.2l-0.1-0.1
	l-0.1-0.1l-0.1-0.1l-0.3-0.2l-0.1-0.1l-0.1-0.1l-0.6-1l-0.5-0.5l-0.1-0.1l-0.5-0.2L299,674l-0.2-0.1l-0.2-0.1l-0.1-0.1l-0.1-0.1
	l-0.1-0.1l-0.1-0.2l-0.1-0.4l-0.2-1.8l-0.3-1.1l-0.1-0.6l-0.1-0.3l-0.1-0.1l-0.1-0.1H297l-0.5,0.2h-0.2h-0.2l-1.3-0.1l-0.4-0.1
	l-0.2-0.1l-0.1-0.1l-0.1-0.1l-0.1-0.1l-0.1-0.1l-0.1-0.2l-0.3-0.9l-0.1-0.2l-0.2-0.3l-0.1-0.1l-0.3-0.2l-0.3-0.2l-0.2-0.1l-0.9-0.3
	l-0.2-0.1l-0.1-0.1l-0.1-0.1l-0.1-0.2l-0.1-0.4l-0.1-0.2l-0.2-0.6l0.2-1.2l-0.5-0.1l-1.9,0.9l-0.6,0.1h-0.4L286.7,663.9z M269,603.2
	l-0.1-0.2l-0.1-0.1h-0.1l-0.1,0.1l-0.2,0.3l-0.1,0.1h-0.2h-0.2l-0.1-0.1l-0.2-0.1l-0.2-0.1h-0.2l-0.2,0.1l-0.1,0.1l-0.1,0.2v0.2v0.2
	l0.1,0.6v0.2l-0.1,0.1l-0.3,0.2l-0.2,0.2l-0.2,0.2l-0.7,1.2l-0.1,0.2v0.2v0.2v0.2v0.2L265,608l-0.4,0.9l-0.2,0.2h-0.2l-1.2-0.5
	l-0.2-0.1h-0.3l-0.2,0.1l-0.7,0.9l-0.5,0.3l-0.2,0.2l-0.1,0.2l-0.1,0.2v0.2v0.5l-0.1,0.3l-0.1,0.1h-0.2l-0.4-0.1l-0.2,0.6l-0.6,0.6
	l-0.8,0.6l-2.8,1.3l-1,0.2l-0.1-0.1l-0.2-0.1l-0.2-0.7v-0.1l-0.1-0.2v-0.2v-0.6l-0.2-0.6l-0.3-0.4l-0.7-0.6l-0.4-0.2l-0.3-0.1
	l-0.5-0.1l-0.9-0.3l-0.3-0.2l-0.2-0.2l-1.1-1.5l-0.3-0.3l-0.2-0.1h-0.1l-0.6-0.1l-0.7-0.3l-0.4-0.1h-0.3l-0.2,0.1l-0.1,0.1l-0.1,0.1
	l-0.2,0.1h-0.2H245l-0.5-0.1h-0.2l-0.4,0.1l-0.4,0.2l-0.4,0.2l-0.3,1.7v5.7l0,0l0,0l0.3,0.7l-0.1,1.7l0.1,0.9l0.3,0.5l0.4,0.5
	l5.3,3.9l-0.3,1.1l0.8,0.5l1.2,0.3l1,0.5l0.5,1l0.2,1.1l0.3,0.8l1,0.2v0.3l-0.7,0.9l0.2,1.6l0.7,1.7l0.8,1.1l0.6-1l0.3-0.9l0.5-0.6
	l1.2-0.2l1,0.1l1,0.3l1.9,0.9l-1.3,0.6l-1.5-0.6l-1.4-0.3l-0.8,1.3l0.1,0.7l0.3,0.7l0.4,0.6l0.3,0.4l0.8,0.8l0.2,0.4v0.8l-0.6,2.6
	l-0.2,1.3l0.4,1l0.5-0.3l0.4-0.1l0.4,0.3l-0.7,1.4l-0.1,0.8v0.7l0.2,0.6l0.5,0.4l0.1-0.7l0.2-0.6l0.4-1.1h0.4l-0.3,1.3v0.5l0.1,0.5
	l0.4,0.6l-0.7,1.1v1.4l0.5,1.9l0.7,1.7l1.5,2l1.2,0.3l0.9-1.4l0.4,1.2v1.2l1.6,7.6l0.8-1l0.8-0.7l1-0.3l1.4-0.1l0.3,0.1l0.6,0.2h0.3
	l0.4-0.1l0.3-0.2l0.2-0.2l0.3-0.2l1.1-0.2l1.2-0.1l3.2,0.4l0.9-0.1l1.1-0.4l2.5-1.7l-0.1-1.1l-0.1-0.2l-0.2-0.2h-0.1h-0.1l-0.5,0.1
	h-0.2h-0.3l-0.5-0.1l-0.2-0.2l-0.2-0.2l-0.7-0.9v-0.2l0.1-0.3v-0.2l-0.1-0.4l-0.1-0.2l-0.2-0.1l-0.9-0.3l-0.9-1l-1.6-2l-0.3-0.4
	l-0.1-0.4l-0.1-0.8l-0.1-0.7l0.1-0.6v-0.7l-0.8-1l-0.1-0.2v-0.3l0.1-0.2v-0.4l-0.1-0.2l-0.1-0.2l-0.5-0.4l-0.3-0.3l-0.2-0.5
	l-0.2-0.3l-0.4-0.4l-0.1-0.3v-0.2l0.1-0.4v-0.2l-0.1-1l0.1-0.6v-0.4v-0.2l-0.1-0.1l-1-1.2l-0.1-0.3l-0.1-0.2l-0.2-1.7V638l0.1-0.3
	h0.2h0.2h0.2l0.1-0.1l0.1-0.1l0.1-0.2l0.1-0.2l0.1-0.4l-0.1-0.3l-0.1-0.3l-0.2-0.4v-0.2v-0.2l0.1-0.1l0.3-0.1l0.2-0.1l0.1-0.1
	l0.2-0.3v-0.3l0.1-0.2l0.1-0.2l0.2-0.1l0.2-0.1l0.2-0.1l0.4-0.7l0.1-0.3v-0.2l-0.1-0.2l-0.3-0.4l-0.8-2.2l0.6-0.8v-0.5l-0.1-0.6
	l-0.2-0.6l-0.1-0.2l-0.4-1.3v-0.4v-0.3l0.1-0.1l0.3-0.3l0.2-0.2l0.2-0.4v-0.3l-0.1-0.3l-0.4-0.8l-0.1-0.2l-0.1-0.1l-0.1-0.1
	l-0.3-0.2l-0.1-0.1l-0.2-0.3l-0.5-1.1l-0.2-0.3l-0.1-0.1l-0.2-0.3l-0.5-1.8l-0.2-1.1l-0.2-0.6l-0.1-0.3l-0.2-0.3l-0.1-0.2v-0.2
	l0.6-2.9v-0.2l-0.1-0.2l-0.1-0.1l-0.4-0.3l-0.3-0.2l-0.5-0.2l-0.1-0.1l-0.5-0.5l-0.2-0.2l-0.2-0.3l-1.1-2.7l-0.1-0.4v-0.3v-0.2
	l0.3-1.1l0.2-0.3l1-0.8l0.3-0.4v-0.2v-0.2L269,603.2z"/>
<path id="MM-06" class="st0" d="M221.3,640.1l-2.4-0.2l-0.2-1.3l0.3-2.3v-0.7l-0.4-1.9l-0.6-1.2l-1-1.5l-0.7-0.9l-0.4-0.6l-0.3-0.7
	l-1.7-7.6l-0.4-0.8l-8.9-15.4l-1.5-3.7l-0.3-0.5l-0.3-0.2l-0.4-0.2l-0.6,0.2l-0.6,0.5l-1.3,1.5l-0.6,1l-0.6,0.5l-0.8,0.6l-2.8,1.6
	l-0.6,0.7l-1.2,2.3l-0.8,1l-1.6,1.3l-1.1,0.6l-0.9,1l-1.3,2.6l-0.6,2.3l-1.4,2.9l-0.3,1l-0.4,2.1l0.1,1.4l0.7,3.4l0.9,0.7l0.3,0.3
	l0.2,0.5l0.3,0.5l0.5,0.6l1,0.7l1.2,1.2l0.4,0.6l0.4,1l0.8,1.3l0.6,0.6l0.4,0.7v1v0.4v0.5l0.1,0.4l0.4,0.6l1,1l1,1.3l0.2,1.4l-1,2
	H194v0.2l-0.4,0.9v1.2l0.5,1.1l0.8,1.4l0.4,1.4l-0.3,2l-0.7,1.7l-0.5,0.6l-0.7,0.4l0.5,1l0.2,0.2l0.2,0.5l0.1,0.3l-0.1,2.1l0.3,0.5
	l0.1,0.2l0.1,0.3l-0.2,0.4l-0.4,0.5l-1.7,1.7l-0.2,0.4l-0.3,0.8l0.5,0.5l0.8,0.4l0.2,0.3l0.1,0.3l0.1,0.7l0.8,0.9l1,0.6l0.3,0.1
	l1,0.2h2.5l0.5,0.1l0.3,0.1l0.5,0.5l0.5,0.2l0,0l-0.5-0.5l3.5,1.4l0.5,0.6l0.4,1.1l1,0.3l1.2-0.2l1-0.4l2.8-0.6l3.1-1.1l0.9-2.1
	l0.8-0.5l0.7-1.2l-0.4-0.7l-0.8-0.6l-0.8-1.4l-2.4-3.2L211,661l-0.1-0.6l0.1-0.5l0.5-1.1l0.1-0.6l-0.3-1l-1.3-1.5l-0.5-0.9l-0.3-1.9
	l-0.2-0.5l-0.8-1l-0.3-0.5l1.7-0.3l2.5-2l1.4,0.1l-0.6,0.5l-2,1.3l-0.4,0.8v1.1l0.1,1.1l0.3,1.1l1,2.1l0.3,0.8l0.2,1v1.3l0.4,0.8
	l0.8,0.8l3.3,2.5l1,0.5l1.1,0.2l1.8,1.3l3-0.3l3-0.6l2.8-1.1l1.2-1.4l1.9-1.5l0.9-2.8l0.9-1.4l0.5-0.6l2-1.4l0.8-0.8l0.9-1.3
	l-0.5-0.5l-0.1-0.4l0.3-0.3l0.7-0.1l0.7-1.8l0.3-1.2l0.7-1.2l0.1-0.8l-0.2-0.7l-0.5-0.6L240,645l-0.7-0.3l-1.8-1.6l-1.6-1.8
	l-0.4-0.3l-0.4-0.2l-0.6-0.2l-2.6-0.5l-4.2-0.4L221.3,640.1z"/>
<path id="MM-02" class="st0" d="M213.4,512.1h-0.3l-0.3-0.1l-0.8-0.2l-2.8-0.1l-0.4-0.1l-0.3-0.2h-0.2l-0.1,0.1l-0.1,0.2L208,512
	l-0.1,0.2l-0.1,0.3l-0.1,0.6l-0.1,0.2l-0.2,0.2l-0.8,0.4l-0.1,0.1l-0.5,0.5l-0.4,0.3l-0.3,0.1h-0.2l-0.6-0.2l-0.1-0.1l-0.2-0.2
	l-0.1-0.1l-0.3-0.2l-0.3-0.2l-0.2-0.2l-0.1-0.1l-0.1-0.1l-0.3-0.1l-2-0.3l-0.5-0.2l-0.4-0.2l-0.4-0.3l-0.2-0.1l-0.7-0.3l-0.2-0.1
	l-0.5-0.2l-0.5-0.1h-0.3h-0.3l-0.3,0.1l-1,0.1L195,512l-0.1,0.1l-0.1,0.1l-0.1,0.1l-0.1,0.1v0.4l-0.2,0.2l-0.5,0.3l-1.2,0.1h-0.3
	l-0.3-0.1l-0.3-0.2l-0.1-0.1l-0.5-0.2l-1.4-0.3v0.6l0.5,1l0.4,1.6l0.1,0.9l0.1,0.5l0.1,0.3l1.1,1.6l0.3,0.6l0.1,0.5l0.1,0.9v1.4
	l-0.2,1.9l-0.1,0.3l-0.1,0.1l-0.6,0.5l-0.2,0.3l-0.1,0.2v0.2v0.3v1.2v0.2l-0.1,0.2l-0.1,0.1L191,528l-0.3,0.2l-1.3-0.8l-0.4-0.1
	l-0.7-0.1h-1.5l-6.5,0.9l-2.9-0.1l-1,0.1l-3,0.9l-1.5,0.8l-2.6,3.2l-3.6,0.7l-0.8,1.1v2.1l-0.1,0.4l-0.1,0.4l-0.3,0.7l-0.7,0.6
	l-2.5,1.6l-1.2,1.1l-0.2,0.4l-0.1,0.2v0.7l0.4,0.5l0.5,0.9l0.4,2.2l-0.4,1.9l-0.9,1.6l-1.1,1.1l-0.5,0.3l-1.5,0.7h-0.2l-0.5-0.1
	h-0.2l-0.1,0.2l-0.2,0.7l-0.7,0.6l-0.2,1.1l-0.1,2.3l-0.4,1.1l-0.2,0.9l0.2,0.9l0.8,1.1l3.4,2.6l0.5,0.4l0.8,0.9l0.9,0.8l3.1,4
	l0.6,0.8l0.5,0.5l0.2,0.5l1.2,1l2.1,2.5l0.3,0.2l0.8,0.5l0.3,0.3l0.2,0.6l0.3,1.3l0.2,0.5l0.2,0.5v1.1l0.2,0.5l0.3,0.5l1.9,5.3
	l0.2,1.9l-0.5,2l1.2,1l0.9,0.9l0.2,0.3v0.4l-0.1,0.2l-0.2,1.3v2.1l-0.2,0.8l-0.9,1l-0.6,0.6v1l0.4,2.3l0.7,2.1l0.9,1.6l0.5,0.5
	l0.7,0.6l0.8,0.5l0.9,0.2l0.7,0.4l0.8,0.4l3.3,1.2l1.1,0.8l1,1.3l2.6,4.1l1.3-2.6l0.9-1l1.1-0.6l1.6-1.3l0.8-1l1.2-2.3l0.6-0.7
	l2.8-1.6l0.8-0.6l0.6-0.5l0.6-1l1.3-1.5l0.6-0.5l0.6-0.2l0.4,0.2l0.3,0.2l0.3,0.5l1.5,3.7l8.9,15.4l0.4,0.8l1.7,7.6l0.3,0.7l0.4,0.6
	l0.7,0.9l0.9,1.5l0.6,1.2l0.4,1.9v0.7l-0.3,2.3l0.2,1.3l2.4,0.2l6.3-0.4l4.2,0.4l2.6,0.5l0.6,0.2l0.4,0.2l0.4,0.3l1.6,1.8l1.8,1.6
	l0.7,0.3l-0.3-0.2l-0.7-0.4V644l0.6,0.1l1.1,0.3l0.6,0.1l0-0.5l-0.3-0.4l-0.2-0.5l-0.1-0.5l1.6,0.4l0.5-0.3l0.4-2.3l0.9-1.6l0.3-0.7
	v-2.2l-0.7-1.8l-1.9-3.4l-0.3-2.3l0.8-1.4l1.2-1.1l1-1.2V623l-1.3-1.1l-1.6-1.1l-1.1-1.5l-0.3-0.3l0.2-0.2l0.2-0.2l0.3-0.2l0.3-0.1
	l0.1,0.3l0.4,0.4l0.2,0.3l0.4-0.8l0.4-2l0.6-0.8l0,0V610l0.3-1.7l0.4-0.2l0.4-0.2l0.4-0.1h0.2l0.5,0.1h0.6h0.2l0.2-0.1l0.1-0.1
	l0.1-0.1l0.2-0.1h0.3l0.4,0.1l0.7,0.3l0.6,0.1h0.1l0.2,0.1l0.3,0.3l1.1,1.5l0.2,0.2l0.3,0.2l0.9,0.3l0.5,0.1l0.3,0.1l0.4,0.2
	l0.7,0.6l0.3,0.4l0.2,0.6v0.6v0.2l0.1,0.2v0.1l0.2,0.7l0.2,0.1l0.1,0.1l1-0.2l2.8-1.3l0.8-0.6l0.6-0.6l0.2-0.6l-1-0.7V610l0.1-0.3
	l0.1-0.2l0.1-2l-1.6-4.2l-0.3-1.1l-0.1-0.8l0.2-0.3l0.6-0.8l0.1-0.3l0.3-1l0.1-1.1v-0.6l-0.1-0.4l-0.2-0.2l-0.3-0.1l-0.3-0.2
	l-0.2-0.4v-0.5l-0.1-0.4l-0.1-0.4l-2.1-4.5l-0.1-0.5v-0.4l0.2-0.6l0.2-0.3l0.2-0.2l0.4-0.4l0.2-0.2l0.2-0.3l0.2-0.6l0.2-0.3l0.2-0.2
	l0.2-0.3l0.6-1.3l0.1-0.4l0.1-1.2v-0.3l0.1-0.3l0.4-0.8l0.2-0.7v-0.5l-0.1-0.4l-0.2-0.3l-0.2-0.2l-1.9-1.4l-0.7-0.9v-0.8l0.1-0.6
	v-1.4l-0.2-0.9l-0.4-1.3l-0.3-0.5l-0.4-0.2l-0.3,0.1l-0.3,0.2l-0.2,0.2l-0.1,0.3L253,573l-0.2,0.2l-0.3,0.1L252,573l-0.2-0.3
	l-0.2-0.3v-0.3l0.1-0.7V571l-0.2-0.3l-0.7-0.7l-0.3-0.2l-0.3-0.2l-0.8-0.3l-0.5-0.3l-0.4-0.4l-0.4-0.6l-0.7-1.2L247,566v-0.5
	l0.3-0.6l0.1-0.3l0.1-0.3v-0.5v-0.3v-0.3l0.4-1.7v-1l-0.3-1.2v-0.4v-0.4V558l-0.2-0.5l-0.2-0.4l-0.3-0.3l-0.6-0.4l-0.1-0.3l-0.1-0.4
	l-0.2-0.3l-0.2-0.2l-0.3-0.1h-0.5l-2.4,0.7l-2.4,1.4l-0.5,0.2h-0.4l-0.8-0.3l-0.8-0.1l-0.5-0.1l-0.4-0.2l-0.6-0.4l-0.4-0.2h-0.3
	l-0.3,0.1l-0.3,0.2l-0.3,0.3l-0.6,0.3h-0.3l-0.3-0.2l-0.2-0.3l-0.2-0.7l-0.1-0.3l-0.9-1l-0.3-0.7l-0.6-1.7l-1.3-2.4v-0.9l1.3-1.5
	l-0.1-0.7l-0.7-1l-0.5-0.9l-0.1-0.7l0.2-0.5l0.4-0.5l0.6-0.5l1.9-1.3l0.3-0.6l-0.1-0.2l-0.2-0.2l-0.5-0.4l-0.2-0.3l-0.3-0.7
	l-0.2-0.3l-0.2-0.3l-1.5-1.3l-1.5-1.2l-1.9-1.8l-1-1.4l-0.3-0.5l-0.2-0.5l-0.1-0.4l-0.1-0.5l-0.1-0.3l-0.4-0.2l-0.2-0.8l0.1-0.1
	l0.2-0.2l0.6-0.4l0.9-1v-0.4l-0.1-0.3l-0.3-0.2l-0.3-0.1l-0.3-0.3l-0.3-0.5l-0.3-1.2L224,524l-0.2-0.4l-0.2-0.1l-0.3-0.3l-0.2-0.4
	L223,522l-0.2-0.5l-0.3-0.4l-0.3-0.3l-0.1-0.3l0.2-0.9v-0.9l-0.1-0.5l-0.2-0.4l-0.2-0.2l-0.6-0.4l-0.3-0.3l-0.3-0.4l-0.4-0.7
	l-0.1-0.4V515l0.1-0.4l0.1-0.5l-0.1-0.4l-0.2-0.4l-0.2-0.3l-0.7-1l-3.2-0.3l-1.3,0.1l-0.7,0.1L213.4,512.1z"/>
<path id="MM-13" class="st0" d="M240.6,521.6L240.6,521.6v-0.8l0.1-0.9l0.1-0.2l0.2-0.3l0.1-0.2V519v-0.2l-0.1-0.2l-0.1-0.1
	l-0.7-1.1l-0.1-0.2l-0.1-0.4l-0.2-0.3l-0.3-0.3l-1.4-0.8l-2.1-1.5l-0.6-0.3l-0.4-0.2l-0.6-0.1h-0.2l-0.2-0.1l-0.1-0.2l-0.3-0.8
	l-1-1.5l-0.3,0.4l-0.1,0.3l-0.1,0.2l-0.5,0.4l-0.4,0.5l-0.1,0.2l-0.2,0.3l-0.1,0.1l-0.1,0.1l-0.7,0.3l-0.5,0.2l-0.2,0.1l-0.4,0.3
	h-0.2l-0.2-0.1l-0.2-0.4v-0.2v-0.2l0.1-0.1V513v-0.2l-0.1-0.1l-0.8-0.3l-1.2-0.2l-0.9-0.4l-1-0.2l-5.2,0.5l0.7,1l0.2,0.3l0.2,0.4
	l0.1,0.4l-0.1,0.5l-0.1,0.4v0.4l0.1,0.4l0.4,0.7l0.3,0.4l0.3,0.3l0.6,0.4l0.2,0.2l0.2,0.4l0.1,0.5v0.9l-0.2,0.9l0.1,0.3l0.3,0.3
	l0.3,0.4l0.2,0.5l0.3,0.8l0.2,0.4l0.3,0.3l0.2,0.1l0.2,0.4l0.2,0.6l0.3,1.2l0.3,0.5l0.3,0.3l0.3,0.1l0.3,0.2l0.1,0.3v0.4l-0.9,1
	l-0.6,0.4l-0.2,0.2l-0.1,0.1l0.2,0.8l0.4,0.2l0.1,0.3l0.1,0.5l0.1,0.4l0.2,0.5l0.3,0.5l1,1.4l1.9,1.8l1.5,1.2l1.5,1.3l0.2,0.3
	l0.2,0.3l0.3,0.7l0.2,0.3l0.5,0.4l0.2,0.2l0.1,0.2l-0.3,0.6l-1.9,1.3l-0.6,0.5l-0.4,0.5l-0.2,0.5l0.1,0.7l0.5,0.9l0.7,1l0.1,0.7
	l-1.3,1.5v0.9l1.3,2.4l0.6,1.7l0.3,0.7l0.9,1l0.1,0.3l0.2,0.7l0.2,0.3l0.3,0.2h0.3l0.6-0.3l0.3-0.3l0.3-0.2l0.3-0.1h0.3l0.4,0.2
	l0.6,0.4l0.4,0.2l0.5,0.1l0.8,0.1l0.8,0.3h0.4l0.5-0.2l2.4-1.4l2.4-0.7h0.5l0.3,0.1l0.2,0.2l0.2,0.3l0.1,0.4l0.1,0.3l0.6,0.4
	l0.3,0.3l0.2,0.4l0.2,0.5v0.5v0.4v0.4l0.3,1.2v1l-0.4,1.7v0.3v0.3v0.5l-0.1,0.3l-0.1,0.3l-0.3,0.6v0.5l0.3,0.7l0.7,1.2l0.4,0.6
	l0.4,0.4l0.5,0.3l0.8,0.3l0.3,0.2l0.3,0.2l0.7,0.7l0.2,0.3v0.4l-0.1,0.7v0.3l0.2,0.3l0.2,0.3l0.5,0.2l0.3-0.1l0.2-0.2l0.2-0.5
	l0.1-0.3l0.2-0.2l0.3-0.2l0.3-0.1l0.4,0.2l0.3,0.5l0.4,1.3l0.2,0.9v1.4l-0.1,0.6v0.8l0.7,0.9l1.9,1.4l0.2,0.2l0.2,0.3l0.1,0.4v0.5
	l-0.2,0.7l-0.4,0.8l-0.1,0.3v0.3l-0.1,1.2l-0.1,0.4l-0.6,1.3l-0.2,0.3l-0.2,0.2l-0.2,0.3l-0.2,0.6l-0.2,0.3l-0.2,0.2l-0.4,0.4
	l-0.2,0.2l-0.2,0.3l-0.2,0.6v0.4l0.1,0.5l2.1,4.5l0.1,0.4l0.1,0.4v0.5l0.2,0.4l0.3,0.2l0.3,0.1l0.2,0.2l0.1,0.4v0.6l-0.1,1.1l-0.3,1
	l-0.1,0.3l-0.6,0.8l-0.2,0.3l0.1,0.8l0.3,1.1l1.6,4.2l-0.1,2l-0.1,0.2l-0.1,0.3v0.6l1,0.7l0.4,0.1h0.2l0.1-0.1l0.1-0.3v-0.5v-0.2
	l0.1-0.2l0.1-0.2l0.2-0.2l0.5-0.3l0.7-0.9l0.2-0.1h0.3l0.2,0.1l1.2,0.5h0.2l0.2-0.2l0.4-0.9l0.1-0.3v-0.2v-0.2v-0.2v-0.2l0.1-0.2
	l0.7-1.2l0.2-0.2l0.2-0.2l0.3-0.2l0.1-0.1v-0.2l-0.1-0.6v-0.2v-0.2l0.1-0.2l0.1-0.1l0.2-0.1h0.2l0.2,0.1l0.2,0.1l0.1,0.1h0.2h0.2
	l0.1-0.1l0.2-0.3l0.1-0.1h0.1l0.1,0.1l0.1,0.2l0.1,0.3v0.2v0.2l-0.3,0.4l-1,0.8l-0.2,0.3l-0.3,1.1v0.2v0.3l0.1,0.4l1.1,2.7l0.2,0.3
	l0.2,0.2l0.5,0.5l0.1,0.1l0.5,0.2l0.3,0.2l0.4,0.3l0.1,0.1l0.1,0.2v0.2l-0.6,2.9v0.2l0.1,0.2l0.2,0.3l0.1,0.3l0.2,0.6l0.2,1.1
	l0.5,1.8l0.2,0.3l0.1,0.1l0.2,0.3l0.5,1.1l0.2,0.3l0.1,0.1l0.3,0.2l0.1,0.1l0.1,0.1l0.1,0.2l0.4,0.8l0.1,0.3v0.3l-0.2,0.4l-0.2,0.2
	L273,625l-0.1,0.1v0.3v0.4l0.4,1.3l0.1,0.2l0.2,0.6l0.1,0.6v0.5l-0.6,0.8l0.8,2.2l0.3,0.4l0.1,0.2v0.2l-0.1,0.3l-0.4,0.7l-0.2,0.1
	l-0.2,0.1l-0.2,0.1l-0.1,0.2l-0.1,0.2v0.3l-0.2,0.3l-0.1,0.1l-0.2,0.1l-0.3,0.1l-0.1,0.1v0.2v0.2l0.2,0.4l0.1,0.3l0.1,0.3l-0.1,0.4
	l-0.1,0.2l-0.1,0.2l-0.1,0.1L272,638h-0.2h-0.2h-0.2l-0.1,0.3v0.4l0.2,1.7l0.1,0.2l0.1,0.3l1,1.2l0.1,0.1v0.2v0.4l-0.1,0.6l0.1,1
	v0.2l-0.1,0.4v0.2l0.1,0.3l0.4,0.4l0.2,0.3l0.2,0.5l0.3,0.3l0.5,0.4l0.1,0.2l0.1,0.2v0.4l-0.1,0.2v0.3l0.1,0.2l0.8,1v0.7l-0.1,0.6
	l0.1,0.7l0.1,0.8l0.1,0.4l0.3,0.4l1.6,2l0.9,1l0.9,0.3l0.2,0.1l0.1,0.2l0.1,0.4v0.2l-0.1,0.3v0.2l0.7,0.9l0.2,0.2l0.2,0.2l0.5,0.1
	h0.3h0.2l0.5-0.1h0.1h0.1l0.2,0.2l0.1,0.2l0.1,1.1l0,0l0.5-0.3l0.4,0.1l0.4,0.2l0.3,0.3l0.2,0.4l0.5,0.4l1.6,1.6l0.1,0.1h0.4
	l0.6-0.1l1.9-0.9l0.5,0.1l-0.2,1.2l0.2,0.6l0.1,0.2l0.1,0.4l0.1,0.2l0.1,0.1l0.1,0.1l0.2,0.1l0.9,0.3l0.2,0.1l0.3,0.2l0.3,0.2
	l0.1,0.1l0.2,0.3l0.1,0.2l0.3,0.9l0.1,0.2l0.1,0.1l0.1,0.1l0.1,0.1l0.1,0.1l0.2,0.1l0.4,0.1l1.3,0.1h0.2h0.2l0.5-0.2h0.2l0.1,0.1
	l0.1,0.1l0.1,0.3l0.1,0.6l0.3,1.1l0.2,1.8l0.1,0.4l0.1,0.2l0.1,0.1l0.1,0.1l0.1,0.1l0.2,0.1l0.2,0.1l0.4,0.1l0.5,0.2l0.1,0.1
	l0.5,0.5l0.6,1l0.1,0.1l0.1,0.1l0.3,0.2l0.1,0.1l0.1,0.1l0.1,0.1l0.1,0.2l0.1,0.2l0.1,0.4v0.2v0.3l-0.1,0.3v0.2l0.1,0.1l0.2,0.1
	l0.1,0.1l0.1,0.1l0.1,0.1l0.1,0.3l0.1,0.2l0.1,0.1l0.7,0.7l0.7,0.5l0.1,0.1l0.1,0.1v0.1l0.1,1l-0.1,0.2l-0.2,0.2l-0.6,0.3l-0.6,0.4
	l-0.2,0.1L302,683l-0.2,0.1l-0.1,0.1l-0.1,0.1l-0.1,0.3l-0.2,0.3l-0.2,0.1h-0.3l-0.5-0.2l-0.5-0.2l-0.2-0.1l-0.4-0.1l-0.2-0.1
	l-0.2-0.1l-0.9-0.7l-0.4-0.1l-2,0.1l-1.5,0.4l-0.2,0.1h-0.4h-2.7l-2.1,0.3l-0.1,0.5l0.2,0.4l1,1.6l0.2,0.4l0.1,1l0.4,0.6l0.1,0.2
	v0.2v0.3l-0.1,0.5l-0.1,0.2l-0.1,0.2l-0.1,0.1l-0.1,0.1l0,0.4l-0.1,0.1v0.2v0.7v0.2l-0.1,0.2l-0.1,0.1l-0.1,0.1l-0.1,0.1l-0.1,0.2
	v0.2l0.1,1.7l-0.1,0.4l-0.1,0.3l-0.1,0.2v0.9l0.2,1.7l0.1,0.5l0.4,0.7l0.6,1.4l0.1,0.3v0.2v0.3v0.3l0.3,0.6l0.1,0.3v0.3v0.4l0.1,0.3
	l0.4,0.6l0.1,0.2v0.2l-0.1,0.3l-0.1,0.1l-0.3,0.2l-0.1,0.1l-0.1,0.2l-0.1,0.4l-0.1,0.3v0.2v0.3l0.1,0.4l0.3,0.5l1.4,0.4l1.1,1h0.2
	l0.4,0.1l0.1,0.1l0.1,0.1l0.1,0.2l0.1,0.2v0.4v0.7l0.1,0.2l0.2,0.2l0.9,0.7l0.5,0.4l0.5,0.5l0.1,0.1l0.1,0.2l0.1,0.2l0.4,1l0.2,0.5
	l0.4,0.6l0.8,0.7l0.1,0.2l1.6,3.4l0.2,0.3l0.5,0.4l0.2,0.3l0.7,1.2l0.4,0.9l0.4,0.8l0.9,1.2l0.4,0.5l0.3,0.3l0.2,0.1l1,0.7l0.2,0.2
	l0.3,0.7l0.5,1.3l0.1,0.6l-0.1,1.1v0.5l0,0l0,0h0.4l0.9-0.4l0.7-0.7l1.7-2.5l0.6-0.1l1.1,0.2l0.9,0.3l1.7,1l0.7,0.3l0.3-0.1l0.1-0.3
	V727l-0.1-0.3l-0.3-0.2l-0.3-0.2l-0.1-0.1l0.1-0.3l0.1-0.3l0.1-0.2l0.1-0.1l0.4-0.2l0.3-0.3l0.1-0.5l-0.2-0.9V723l0.3-0.2l1.8-0.4
	l0.8-0.3l0.9-0.5l1,0.4l1,0.6l0.7,0.8l0.2,1.1l1.3-1.5l0.4-2.4l-0.1-2.6l-1.2-7.6l0.1-2.9l-0.1-0.8l-0.2-1.9l0.1-1.2l1.5-5.1
	l0.1-0.9l-0.4-2.1v-1.2l0.6-2l0.2-0.9l-0.3-1l-1.3-1.9l-0.1-0.7l0.4-0.4l0.6,0.1l0.6,0.3l0.5,0.2h0.6l0.4-0.1l0.4-0.2l0.5-0.5l0.7-1
	l0.3-1l0.4-0.8l1-0.5h0.9l3,0.4l0.6,0.3l0.3,0.4l0.3,0.2l0.8-0.1l0.4-0.3l1.2-1.3l0.2-0.5v-1.2l0.1-1.1l0.3-1l0.6-0.9l1.4-1.6
	l0.2-0.8l0.2-2.3l0.5-2.2V671l-0.8-1.2l-1.1-0.7l-0.9-0.9l-0.2-1.7l-1,0.9l0.2,0.6l-0.4,2.1l-0.7,1.2l-3,2.4l-1.5,2.2l-0.8,0.6
	l-0.9-0.7l-0.3-0.8l-0.7-3.7l-0.6-1.5l-0.1-0.6l0.5-1.1l0.1-0.5l-0.4-0.9l-3-4l-0.3-0.5v-0.6l0.2-0.5v-0.5l-0.1-0.5l-0.2-0.5
	l-0.7-0.9l-1.7-1.2l-0.7-1l-0.3-1.4l-0.2-0.6l-1.5-1.1l-0.1-0.9l0.4-1l0.6-0.8l0.7-0.2l0.8-0.5l0.6-0.6l0.1-0.6l-0.4-0.4l-0.5-0.2
	l-0.4-0.3l-0.2-0.6l0.1-0.7l0.4-0.2l0.6,0.1l0.6,0.5l-0.4-1.5l-0.3-0.7l-0.5-0.3l-0.8-0.4l-0.2-0.7v-0.9l-0.3-0.7l-0.5-0.7l-0.8-1.7
	l-0.5-0.8l-0.9-0.9l-0.9-0.6l-1-0.3l-2.4-0.1l-0.8-0.3l-0.7-0.6l-0.7-1.2l0.2-0.2l0.3-0.5v-0.4h-1.3l-0.1-0.4l0.2-0.6l0.4-0.4
	l-1.1-0.8l-1.7-2.5l-0.9-0.8l-0.8-0.4l-4.2-4l-0.4-0.5l-0.1-0.7l0.2-1.1v-0.6l-0.3-0.7l-0.6-0.4l-0.7-0.2l-0.7-0.3l-0.6-0.7
	l-0.3-0.7l-0.5-1.5l-1.1-1.7l-0.2-0.8l-0.4-0.5l-0.5-0.3l-1.2-0.5l-0.7-0.5l-1.3-1.2l-6.8-6.4l-0.5-0.6l-0.3-0.7l-0.1-0.7v-0.6
	l-0.1-0.5l-0.4-0.5l-1.2-1l-0.3-0.6l-0.2-0.7l-0.5-0.6l-0.6-0.5l-0.4-0.7l1.1-0.2l-0.7-2.4l0.3-0.8l1.4-2.4l1.3-0.9l0.2-0.1l0.2-0.3
	l-0.1-0.6l-0.2-0.6l-0.2-0.3l-0.2-0.3l-0.7-1.7l-0.2-0.6l-0.1-0.2L283,585l-0.2-0.1l-0.2,0.1h-0.2l-0.1-0.4v-0.3l0.2-0.5v-0.3
	l-0.1-0.6l-0.5-0.9l-0.1-0.6V581v-0.3l-0.2-0.3l-2.5-3.5l-0.5-1.1l0.1-0.5l0.7-0.3l0.4-0.8v-0.9l-0.3-0.8l-0.6-0.4l-2.5-1l-0.6,0.1
	l-0.1,0.1l-0.9,2.5l-0.2,0.4l-0.5,0.4l-1-0.6l-1.1-0.8l-1-1l-0.7-1.1l-0.3-1.3v-1.2l-0.2-1.1l-1.2-1.9l-1.1-2.4l-0.2-0.8l-0.6-1
	l-1.1-1l-0.3-0.6l1.1,0.1l0,0L266,558l-0.6-2.1l-0.1-0.2l-0.2-0.3l-0.4-0.5l-0.2-0.4l-0.2-0.7l-0.3-0.5l-0.2-0.2l-0.2-0.1l-0.5-0.1
	l-4.3,0.1l-1.7-0.1l-1.6-0.3h-0.2l-0.6,0.1h-0.2h-0.2L254,552l-2.8-5.5l-0.2-1l-1.1-1.7l-0.5-0.5l-0.2-0.1l-0.1-0.1L249,543
	l-0.1-0.2v-0.2l0.1-0.6l0.2-0.4v-0.2l-0.1-0.3l-0.6-0.7l-0.3-0.3l-0.4-0.5l-0.4-0.7l-0.4-1l-0.1-0.6v-0.9v-0.3l-0.3-1l-0.2-1.3
	l0.1-0.5v-0.2l-0.1-0.3l-0.3-0.4l-0.2-0.3l-0.1-0.3l-0.2-0.6l-0.3-0.6l-0.8-1.2l-0.4-0.4l-0.4-0.2h-0.2l-0.2-0.1l-0.2-0.1l-0.4-0.3
	l-0.2-0.1L242,528l-0.1-0.3l-0.1-0.5l-0.1-1.1l-0.4-1.1l-0.1-0.3l-0.4-1l-0.1-0.6L240.6,521.6z"/>
<path id="MM-12" class="st0" d="M262.2,490.3h-0.5l-0.4-0.1L261,490l-0.7-0.4l-0.2-0.2l-0.2-0.3l-0.1-0.6v-0.3v-0.3v-0.3v-0.4v-0.3
	l-0.1-0.5l-0.2-0.3l-0.4-0.3l-1-0.4l-0.5-0.1h-1l0,0l-0.3,1l0.2,1.7l-0.4,2.9l-0.2,0.3l-0.5,0.6l-0.1,5.5l-0.3,1.6l-5.3,3.2
	l-2.7,2.2l-1.7,2l-1.2,1.9l-0.7,1.8l-0.2,0.5v0.2v0.2l0.1,0.4l0.2,0.4l0.8,1.2l0.4,1v1.6l-1.3,2.6l-1.8,2.2l-1.2,1.1v0.1l-0.2,1.5
	l0.1,0.6l0.4,1l0.1,0.3l0.4,1.1l0.1,1.1l0.1,0.5l0.1,0.3l0.5,0.2l0.2,0.1l0.4,0.3l0.2,0.1l0.2,0.1h0.2l0.4,0.2l0.4,0.4l0.8,1.2
	l0.3,0.6l0.2,0.6l0.1,0.3l0.2,0.3l0.3,0.4l0.1,0.3v0.2l-0.1,0.5l0.2,1.3l0.3,1v0.3v0.9l0.1,0.6l0.4,1l0.4,0.7l0.4,0.5l0.3,0.3
	l0.6,0.7l0.1,0.3v0.2l0.3,0.5l-0.1,0.6v0.2l0.1,0.2l0.1,0.1l0.1,0.1l0.2,0.1l0.5,0.5l1.1,1.7l0.2,1l2.8,5.5l0.4,0.6h0.2h0.2l0.6-0.1
	h0.2l1.6,0.3l1.7,0.1l4.3-0.1l0.5,0.1l0.2,0.1l0.2,0.2l0.3,0.5l0.2,0.7l0.2,0.4l0.4,0.5l0.2,0.3l0.1,0.2l0.6,2.1l0.6,1.8l0,0h0.4
	l0.4,0.3l1,1.6l0.1,0.4l0.2,0.4l0.5,0.3l0.5,0.1l1.2-0.2l2.3,0.1l1.9-0.9l3.4-2.3l1-0.3l2.6,0.1l2.3-0.7l0.2,0.1l0.1-0.1l0.3-0.6
	l0.4-2.1l-0.3-2.1l-0.6-2l-0.2-1.9v-1.1l-0.1-0.9l-0.6-1.9v-0.4l0.2-1.3l-0.2-0.7l-0.5-0.5l-1.2-0.9l-1.1-1.1l-0.2-0.6l0.5-0.5
	l1-0.7l0.7-0.8l0.3-0.8l0.3-2l0.5-1l3-2.4l0.7-0.8l0.3-0.7l0.2-4.1l-0.1-0.9l-0.4-1l-0.4-0.5l-1.3-1.1l-0.3-0.5l0.2-0.6l0.5-0.1h0.6
	l0.5-0.2l0.4-1l-0.4-0.9l-0.7-1l-0.3-1.2l-0.1-0.5l-0.4-1v-0.4l1.6-2.2l1.6-1.4l0.4-0.6l0.3-0.8v-0.3l-0.2-0.3l-0.2-0.7l-0.1-1v-0.9
	l0.4-0.6l1-0.1l0,0l-0.5-2l-0.1-0.7l-0.2-0.6l-0.3-0.3l-0.4-0.3l-0.4-0.1h-0.3l-0.3,0.1h-0.5l-0.6-0.2l-1-0.6l-0.5-0.2l-0.4-0.1
	L285,502l0,0l0,0l-0.2,0.3l-0.3,0.2l0,0H284l-3.7-1l-1.2-0.2l-0.6-0.4l-0.2-0.2l-0.6-1l-0.4-0.4l-0.4-0.3l-0.6-0.3l-0.3-0.3
	l-0.1-0.3v-0.3l0.1-0.6l0.2-0.7l0.8-2l0.1-0.4v-0.5l-0.2-0.2l-0.2-0.1l-0.5-0.1l-0.3-0.2l-0.4-0.3l-0.7-0.9l-0.7-1.6l-0.3-0.4
	l-0.3-0.1h-0.3h-0.1l-0.2,0.1l-0.2,0.1l-0.2,0.2l-0.2,0.2l-0.3,0.2l-0.3,0.1l0,0l-0.3,0.1h-0.5l-0.7-0.1l-2.6-3l-0.1-0.7l-1.2,0.4
	l0,0l-0.6,0.8l-0.2,0.8l-0.3,0.6l-0.2,0.2l-0.2,0.1l0,0h-0.2h-0.3h-0.4L262.2,490.3z"/>
<g>
	<path class="st0" d="M243.6,392.1l-0.1-0.2l-0.1-0.2l-0.2-0.3l-0.1-0.1v-0.2v-0.3v-0.4v-0.3v-0.2l-0.2-0.3l-0.1-0.1l-0.1-0.1
		l-0.1-0.1l-0.5-0.2L242,389l-0.1-0.2v-0.4l0.1-0.7v-0.4V387l-0.2-0.5l-0.1-0.1l-1.4-1.7l-0.1-0.2l-0.2-0.6l-0.7-1.5l-0.2-0.3
		l-1.3-1.4l-0.2-0.3l-0.1-0.2l-0.5-1.5l-0.3-2.4l-0.5-0.6l-0.6-0.4l-0.2-0.1l-0.6-0.1h-1.3h-0.2l-0.8-0.3l-1.6-0.8l-1.9-0.6
		l-0.7-0.1l-1.2-0.9l-2.6-0.8l-0.5-0.3l-0.3-0.2v-0.2v-0.2v-0.2l0.1-0.6v-0.2v-1v-0.5V368l-0.8-1.9l-0.5-0.7l-0.8-0.6l-0.2-2.1
		l-0.1-0.3l-0.2-0.4l-0.3-0.3l-0.4-0.7l-0.3-0.3l-0.2-0.2h-0.2h-0.4l-0.6,0.1l-1.9-0.2l-0.4-0.1l-0.2-0.1l-0.1-0.2l-0.2-1.1l0.3-1.4
		l0.1-1.5l0.1-0.5l0.2-0.7v-0.3v-0.3l-0.4-1l-0.1-0.2l-0.1-0.1l-0.1-0.1h-0.2h-0.2l-0.2-0.1l-0.2-0.2l-0.3-0.5v-0.4l0.1-1.2V350
		l-0.1-0.3l-0.2-0.3l-1.6-2l-0.4-0.6l-0.5-1l-0.1-0.3v-0.2l0.1-1.9l-0.1-0.2H212l-0.3,0.1h-0.2l-0.3-0.1l-0.1-0.2v-0.8l-0.1-0.3
		l-0.6-1.2l1.9-1.2l1.2-0.9l0.2-0.1l0.3-0.1l0.5,0.2l0.7,0.1l1.8,0.1h0.6l0.3-0.1l0.2-0.2l0.7-0.4h0.4l0.5-0.2l0.4-0.2h0.2h0.2
		l0.1,0.1l0.4,0.4l0.4,0.3l2-0.1l0.6-0.2l0.2-0.1l1.3-0.7l1-0.7l0.4-0.1h0.3l1.3,0.1l1.2,0.4h0.3l0.2-0.1l0.6-0.4l0.3-0.1h0.4
		l0.2-0.1l0.9-0.8l0.1-0.2l0.1-0.9v-0.2l0.1-0.3l0.2-0.3l0.1-0.1l0.4-0.6l0.1-0.2l0.6-0.8l0.3-0.5l0.1-0.2l0.5-0.4l0.2-0.2l0.1-0.2
		v-0.2l-0.1-0.4v-0.2l-0.1-0.1l-0.3-0.3l-1.5-0.7l-0.8-0.1h-1.5l-0.4-0.1l-0.4-0.2l-1.4-0.9l-0.2-0.2V327l0.1-0.1l0.1-0.2v-0.2v-0.4
		v-0.2l0.1-0.2l0.1-0.2v-0.2l-0.1-0.3H229h-0.1l-0.3,0.2l-0.2,0.1l-0.2,0.1h-0.4l-0.2-0.1l-0.2-0.1l-0.2-0.2l-0.3-0.3l-0.7-0.6
		l-0.4-0.2l-0.3-0.1l-0.2,0.1l-0.6,0.3l-0.1,0.1l-0.4,0.5l-0.1,0.1l-0.2,0.1h-0.2h-0.9h-0.2l-0.7,0.3h-0.2H221l-3.8,0.7l-4.2-0.3
		l-2.4-1.4l-0.4-0.6l0.1-0.2l0.1-0.2l0.1-0.2v-0.3l-0.1-0.4l-0.4-0.8l-0.4-0.5l-1.1-1.1l-0.3-0.4l-0.1-0.4l-0.1-0.7v-0.2v-0.2
		l0.1-0.2l0.1-0.1l0.4-0.3l0.1-0.1l0.1-0.2l0.1-0.4l0.1-0.2l0.1-0.1l0.3-0.4l0.2-0.3l0.1-0.2v-0.2V315v-0.3v-0.2v-1.2v-1.1l0.2-0.8
		l0.3-0.6v-0.3v-0.2l-0.1-0.1l-0.2-0.2l-0.2-0.3l-0.2-0.7v-0.3l0.1-0.2l0.1-0.1l0.2-0.1h0.2h0.2l0.2,0.1l0.2,0.1l0.2,0.2l0.1,0.1
		l0.1,0.1h0.2l0.2-0.1l0.2-0.1l0.3-0.3v-0.2l-0.1-0.2l-0.1-0.2l-0.1-0.3l0.1-0.3l0.1-0.3l0.5-0.7l0.1-0.1l0.1-0.1l0.4-0.3l1.1-1.1
		l0.2-0.1l0.5-0.1l0.3-0.1l0.1-0.2v-0.2v-0.2l-0.2-0.5l-0.1-0.2l-0.1-0.8l0.1-0.2l0.2-0.2l0.6-0.5l0.1-0.3l0.1-0.2v-0.9l-1.5-1.3
		h-0.5l-0.8,0.2l-2.2,1.2l-1.7,0.2l-1-0.3l-1.6-0.8l-0.4-0.4l-0.3-0.5v-0.7l0.1-0.6l0.3-0.8l0.1-0.7v-0.7l-0.4-1.1l-0.6-0.4
		l-0.4-0.1l-1.1,0.1l-1.2,1.1l-1.1,1.3l-0.7,1.6l-0.1,0.7l-0.5,1.1l-3,3.8l-1,1.7l-0.4,1l-0.3,1.2l-0.1,1.1l0.1,0.8l1.3,4.4l0.3,0.7
		l0.1,0.1l0.1,0.2l0.2,0.3l0.3,0.9l0.5,2.2l0.4,1.3l-0.5,20.4l-0.1,0.5l-0.3,0.5l-0.6,0.3l-1.1,0.1l-0.5,0.2l-0.4,1.7l0.8,2.4
		l3.3,5.9l0.2,1.1l-0.4,1l-0.6,1l-0.2,1v4.2l0.3,1l0.9,1.1l1.1,1.1v0.5l-0.4,0.8l-0.3,0.3l-0.3,0.2l-0.3,0.3l-0.2,0.6l-0.1,0.6
		l0.1,2.9l0.6,3.1l0.4,3.6l0.9,1.6l1.1,3.4l0.2,2l-0.5,1.7l-1,1.4l-1.4,1l-1,0.5l-0.9,0.3l-0.9,0.2l-1.1,0.1l-0.9-0.2l-0.5,0.5
		l-0.7,1.4l-1.6,6.3l-0.8,1.3l-2.4,2.8l-0.3-0.4l-1.1-0.3l-4.2,0.6l-3-4.2l-1.6-1.7l-0.8-0.3h-1.1l-6.2,1.4l-0.8,0.6l-0.6,2.2
		l-0.8,1.7v0.3l-0.3,0.5l-0.3,0.6l-0.2,0.7l-0.5,2.6l-0.1,0.4l0.3,3.9l-0.4-0.1l-0.4,0.7l-0.4,0.1l-0.4-0.1H165l-0.3,0.2l-0.2,0.2
		l-0.2,0.2l-0.1,0.2l-0.7,0.9l-3.2,2.7l-1.6,2.1l-0.8,0.8l-1.1,0.3l-2,0.3l-0.4-0.1l-0.6-0.5l-0.4-0.1l-1.3,0.2l-1,0.8l-0.6,1.1
		l-0.2,1.3l-0.5,0.3l-3.2,1h-2.3l-0.2-0.1h-0.2l-0.4,0.1l-0.3,0.2l-0.5,0.5l-0.7,0.5l-0.5,1l-0.3,1.2l-0.2,1v2.3l0.8,4.4l0.2,2.3
		l-0.3,1l1.2,0.4l-0.1,0.6l1.3,1.2l1.9,1.1l1.2,0.4l1,0.2l2.5-0.1h0.1l2.4,1.1l1.2,1.1l0.3,0.5l0.1,0.3v0.3v0.5l-0.2,0.9l-0.2,0.5
		l-0.2,0.3l-0.5,1l-0.1,0.5v0.7l0.6,3.2v0.6l-0.1,0.9l-0.3,0.8l-0.1,1.2l0.3,1.1l1.2,2.4l0.4,0.5l0.4,0.1l0.4-0.1l0.3-0.2l0.3-0.8
		l0.5-2.2l0.5-0.6l1.8-1.6l0.7-0.4l1.3-0.4h0.6l1.3,0.1l0.8-0.2l0.4-0.3l2-1.7l1.1-0.6l2.3-0.6l1.9-0.7l0.6-0.5l1-1.1l0.5-0.3
		l0.8-0.1h0.4h1.9l2,0.3l0.8,0.3l0.2,0.1l0.2,0.2l0.5,0.7l0.2,0.5l0.2,1.9l0.3,2.3l4.2,7.6l0.5,1.5l0.4,2.2l0.2,0.8l0.3,0.6l0.5,1.2
		v0.3l-0.1,0.4l-0.4,0.7l-0.3,0.3l-0.2,0.3l-0.1,0.1l0.2,0.8l0.6,2.2l0.3,0.6l0.1,0.1l0.2,0.3l0.3,0.5v0.1l0.2,0.6
		c0.1-0.1,0.1-0.2,0.2-0.3c0.3-0.3,2.1,0.5,2.3,0.8c0.2,0.3,0.6-0.6,1.1-0.5c0.5,0.1,1.3,1,1.3,1.4c0,0.3,1,1.9,1.6,1.9
		s1.3,0.2,1.7,0.6s0.6,1,1,0.4c0.3-0.5,0.1-1.1,0.3-1.6c0.3-0.4-0.1-1,0.3-1.4c0.4-0.4,2-1.2,2-1.2l0.6,0.3c0,0,0.9,0.3,1.3,0.2
		c0.4-0.2,0.7,0.1,0.7,0.1l0.7-0.2l0.1,0.8l1-0.7l0.9,0.2l1.1,0.2l1.2,0.9l0.4,0.5l0.7-2l1.6-0.8h0.6h0.7c0,0,1-1,1.3-1
		s0.8,0.5,0.8,0.5l1.6,0.5l1.6,0.9l1.4,1.3c0,0,2,1,2.4,1c0.2,0,2,0.5,3.1,0.9l0.4-0.7l0.1-0.1l0.2-0.2l0.4-0.3l1.3-1.1l0.4-0.6
		v-0.4v-0.2l-0.1-0.2l-0.2-0.3l-0.4-0.6l-1.7-4.3V467l-0.1-0.2l-0.1-0.3l-0.4-1.2l-0.5-2.5v-0.5l0.2-0.8l0.1-0.8l0.1-0.2l0.1-0.2
		l0.1-0.1l0.3-0.2l0.1-0.2l0.2-0.3v-0.3V459l-0.3-0.8l0.2-0.4l1.8-0.1l0.3-0.1l0.4-0.2l0.1-0.2V457v-0.2l-0.2-0.8v-0.4l0.1-1.4v-0.3
		v-0.2l-0.1-0.2l-0.1-0.1H227l-0.5,0.2h-0.2l-0.2-0.1l-0.2-0.3l-0.1-0.2l-0.2-0.1h-0.2h-0.2l-0.1-0.1l-0.1-0.1l-0.1-0.2l-0.2-0.6
		l-0.7-1.2l-0.1-0.1l-0.1-0.1l-0.1-0.1l-0.5-0.3l-0.2-0.2l-0.2-0.4l-0.1-0.3V449l0.1-0.2l0.3-0.7l-0.3-1.2l1.3-1.1l0.3-0.3v-0.1
		l0.2-0.5l0.3-0.2l0.3-0.1h0.2h0.5l0.8,0.1l1.5-0.1l0.2-1.1v-1.3l0.2-0.5l0.3-0.3l0.2-0.3l0.1-0.3v-0.3l-0.1-0.3l-0.1-0.3l-0.2-0.4
		l-0.7-0.8l-0.1-0.1l-0.2-0.1l-0.2-0.1h-0.2h-0.2H227l-0.2,0.1l-0.3-0.1l-0.4-0.3l-0.6-0.8l-0.3-0.3l-0.2-0.1l-0.1,0.1l-0.3,0.2
		l-0.4,0.5l-0.2,0.1h-0.2h-0.2l-0.4-0.2l-1.8-1.3l-0.3-0.1h-0.2l-0.5,0.2l-0.2,0.1h-0.3l-0.3-0.1l-0.9-0.4l-0.5-0.1l-2.1-1l-1.4-0.5
		l-0.9-0.2l-0.9-0.3l-0.4-0.3l-1.7-1.5l-0.2-2.7l0.1-0.7l0.1-0.1l0.2-0.2l0.2-0.2l0.3-0.4l0.1-0.3v-0.2l-0.3-1.4v-0.3l0.1-0.2
		l0.7-0.6l1.2-0.7l1.1-0.2h0.3l0.2,0.1l0.2,0.1l0.8,0.2l0.6-0.1h0.3h0.3l0.7,0.1h0.3l0.2-0.1l0.1-0.2l0.1-0.3v-0.2l-0.1-0.2
		l-0.1-0.1l-0.1-0.2l-0.1-0.4l-0.1-0.2l-0.3-0.5l-0.2-0.7l-0.3-0.6l-0.3-0.4l-0.2-0.2l-0.2-0.3l-0.1-0.2l-0.7-3.6l-0.2-0.7l-0.1-0.7
		v-0.2l-0.1-0.2l-0.1-0.1l-0.1-0.2l-0.1-0.2v-0.5l-0.6-3.2l-0.1-1.5l2.1-1.3l0.3-0.5l-0.4-0.6v-0.3l0.1-0.4l0.3-0.7l0.2-0.3l0.2-0.2
		l1.6-0.1l2.6-0.5h0.4h0.3l0.8-0.1l3.6-1.8l0.5-0.1h0.2h0.3h0.4l0.7-0.2l0.3-0.2l0.2-0.2l0.1-0.1l0.1-0.1l1.7-1.3l0.2-0.2l0.1-0.2
		l0.1-0.3l0.1-0.2l0.1-0.2l0.3-0.3l1.1-1.3l0.3-0.4l0.5-0.5l0.6-0.5l0.4-0.4l0.3-0.2h0.2h0.2l0.1,0.1l0.1,0.1l0.1,0.2h0.6l2.4-1
		l0.7-0.9l0.2-0.4l0.3-0.2h0.2l0.1,0.1l0.4,0.4l0.3,0.3l0.3,0.2l0.1,0.1l0.3,0.1l1.2,0.2h0.4l0.3-0.1l0.1-0.1l0.1-0.2v-0.2v-0.8
		L243.6,392.1z"/>
</g>
<path class="st0" d="M188.7,473.2c0,0,0.3-0.5,0.5-0.8c0.3-0.3,2,0.5,2.2,0.8s0.6-0.6,1.1-0.5c0.5,0.1,1.3,1,1.3,1.3
	c0,0.3,0.9,1.8,1.5,1.8c0.6,0,1.3,0.2,1.7,0.6c0.4,0.4,0.6,0.9,0.9,0.4c0.3-0.5,0.1-1.1,0.3-1.5s-0.1-0.9,0.3-1.3
	c0.4-0.4,1.9-1.2,1.9-1.2l0.6,0.3c0,0,0.8,0.3,1.3,0.2c0.4-0.2,0.7,0.1,0.7,0.1l0.7-0.2l0.1,0.8l1-0.7l0.8,0.2l1.1,0.2l1.2,0.8
	l0.4,0.5l0.7-1.9l1.5-0.8h0.6h0.7c0,0,1-1,1.3-1s0.8,0.5,0.8,0.5l1.5,0.5l1.5,0.8l1.3,1.3c0,0,1.9,0.9,2.3,0.9s3.8,1.1,3.8,1.1
	s-2,1.5-1.8,1.6c0.3,0.1,0.9,2.9,0.9,2.9l-0.9,2.3c0,0-0.4,0.6-0.8,0.7s-1.2,0-1.4,0s-1.3,0-1.3,0.3s3.2,6.1,3.6,6.8
	c0.4,0.7-0.1,1.4-0.1,1.4l1.4,0.8l1.7-0.3c0,0,0.8-0.8,2.3,1.9c1.4,2.7,2.6,3.8,2.6,3.8s2.1,1.6,1.8,2.4c-0.3,0.8-1.4,1.3-1.4,2.3
	c0,0.9-2.3,1.5-2.3,1.5s-0.9,0.3-0.8,0.8c0,0.5,0.1,1.7,2,1.9s3.3,0.3,3.4,1.3s-0.1,2.9-0.1,2.9s-1.2,1.3-1.3,1.7s-1.9,1.4-1.9,1.4
	s-0.5,0.2-0.7-0.1s0-1-0.3-1.1s-2.1-0.7-2.3-0.8s-1.8-0.3-1.8-0.3l-4.7,0.4l-4-0.4c0,0-1.8,0.3-1.9,0.3s-4.3-0.3-4.3-0.3
	s-1-0.2-1-0.2l-0.5,1.7c0,0-1.4,0.4-1.5,0.9s-0.8,0.7-0.8,0.7s-1.9-1.3-2.6-1.3s-1.6-0.4-2.4-0.6c-0.8-0.2-2.5-1.3-3.3-1.3
	c-0.8-0.1-2.3,0.8-2.3,0.8s-0.3,1.1-0.9,1.1s-3.2-0.7-3.9-0.9s-2.5-1.5-2.6-1.8s-1.1-5.7-0.8-6.7s2.1-3.2,2.1-3.8s0-2.3,0-2.3
	l-0.1-1l0.7-1.1l0.3-1.8c0,0,0.8,0,1-0.3s-0.3-1.8-0.3-1.8l-0.1-1.3l-0.8-1.5c0,0,0-1.9-0.3-2.4c-0.4-0.5-0.8-1.4-0.8-1.4
	s0.7-0.5,0.8-1.6c0.2-1.1-0.2-1.5-0.2-1.9s1-0.3,1-0.6s-0.1-1.3,0.2-1.8c0.3-0.4,1.4-1.4,0.9-1.9s-1.1-1-1.5-1.8
	C189.3,475.6,188.7,473.2,188.7,473.2z"/>
</svg>
