<?xml version="1.0" standalone="no"?>
<!DOCTYPE svg PUBLIC "-//W3C//DTD SVG 1.1//EN" "http://www.w3.org/Graphics/SVG/1.1/DTD/svg11.dtd" >
<svg xmlns="http://www.w3.org/2000/svg" xmlns:xlink="http://www.w3.org/1999/xlink" version="1.1">
<metadata>
Created by FontForge 20170731 at Fri Feb 19 17:16:23 2016
 By Aleksey,,,
Thz for using Our font
</metadata>
<defs>
<font id="mms2" horiz-adv-x="0" >
  <font-face 
    font-family="mms2"
    font-weight="400"
    font-stretch="normal"
    units-per-em="2048"
    panose-1="2 11 6 4 6 5 4 4 2 4"
    ascent="1638"
    descent="-410"
    x-height="1082"
    cap-height="1456"
    bbox="-2044 -607 4277 2083"
    underline-thickness="130"
    underline-position="-1275"
    unicode-range="U+001D-F197"
  />
<missing-glyph horiz-adv-x="1638" 
 />
    <glyph glyph-name=".notdef" horiz-adv-x="1638" 
 />
    <glyph glyph-name=".null" 
 />
    <glyph glyph-name=".null" 
 />
    <glyph glyph-name="nonmarkingreturn" horiz-adv-x="1638" 
 />
    <glyph glyph-name="exclam" unicode="!" horiz-adv-x="462" 
d="M288 478h-119v978h119v-978zM300 0h-142v167h142v-167z" />
    <glyph glyph-name="quotedbl" unicode="&#x22;" horiz-adv-x="588" 
d="M246 1344l-73 -261h-71l24 255v222h120v-216zM486 1344l-73 -261h-72l25 258v219h120v-216z" />
    <glyph glyph-name="numbersign" unicode="#" horiz-adv-x="1270" 
d="M735 410h-313l-77 -410h-100l77 410h-255v93h272l83 441h-279v96h297l79 416h100l-79 -416h314l79 416h100l-79 -416h229v-96h-247l-83 -441h255v-93h-273l-77 -410h-100zM439 503h314l83 441h-314z" />
    <glyph glyph-name="dollar" unicode="$" horiz-adv-x="1135" 
d="M901 359q0 110 -72 180t-254 135q-208 66 -308 159t-100 262q0 162 100 264t272 116v202h102v-202q175 -16 271 -131t94 -311l-3 -5h-112q0 152 -80 247t-224 95q-148 0 -224.5 -77.5t-76.5 -195.5q0 -114 68 -183.5t261 -133.5q207 -69 306.5 -160.5t99.5 -258.5
q0 -166 -104 -265.5t-280 -113.5v-190h-101v189q-181 11 -300.5 115.5t-115.5 315.5l3 6h112q0 -177 101 -255t244 -78q148 0 234.5 77.5t86.5 196.5z" />
    <glyph glyph-name="percent" unicode="%" horiz-adv-x="1514" 
d="M110 1176q0 127 78.5 214t206.5 87q127 0 205.5 -87t78.5 -214v-77q0 -126 -78 -212.5t-204 -86.5q-129 0 -208 86.5t-79 212.5v77zM206 1099q0 -88 49.5 -150t141.5 -62q89 0 137.5 62t48.5 150v77q0 88 -49 151t-139 63t-139.5 -63t-49.5 -151v-77zM842 357
q0 126 78.5 213t206.5 87q127 0 206 -87t79 -213v-78q0 -127 -78.5 -213.5t-204.5 -86.5q-129 0 -208 86.5t-79 213.5v78zM939 279q0 -89 49 -151t141 -62q89 0 137.5 62t48.5 151v78q0 91 -49 152t-139 61t-139 -61.5t-49 -151.5v-78zM426 121l-74 48l711 1138l74 -48z" />
    <glyph glyph-name="ampersand" unicode="&#x26;" horiz-adv-x="1260" 
d="M388 795q-81 100 -120 182.5t-39 169.5q0 158 89 244t244 86q144 0 228.5 -81t84.5 -204q0 -90 -45 -155t-130 -130l-159 -122l412 -481q49 71 76 159t27 188h110q0 -128 -36.5 -235.5t-105.5 -194.5l185 -216l-2 -5h-137l-122 141q-85 -78 -186 -120t-218 -42
q-209 0 -331 107t-122 285q0 120 72.5 216.5t209.5 196.5zM544 80q92 0 179.5 36t157.5 103l-414 482l-8.5 8.5t-5.5 7.5l-47 -36q-116 -94 -155.5 -170t-39.5 -140q0 -124 85.5 -207.5t247.5 -83.5zM349 1149q0 -66 31.5 -137t96.5 -151l177 132q58 45 82.5 94t24.5 105
q0 79 -52.5 131t-146.5 52q-102 0 -157.5 -65t-55.5 -161z" />
    <glyph glyph-name="quotesingle" unicode="'" horiz-adv-x="348" 
d="M246 1365l-73 -275h-71l24 266v204h120v-195z" />
    <glyph glyph-name="parenleft" unicode="(" horiz-adv-x="640" 
d="M140 588q0 363 139 651t310 386l6 -1l26 -73q-145 -103 -253 -366t-108 -594v-20q0 -331 108 -594t253 -370l-26 -70h-6q-173 100 -311 382t-138 654v15z" />
    <glyph glyph-name="parenright" unicode=")" horiz-adv-x="652" 
d="M498 573q0 -372 -138 -654t-310 -382h-6l-26 70q144 102 252.5 367t108.5 597v20q0 329 -110.5 595.5t-250.5 368.5l26 70h6q170 -98 309 -386t139 -651v-15z" />
    <glyph glyph-name="asterisk" unicode="*" horiz-adv-x="869" 
d="M361 1000l-332 108l32 101l332 -123l-4 370h104l-8 -373l324 127l33 -101l-333 -115l223 -294l-85 -63l-214 305l-204 -303l-85 61z" />
    <glyph glyph-name="plus" unicode="+" horiz-adv-x="1156" 
d="M630 740h443v-112h-443v-482h-121v482h-434v112h434v466h121v-466z" />
    <glyph glyph-name="comma" unicode="," horiz-adv-x="392" 
d="M271 18l-106 -276h-82l69 279v167h119v-170z" />
    <glyph glyph-name="hyphen" unicode="-" horiz-adv-x="586" 
d="M528 570h-479v101h479v-101z" />
    <glyph glyph-name="period" unicode="." horiz-adv-x="489" 
d="M304 0h-137v164h137v-164z" />
    <glyph glyph-name="slash" unicode="/" horiz-adv-x="813" 
d="M139 -125h-109l608 1581h108z" />
    <glyph glyph-name="zero" unicode="0" horiz-adv-x="1161" 
d="M1033 565q0 -282 -119.5 -434t-332.5 -152q-212 0 -333 152.5t-121 433.5v325q0 281 120 434t332 153q213 0 333.5 -153t120.5 -434v-325zM913 910q0 224 -85.5 344.5t-248.5 120.5q-162 0 -247 -120.5t-85 -344.5v-363q0 -222 86 -344.5t248 -122.5t247 122t85 345v363z
" />
    <glyph glyph-name="one" unicode="1" horiz-adv-x="1135" 
d="M669 -7h-120v1349l-352 -43v91l472 70v-1467z" />
    <glyph glyph-name="two" unicode="2" horiz-adv-x="1135" 
d="M1041 0h-904v92l477 541q132 149 186.5 249.5t54.5 192.5q0 136 -76.5 218t-216.5 82q-166 0 -252 -92t-86 -246h-111l-2 6q-5 182 118 308t333 126q188 0 301 -108t113 -290q0 -120 -75.5 -243.5t-210.5 -275.5l-401 -454l2 -5h750v-101z" />
    <glyph glyph-name="three" unicode="3" horiz-adv-x="1135" 
d="M403 793h139q159 0 241 79.5t82 204.5q0 136 -77 217t-229 81q-140 0 -229.5 -82.5t-89.5 -217.5h-112l-2 6q-5 170 119 283t314 113q195 0 310.5 -107t115.5 -297q0 -103 -64 -193.5t-180 -134.5q136 -39 203.5 -131.5t67.5 -218.5q0 -194 -125.5 -305t-322.5 -111
q-191 0 -328 108.5t-132 301.5l2 6h112q0 -139 96.5 -227t249.5 -88q155 0 242 80.5t87 230.5q0 153 -91 226.5t-260 73.5h-139v102z" />
    <glyph glyph-name="four" unicode="4" horiz-adv-x="1135" 
d="M871 469h228v-101h-228v-368h-119v368h-683v68l671 1020h131v-987zM211 469h541v830l-6 2l-51 -109z" />
    <glyph glyph-name="five" unicode="5" horiz-adv-x="1135" 
d="M189 659l81 797h707v-111h-605l-54 -519q55 50 121 77t179 30q186 3 300 -125t114 -344q0 -221 -110.5 -353t-332.5 -132q-180 0 -300 100.5t-115 297.5l2 6h107q0 -147 83.5 -225t222.5 -78q162 0 242.5 98t80.5 284q0 163 -80.5 261.5t-225.5 98.5q-140 0 -213.5 -44.5
t-106.5 -134.5z" />
    <glyph glyph-name="six" unicode="6" horiz-adv-x="1135" 
d="M647 1477q75 0 148 -17t130 -49l-31 -98q-57 32 -113 47t-134 15q-162 0 -268.5 -126t-106.5 -331v-129q60 78 153 125t206 47q196 0 310 -135t114 -352q0 -215 -122.5 -355t-318.5 -140q-201 0 -331.5 150t-130.5 411v367q0 252 143 411t352 159zM607 863
q-121 0 -211.5 -63t-123.5 -162v-107q0 -209 96 -330t246 -121q146 0 233.5 114.5t87.5 279.5q0 175 -85 282t-243 107z" />
    <glyph glyph-name="seven" unicode="7" horiz-adv-x="1135" 
d="M1032 1354q-236 -280 -361 -568.5t-167 -663.5l-11 -122h-120l11 122q42 370 174 669.5t350 562.5h-831v102h955v-102z" />
    <glyph glyph-name="eight" unicode="8" horiz-adv-x="1135" 
d="M996 1081q0 -118 -69 -206.5t-184 -128.5q133 -41 213.5 -136.5t80.5 -223.5q0 -196 -131 -301.5t-337 -105.5q-210 0 -339.5 105t-129.5 302q0 129 79 224.5t212 136.5q-115 40 -182.5 128t-67.5 206q0 188 118.5 292t307.5 104q188 0 308.5 -104.5t120.5 -291.5z
M917 385q0 138 -100 224.5t-250 86.5q-152 0 -250 -86.5t-98 -224.5q0 -143 97 -224t253 -81q152 0 250 81.5t98 223.5zM876 1082q0 126 -88.5 209.5t-220.5 83.5q-135 0 -221 -80t-86 -213q0 -129 86.5 -206.5t222.5 -77.5q133 0 220 77.5t87 206.5z" />
    <glyph glyph-name="nine" unicode="9" horiz-adv-x="1135" 
d="M511 80q166 0 264 111t98 318v182q-53 -93 -142.5 -143t-199.5 -50q-198 0 -320 134.5t-122 345.5q0 212 127.5 355.5t315.5 143.5q211 0 338 -137.5t127 -399.5v-429q0 -253 -134 -392.5t-352 -139.5q-78 0 -156.5 15t-149.5 46l22 101q67 -33 133.5 -47t150.5 -14z
M531 599q130 0 217.5 67t124.5 165v118q0 207 -90.5 316.5t-245.5 109.5q-141 0 -232.5 -116t-91.5 -281q0 -160 86 -269.5t232 -109.5z" />
    <glyph glyph-name="colon" unicode=":" horiz-adv-x="434" 
d="M304 0h-137v164h137v-164zM304 876h-137v164h137v-164z" />
    <glyph glyph-name="semicolon" unicode=";" horiz-adv-x="438" 
d="M305 876h-137v164h137v-164zM322 18l-106 -276h-82l69 279v167h119v-170z" />
    <glyph glyph-name="less" unicode="&#x3c;" horiz-adv-x="1047" 
d="M290 578l-108 -28v-6l108 -28l614 -268v-126l-827 379v97l827 378v-126z" />
    <glyph glyph-name="equal" unicode="=" horiz-adv-x="1147" 
d="M983 833h-834v106h834v-106zM983 422h-834v106h834v-106z" />
    <glyph glyph-name="greater" unicode="&#x3e;" horiz-adv-x="1061" 
d="M124 844v123l845 -378v-97l-845 -379v124l632 274l108 27v6l-108 29z" />
    <glyph glyph-name="question" unicode="?" horiz-adv-x="930" 
d="M377 404q1 131 22 182.5t114 136.5q108 112 157.5 187.5t49.5 191.5q0 128 -68 198t-194 70q-118 0 -190 -68.5t-73 -185.5h-112l-2 6q-3 165 104 260t273 95q179 0 280.5 -101t101.5 -273q0 -135 -66.5 -239.5t-188.5 -218.5q-62 -53 -75.5 -99t-13.5 -142h-119zM512 0
h-139v154h139v-154z" />
    <glyph glyph-name="at" unicode="@" horiz-adv-x="1870" 
d="M1751 513q-10 -216 -117 -375t-313 -159q-78 0 -130.5 51t-69.5 142q-53 -96 -131 -144.5t-180 -48.5q-131 0 -199 120t-49 317q23 254 141 407.5t286 153.5q94 0 151 -26.5t126 -81.5l-2 -2h3l-50 -574q-10 -132 30 -180t95 -48q142 0 224.5 124.5t93.5 323.5
q18 389 -150 604.5t-530 215.5q-323 0 -533 -235.5t-227 -619.5q-19 -379 163.5 -612.5t519.5 -233.5q88 0 178 22t152 57l31 -75q-64 -41 -167 -65t-198 -24q-380 0 -588 249.5t-189 681.5q18 424 252.5 683t609.5 259q391 0 587.5 -241.5t179.5 -665.5zM672 416
q-16 -155 26 -247t138 -92q86 0 156.5 43t122.5 157v8.5t1 7.5l47 544q-32 23 -71 36t-87 13q-134 0 -222 -119t-111 -351z" />
    <glyph glyph-name="A" unicode="A" horiz-adv-x="1270" 
d="M969 406h-668l-150 -406h-124l553 1456h113l549 -1456h-124zM341 513h588l-289 788h-6z" />
    <glyph glyph-name="B" unicode="B" horiz-adv-x="1269" 
d="M191 0v1456h425q227 0 353.5 -95.5t126.5 -287.5q0 -112 -63.5 -195t-172.5 -115q133 -24 216 -125t83 -233q0 -195 -126.5 -300t-338.5 -105h-503zM310 702v-601h384q161 0 253 79.5t92 222.5q0 131 -83.5 215t-242.5 84h-403zM310 803h335q158 0 244.5 69.5t86.5 204.5
q0 138 -92 207.5t-268 69.5h-306v-551z" />
    <glyph glyph-name="C" unicode="C" horiz-adv-x="1313" 
d="M1189 455l2 -6q4 -214 -140 -342t-378 -128q-243 0 -392 175.5t-149 454.5v237q0 278 149 454.5t392 176.5q237 0 379.5 -125t138.5 -344l-2 -6h-112q0 176 -107.5 274.5t-296.5 98.5q-191 0 -306.5 -148t-115.5 -379v-239q0 -234 115.5 -381.5t306.5 -147.5
q189 0 296.5 96t107.5 279h112z" />
    <glyph glyph-name="D" unicode="D" horiz-adv-x="1344" 
d="M191 0v1456h423q267 0 441 -178t174 -457v-187q0 -280 -174 -457t-441 -177h-423zM310 1354v-1253h304q216 0 355.5 151t139.5 382v190q0 228 -140 379t-355 151h-304z" />
    <glyph glyph-name="E" unicode="E" horiz-adv-x="1180" 
d="M1011 705h-701v-604h803v-101h-922v1456h917v-102h-798v-547h701v-102z" />
    <glyph glyph-name="F" unicode="F" horiz-adv-x="1181" 
d="M1018 682h-708v-682h-119v1456h929v-102h-810v-569h708v-103z" />
    <glyph glyph-name="G" unicode="G" horiz-adv-x="1401" 
d="M1230 173q-49 -71 -178.5 -132.5t-326.5 -61.5q-254 0 -416.5 173t-162.5 448v267q0 270 154.5 440t400.5 170q240 0 379 -121.5t142 -312.5l-2 -6h-111q-8 149 -111.5 243.5t-296.5 94.5q-196 0 -315.5 -142t-119.5 -364v-269q0 -228 127 -374t332 -146
q145 0 246.5 40.5t138.5 88.5v380h-387v102h507v-518z" />
    <glyph glyph-name="H" unicode="H" horiz-adv-x="1448" 
d="M1257 0h-119v670h-828v-670h-119v1456h119v-684h828v684h119v-1456z" />
    <glyph glyph-name="I" unicode="I" horiz-adv-x="554" 
d="M337 0h-120v1456h120v-1456z" />
    <glyph glyph-name="J" unicode="J" horiz-adv-x="1127" 
d="M825 1456h120v-1043q0 -199 -118.5 -316.5t-306.5 -117.5q-205 0 -324 106t-114 310l2 6h112q0 -158 84 -239.5t240 -81.5q133 0 219 90.5t86 242.5v1043z" />
    <glyph glyph-name="K" unicode="K" horiz-adv-x="1308" 
d="M510 685h-200v-685h-119v1456h119v-670h199l573 670h135l2 -5l-602 -711l645 -735l-2 -5h-142z" />
    <glyph glyph-name="L" unicode="L" horiz-adv-x="1079" 
d="M311 101h720v-101h-840v1456h120v-1355z" />
    <glyph glyph-name="M" unicode="M" horiz-adv-x="1775" 
d="M348 1456l535 -1282h6l537 1282h158v-1456h-119v643l10 637l-6 2l-541 -1282h-83l-540 1276l-6 -1l11 -632v-643h-119v1456h157z" />
    <glyph glyph-name="N" unicode="N" horiz-adv-x="1454" 
d="M1263 0h-119l-827 1252l-6 -1v-1251h-120v1456h120l827 -1250l6 1v1249h119v-1456z" />
    <glyph glyph-name="O" unicode="O" horiz-adv-x="1378" 
d="M1254 609q0 -282 -154.5 -456t-414.5 -174q-256 0 -408.5 174t-152.5 456v237q0 281 152 456t408 175q260 0 415 -175t155 -456v-237zM1135 848q0 236 -119.5 380t-331.5 144q-208 0 -324 -144t-116 -380v-239q0 -238 116.5 -382t324.5 -144q213 0 331.5 143.5
t118.5 382.5v239z" />
    <glyph glyph-name="P" unicode="P" horiz-adv-x="1267" 
d="M310 605v-605h-119v1456h501q229 0 354.5 -116.5t125.5 -308.5q0 -194 -125.5 -310t-354.5 -116h-382zM310 707h382q180 0 270.5 91.5t90.5 230.5q0 140 -90 232.5t-271 92.5h-382v-647z" />
    <glyph glyph-name="Q" unicode="Q" horiz-adv-x="1379" 
d="M1254 609q0 -162 -53.5 -292.5t-151.5 -213.5l249 -240l-83 -80l-268 254q-59 -29 -124.5 -43.5t-137.5 -14.5q-256 0 -408.5 174t-152.5 456v237q0 281 152 456t408 175q260 0 415 -175t155 -456v-237zM1135 848q0 236 -119.5 380t-331.5 144q-208 0 -324 -144
t-116 -380v-239q0 -238 116.5 -382t324.5 -144q213 0 331.5 143.5t118.5 382.5v239z" />
    <glyph glyph-name="R" unicode="R" horiz-adv-x="1348" 
d="M307 658v-658h-119v1455h493q234 0 359 -102.5t125 -299.5q0 -116 -67 -207.5t-189 -133.5q135 -34 194.5 -121.5t59.5 -219.5v-137q0 -68 16 -122t53 -88v-24h-122q-37 36 -52 101t-15 135v133q0 134 -86.5 211.5t-241.5 77.5h-408zM307 760h359q197 0 288 79.5
t91 214.5q0 144 -90.5 221.5t-273.5 77.5h-374v-593z" />
    <glyph glyph-name="S" unicode="S" horiz-adv-x="1248" 
d="M1027 357q0 119 -89 194.5t-310 133.5q-239 60 -362 156t-123 259q0 167 137.5 272t354.5 105q224 0 362.5 -125t134.5 -305l-3 -6h-111q0 146 -103.5 240t-279.5 94q-175 0 -273.5 -78t-98.5 -194q0 -110 91 -183.5t313 -129.5q235 -60 357.5 -162t122.5 -269
q0 -174 -142 -277t-363 -103q-218 0 -381 109.5t-158 319.5l2 6h111q0 -170 126.5 -252t299.5 -82q172 0 278.5 76t106.5 201z" />
    <glyph glyph-name="T" unicode="T" horiz-adv-x="1213" 
d="M1167 1354h-501v-1354h-120v1354h-501v102h1122v-102z" />
    <glyph glyph-name="U" unicode="U" horiz-adv-x="1374" 
d="M1209 1456v-987q0 -238 -145.5 -364t-379.5 -126q-231 0 -374 126.5t-143 363.5v987h120v-987q0 -186 110 -287.5t287 -101.5q180 0 293 101t113 288v987h119z" />
    <glyph glyph-name="V" unicode="V" horiz-adv-x="1256" 
d="M596 246l29 -98h6l29 98l438 1210h129l-542 -1456h-114l-542 1456h130z" />
    <glyph glyph-name="W" unicode="W" horiz-adv-x="1834" 
d="M445 412l44 -223l6 -1l55 224l308 1044h113l308 -1044l53 -225l6 1l47 224l263 1044h122l-374 -1456h-113l-327 1117l-38 153h-6l-37 -153l-330 -1117h-114l-374 1456h123z" />
    <glyph glyph-name="X" unicode="X" horiz-adv-x="1256" 
d="M628 834l411 622h145l-484 -718l500 -738h-143l-427 642l-426 -642h-145l500 738l-485 718h145z" />
    <glyph glyph-name="Y" unicode="Y" horiz-adv-x="1235" 
d="M616 646l450 810h139l-530 -922v-534h-120v539l-527 917h139z" />
    <glyph glyph-name="Z" unicode="Z" horiz-adv-x="1224" 
d="M238 101h893v-101h-1036v92l858 1262h-831v102h977v-87z" />
    <glyph glyph-name="bracketleft" unicode="[" horiz-adv-x="491" 
d="M493 1562h-210v-1772h210v-102h-330v1976h330v-102z" />
    <glyph glyph-name="backslash" unicode="\" horiz-adv-x="807" 
d="M48 1456h117l608 -1581h-117z" />
    <glyph glyph-name="bracketright" unicode="]" horiz-adv-x="491" 
d="M0 1664h331v-1976h-331v102h211v1772h-211v102z" />
    <glyph glyph-name="asciicircum" unicode="^" horiz-adv-x="852" 
d="M193 729h-116l299 727h90l298 -727h-116l-196 484l-30 106h-6l-30 -106z" />
    <glyph glyph-name="underscore" unicode="_" horiz-adv-x="884" 
d="M882 -101h-881v101h881v-101z" />
    <glyph glyph-name="grave" unicode="`" horiz-adv-x="585" 
d="M451 1210h-117l-241 261l2 5h154z" />
    <glyph glyph-name="a" unicode="a" horiz-adv-x="1101" 
d="M843 0q-11 57 -16.5 98t-5.5 84q-56 -88 -157 -145.5t-232 -57.5q-159 0 -246.5 84.5t-87.5 229.5t127 235t330 90h266v134q0 116 -73.5 182t-207.5 66q-123 0 -198.5 -60.5t-75.5 -151.5l-111 1l-2 6q-6 122 104.5 214.5t288.5 92.5t286 -91t108 -261v-532
q0 -57 6.5 -111t21.5 -107h-125zM445 85q138 0 239 65.5t137 168.5v207h-267q-146 0 -241 -69.5t-95 -167.5q0 -92 60.5 -148t166.5 -56z" />
    <glyph glyph-name="b" unicode="b" horiz-adv-x="1140" 
d="M1030 511q0 -243 -110 -387.5t-303 -144.5q-118 0 -204.5 47.5t-140.5 135.5l-17 -162h-98v1560h120v-646q54 90 138.5 139t199.5 49q195 0 305 -155.5t110 -414.5v-21zM909 532q0 207 -80 336.5t-237 129.5q-124 0 -200.5 -61.5t-114.5 -157.5v-491q40 -95 118.5 -150
t198.5 -55q157 0 236 116t79 312v21z" />
    <glyph glyph-name="c" unicode="c" horiz-adv-x="1061" 
d="M559 80q119 0 210 68t91 189h106l2 -6q5 -150 -120 -251t-289 -101q-221 0 -341.5 151.5t-120.5 389.5v42q0 236 121 388t340 152q178 0 296.5 -105t114.5 -276l-2 -6h-107q0 130 -87.5 207.5t-214.5 77.5q-174 0 -257.5 -124.5t-83.5 -313.5v-42q0 -192 83 -316
t259 -124z" />
    <glyph glyph-name="d" unicode="d" horiz-adv-x="1140" 
d="M111 532q0 259 109.5 414.5t305.5 155.5q113 0 196 -48t138 -136v642h119v-1560h-102l-13 158q-55 -86 -140 -132.5t-200 -46.5q-194 0 -303.5 144.5t-109.5 387.5v21zM231 511q0 -196 78.5 -312t236.5 -116q116 0 193.5 52t120.5 144v508q-41 94 -116 152.5t-196 58.5
q-158 0 -237.5 -129.5t-79.5 -336.5v-21z" />
    <glyph glyph-name="e" unicode="e" horiz-adv-x="1055" 
d="M564 -21q-203 0 -337.5 150t-134.5 380v55q0 232 133.5 385t323.5 153q199 0 313 -126t114 -336v-102h-764v-29q0 -183 97 -306t255 -123q112 0 191 31t135 89l51 -82q-61 -64 -154.5 -101.5t-222.5 -37.5zM549 1000q-133 0 -223 -101.5t-105 -254.5l2 -5h634v30
q0 141 -83 236t-225 95z" />
    <glyph glyph-name="f" unicode="f" horiz-adv-x="673" 
d="M240 0v984h-179v98h179v158q0 163 82 252t229 89q32 0 66 -5t70 -14l-16 -99q-24 6 -49 9.5t-59 3.5q-98 0 -150.5 -62t-52.5 -174v-158h258v-98h-258v-984h-120z" />
    <glyph glyph-name="g" unicode="g" horiz-adv-x="1140" 
d="M111 532q0 259 110.5 414.5t307.5 155.5q115 0 199.5 -50t139.5 -142l18 172h96v-1088q0 -207 -114 -319t-323 -112q-78 0 -166 19t-154 52l31 101q64 -32 135 -48.5t152 -16.5q161 0 240 82t79 242v154q-55 -82 -139.5 -125.5t-195.5 -43.5q-195 0 -305.5 145
t-110.5 387v21zM231 511q0 -195 80 -311.5t238 -116.5q115 0 192.5 52t120.5 143v512q-40 92 -115.5 150t-195.5 58q-158 0 -239 -130t-81 -336v-21z" />
    <glyph glyph-name="h" unicode="h" horiz-adv-x="1140" 
d="M278 897q54 97 144 151t210 54q171 0 262.5 -106t91.5 -329v-667h-120v669q0 176 -69.5 252.5t-191.5 76.5q-123 0 -205.5 -64.5t-121.5 -171.5v-762h-120v1560h120v-663z" />
    <glyph glyph-name="i" unicode="i" horiz-adv-x="465" 
d="M292 0h-119v1082h119v-1082zM292 1392h-119v168h119v-168z" />
    <glyph glyph-name="j" unicode="j" horiz-adv-x="484" 
d="M299 1082v-1171q0 -167 -80 -257.5t-222 -90.5q-30 0 -56.5 5t-55.5 14l13 101q16 -5 44 -10t49 -5q89 0 139 61.5t50 181.5v1171h119zM293 1396h-119v164h119v-164z" />
    <glyph glyph-name="k" unicode="k" horiz-adv-x="1006" 
d="M417 527h-138v-527h-120v1560h120v-930h126l402 452h140l2 -5l-433 -488l478 -584l-3 -5h-137z" />
    <glyph glyph-name="l" unicode="l" horiz-adv-x="465" 
d="M292 0h-119v1560h119v-1560z" />
    <glyph glyph-name="m" unicode="m" horiz-adv-x="1815" 
d="M259 1082l11 -179q52 95 138.5 147t206.5 52q124 0 207.5 -60t119.5 -183q49 114 139.5 178.5t220.5 64.5q173 0 267 -115t94 -356v-631h-120v633q0 200 -70.5 282.5t-196.5 82.5q-139 0 -215 -87t-94 -223q0 -7 0.5 -20t0.5 -19v-649h-121v633q0 196 -71.5 280.5
t-196.5 84.5q-127 0 -201.5 -64.5t-104.5 -173.5v-760h-121v1082h107z" />
    <glyph glyph-name="n" unicode="n" horiz-adv-x="1140" 
d="M264 1082l11 -189q52 100 140.5 154.5t209.5 54.5q176 0 268 -107.5t92 -335.5v-659h-120v658q0 186 -69.5 263t-197.5 77q-126 0 -205.5 -66.5t-114.5 -176.5v-755h-120v1082h106z" />
    <glyph glyph-name="o" unicode="o" horiz-adv-x="1140" 
d="M91 557q0 239 131 392t347 153q217 0 348 -153t131 -392v-33q0 -240 -130.5 -392.5t-346.5 -152.5q-218 0 -349 152.5t-131 392.5v33zM211 524q0 -188 95 -316t265 -128q167 0 262.5 128t95.5 316v33q0 185 -96 314t-264 129t-263 -129t-95 -314v-33z" />
    <glyph glyph-name="p" unicode="p" horiz-adv-x="1140" 
d="M1029 511q0 -243 -110 -387.5t-303 -144.5q-114 0 -199.5 43t-139.5 123v-561h-120v1498h92l23 -170q54 91 139.5 140.5t202.5 49.5q195 0 305 -155.5t110 -414.5v-21zM909 532q0 206 -82 336t-240 130q-121 0 -196.5 -57.5t-113.5 -149.5v-520q41 -89 118.5 -140
t193.5 -51q157 0 238.5 118t81.5 313v21z" />
    <glyph glyph-name="q" unicode="q" horiz-adv-x="1140" 
d="M111 532q0 259 109.5 414.5t305.5 155.5q112 0 196 -47.5t138 -134.5l19 162h95v-1498h-119v558q-55 -79 -138 -121t-193 -42q-194 0 -303.5 144.5t-109.5 387.5v21zM231 511q0 -196 78.5 -313.5t236.5 -117.5q112 0 188.5 50.5t120.5 137.5v531q-41 90 -115.5 145.5
t-191.5 55.5q-158 0 -237.5 -130.5t-79.5 -337.5v-21z" />
    <glyph glyph-name="r" unicode="r" horiz-adv-x="690" 
d="M652 979l-85 6q-113 0 -185.5 -63.5t-103.5 -174.5v-747h-120v1082h105l15 -180v-12q47 100 126 156t188 56q22 0 42 -3.5t33 -7.5z" />
    <glyph glyph-name="s" unicode="s" horiz-adv-x="1043" 
d="M806 275q0 76 -62.5 133t-225.5 93q-194 42 -286.5 111t-92.5 195q0 124 104.5 209.5t276.5 85.5q183 0 290 -90.5t102 -226.5l-2 -6h-111q0 89 -75.5 155t-203.5 66q-131 0 -196.5 -56.5t-65.5 -132.5q0 -75 56.5 -124t225.5 -86q193 -43 289 -117.5t96 -202.5
q0 -135 -109.5 -218.5t-289.5 -83.5q-197 0 -309.5 94t-106.5 224l2 6h110q7 -117 95.5 -170t208.5 -53q130 0 205 57t75 138z" />
    <glyph glyph-name="t" unicode="t" horiz-adv-x="667" 
d="M338 1359v-277h238v-98h-238v-705q0 -106 39 -150.5t103 -44.5q22 0 41 2.5t50 8.5l18 -89q-25 -13 -60 -20t-70 -7q-114 0 -177.5 72t-63.5 228v705h-187v98h187v277h120z" />
    <glyph glyph-name="u" unicode="u" horiz-adv-x="1140" 
d="M867 177q-52 -95 -140 -146.5t-208 -51.5q-171 0 -268 116t-97 360v627h120v-629q0 -198 67.5 -284t191.5 -86q136 0 217 61t113 168v770h120v-1082h-106z" />
    <glyph glyph-name="v" unicode="v" horiz-adv-x="1002" 
d="M466 271l35 -127h6l38 127l294 811h124l-411 -1082h-96l-412 1082h124z" />
    <glyph glyph-name="w" unicode="w" horiz-adv-x="1550" 
d="M391 351l41 -193h6l51 193l230 731h103l230 -731l52 -198h6l45 198l197 731h124l-315 -1082h-102l-240 740l-47 187h-6l-48 -187l-236 -740h-103l-314 1082h124z" />
    <glyph glyph-name="x" unicode="x" horiz-adv-x="1002" 
d="M498 640l293 442h142l-367 -531l382 -551h-140l-308 461l-308 -461h-142l383 551l-367 531h141z" />
    <glyph glyph-name="y" unicode="y" horiz-adv-x="1002" 
d="M465 293l38 -129h6l327 918h134l-470 -1255q-42 -110 -109 -187t-196 -77q-21 0 -51 4.5t-44 9.5l14 100q12 -2 38.5 -4.5t38.5 -2.5q78 0 125 55.5t80 142.5l57 146l-418 1068h133z" />
    <glyph glyph-name="z" unicode="z" horiz-adv-x="1002" 
d="M238 101h703v-101h-851v88l652 891h-632v103h783v-89z" />
    <glyph glyph-name="braceleft" unicode="{" horiz-adv-x="676" 
d="M637 -404q-183 55 -260.5 173.5t-77.5 288.5v226q0 122 -56.5 190.5t-174.5 68.5v104q118 0 174.5 67t56.5 190v228q0 171 77.5 290.5t260.5 174.5l26 -79q-127 -41 -185.5 -142t-58.5 -244v-228q0 -110 -45.5 -191t-138.5 -118q93 -39 138.5 -120.5t45.5 -190.5v-226
q0 -143 59.5 -241.5t187.5 -140.5z" />
    <glyph glyph-name="bar" unicode="|" horiz-adv-x="452" 
d="M279 -270h-101v1726h101v-1726z" />
    <glyph glyph-name="braceright" unicode="}" horiz-adv-x="676" 
d="M9 -324q127 42 187 140.5t60 241.5v226q0 112 47 193t146 117q-99 35 -146 116t-47 194v228q0 144 -58.5 244.5t-185.5 141.5l26 79q182 -55 260 -174.5t78 -290.5v-228q0 -122 56 -189.5t175 -67.5v-104q-119 0 -175 -68.5t-56 -190.5v-226q0 -170 -77.5 -288.5
t-260.5 -173.5z" />
    <glyph glyph-name="asciitilde" unicode="~" horiz-adv-x="1402" 
d="M1257 740q0 -129 -81 -223t-202 -94q-88 0 -160.5 35.5t-160.5 114.5q-64 54 -118.5 80.5t-110.5 26.5q-79 0 -131.5 -60.5t-52.5 -160.5l-97 15q0 131 79 222t202 91q87 0 160.5 -37t162.5 -113q63 -57 116.5 -82.5t110.5 -25.5q77 0 131 64t54 162z" />
    <glyph glyph-name="exclamdown" unicode="&#xa1;" horiz-adv-x="452" 
d="M276 -374h-120v978h120v-978zM287 898h-142v184h142v-184z" />
    <glyph glyph-name="cent" unicode="&#xa2;" horiz-adv-x="1115" 
d="M569 80q119 0 210 68t91 189h107l3 -6q3 -133 -98 -229.5t-245 -117.5v-229h-120v227q-197 18 -303.5 166.5t-106.5 371.5v42q0 221 107 369.5t303 167.5v219h120v-221q153 -21 249.5 -122.5t93.5 -254.5l-2 -5h-108q0 130 -87.5 207.5t-214.5 77.5q-174 0 -257.5 -124.5
t-83.5 -313.5v-42q0 -192 83 -316t259 -124z" />
    <glyph glyph-name="sterling" unicode="&#xa3;" horiz-adv-x="1170" 
d="M393 642l7 -176q0 -107 -25.5 -204t-71.5 -161h769v-101h-941v101h10q70 15 105 130t35 235l-7 176h-207v102h203l-11 296q0 204 106 320.5t284 116.5q187 0 281 -103.5t91 -277.5l-3 -6h-112q0 148 -68.5 216.5t-188.5 68.5q-125 0 -197.5 -88t-72.5 -247l11 -296h450
v-102h-447z" />
    <glyph glyph-name="currency" unicode="&#xa4;" horiz-adv-x="1481" 
d="M1131 133q-80 -74 -180.5 -113.5t-210.5 -39.5q-111 0 -211.5 39.5t-179.5 112.5l-155 -158l-85 86l159 161q-60 81 -92 179t-32 208q0 112 34.5 214t98.5 184l-168 171l85 87l167 -170q78 67 175 103.5t204 36.5q106 0 203 -37.5t176 -104.5l170 173l86 -88l-171 -175
q62 -82 96 -182.5t34 -211.5q0 -108 -32 -206t-90 -178l163 -164l-86 -87zM257 608q0 -215 141.5 -366t341.5 -151q198 0 339.5 151t141.5 366q0 213 -141.5 363.5t-339.5 150.5q-200 0 -341.5 -150.5t-141.5 -363.5z" />
    <glyph glyph-name="yen" unicode="&#xa5;" horiz-adv-x="1223" 
d="M607 733l424 723h139l-455 -751h371v-87h-421v-206h421v-86h-421v-326h-119v326h-416v86h416v206h-416v87h370l-455 751h139z" />
    <glyph glyph-name="brokenbar" unicode="&#xa6;" horiz-adv-x="444" 
d="M159 -270v771h120v-771h-120zM279 698h-120v758h120v-758z" />
    <glyph glyph-name="section" unicode="&#xa7;" horiz-adv-x="1239" 
d="M1119 431q0 -98 -61 -168.5t-171 -103.5q94 -50 141 -120.5t47 -177.5q0 -166 -127.5 -261t-341.5 -95q-213 0 -358 102.5t-140 322.5l2 6l112 2q0 -173 113 -252t271 -79q163 0 255.5 70.5t92.5 181.5q0 106 -77 166t-292 121q-243 61 -360 149.5t-117 255.5
q0 98 58.5 169t164.5 105q-90 49 -134 119.5t-44 175.5q0 161 128 259t343 98q222 0 346.5 -111.5t120.5 -313.5l-2 -6h-112q0 141 -94 235t-259 94q-173 0 -262 -71t-89 -181q0 -114 74 -173t299 -122q247 -65 360 -148.5t113 -248.5zM596 729q-40 9 -75.5 19.5t-66.5 22.5
q-112 -14 -169 -73t-57 -145q0 -116 79 -175t323 -127q34 -10 65 -19t60 -18q115 13 179.5 71.5t64.5 142.5q0 108 -85 170.5t-318 130.5z" />
    <glyph glyph-name="dieresis" unicode="&#xa8;" horiz-adv-x="959" 
d="M805 1299h-173v157h173v-157zM336 1299h-174v157h174v-157z" />
    <glyph glyph-name="copyright" unicode="&#xa9;" horiz-adv-x="1637" 
d="M1113 596l2 -6q4 -150 -78.5 -229t-229.5 -79q-151 0 -242 106.5t-91 280.5v119q0 172 91 279.5t242 107.5q147 0 230 -79t79 -228l-2 -6h-91q0 113 -55 168t-161 55q-110 0 -172 -83.5t-62 -212.5v-120q0 -132 61.5 -214.5t172.5 -82.5q107 0 161 54t54 170h91zM192 729
q0 -279 182.5 -471.5t442.5 -192.5q257 0 440.5 192.5t183.5 471.5q0 277 -183 468.5t-441 191.5q-260 0 -442.5 -191.5t-182.5 -468.5zM107 729q0 315 207 531t503 216q295 0 502 -216t207 -531q0 -316 -207.5 -533t-501.5 -217q-296 0 -503 217t-207 533z" />
    <glyph glyph-name="ordfeminine" unicode="&#xaa;" horiz-adv-x="906" 
d="M649 706q-9 25 -14.5 52.5t-7.5 55.5q-37 -53 -98.5 -87.5t-144.5 -34.5q-119 0 -184 61t-65 167q0 105 79 163t229 58h182v61q0 85 -41 131.5t-120 46.5q-92 0 -142.5 -37.5t-50.5 -108.5l-99 9l-2 6q-5 98 77 163t217 65q123 0 196.5 -71.5t73.5 -204.5v-314
q0 -48 6 -92.5t20 -88.5h-111zM404 787q70 0 135.5 38t85.5 85v147h-181q-96 0 -148.5 -38.5t-52.5 -94.5q0 -66 39.5 -101.5t121.5 -35.5z" />
    <glyph glyph-name="guillemotleft" unicode="&#xab;" horiz-adv-x="933" 
d="M556 520l276 -388h-105l-295 379v19l295 379h105zM221 520l276 -388h-105l-295 379v19l295 379h105z" />
    <glyph glyph-name="logicalnot" unicode="&#xac;" horiz-adv-x="1117" 
d="M936 386h-120v284h-692v106h812v-390z" />
    <glyph glyph-name="uni00AD" unicode="&#xad;" horiz-adv-x="586" 
d="M528 570h-479v101h479v-101z" />
    <glyph glyph-name="registered" unicode="&#xae;" horiz-adv-x="1642" 
d="M102 729q0 315 207 531t503 216q295 0 502.5 -216t207.5 -531q0 -316 -207.5 -533t-502.5 -217q-296 0 -503 217t-207 533zM187 729q0 -279 183 -471.5t442 -192.5q258 0 441 192.5t183 471.5q0 277 -183 468.5t-441 191.5q-259 0 -442 -191.5t-183 -468.5zM650 672v-356
h-98v850h258q147 0 226 -63t79 -185q0 -68 -36.5 -117.5t-104.5 -79.5q68 -25 98 -78t30 -128v-56q0 -40 4 -73t13 -54v-16h-102q-10 21 -12 61.5t-2 82.5v54q0 84 -38 121t-127 37h-188zM650 763h181q79 0 132.5 40.5t53.5 112.5q0 85 -46 122t-161 37h-160v-312z" />
    <glyph glyph-name="macron" unicode="&#xaf;" horiz-adv-x="874" 
d="M776 1359h-670v97h670v-97z" />
    <glyph glyph-name="degree" unicode="&#xb0;" horiz-adv-x="774" 
d="M143 1227q0 102 72 176t173 74q99 0 170.5 -74t71.5 -176q0 -104 -71 -175.5t-171 -71.5q-101 0 -173 72t-72 175zM233 1227q0 -68 44.5 -112t110.5 -44q65 0 108.5 44t43.5 112t-43.5 113.5t-108.5 45.5q-66 0 -110.5 -46t-44.5 -113z" />
    <glyph glyph-name="plusminus" unicode="&#xb1;" horiz-adv-x="1086" 
d="M609 829h392v-101h-392v-439h-110v439h-414v101h414v438h110v-438zM968 42h-835v102h835v-102z" />
    <glyph glyph-name="uni00B2" unicode="&#xb2;" horiz-adv-x="835" 
d="M687 667h-569v90l315 282q77 71 104 115.5t27 91.5q0 64 -39 103t-118 39q-87 0 -134 -42t-47 -108h-100l-2 6q-6 97 72.5 166t210.5 69q124 0 195 -60.5t71 -173.5q0 -75 -47 -136t-150 -158l-214 -188l2 -6h423v-90z" />
    <glyph glyph-name="uni00B3" unicode="&#xb3;" horiz-adv-x="852" 
d="M695 1253q0 -58 -35.5 -105t-98.5 -72q72 -22 110 -70.5t38 -119.5q0 -109 -83.5 -170t-216.5 -61q-121 0 -207.5 58.5t-81.5 168.5l2 6h101q0 -63 51 -103t135 -40q90 0 140.5 38t50.5 103q0 75 -46.5 109.5t-139.5 34.5h-122v89h122q88 0 130.5 35t42.5 99
q0 59 -45 96.5t-133 37.5q-75 0 -124.5 -35.5t-49.5 -93.5h-99l-2 6q-6 94 74.5 154t200.5 60q132 0 209 -58.5t77 -166.5z" />
    <glyph glyph-name="acute" unicode="&#xb4;" horiz-adv-x="576" 
d="M323 1478h147l3 -6l-249 -260h-108z" />
    <glyph glyph-name="mu" unicode="&#xb5;" horiz-adv-x="1140" 
d="M281 1082v-633q0 -207 71 -288t192 -81q137 0 212 59.5t103 170.5v772h120v-1082h-103l-11 155q-48 -85 -126 -130.5t-187 -45.5q-88 0 -157 30t-114 96v-521h-119v1498h119z" />
    <glyph glyph-name="paragraph" unicode="&#xb6;" horiz-adv-x="973" 
d="M680 0v520h-106q-233 0 -362.5 129.5t-129.5 338.5q0 207 129.5 337.5t362.5 130.5h226v-1456h-120z" />
    <glyph glyph-name="periodcentered" unicode="&#xb7;" horiz-adv-x="503" 
d="M321 624h-155v180h155v-180z" />
    <glyph glyph-name="cedilla" unicode="&#xb8;" horiz-adv-x="498" 
d="M246 0l-12 -64q79 -9 127.5 -48.5t48.5 -122.5q0 -91 -79 -145.5t-226 -54.5l-7 78q90 0 151.5 30.5t61.5 89.5q0 57 -41.5 79.5t-145.5 30.5l29 127h93z" />
    <glyph glyph-name="uni00B9" unicode="&#xb9;" horiz-adv-x="511" 
d="M345 665h-109v703l-148 -7v93l257 23v-812z" />
    <glyph glyph-name="ordmasculine" unicode="&#xba;" horiz-adv-x="922" 
d="M135 1142q0 148 87.5 241.5t235.5 93.5t236 -93.5t88 -241.5v-117q0 -149 -87.5 -241.5t-234.5 -92.5q-149 0 -237 92.5t-88 241.5v117zM243 1025q0 -107 54.5 -173t162.5 -66q103 0 158.5 66.5t55.5 172.5v117q0 104 -56 171t-160 67t-159.5 -67t-55.5 -171v-117z" />
    <glyph glyph-name="guillemotright" unicode="&#xbb;" horiz-adv-x="928" 
d="M571 944l295 -384v-19l-295 -379h-106l276 388l-276 394h106zM225 944l295 -384v-19l-295 -379h-106l276 388l-276 394h106z" />
    <glyph glyph-name="onequarter" unicode="&#xbc;" horiz-adv-x="1561" 
d="M1324 260h153v-90h-153v-170h-108v170h-430l-4 67l429 564h113v-541zM911 260h305v402l-6 1l-25 -43zM416 129l-74 48l711 1138l74 -48zM434 664h-109v703l-148 -7v93l257 23v-812z" />
    <glyph glyph-name="onehalf" unicode="&#xbd;" horiz-adv-x="1567" 
d="M1498 0h-569v90l315 282q77 71 104 115.5t27 91.5q0 64 -39 103t-118 39q-87 0 -134 -42t-47 -108h-100l-2 6q-6 97 72.5 166t210.5 69q124 0 195 -60.5t71 -173.5q0 -75 -47 -136t-150 -158l-214 -188l2 -6h423v-90zM434 664h-109v703l-148 -7v93l257 23v-812zM429 129
l-74 48l711 1138l74 -48z" />
    <glyph glyph-name="threequarters" unicode="&#xbe;" horiz-adv-x="1712" 
d="M711 1254q0 -58 -35.5 -105t-98.5 -72q72 -22 110 -70.5t38 -119.5q0 -109 -83.5 -170t-216.5 -61q-121 0 -207.5 58.5t-81.5 168.5l2 6h101q0 -63 51 -103t135 -40q90 0 140.5 38t50.5 103q0 75 -46.5 109.5t-139.5 34.5h-122v89h122q88 0 130.5 35t42.5 99
q0 59 -45 96.5t-133 37.5q-75 0 -124.5 -35.5t-49.5 -93.5h-99l-2 6q-6 94 74.5 154t200.5 60q132 0 209 -58.5t77 -166.5zM1513 260h153v-90h-153v-170h-108v170h-430l-4 67l429 564h113v-541zM1100 260h305v402l-6 1l-25 -43zM599 129l-74 48l711 1138l74 -48z" />
    <glyph glyph-name="questiondown" unicode="&#xbf;" horiz-adv-x="958" 
d="M572 678q-2 -131 -23.5 -183t-113.5 -136q-109 -113 -158 -188.5t-49 -189.5q0 -128 67.5 -198t194.5 -70q117 0 189 68.5t74 185.5h112l2 -6q2 -165 -105 -260t-272 -95q-180 0 -281 101t-101 273q0 133 66 237.5t189 219.5q61 52 75 98.5t14 142.5h120zM436 1083h139
v-155h-139v155z" />
    <glyph glyph-name="Agrave" unicode="&#xc0;" horiz-adv-x="1270" 
d="M969 406h-668l-150 -406h-124l553 1456h113l549 -1456h-124zM341 513h588l-289 788h-6zM723 1561h-117l-241 261l2 5h154z" />
    <glyph glyph-name="Aacute" unicode="&#xc1;" horiz-adv-x="1270" 
d="M969 406h-668l-150 -406h-124l553 1456h113l549 -1456h-124zM341 513h588l-289 788h-6zM785 1823h147l3 -6l-249 -260h-108z" />
    <glyph glyph-name="Acircumflex" unicode="&#xc2;" horiz-adv-x="1270" 
d="M932 1619v-18h-112l-167 168l-166 -168h-110v21l227 221h98zM969 406h-668l-150 -406h-124l553 1456h113l549 -1456h-124zM341 513h588l-289 788h-6z" />
    <glyph glyph-name="Atilde" unicode="&#xc3;" horiz-adv-x="1270" 
d="M973 1822q0 -88 -55 -146t-137 -58q-74 0 -151 55t-131 55q-47 0 -79 -35t-32 -89l-80 18q0 86 54 144.5t137 58.5q65 0 147 -55t135 -55q46 0 79 36t33 91zM969 406h-668l-150 -406h-124l553 1456h113l549 -1456h-124zM341 513h588l-289 788h-6z" />
    <glyph glyph-name="Adieresis" unicode="&#xc4;" horiz-adv-x="1270" 
d="M969 406h-668l-150 -406h-124l553 1456h113l549 -1456h-124zM341 513h588l-289 788h-6zM979 1641h-173v157h173v-157zM510 1641h-174v157h174v-157z" />
    <glyph glyph-name="Aring" unicode="&#xc5;" horiz-adv-x="1270" 
d="M482 1730q0 69 49.5 117.5t119.5 48.5q68 0 117 -48.5t49 -117.5q0 -71 -48.5 -117t-117.5 -46q-71 0 -120 46t-49 117zM560 1730q0 -39 26.5 -65t64.5 -26q37 0 62.5 25.5t25.5 65.5t-25.5 66.5t-62.5 26.5q-38 0 -64.5 -27t-26.5 -66zM969 406h-668l-150 -406h-124
l553 1456h113l549 -1456h-124zM341 513h588l-289 788h-6z" />
    <glyph glyph-name="AE" unicode="&#xc6;" horiz-adv-x="1865" 
d="M1823 0h-817l-17 389h-597l-229 -389h-146l881 1456h864v-102h-694l23 -545h589v-102h-585l26 -606h702v-101zM459 502h526l-35 839l-6 1l-15 -44z" />
    <glyph glyph-name="Ccedilla" unicode="&#xc7;" horiz-adv-x="1313" 
d="M1189 455l2 -6q4 -214 -140 -342t-378 -128q-243 0 -392 175.5t-149 454.5v237q0 278 149 454.5t392 176.5q237 0 379.5 -125t138.5 -344l-2 -6h-112q0 176 -107.5 274.5t-296.5 98.5q-191 0 -306.5 -148t-115.5 -379v-239q0 -234 115.5 -381.5t306.5 -147.5
q189 0 296.5 96t107.5 279h112zM714 -9l-12 -64q79 -9 127.5 -48.5t48.5 -122.5q0 -91 -79 -145.5t-226 -54.5l-7 78q90 0 151.5 30.5t61.5 89.5q0 57 -41.5 79.5t-145.5 30.5l29 127h93z" />
    <glyph glyph-name="Egrave" unicode="&#xc8;" horiz-adv-x="1180" 
d="M1011 705h-701v-604h803v-101h-922v1456h917v-102h-798v-547h701v-102zM693 1561h-117l-241 261l2 5h154z" />
    <glyph glyph-name="Eacute" unicode="&#xc9;" horiz-adv-x="1180" 
d="M1011 705h-701v-604h803v-101h-922v1456h917v-102h-798v-547h701v-102zM755 1823h147l3 -6l-249 -260h-108z" />
    <glyph glyph-name="Ecircumflex" unicode="&#xca;" horiz-adv-x="1180" 
d="M902 1619v-18h-112l-167 168l-166 -168h-110v21l227 221h98zM1011 705h-701v-604h803v-101h-922v1456h917v-102h-798v-547h701v-102z" />
    <glyph glyph-name="Edieresis" unicode="&#xcb;" horiz-adv-x="1180" 
d="M1011 705h-701v-604h803v-101h-922v1456h917v-102h-798v-547h701v-102zM949 1641h-173v157h173v-157zM480 1641h-174v157h174v-157z" />
    <glyph glyph-name="Igrave" unicode="&#xcc;" horiz-adv-x="554" 
d="M337 0h-120v1456h120v-1456zM348 1561h-117l-241 261l2 5h154z" />
    <glyph glyph-name="Iacute" unicode="&#xcd;" horiz-adv-x="554" 
d="M337 0h-120v1456h120v-1456zM409 1823h147l3 -6l-249 -260h-108z" />
    <glyph glyph-name="Icircumflex" unicode="&#xce;" horiz-adv-x="554" 
d="M557 1619v-18h-112l-167 168l-166 -168h-110v21l227 221h98zM337 0h-120v1456h120v-1456z" />
    <glyph glyph-name="Idieresis" unicode="&#xcf;" horiz-adv-x="554" 
d="M337 0h-120v1456h120v-1456zM604 1641h-173v157h173v-157zM135 1641h-174v157h174v-157z" />
    <glyph glyph-name="Eth" unicode="&#xd0;" horiz-adv-x="1374" 
d="M221 0v689h-153v102h153v665h423q267 0 441 -178t174 -457v-187q0 -280 -174 -457t-441 -177h-423zM680 689h-340v-588h304q216 0 355.5 151t139.5 382v190q0 228 -140 379t-355 151h-304v-563h340v-102z" />
    <glyph glyph-name="Ntilde" unicode="&#xd1;" horiz-adv-x="1454" 
d="M1047 1822q0 -88 -55 -146t-137 -58q-74 0 -151 55t-131 55q-47 0 -79 -35t-32 -89l-80 18q0 86 54 144.5t137 58.5q65 0 147 -55t135 -55q46 0 79 36t33 91zM1263 0h-119l-827 1252l-6 -1v-1251h-120v1456h120l827 -1250l6 1v1249h119v-1456z" />
    <glyph glyph-name="Ograve" unicode="&#xd2;" horiz-adv-x="1378" 
d="M1254 609q0 -282 -154.5 -456t-414.5 -174q-256 0 -408.5 174t-152.5 456v237q0 281 152 456t408 175q260 0 415 -175t155 -456v-237zM1135 848q0 236 -119.5 380t-331.5 144q-208 0 -324 -144t-116 -380v-239q0 -238 116.5 -382t324.5 -144q213 0 331.5 143.5
t118.5 382.5v239zM756 1582h-117l-241 261l2 5h154z" />
    <glyph glyph-name="Oacute" unicode="&#xd3;" horiz-adv-x="1378" 
d="M1254 609q0 -282 -154.5 -456t-414.5 -174q-256 0 -408.5 174t-152.5 456v237q0 281 152 456t408 175q260 0 415 -175t155 -456v-237zM1135 848q0 236 -119.5 380t-331.5 144q-208 0 -324 -144t-116 -380v-239q0 -238 116.5 -382t324.5 -144q213 0 331.5 143.5
t118.5 382.5v239zM818 1844h147l3 -6l-249 -260h-108z" />
    <glyph glyph-name="Ocircumflex" unicode="&#xd4;" horiz-adv-x="1378" 
d="M965 1640v-18h-112l-167 168l-166 -168h-110v21l227 221h98zM1254 609q0 -282 -154.5 -456t-414.5 -174q-256 0 -408.5 174t-152.5 456v237q0 281 152 456t408 175q260 0 415 -175t155 -456v-237zM1135 848q0 236 -119.5 380t-331.5 144q-208 0 -324 -144t-116 -380v-239
q0 -238 116.5 -382t324.5 -144q213 0 331.5 143.5t118.5 382.5v239z" />
    <glyph glyph-name="Otilde" unicode="&#xd5;" horiz-adv-x="1378" 
d="M1006 1843q0 -88 -55 -146t-137 -58q-74 0 -151 55t-131 55q-47 0 -79 -35t-32 -89l-80 18q0 86 54 144.5t137 58.5q65 0 147 -55t135 -55q46 0 79 36t33 91zM1254 609q0 -282 -154.5 -456t-414.5 -174q-256 0 -408.5 174t-152.5 456v237q0 281 152 456t408 175
q260 0 415 -175t155 -456v-237zM1135 848q0 236 -119.5 380t-331.5 144q-208 0 -324 -144t-116 -380v-239q0 -238 116.5 -382t324.5 -144q213 0 331.5 143.5t118.5 382.5v239z" />
    <glyph glyph-name="Odieresis" unicode="&#xd6;" horiz-adv-x="1378" 
d="M1254 609q0 -282 -154.5 -456t-414.5 -174q-256 0 -408.5 174t-152.5 456v237q0 281 152 456t408 175q260 0 415 -175t155 -456v-237zM1135 848q0 236 -119.5 380t-331.5 144q-208 0 -324 -144t-116 -380v-239q0 -238 116.5 -382t324.5 -144q213 0 331.5 143.5
t118.5 382.5v239zM1012 1662h-173v157h173v-157zM543 1662h-174v157h174v-157z" />
    <glyph glyph-name="multiply" unicode="&#xd7;" horiz-adv-x="1072" 
d="M93 318l358 365l-343 350l79 80l342 -350l343 350l79 -80l-343 -350l358 -365l-79 -79l-358 364l-357 -364z" />
    <glyph glyph-name="Oslash" unicode="&#xd8;" horiz-adv-x="1379" 
d="M1254 609q0 -282 -154.5 -456t-414.5 -174q-92 0 -171.5 23.5t-144.5 68.5l-96 -155h-104l131 212q-86 84 -131 207.5t-45 273.5v237q0 281 152 456t408 175q109 0 201.5 -33t165.5 -95l96 156h104l-136 -222q67 -84 103 -195.5t36 -241.5v-237zM244 609
q0 -118 29.5 -214.5t85.5 -160.5l6 -1l627 1021q-58 57 -135.5 87.5t-172.5 30.5q-208 0 -324 -144t-116 -380v-239zM1135 848q0 97 -21.5 180.5t-60.5 144.5h-6l-621 -1009q51 -40 116.5 -60.5t142.5 -20.5q213 0 331.5 143.5t118.5 382.5v239z" />
    <glyph glyph-name="Ugrave" unicode="&#xd9;" horiz-adv-x="1374" 
d="M1209 1456v-987q0 -238 -145.5 -364t-379.5 -126q-231 0 -374 126.5t-143 363.5v987h120v-987q0 -186 110 -287.5t287 -101.5q180 0 293 101t113 288v987h119zM767 1561h-117l-241 261l2 5h154z" />
    <glyph glyph-name="Uacute" unicode="&#xda;" horiz-adv-x="1374" 
d="M1209 1456v-987q0 -238 -145.5 -364t-379.5 -126q-231 0 -374 126.5t-143 363.5v987h120v-987q0 -186 110 -287.5t287 -101.5q180 0 293 101t113 288v987h119zM829 1823h147l3 -6l-249 -260h-108z" />
    <glyph glyph-name="Ucircumflex" unicode="&#xdb;" horiz-adv-x="1374" 
d="M976 1619v-18h-112l-167 168l-166 -168h-110v21l227 221h98zM1209 1456v-987q0 -238 -145.5 -364t-379.5 -126q-231 0 -374 126.5t-143 363.5v987h120v-987q0 -186 110 -287.5t287 -101.5q180 0 293 101t113 288v987h119z" />
    <glyph glyph-name="Udieresis" unicode="&#xdc;" horiz-adv-x="1374" 
d="M1209 1456v-987q0 -238 -145.5 -364t-379.5 -126q-231 0 -374 126.5t-143 363.5v987h120v-987q0 -186 110 -287.5t287 -101.5q180 0 293 101t113 288v987h119zM1023 1641h-173v157h173v-157zM554 1641h-174v157h174v-157z" />
    <glyph glyph-name="Yacute" unicode="&#xdd;" horiz-adv-x="1235" 
d="M616 646l450 810h139l-530 -922v-534h-120v539l-527 917h139zM748 1816h147l3 -6l-249 -260h-108z" />
    <glyph glyph-name="Thorn" unicode="&#xde;" horiz-adv-x="1214" 
d="M303 1456v-304h324q221 0 345 -115.5t124 -298.5q0 -185 -124 -299.5t-345 -114.5h-324v-324h-120v1456h120zM303 1051v-626h324q173 0 261 92t88 219q0 130 -88 222.5t-261 92.5h-324z" />
    <glyph glyph-name="germandbls" unicode="&#xdf;" horiz-adv-x="1200" 
d="M271 0h-120v1082q0 204 102.5 317t273.5 113q140 0 232 -79.5t92 -222.5q0 -109 -61.5 -215.5t-61.5 -184.5q0 -86 184 -228t184 -287q0 -153 -110 -234.5t-266 -81.5q-86 0 -176.5 23.5t-129.5 56.5l34 101q41 -31 114.5 -55.5t143.5 -24.5q125 0 197.5 60t72.5 155
q0 99 -184 240.5t-184 276.5q0 93 63 201.5t63 190.5q0 92 -60 149.5t-137 57.5q-121 0 -193.5 -85.5t-72.5 -243.5v-1082z" />
    <glyph glyph-name="agrave" unicode="&#xe0;" horiz-adv-x="1101" 
d="M843 0q-11 57 -16.5 98t-5.5 84q-56 -88 -157 -145.5t-232 -57.5q-159 0 -246.5 84.5t-87.5 229.5t127 235t330 90h266v134q0 116 -73.5 182t-207.5 66q-123 0 -198.5 -60.5t-75.5 -151.5l-111 1l-2 6q-6 122 104.5 214.5t288.5 92.5t286 -91t108 -261v-532
q0 -57 6.5 -111t21.5 -107h-125zM445 85q138 0 239 65.5t137 168.5v207h-267q-146 0 -241 -69.5t-95 -167.5q0 -92 60.5 -148t166.5 -56zM613 1240h-117l-241 261l2 5h154z" />
    <glyph glyph-name="aacute" unicode="&#xe1;" horiz-adv-x="1101" 
d="M843 0q-11 57 -16.5 98t-5.5 84q-56 -88 -157 -145.5t-232 -57.5q-159 0 -246.5 84.5t-87.5 229.5t127 235t330 90h266v134q0 116 -73.5 182t-207.5 66q-123 0 -198.5 -60.5t-75.5 -151.5l-111 1l-2 6q-6 122 104.5 214.5t288.5 92.5t286 -91t108 -261v-532
q0 -57 6.5 -111t21.5 -107h-125zM445 85q138 0 239 65.5t137 168.5v207h-267q-146 0 -241 -69.5t-95 -167.5q0 -92 60.5 -148t166.5 -56zM675 1502h147l3 -6l-249 -260h-108z" />
    <glyph glyph-name="acircumflex" unicode="&#xe2;" horiz-adv-x="1101" 
d="M822 1298v-18h-112l-167 168l-166 -168h-110v21l227 221h98zM843 0q-11 57 -16.5 98t-5.5 84q-56 -88 -157 -145.5t-232 -57.5q-159 0 -246.5 84.5t-87.5 229.5t127 235t330 90h266v134q0 116 -73.5 182t-207.5 66q-123 0 -198.5 -60.5t-75.5 -151.5l-111 1l-2 6
q-6 122 104.5 214.5t288.5 92.5t286 -91t108 -261v-532q0 -57 6.5 -111t21.5 -107h-125zM445 85q138 0 239 65.5t137 168.5v207h-267q-146 0 -241 -69.5t-95 -167.5q0 -92 60.5 -148t166.5 -56z" />
    <glyph glyph-name="atilde" unicode="&#xe3;" horiz-adv-x="1101" 
d="M863 1501q0 -88 -55 -146t-137 -58q-74 0 -151 55t-131 55q-47 0 -79 -35t-32 -89l-80 18q0 86 54 144.5t137 58.5q65 0 147 -55t135 -55q46 0 79 36t33 91zM843 0q-11 57 -16.5 98t-5.5 84q-56 -88 -157 -145.5t-232 -57.5q-159 0 -246.5 84.5t-87.5 229.5t127 235
t330 90h266v134q0 116 -73.5 182t-207.5 66q-123 0 -198.5 -60.5t-75.5 -151.5l-111 1l-2 6q-6 122 104.5 214.5t288.5 92.5t286 -91t108 -261v-532q0 -57 6.5 -111t21.5 -107h-125zM445 85q138 0 239 65.5t137 168.5v207h-267q-146 0 -241 -69.5t-95 -167.5
q0 -92 60.5 -148t166.5 -56z" />
    <glyph glyph-name="adieresis" unicode="&#xe4;" horiz-adv-x="1101" 
d="M843 0q-11 57 -16.5 98t-5.5 84q-56 -88 -157 -145.5t-232 -57.5q-159 0 -246.5 84.5t-87.5 229.5t127 235t330 90h266v134q0 116 -73.5 182t-207.5 66q-123 0 -198.5 -60.5t-75.5 -151.5l-111 1l-2 6q-6 122 104.5 214.5t288.5 92.5t286 -91t108 -261v-532
q0 -57 6.5 -111t21.5 -107h-125zM445 85q138 0 239 65.5t137 168.5v207h-267q-146 0 -241 -69.5t-95 -167.5q0 -92 60.5 -148t166.5 -56zM869 1320h-173v157h173v-157zM400 1320h-174v157h174v-157z" />
    <glyph glyph-name="aring" unicode="&#xe5;" horiz-adv-x="1101" 
d="M372 1409q0 69 49.5 117.5t119.5 48.5q68 0 117 -48.5t49 -117.5q0 -71 -48.5 -117t-117.5 -46q-71 0 -120 46t-49 117zM450 1409q0 -39 26.5 -65t64.5 -26q37 0 62.5 25.5t25.5 65.5t-25.5 66.5t-62.5 26.5q-38 0 -64.5 -27t-26.5 -66zM843 0q-11 57 -16.5 98t-5.5 84
q-56 -88 -157 -145.5t-232 -57.5q-159 0 -246.5 84.5t-87.5 229.5t127 235t330 90h266v134q0 116 -73.5 182t-207.5 66q-123 0 -198.5 -60.5t-75.5 -151.5l-111 1l-2 6q-6 122 104.5 214.5t288.5 92.5t286 -91t108 -261v-532q0 -57 6.5 -111t21.5 -107h-125zM445 85
q138 0 239 65.5t137 168.5v207h-267q-146 0 -241 -69.5t-95 -167.5q0 -92 60.5 -148t166.5 -56z" />
    <glyph glyph-name="ae" unicode="&#xe6;" horiz-adv-x="1732" 
d="M1265 -21q-138 0 -241 55.5t-163 157.5q-49 -87 -159.5 -150t-269.5 -63q-170 0 -262.5 84.5t-92.5 229.5q0 158 113 248.5t326 90.5h262v88q0 134 -63 207t-187 73q-135 0 -213.5 -67t-78.5 -168l-110 12l-2 6q-5 138 106.5 228.5t297.5 90.5q124 0 212.5 -54
t128.5 -157q61 99 156.5 155t209.5 56q200 0 311.5 -124t111.5 -340v-100h-754v-29q0 -191 89.5 -310t271.5 -119q103 0 181.5 32.5t142.5 86.5l47 -87q-60 -55 -148.5 -94t-222.5 -39zM449 79q102 0 197.5 53.5t131.5 115.5v288h-260q-155 0 -238 -71t-83 -176
q0 -97 65 -153.5t187 -56.5zM1235 1000q-138 0 -224 -101.5t-99 -257.5l2 -5h625v31q0 146 -77.5 239.5t-226.5 93.5z" />
    <glyph glyph-name="ccedilla" unicode="&#xe7;" horiz-adv-x="1061" 
d="M559 80q119 0 210 68t91 189h106l2 -6q5 -150 -120 -251t-289 -101q-221 0 -341.5 151.5t-120.5 389.5v42q0 236 121 388t340 152q178 0 296.5 -105t114.5 -276l-2 -6h-107q0 130 -87.5 207.5t-214.5 77.5q-174 0 -257.5 -124.5t-83.5 -313.5v-42q0 -192 83 -316
t259 -124zM578 -9l-12 -64q79 -9 127.5 -48.5t48.5 -122.5q0 -91 -79 -145.5t-226 -54.5l-7 78q90 0 151.5 30.5t61.5 89.5q0 57 -41.5 79.5t-145.5 30.5l29 127h93z" />
    <glyph glyph-name="egrave" unicode="&#xe8;" horiz-adv-x="1055" 
d="M564 -21q-203 0 -337.5 150t-134.5 380v55q0 232 133.5 385t323.5 153q199 0 313 -126t114 -336v-102h-764v-29q0 -183 97 -306t255 -123q112 0 191 31t135 89l51 -82q-61 -64 -154.5 -101.5t-222.5 -37.5zM549 1000q-133 0 -223 -101.5t-105 -254.5l2 -5h634v30
q0 141 -83 236t-225 95zM632 1240h-117l-241 261l2 5h154z" />
    <glyph glyph-name="eacute" unicode="&#xe9;" horiz-adv-x="1055" 
d="M564 -21q-203 0 -337.5 150t-134.5 380v55q0 232 133.5 385t323.5 153q199 0 313 -126t114 -336v-102h-764v-29q0 -183 97 -306t255 -123q112 0 191 31t135 89l51 -82q-61 -64 -154.5 -101.5t-222.5 -37.5zM549 1000q-133 0 -223 -101.5t-105 -254.5l2 -5h634v30
q0 141 -83 236t-225 95zM694 1502h147l3 -6l-249 -260h-108z" />
    <glyph glyph-name="ecircumflex" unicode="&#xea;" horiz-adv-x="1055" 
d="M841 1298v-18h-112l-167 168l-166 -168h-110v21l227 221h98zM564 -21q-203 0 -337.5 150t-134.5 380v55q0 232 133.5 385t323.5 153q199 0 313 -126t114 -336v-102h-764v-29q0 -183 97 -306t255 -123q112 0 191 31t135 89l51 -82q-61 -64 -154.5 -101.5t-222.5 -37.5z
M549 1000q-133 0 -223 -101.5t-105 -254.5l2 -5h634v30q0 141 -83 236t-225 95z" />
    <glyph glyph-name="edieresis" unicode="&#xeb;" horiz-adv-x="1055" 
d="M564 -21q-203 0 -337.5 150t-134.5 380v55q0 232 133.5 385t323.5 153q199 0 313 -126t114 -336v-102h-764v-29q0 -183 97 -306t255 -123q112 0 191 31t135 89l51 -82q-61 -64 -154.5 -101.5t-222.5 -37.5zM549 1000q-133 0 -223 -101.5t-105 -254.5l2 -5h634v30
q0 141 -83 236t-225 95zM888 1320h-173v157h173v-157zM419 1320h-174v157h174v-157z" />
    <glyph glyph-name="igrave" unicode="&#xec;" horiz-adv-x="456" 
d="M288 0h-120v1082h120v-1082zM299 1218h-117l-241 261l2 5h154z" />
    <glyph glyph-name="iacute" unicode="&#xed;" horiz-adv-x="456" 
d="M288 0h-120v1082h120v-1082zM360 1480h147l3 -6l-249 -260h-108z" />
    <glyph glyph-name="icircumflex" unicode="&#xee;" horiz-adv-x="456" 
d="M508 1276v-18h-112l-167 168l-166 -168h-110v21l227 221h98zM288 0h-120v1082h120v-1082z" />
    <glyph glyph-name="idieresis" unicode="&#xef;" horiz-adv-x="456" 
d="M288 0h-120v1082h120v-1082zM555 1299h-173v157h173v-157zM86 1299h-174v157h174v-157z" />
    <glyph glyph-name="eth" unicode="&#xf0;" horiz-adv-x="1191" 
d="M849 1311q101 -102 153.5 -241t52.5 -315v-220q0 -245 -137 -400.5t-344 -155.5q-208 0 -341.5 137t-133.5 339q0 235 127.5 372.5t339.5 137.5q114 0 209.5 -45t150.5 -120l5 5q-5 145 -54 255.5t-135 189.5l-327 -187l-50 74l302 173q-47 31 -100.5 56t-112.5 47
l39 104q82 -27 153.5 -63t131.5 -81l240 138l51 -74zM578 82q158 0 257.5 127.5t99.5 325.5v139q-39 77 -134.5 132t-234.5 55q-167 0 -257 -115t-90 -291q0 -149 97 -261t262 -112z" />
    <glyph glyph-name="ntilde" unicode="&#xf1;" horiz-adv-x="1140" 
d="M898 1500q0 -88 -55 -146t-137 -58q-74 0 -151 55t-131 55q-47 0 -79 -35t-32 -89l-80 18q0 86 54 144.5t137 58.5q65 0 147 -55t135 -55q46 0 79 36t33 91zM264 1082l11 -189q52 100 140.5 154.5t209.5 54.5q176 0 268 -107.5t92 -335.5v-659h-120v658q0 186 -69.5 263
t-197.5 77q-126 0 -205.5 -66.5t-114.5 -176.5v-755h-120v1082h106z" />
    <glyph glyph-name="ograve" unicode="&#xf2;" horiz-adv-x="1140" 
d="M91 557q0 239 131 392t347 153q217 0 348 -153t131 -392v-33q0 -240 -130.5 -392.5t-346.5 -152.5q-218 0 -349 152.5t-131 392.5v33zM211 524q0 -188 95 -316t265 -128q167 0 262.5 128t95.5 316v33q0 185 -96 314t-264 129t-263 -129t-95 -314v-33zM652 1239h-117
l-241 261l2 5h154z" />
    <glyph glyph-name="oacute" unicode="&#xf3;" horiz-adv-x="1140" 
d="M91 557q0 239 131 392t347 153q217 0 348 -153t131 -392v-33q0 -240 -130.5 -392.5t-346.5 -152.5q-218 0 -349 152.5t-131 392.5v33zM211 524q0 -188 95 -316t265 -128q167 0 262.5 128t95.5 316v33q0 185 -96 314t-264 129t-263 -129t-95 -314v-33zM714 1501h147l3 -6
l-249 -260h-108z" />
    <glyph glyph-name="ocircumflex" unicode="&#xf4;" horiz-adv-x="1140" 
d="M861 1297v-18h-112l-167 168l-166 -168h-110v21l227 221h98zM91 557q0 239 131 392t347 153q217 0 348 -153t131 -392v-33q0 -240 -130.5 -392.5t-346.5 -152.5q-218 0 -349 152.5t-131 392.5v33zM211 524q0 -188 95 -316t265 -128q167 0 262.5 128t95.5 316v33
q0 185 -96 314t-264 129t-263 -129t-95 -314v-33z" />
    <glyph glyph-name="otilde" unicode="&#xf5;" horiz-adv-x="1140" 
d="M902 1500q0 -88 -55 -146t-137 -58q-74 0 -151 55t-131 55q-47 0 -79 -35t-32 -89l-80 18q0 86 54 144.5t137 58.5q65 0 147 -55t135 -55q46 0 79 36t33 91zM91 557q0 239 131 392t347 153q217 0 348 -153t131 -392v-33q0 -240 -130.5 -392.5t-346.5 -152.5
q-218 0 -349 152.5t-131 392.5v33zM211 524q0 -188 95 -316t265 -128q167 0 262.5 128t95.5 316v33q0 185 -96 314t-264 129t-263 -129t-95 -314v-33z" />
    <glyph glyph-name="odieresis" unicode="&#xf6;" horiz-adv-x="1140" 
d="M91 557q0 239 131 392t347 153q217 0 348 -153t131 -392v-33q0 -240 -130.5 -392.5t-346.5 -152.5q-218 0 -349 152.5t-131 392.5v33zM211 524q0 -188 95 -316t265 -128q167 0 262.5 128t95.5 316v33q0 185 -96 314t-264 129t-263 -129t-95 -314v-33zM908 1319h-173v157
h173v-157zM439 1319h-174v157h174v-157z" />
    <glyph glyph-name="divide" unicode="&#xf7;" horiz-adv-x="1164" 
d="M1070 644h-998v116h998v-116zM648 1010h-142v160h142v-160zM648 212h-142v160h142v-160z" />
    <glyph glyph-name="oslash" unicode="&#xf8;" horiz-adv-x="1141" 
d="M91 557q0 239 131 392t347 153q60 0 114 -12.5t102 -36.5l79 161h93l-101 -207q91 -72 141.5 -189t50.5 -261v-33q0 -240 -130.5 -392.5t-346.5 -152.5q-55 0 -104.5 10.5t-94.5 30.5l-78 -160h-93l99 202q-100 70 -154.5 190.5t-54.5 271.5v33zM211 524q0 -112 35 -206
t100 -149h6l385 787q-36 21 -78.5 32.5t-89.5 11.5q-168 0 -263 -129t-95 -314v-33zM929 557q0 102 -32 192t-89 147h-6l-384 -782q33 -17 71.5 -25.5t81.5 -8.5q167 0 262.5 128t95.5 316v33z" />
    <glyph glyph-name="ugrave" unicode="&#xf9;" horiz-adv-x="1140" 
d="M867 177q-52 -95 -140 -146.5t-208 -51.5q-171 0 -268 116t-97 360v627h120v-629q0 -198 67.5 -284t191.5 -86q136 0 217 61t113 168v770h120v-1082h-106zM650 1218h-117l-241 261l2 5h154z" />
    <glyph glyph-name="uacute" unicode="&#xfa;" horiz-adv-x="1140" 
d="M867 177q-52 -95 -140 -146.5t-208 -51.5q-171 0 -268 116t-97 360v627h120v-629q0 -198 67.5 -284t191.5 -86q136 0 217 61t113 168v770h120v-1082h-106zM712 1480h147l3 -6l-249 -260h-108z" />
    <glyph glyph-name="ucircumflex" unicode="&#xfb;" horiz-adv-x="1140" 
d="M859 1276v-18h-112l-167 168l-166 -168h-110v21l227 221h98zM867 177q-52 -95 -140 -146.5t-208 -51.5q-171 0 -268 116t-97 360v627h120v-629q0 -198 67.5 -284t191.5 -86q136 0 217 61t113 168v770h120v-1082h-106z" />
    <glyph glyph-name="udieresis" unicode="&#xfc;" horiz-adv-x="1140" 
d="M867 177q-52 -95 -140 -146.5t-208 -51.5q-171 0 -268 116t-97 360v627h120v-629q0 -198 67.5 -284t191.5 -86q136 0 217 61t113 168v770h120v-1082h-106zM906 1299h-173v157h173v-157zM437 1299h-174v157h174v-157z" />
    <glyph glyph-name="yacute" unicode="&#xfd;" horiz-adv-x="1002" 
d="M465 293l38 -129h6l327 918h134l-470 -1255q-42 -110 -109 -187t-196 -77q-21 0 -51 4.5t-44 9.5l14 100q12 -2 38.5 -4.5t38.5 -2.5q78 0 125 55.5t80 142.5l57 146l-418 1068h133zM646 1480h147l3 -6l-249 -260h-108z" />
    <glyph glyph-name="thorn" unicode="&#xfe;" horiz-adv-x="1151" 
d="M1039 511q0 -243 -110 -387.5t-303 -144.5q-114 0 -199.5 43t-139.5 123v-561h-120v1976h119v-641q54 88 138.5 135.5t199.5 47.5q195 0 305 -155.5t110 -414.5v-21zM919 532q0 206 -82 336t-240 130q-121 0 -196.5 -57.5t-113.5 -149.5v-520q41 -89 118.5 -140
t193.5 -51q157 0 238.5 118t81.5 313v21z" />
    <glyph glyph-name="ydieresis" unicode="&#xff;" horiz-adv-x="1002" 
d="M465 293l38 -129h6l327 918h134l-470 -1255q-42 -110 -109 -187t-196 -77q-21 0 -51 4.5t-44 9.5l14 100q12 -2 38.5 -4.5t38.5 -2.5q78 0 125 55.5t80 142.5l57 146l-418 1068h133zM840 1299h-173v157h173v-157zM371 1299h-174v157h174v-157z" />
    <glyph glyph-name="Amacron" unicode="&#x100;" horiz-adv-x="1270" 
d="M969 406h-668l-150 -406h-124l553 1456h113l549 -1456h-124zM341 513h588l-289 788h-6zM986 1689h-670v97h670v-97z" />
    <glyph glyph-name="amacron" unicode="&#x101;" horiz-adv-x="1101" 
d="M843 0q-11 57 -16.5 98t-5.5 84q-56 -88 -157 -145.5t-232 -57.5q-159 0 -246.5 84.5t-87.5 229.5t127 235t330 90h266v134q0 116 -73.5 182t-207.5 66q-123 0 -198.5 -60.5t-75.5 -151.5l-111 1l-2 6q-6 122 104.5 214.5t288.5 92.5t286 -91t108 -261v-532
q0 -57 6.5 -111t21.5 -107h-125zM445 85q138 0 239 65.5t137 168.5v207h-267q-146 0 -241 -69.5t-95 -167.5q0 -92 60.5 -148t166.5 -56zM876 1368h-670v97h670v-97z" />
    <glyph glyph-name="Abreve" unicode="&#x102;" horiz-adv-x="1270" 
d="M934 1854l2 -6q4 -112 -73 -182t-210 -70t-210.5 70.5t-72.5 181.5l2 6h94q0 -77 45 -124t142 -47q94 0 140.5 48t46.5 123h94zM969 406h-668l-150 -406h-124l553 1456h113l549 -1456h-124zM341 513h588l-289 788h-6z" />
    <glyph glyph-name="abreve" unicode="&#x103;" horiz-adv-x="1101" 
d="M824 1533l2 -6q4 -112 -73 -182t-210 -70t-210.5 70.5t-72.5 181.5l2 6h94q0 -77 45 -124t142 -47q94 0 140.5 48t46.5 123h94zM843 0q-11 57 -16.5 98t-5.5 84q-56 -88 -157 -145.5t-232 -57.5q-159 0 -246.5 84.5t-87.5 229.5t127 235t330 90h266v134q0 116 -73.5 182
t-207.5 66q-123 0 -198.5 -60.5t-75.5 -151.5l-111 1l-2 6q-6 122 104.5 214.5t288.5 92.5t286 -91t108 -261v-532q0 -57 6.5 -111t21.5 -107h-125zM445 85q138 0 239 65.5t137 168.5v207h-267q-146 0 -241 -69.5t-95 -167.5q0 -92 60.5 -148t166.5 -56z" />
    <glyph glyph-name="Aogonek" unicode="&#x104;" horiz-adv-x="1270" 
d="M1226 0q-72 -60 -110 -108t-38 -104q0 -31 19 -58t70 -27q32 0 56.5 9t48.5 23l24 -83q-30 -19 -66.5 -31.5t-85.5 -12.5q-76 0 -125 44.5t-49 124.5q0 71 51 139t144 121zM969 406h-668l-150 -406h-124l553 1456h113l549 -1456h-124zM341 513h588l-289 788h-6z" />
    <glyph glyph-name="aogonek" unicode="&#x105;" horiz-adv-x="1101" 
d="M952 0q-72 -60 -110 -108t-38 -104q0 -31 19 -58t70 -27q32 0 56.5 9t48.5 23l24 -83q-30 -19 -66.5 -31.5t-85.5 -12.5q-76 0 -125 44.5t-49 124.5q0 71 51 139t144 121zM843 0q-11 57 -16.5 98t-5.5 84q-56 -88 -157 -145.5t-232 -57.5q-159 0 -246.5 84.5t-87.5 229.5
t127 235t330 90h266v134q0 116 -73.5 182t-207.5 66q-123 0 -198.5 -60.5t-75.5 -151.5l-111 1l-2 6q-6 122 104.5 214.5t288.5 92.5t286 -91t108 -261v-532q0 -57 6.5 -111t21.5 -107h-125zM445 85q138 0 239 65.5t137 168.5v207h-267q-146 0 -241 -69.5t-95 -167.5
q0 -92 60.5 -148t166.5 -56z" />
    <glyph glyph-name="Cacute" unicode="&#x106;" horiz-adv-x="1313" 
d="M1189 455l2 -6q4 -214 -140 -342t-378 -128q-243 0 -392 175.5t-149 454.5v237q0 278 149 454.5t392 176.5q237 0 379.5 -125t138.5 -344l-2 -6h-112q0 176 -107.5 274.5t-296.5 98.5q-191 0 -306.5 -148t-115.5 -379v-239q0 -234 115.5 -381.5t306.5 -147.5
q189 0 296.5 96t107.5 279h112zM810 1844h147l3 -6l-249 -260h-108z" />
    <glyph glyph-name="cacute" unicode="&#x107;" horiz-adv-x="1061" 
d="M559 80q119 0 210 68t91 189h106l2 -6q5 -150 -120 -251t-289 -101q-221 0 -341.5 151.5t-120.5 389.5v42q0 236 121 388t340 152q178 0 296.5 -105t114.5 -276l-2 -6h-107q0 130 -87.5 207.5t-214.5 77.5q-174 0 -257.5 -124.5t-83.5 -313.5v-42q0 -192 83 -316
t259 -124zM674 1501h147l3 -6l-249 -260h-108z" />
    <glyph glyph-name="Ccircumflex" unicode="&#x108;" horiz-adv-x="1313" 
d="M957 1640v-18h-112l-167 168l-166 -168h-110v21l227 221h98zM1189 455l2 -6q4 -214 -140 -342t-378 -128q-243 0 -392 175.5t-149 454.5v237q0 278 149 454.5t392 176.5q237 0 379.5 -125t138.5 -344l-2 -6h-112q0 176 -107.5 274.5t-296.5 98.5q-191 0 -306.5 -148
t-115.5 -379v-239q0 -234 115.5 -381.5t306.5 -147.5q189 0 296.5 96t107.5 279h112z" />
    <glyph glyph-name="ccircumflex" unicode="&#x109;" horiz-adv-x="1061" 
d="M821 1297v-18h-112l-167 168l-166 -168h-110v21l227 221h98zM559 80q119 0 210 68t91 189h106l2 -6q5 -150 -120 -251t-289 -101q-221 0 -341.5 151.5t-120.5 389.5v42q0 236 121 388t340 152q178 0 296.5 -105t114.5 -276l-2 -6h-107q0 130 -87.5 207.5t-214.5 77.5
q-174 0 -257.5 -124.5t-83.5 -313.5v-42q0 -192 83 -316t259 -124z" />
    <glyph glyph-name="Cdotaccent" unicode="&#x10a;" horiz-adv-x="1313" 
d="M752 1658h-151v168h151v-168zM1189 455l2 -6q4 -214 -140 -342t-378 -128q-243 0 -392 175.5t-149 454.5v237q0 278 149 454.5t392 176.5q237 0 379.5 -125t138.5 -344l-2 -6h-112q0 176 -107.5 274.5t-296.5 98.5q-191 0 -306.5 -148t-115.5 -379v-239
q0 -234 115.5 -381.5t306.5 -147.5q189 0 296.5 96t107.5 279h112z" />
    <glyph glyph-name="cdotaccent" unicode="&#x10b;" horiz-adv-x="1061" 
d="M616 1315h-151v168h151v-168zM559 80q119 0 210 68t91 189h106l2 -6q5 -150 -120 -251t-289 -101q-221 0 -341.5 151.5t-120.5 389.5v42q0 236 121 388t340 152q178 0 296.5 -105t114.5 -276l-2 -6h-107q0 130 -87.5 207.5t-214.5 77.5q-174 0 -257.5 -124.5
t-83.5 -313.5v-42q0 -192 83 -316t259 -124z" />
    <glyph glyph-name="Ccaron" unicode="&#x10c;" horiz-adv-x="1313" 
d="M677 1697l166 169h115v-17l-233 -225h-97l-232 225v17h114zM1189 455l2 -6q4 -214 -140 -342t-378 -128q-243 0 -392 175.5t-149 454.5v237q0 278 149 454.5t392 176.5q237 0 379.5 -125t138.5 -344l-2 -6h-112q0 176 -107.5 274.5t-296.5 98.5q-191 0 -306.5 -148
t-115.5 -379v-239q0 -234 115.5 -381.5t306.5 -147.5q189 0 296.5 96t107.5 279h112z" />
    <glyph glyph-name="ccaron" unicode="&#x10d;" horiz-adv-x="1061" 
d="M541 1354l166 169h115v-17l-233 -225h-97l-232 225v17h114zM559 80q119 0 210 68t91 189h106l2 -6q5 -150 -120 -251t-289 -101q-221 0 -341.5 151.5t-120.5 389.5v42q0 236 121 388t340 152q178 0 296.5 -105t114.5 -276l-2 -6h-107q0 130 -87.5 207.5t-214.5 77.5
q-174 0 -257.5 -124.5t-83.5 -313.5v-42q0 -192 83 -316t259 -124z" />
    <glyph glyph-name="Dcaron" unicode="&#x10e;" horiz-adv-x="1344" 
d="M602 1676l166 169h115v-17l-233 -225h-97l-232 225v17h114zM191 0v1456h423q267 0 441 -178t174 -457v-187q0 -280 -174 -457t-441 -177h-423zM310 1354v-1253h304q216 0 355.5 151t139.5 382v190q0 228 -140 379t-355 151h-304z" />
    <glyph glyph-name="dcaron" unicode="&#x10f;" horiz-adv-x="1290" 
d="M1260 1437l-83 -209h-71l52 211v120h102v-122zM111 532q0 259 109.5 414.5t305.5 155.5q113 0 196 -48t138 -136v642h119v-1560h-102l-13 158q-55 -86 -140 -132.5t-200 -46.5q-194 0 -303.5 144.5t-109.5 387.5v21zM231 511q0 -196 78.5 -312t236.5 -116q116 0 193.5 52
t120.5 144v508q-41 94 -116 152.5t-196 58.5q-158 0 -237.5 -129.5t-79.5 -336.5v-21z" />
    <glyph glyph-name="Dcroat" unicode="&#x110;" horiz-adv-x="1374" 
d="M221 0v689h-153v102h153v665h423q267 0 441 -178t174 -457v-187q0 -280 -174 -457t-441 -177h-423zM680 689h-340v-588h304q216 0 355.5 151t139.5 382v190q0 228 -140 379t-355 151h-304v-563h340v-102z" />
    <glyph glyph-name="dcroat" unicode="&#x111;" horiz-adv-x="1170" 
d="M1156 1257h-177v-1257h-102l-13 158q-55 -86 -140 -132.5t-200 -46.5q-194 0 -303.5 144.5t-109.5 387.5v21q0 259 109.5 414.5t305.5 155.5q113 0 196 -48t138 -136v339h-316v102h316v201h119v-201h177v-102zM231 511q0 -196 78.5 -312t236.5 -116q116 0 193.5 52
t120.5 144v508q-41 94 -116 152.5t-196 58.5q-158 0 -237.5 -129.5t-79.5 -336.5v-21z" />
    <glyph glyph-name="Emacron" unicode="&#x112;" horiz-adv-x="1180" 
d="M1011 705h-701v-604h803v-101h-922v1456h917v-102h-798v-547h701v-102zM956 1689h-670v97h670v-97z" />
    <glyph glyph-name="emacron" unicode="&#x113;" horiz-adv-x="1055" 
d="M564 -21q-203 0 -337.5 150t-134.5 380v55q0 232 133.5 385t323.5 153q199 0 313 -126t114 -336v-102h-764v-29q0 -183 97 -306t255 -123q112 0 191 31t135 89l51 -82q-61 -64 -154.5 -101.5t-222.5 -37.5zM549 1000q-133 0 -223 -101.5t-105 -254.5l2 -5h634v30
q0 141 -83 236t-225 95zM895 1368h-670v97h670v-97z" />
    <glyph glyph-name="Ebreve" unicode="&#x114;" horiz-adv-x="1180" 
d="M904 1854l2 -6q4 -112 -73 -182t-210 -70t-210.5 70.5t-72.5 181.5l2 6h94q0 -77 45 -124t142 -47q94 0 140.5 48t46.5 123h94zM1011 705h-701v-604h803v-101h-922v1456h917v-102h-798v-547h701v-102z" />
    <glyph glyph-name="ebreve" unicode="&#x115;" horiz-adv-x="1055" 
d="M843 1533l2 -6q4 -112 -73 -182t-210 -70t-210.5 70.5t-72.5 181.5l2 6h94q0 -77 45 -124t142 -47q94 0 140.5 48t46.5 123h94zM564 -21q-203 0 -337.5 150t-134.5 380v55q0 232 133.5 385t323.5 153q199 0 313 -126t114 -336v-102h-764v-29q0 -183 97 -306t255 -123
q112 0 191 31t135 89l51 -82q-61 -64 -154.5 -101.5t-222.5 -37.5zM549 1000q-133 0 -223 -101.5t-105 -254.5l2 -5h634v30q0 141 -83 236t-225 95z" />
    <glyph glyph-name="Edotaccent" unicode="&#x116;" horiz-adv-x="1180" 
d="M697 1637h-151v168h151v-168zM1011 705h-701v-604h803v-101h-922v1456h917v-102h-798v-547h701v-102z" />
    <glyph glyph-name="edotaccent" unicode="&#x117;" horiz-adv-x="1055" 
d="M636 1316h-151v168h151v-168zM564 -21q-203 0 -337.5 150t-134.5 380v55q0 232 133.5 385t323.5 153q199 0 313 -126t114 -336v-102h-764v-29q0 -183 97 -306t255 -123q112 0 191 31t135 89l51 -82q-61 -64 -154.5 -101.5t-222.5 -37.5zM549 1000q-133 0 -223 -101.5
t-105 -254.5l2 -5h634v30q0 141 -83 236t-225 95z" />
    <glyph glyph-name="Eogonek" unicode="&#x118;" horiz-adv-x="1180" 
d="M683 0q-72 -60 -110 -108t-38 -104q0 -31 19 -58t70 -27q32 0 56.5 9t48.5 23l24 -83q-30 -19 -66.5 -31.5t-85.5 -12.5q-76 0 -125 44.5t-49 124.5q0 71 51 139t144 121zM1011 705h-701v-604h803v-101h-922v1456h917v-102h-798v-547h701v-102z" />
    <glyph glyph-name="eogonek" unicode="&#x119;" horiz-adv-x="1055" 
d="M849 60q-72 -60 -110 -108t-38 -104q0 -31 19 -58t70 -27q32 0 56.5 9t48.5 23l24 -83q-30 -19 -66.5 -31.5t-85.5 -12.5q-76 0 -125 44.5t-49 124.5q0 71 51 139t144 121zM564 -21q-203 0 -337.5 150t-134.5 380v55q0 232 133.5 385t323.5 153q199 0 313 -126t114 -336
v-102h-764v-29q0 -183 97 -306t255 -123q112 0 191 31t135 89l51 -82q-61 -64 -154.5 -101.5t-222.5 -37.5zM549 1000q-133 0 -223 -101.5t-105 -254.5l2 -5h634v30q0 141 -83 236t-225 95z" />
    <glyph glyph-name="Ecaron" unicode="&#x11a;" horiz-adv-x="1180" 
d="M622 1676l166 169h115v-17l-233 -225h-97l-232 225v17h114zM1011 705h-701v-604h803v-101h-922v1456h917v-102h-798v-547h701v-102z" />
    <glyph glyph-name="ecaron" unicode="&#x11b;" horiz-adv-x="1055" 
d="M561 1355l166 169h115v-17l-233 -225h-97l-232 225v17h114zM564 -21q-203 0 -337.5 150t-134.5 380v55q0 232 133.5 385t323.5 153q199 0 313 -126t114 -336v-102h-764v-29q0 -183 97 -306t255 -123q112 0 191 31t135 89l51 -82q-61 -64 -154.5 -101.5t-222.5 -37.5z
M549 1000q-133 0 -223 -101.5t-105 -254.5l2 -5h634v30q0 141 -83 236t-225 95z" />
    <glyph glyph-name="Gcircumflex" unicode="&#x11c;" horiz-adv-x="1401" 
d="M947 1640v-18h-112l-167 168l-166 -168h-110v21l227 221h98zM1230 173q-49 -71 -178.5 -132.5t-326.5 -61.5q-254 0 -416.5 173t-162.5 448v267q0 270 154.5 440t400.5 170q240 0 379 -121.5t142 -312.5l-2 -6h-111q-8 149 -111.5 243.5t-296.5 94.5q-196 0 -315.5 -142
t-119.5 -364v-269q0 -228 127 -374t332 -146q145 0 246.5 40.5t138.5 88.5v380h-387v102h507v-518z" />
    <glyph glyph-name="gcircumflex" unicode="&#x11d;" horiz-adv-x="1140" 
d="M844 1297v-18h-112l-167 168l-166 -168h-110v21l227 221h98zM111 532q0 259 110.5 414.5t307.5 155.5q115 0 199.5 -50t139.5 -142l18 172h96v-1088q0 -207 -114 -319t-323 -112q-78 0 -166 19t-154 52l31 101q64 -32 135 -48.5t152 -16.5q161 0 240 82t79 242v154
q-55 -82 -139.5 -125.5t-195.5 -43.5q-195 0 -305.5 145t-110.5 387v21zM231 511q0 -195 80 -311.5t238 -116.5q115 0 192.5 52t120.5 143v512q-40 92 -115.5 150t-195.5 58q-158 0 -239 -130t-81 -336v-21z" />
    <glyph glyph-name="Gbreve" unicode="&#x11e;" horiz-adv-x="1401" 
d="M949 1875l2 -6q4 -112 -73 -182t-210 -70t-210.5 70.5t-72.5 181.5l2 6h94q0 -77 45 -124t142 -47q94 0 140.5 48t46.5 123h94zM1230 173q-49 -71 -178.5 -132.5t-326.5 -61.5q-254 0 -416.5 173t-162.5 448v267q0 270 154.5 440t400.5 170q240 0 379 -121.5t142 -312.5
l-2 -6h-111q-8 149 -111.5 243.5t-296.5 94.5q-196 0 -315.5 -142t-119.5 -364v-269q0 -228 127 -374t332 -146q145 0 246.5 40.5t138.5 88.5v380h-387v102h507v-518z" />
    <glyph glyph-name="gbreve" unicode="&#x11f;" horiz-adv-x="1140" 
d="M846 1532l2 -6q4 -112 -73 -182t-210 -70t-210.5 70.5t-72.5 181.5l2 6h94q0 -77 45 -124t142 -47q94 0 140.5 48t46.5 123h94zM111 532q0 259 110.5 414.5t307.5 155.5q115 0 199.5 -50t139.5 -142l18 172h96v-1088q0 -207 -114 -319t-323 -112q-78 0 -166 19t-154 52
l31 101q64 -32 135 -48.5t152 -16.5q161 0 240 82t79 242v154q-55 -82 -139.5 -125.5t-195.5 -43.5q-195 0 -305.5 145t-110.5 387v21zM231 511q0 -195 80 -311.5t238 -116.5q115 0 192.5 52t120.5 143v512q-40 92 -115.5 150t-195.5 58q-158 0 -239 -130t-81 -336v-21z" />
    <glyph glyph-name="Gdotaccent" unicode="&#x120;" horiz-adv-x="1401" 
d="M742 1658h-151v168h151v-168zM1230 173q-49 -71 -178.5 -132.5t-326.5 -61.5q-254 0 -416.5 173t-162.5 448v267q0 270 154.5 440t400.5 170q240 0 379 -121.5t142 -312.5l-2 -6h-111q-8 149 -111.5 243.5t-296.5 94.5q-196 0 -315.5 -142t-119.5 -364v-269
q0 -228 127 -374t332 -146q145 0 246.5 40.5t138.5 88.5v380h-387v102h507v-518z" />
    <glyph glyph-name="gdotaccent" unicode="&#x121;" horiz-adv-x="1140" 
d="M639 1315h-151v168h151v-168zM111 532q0 259 110.5 414.5t307.5 155.5q115 0 199.5 -50t139.5 -142l18 172h96v-1088q0 -207 -114 -319t-323 -112q-78 0 -166 19t-154 52l31 101q64 -32 135 -48.5t152 -16.5q161 0 240 82t79 242v154q-55 -82 -139.5 -125.5t-195.5 -43.5
q-195 0 -305.5 145t-110.5 387v21zM231 511q0 -195 80 -311.5t238 -116.5q115 0 192.5 52t120.5 143v512q-40 92 -115.5 150t-195.5 58q-158 0 -239 -130t-81 -336v-21z" />
    <glyph glyph-name="uni0122" unicode="&#x122;" horiz-adv-x="1401" 
d="M749 -259l-83 -209h-71l52 211v120h102v-122zM1230 173q-49 -71 -178.5 -132.5t-326.5 -61.5q-254 0 -416.5 173t-162.5 448v267q0 270 154.5 440t400.5 170q240 0 379 -121.5t142 -312.5l-2 -6h-111q-8 149 -111.5 243.5t-296.5 94.5q-196 0 -315.5 -142t-119.5 -364
v-269q0 -228 127 -374t332 -146q145 0 246.5 40.5t138.5 88.5v380h-387v102h507v-518z" />
    <glyph glyph-name="uni0123" unicode="&#x123;" horiz-adv-x="1140" 
d="M502 1401l87 216h72l-40 -218v-135h-119v137zM111 532q0 259 110.5 414.5t307.5 155.5q115 0 199.5 -50t139.5 -142l18 172h96v-1088q0 -207 -114 -319t-323 -112q-78 0 -166 19t-154 52l31 101q64 -32 135 -48.5t152 -16.5q161 0 240 82t79 242v154
q-55 -82 -139.5 -125.5t-195.5 -43.5q-195 0 -305.5 145t-110.5 387v21zM231 511q0 -195 80 -311.5t238 -116.5q115 0 192.5 52t120.5 143v512q-40 92 -115.5 150t-195.5 58q-158 0 -239 -130t-81 -336v-21z" />
    <glyph glyph-name="Hcircumflex" unicode="&#x124;" horiz-adv-x="1448" 
d="M997 1619v-18h-112l-167 168l-166 -168h-110v21l227 221h98zM1257 0h-119v670h-828v-670h-119v1456h119v-684h828v684h119v-1456z" />
    <glyph glyph-name="hcircumflex" unicode="&#x125;" horiz-adv-x="1140" 
d="M768 1618v-18h-112l-167 168l-166 -168h-110v21l227 221h98zM278 897q54 97 144 151t210 54q171 0 262.5 -106t91.5 -329v-667h-120v669q0 176 -69.5 252.5t-191.5 76.5q-123 0 -205.5 -64.5t-121.5 -171.5v-762h-120v1560h120v-663z" />
    <glyph glyph-name="Hbar" unicode="&#x126;" horiz-adv-x="1412" 
d="M1255 1123h129v-97h-129v-1026h-119v670h-828v-670h-119v1026h-164v97h164v333h119v-333h828v333h119v-333zM308 772h828v254h-828v-254z" />
    <glyph glyph-name="hbar" unicode="&#x127;" horiz-adv-x="1170" 
d="M645 1257h-337v-360q54 97 144 151t210 54q171 0 262.5 -106t91.5 -329v-667h-120v669q0 176 -69.5 252.5t-191.5 76.5q-123 0 -205.5 -64.5t-121.5 -171.5v-762h-120v1257h-155v102h155v201h120v-201h337v-102z" />
    <glyph glyph-name="Itilde" unicode="&#x128;" horiz-adv-x="554" 
d="M598 1822q0 -88 -55 -146t-137 -58q-74 0 -151 55t-131 55q-47 0 -79 -35t-32 -89l-80 18q0 86 54 144.5t137 58.5q65 0 147 -55t135 -55q46 0 79 36t33 91zM337 0h-120v1456h120v-1456z" />
    <glyph glyph-name="itilde" unicode="&#x129;" horiz-adv-x="456" 
d="M549 1480q0 -88 -55 -146t-137 -58q-74 0 -151 55t-131 55q-47 0 -79 -35t-32 -89l-80 18q0 86 54 144.5t137 58.5q65 0 147 -55t135 -55q46 0 79 36t33 91zM288 0h-120v1082h120v-1082z" />
    <glyph glyph-name="Imacron" unicode="&#x12a;" horiz-adv-x="554" 
d="M337 0h-120v1456h120v-1456zM611 1689h-670v97h670v-97z" />
    <glyph glyph-name="imacron" unicode="&#x12b;" horiz-adv-x="456" 
d="M288 0h-120v1082h120v-1082zM562 1347h-670v97h670v-97z" />
    <glyph glyph-name="Ibreve" unicode="&#x12c;" horiz-adv-x="554" 
d="M559 1854l2 -6q4 -112 -73 -182t-210 -70t-210.5 70.5t-72.5 181.5l2 6h94q0 -77 45 -124t142 -47q94 0 140.5 48t46.5 123h94zM337 0h-120v1456h120v-1456z" />
    <glyph glyph-name="ibreve" unicode="&#x12d;" horiz-adv-x="456" 
d="M510 1511l2 -6q4 -112 -73 -182t-210 -70t-210.5 70.5t-72.5 181.5l2 6h94q0 -77 45 -124t142 -47q94 0 140.5 48t46.5 123h94zM288 0h-120v1082h120v-1082z" />
    <glyph glyph-name="Iogonek" unicode="&#x12e;" horiz-adv-x="554" 
d="M322 0q-72 -60 -110 -108t-38 -104q0 -31 19 -58t70 -27q32 0 56.5 9t48.5 23l24 -83q-30 -19 -66.5 -31.5t-85.5 -12.5q-76 0 -125 44.5t-49 124.5q0 71 51 139t144 121zM337 0h-120v1456h120v-1456z" />
    <glyph glyph-name="iogonek" unicode="&#x12f;" horiz-adv-x="465" 
d="M277 0q-72 -60 -110 -108t-38 -104q0 -31 19 -58t70 -27q32 0 56.5 9t48.5 23l24 -83q-30 -19 -66.5 -31.5t-85.5 -12.5q-76 0 -125 44.5t-49 124.5q0 71 51 139t144 121zM292 0h-119v1082h119v-1082zM292 1392h-119v168h119v-168z" />
    <glyph glyph-name="Idotaccent" unicode="&#x130;" horiz-adv-x="554" 
d="M351 1637h-151v168h151v-168zM337 0h-120v1456h120v-1456z" />
    <glyph glyph-name="dotlessi" unicode="&#x131;" horiz-adv-x="456" 
d="M288 0h-120v1082h120v-1082z" />
    <glyph glyph-name="IJ" unicode="&#x132;" horiz-adv-x="1681" 
d="M337 0h-120v1456h120v-1456zM1379 1456h120v-1043q0 -199 -118.5 -316.5t-306.5 -117.5q-205 0 -324 106t-114 310l2 6h112q0 -158 84 -239.5t240 -81.5q133 0 219 90.5t86 242.5v1043z" />
    <glyph glyph-name="ij" unicode="&#x133;" horiz-adv-x="949" 
d="M292 0h-119v1082h119v-1082zM292 1392h-119v168h119v-168zM764 1082v-1171q0 -167 -80 -257.5t-222 -90.5q-30 0 -56.5 5t-55.5 14l13 101q16 -5 44 -10t49 -5q89 0 139 61.5t50 181.5v1171h119zM758 1396h-119v164h119v-164z" />
    <glyph glyph-name="Jcircumflex" unicode="&#x134;" horiz-adv-x="1127" 
d="M1160 1597v-18h-112l-167 168l-166 -168h-110v21l227 221h98zM825 1456h120v-1043q0 -199 -118.5 -316.5t-306.5 -117.5q-205 0 -324 106t-114 310l2 6h112q0 -158 84 -239.5t240 -81.5q133 0 219 90.5t86 242.5v1043z" />
    <glyph glyph-name="jcircumflex" unicode="&#x135;" horiz-adv-x="468" 
d="M517 1257v-18h-112l-167 168l-166 -168h-110v21l227 221h98zM298 1082v-1171q0 -167 -80 -257.5t-222 -90.5q-30 0 -56 5t-56 14l13 99q16 -5 47 -10.5t52 -5.5q87 0 135 65t48 181v1171h119z" />
    <glyph glyph-name="uni0136" unicode="&#x136;" horiz-adv-x="1308" 
d="M676 -247l-83 -209h-71l52 211v120h102v-122zM510 685h-200v-685h-119v1456h119v-670h199l573 670h135l2 -5l-602 -711l645 -735l-2 -5h-142z" />
    <glyph glyph-name="uni0137" unicode="&#x137;" horiz-adv-x="1006" 
d="M584 -245l-83 -209h-71l52 211v120h102v-122zM417 527h-138v-527h-120v1560h120v-930h126l402 452h140l2 -5l-433 -488l478 -584l-3 -5h-137z" />
    <glyph glyph-name="kgreenlandic" unicode="&#x138;" horiz-adv-x="1111" 
d="M420 496h-137v-496h-121v1082h121v-480h134l443 480h139l2 -5l-476 -520l526 -551l-3 -6h-144z" />
    <glyph glyph-name="Lacute" unicode="&#x139;" horiz-adv-x="1079" 
d="M311 101h720v-101h-840v1456h120v-1355zM384 1760h147l3 -6l-249 -260h-108z" />
    <glyph glyph-name="lacute" unicode="&#x13a;" horiz-adv-x="465" 
d="M292 0h-119v1560h119v-1560zM366 1862h147l3 -6l-249 -260h-108z" />
    <glyph glyph-name="uni013B" unicode="&#x13b;" horiz-adv-x="1079" 
d="M674 -245l-83 -209h-71l52 211v120h102v-122zM311 101h720v-101h-840v1456h120v-1355z" />
    <glyph glyph-name="uni013C" unicode="&#x13c;" horiz-adv-x="465" 
d="M283 -245l-83 -209h-71l52 211v120h102v-122zM292 0h-119v1560h119v-1560z" />
    <glyph glyph-name="Lcaron" unicode="&#x13d;" horiz-adv-x="1079" 
d="M726 1334l-83 -209h-71l52 211v120h102v-122zM311 101h720v-101h-840v1456h120v-1355z" />
    <glyph glyph-name="lcaron" unicode="&#x13e;" horiz-adv-x="615" 
d="M585 1437l-83 -209h-71l52 211v120h102v-122zM292 0h-119v1560h119v-1560z" />
    <glyph glyph-name="Ldot" unicode="&#x13f;" horiz-adv-x="1079" 
d="M759 687h-151v168h151v-168zM311 101h720v-101h-840v1456h120v-1355z" />
    <glyph glyph-name="ldot" unicode="&#x140;" horiz-adv-x="685" 
d="M589 700h-151v168h151v-168zM292 0h-119v1560h119v-1560z" />
    <glyph glyph-name="Lslash" unicode="&#x141;" horiz-adv-x="1068" 
d="M294 814l318 101v-109l-318 -101v-604h720v-101h-840v667l-151 -48v109l151 48v680h120v-642z" />
    <glyph glyph-name="lslash" unicode="&#x142;" horiz-adv-x="529" 
d="M312 854l193 76v-109l-193 -76v-745h-119v699l-167 -65v109l167 65v752h119v-706z" />
    <glyph glyph-name="Nacute" unicode="&#x143;" horiz-adv-x="1454" 
d="M1263 0h-119l-827 1252l-6 -1v-1251h-120v1456h120l827 -1250l6 1v1249h119v-1456zM859 1823h147l3 -6l-249 -260h-108z" />
    <glyph glyph-name="nacute" unicode="&#x144;" horiz-adv-x="1140" 
d="M264 1082l11 -189q52 100 140.5 154.5t209.5 54.5q176 0 268 -107.5t92 -335.5v-659h-120v658q0 186 -69.5 263t-197.5 77q-126 0 -205.5 -66.5t-114.5 -176.5v-755h-120v1082h106zM710 1501h147l3 -6l-249 -260h-108z" />
    <glyph glyph-name="uni0145" unicode="&#x145;" horiz-adv-x="1454" 
d="M775 -245l-83 -209h-71l52 211v120h102v-122zM1263 0h-119l-827 1252l-6 -1v-1251h-120v1456h120l827 -1250l6 1v1249h119v-1456z" />
    <glyph glyph-name="uni0146" unicode="&#x146;" horiz-adv-x="1140" 
d="M626 -245l-83 -209h-71l52 211v120h102v-122zM264 1082l11 -189q52 100 140.5 154.5t209.5 54.5q176 0 268 -107.5t92 -335.5v-659h-120v658q0 186 -69.5 263t-197.5 77q-126 0 -205.5 -66.5t-114.5 -176.5v-755h-120v1082h106z" />
    <glyph glyph-name="Ncaron" unicode="&#x147;" horiz-adv-x="1454" 
d="M726 1676l166 169h115v-17l-233 -225h-97l-232 225v17h114zM1263 0h-119l-827 1252l-6 -1v-1251h-120v1456h120l827 -1250l6 1v1249h119v-1456z" />
    <glyph glyph-name="ncaron" unicode="&#x148;" horiz-adv-x="1140" 
d="M577 1354l166 169h115v-17l-233 -225h-97l-232 225v17h114zM264 1082l11 -189q52 100 140.5 154.5t209.5 54.5q176 0 268 -107.5t92 -335.5v-659h-120v658q0 186 -69.5 263t-197.5 77q-126 0 -205.5 -66.5t-114.5 -176.5v-755h-120v1082h106z" />
    <glyph glyph-name="napostrophe" unicode="&#x149;" horiz-adv-x="1140" 
d="M137 1435l-83 -209h-71l52 211v120h102v-122zM264 1082l11 -189q52 100 140.5 154.5t209.5 54.5q176 0 268 -107.5t92 -335.5v-659h-120v658q0 186 -69.5 263t-197.5 77q-126 0 -205.5 -66.5t-114.5 -176.5v-755h-120v1082h106z" />
    <glyph glyph-name="Eng" unicode="&#x14a;" horiz-adv-x="1434" 
d="M1255 1456v-1545q0 -167 -80.5 -257.5t-223.5 -90.5q-31 0 -57 5t-55 14l14 99q15 -6 46 -11t52 -5q87 0 136 65t49 181v89l-828 1245l-6 -1v-1244h-120v1456h120l828 -1246l6 1v1245h119z" />
    <glyph glyph-name="eng" unicode="&#x14b;" horiz-adv-x="1140" 
d="M264 1082l10 -184q53 97 140.5 150.5t206.5 53.5q176 0 268 -107.5t92 -335.5v-748q0 -167 -80.5 -257.5t-223.5 -90.5q-34 0 -63 5t-61 14l14 103q16 -5 50.5 -10t59.5 -5q88 0 136 62.5t48 178.5v747q0 186 -69.5 263t-197.5 77q-125 0 -203 -60.5t-114 -163.5v-774
h-120v1082h107z" />
    <glyph glyph-name="Omacron" unicode="&#x14c;" horiz-adv-x="1378" 
d="M1254 609q0 -282 -154.5 -456t-414.5 -174q-256 0 -408.5 174t-152.5 456v237q0 281 152 456t408 175q260 0 415 -175t155 -456v-237zM1135 848q0 236 -119.5 380t-331.5 144q-208 0 -324 -144t-116 -380v-239q0 -238 116.5 -382t324.5 -144q213 0 331.5 143.5
t118.5 382.5v239zM1019 1710h-670v97h670v-97z" />
    <glyph glyph-name="omacron" unicode="&#x14d;" horiz-adv-x="1140" 
d="M91 557q0 239 131 392t347 153q217 0 348 -153t131 -392v-33q0 -240 -130.5 -392.5t-346.5 -152.5q-218 0 -349 152.5t-131 392.5v33zM211 524q0 -188 95 -316t265 -128q167 0 262.5 128t95.5 316v33q0 185 -96 314t-264 129t-263 -129t-95 -314v-33zM915 1367h-670v97
h670v-97z" />
    <glyph glyph-name="Obreve" unicode="&#x14e;" horiz-adv-x="1378" 
d="M967 1875l2 -6q4 -112 -73 -182t-210 -70t-210.5 70.5t-72.5 181.5l2 6h94q0 -77 45 -124t142 -47q94 0 140.5 48t46.5 123h94zM1254 609q0 -282 -154.5 -456t-414.5 -174q-256 0 -408.5 174t-152.5 456v237q0 281 152 456t408 175q260 0 415 -175t155 -456v-237z
M1135 848q0 236 -119.5 380t-331.5 144q-208 0 -324 -144t-116 -380v-239q0 -238 116.5 -382t324.5 -144q213 0 331.5 143.5t118.5 382.5v239z" />
    <glyph glyph-name="obreve" unicode="&#x14f;" horiz-adv-x="1140" 
d="M863 1532l2 -6q4 -112 -73 -182t-210 -70t-210.5 70.5t-72.5 181.5l2 6h94q0 -77 45 -124t142 -47q94 0 140.5 48t46.5 123h94zM91 557q0 239 131 392t347 153q217 0 348 -153t131 -392v-33q0 -240 -130.5 -392.5t-346.5 -152.5q-218 0 -349 152.5t-131 392.5v33z
M211 524q0 -188 95 -316t265 -128q167 0 262.5 128t95.5 316v33q0 185 -96 314t-264 129t-263 -129t-95 -314v-33z" />
    <glyph glyph-name="Ohungarumlaut" unicode="&#x150;" horiz-adv-x="1378" 
d="M993 1888h145l2 -6l-296 -260h-113l-2 6zM698 1888h133l3 -6l-245 -260h-102l-3 5zM1254 609q0 -282 -154.5 -456t-414.5 -174q-256 0 -408.5 174t-152.5 456v237q0 281 152 456t408 175q260 0 415 -175t155 -456v-237zM1135 848q0 236 -119.5 380t-331.5 144
q-208 0 -324 -144t-116 -380v-239q0 -238 116.5 -382t324.5 -144q213 0 331.5 143.5t118.5 382.5v239z" />
    <glyph glyph-name="ohungarumlaut" unicode="&#x151;" horiz-adv-x="1140" 
d="M889 1545h145l2 -6l-296 -260h-113l-2 6zM594 1545h133l3 -6l-245 -260h-102l-3 5zM91 557q0 239 131 392t347 153q217 0 348 -153t131 -392v-33q0 -240 -130.5 -392.5t-346.5 -152.5q-218 0 -349 152.5t-131 392.5v33zM211 524q0 -188 95 -316t265 -128q167 0 262.5 128
t95.5 316v33q0 185 -96 314t-264 129t-263 -129t-95 -314v-33z" />
    <glyph glyph-name="OE" unicode="&#x152;" horiz-adv-x="1913" 
d="M1838 0h-881q-97 -10 -167.5 -15.5t-143.5 -5.5q-239 0 -388.5 166t-149.5 431v304q0 264 148.5 430.5t387.5 166.5q75 0 152 -6t161 -15h876v-102h-798v-547h701v-102h-701v-604h803v-101zM646 81q71 0 140.5 3.5t129.5 12.5v1261q-61 8 -129.5 12.5t-142.5 4.5
q-192 0 -304 -132t-112 -361v-306q0 -228 113.5 -361.5t304.5 -133.5z" />
    <glyph glyph-name="oe" unicode="&#x153;" horiz-adv-x="1890" 
d="M1342 -21q-120 0 -220 55t-163 154q-63 -100 -162.5 -154.5t-225.5 -54.5q-218 0 -349 152.5t-131 392.5v33q0 239 131 392t347 153q127 0 227.5 -56t163.5 -155q63 98 159.5 154.5t207.5 56.5q199 0 313 -126t114 -336v-102h-706v-14q0 -54 -7.5 -103.5t-20.5 -95.5
q40 -112 124 -178.5t198 -66.5q112 0 191 31t135 89l51 -82q-61 -64 -154.5 -101.5t-222.5 -37.5zM211 524q0 -188 95 -316t265 -128q118 0 201.5 66.5t123.5 179.5q-13 42 -19.5 87.5t-6.5 95.5v55q0 50 6.5 97t20.5 90q-41 113 -125 181t-203 68q-168 0 -263 -129
t-95 -314v-33zM1021 754q8 -30 13.5 -58.5t8.5 -56.5h592v30q0 141 -83 236t-225 95q-106 0 -186.5 -67t-119.5 -179z" />
    <glyph glyph-name="Racute" unicode="&#x154;" horiz-adv-x="1348" 
d="M307 658v-658h-119v1455h493q234 0 359 -102.5t125 -299.5q0 -116 -67 -207.5t-189 -133.5q135 -34 194.5 -121.5t59.5 -219.5v-137q0 -68 16 -122t53 -88v-24h-122q-37 36 -52 101t-15 135v133q0 134 -86.5 211.5t-241.5 77.5h-408zM307 760h359q197 0 288 79.5
t91 214.5q0 144 -90.5 221.5t-273.5 77.5h-374v-593zM744 1823h147l3 -6l-249 -260h-108z" />
    <glyph glyph-name="racute" unicode="&#x155;" horiz-adv-x="690" 
d="M652 979l-85 6q-113 0 -185.5 -63.5t-103.5 -174.5v-747h-120v1082h105l15 -180v-12q47 100 126 156t188 56q22 0 42 -3.5t33 -7.5zM545 1501h147l3 -6l-249 -260h-108z" />
    <glyph glyph-name="uni0156" unicode="&#x156;" horiz-adv-x="1348" 
d="M660 -245l-83 -209h-71l52 211v120h102v-122zM307 658v-658h-119v1455h493q234 0 359 -102.5t125 -299.5q0 -116 -67 -207.5t-189 -133.5q135 -34 194.5 -121.5t59.5 -219.5v-137q0 -68 16 -122t53 -88v-24h-122q-37 36 -52 101t-15 135v133q0 134 -86.5 211.5
t-241.5 77.5h-408zM307 760h359q197 0 288 79.5t91 214.5q0 144 -90.5 221.5t-273.5 77.5h-374v-593z" />
    <glyph glyph-name="uni0157" unicode="&#x157;" horiz-adv-x="690" 
d="M274 -241l-83 -209h-71l52 211v120h102v-122zM652 979l-85 6q-113 0 -185.5 -63.5t-103.5 -174.5v-747h-120v1082h105l15 -180v-12q47 100 126 156t188 56q22 0 42 -3.5t33 -7.5z" />
    <glyph glyph-name="Rcaron" unicode="&#x158;" horiz-adv-x="1348" 
d="M611 1676l166 169h115v-17l-233 -225h-97l-232 225v17h114zM307 658v-658h-119v1455h493q234 0 359 -102.5t125 -299.5q0 -116 -67 -207.5t-189 -133.5q135 -34 194.5 -121.5t59.5 -219.5v-137q0 -68 16 -122t53 -88v-24h-122q-37 36 -52 101t-15 135v133
q0 134 -86.5 211.5t-241.5 77.5h-408zM307 760h359q197 0 288 79.5t91 214.5q0 144 -90.5 221.5t-273.5 77.5h-374v-593z" />
    <glyph glyph-name="rcaron" unicode="&#x159;" horiz-adv-x="690" 
d="M413 1354l166 169h115v-17l-233 -225h-97l-232 225v17h114zM652 979l-85 6q-113 0 -185.5 -63.5t-103.5 -174.5v-747h-120v1082h105l15 -180v-12q47 100 126 156t188 56q22 0 42 -3.5t33 -7.5z" />
    <glyph glyph-name="Sacute" unicode="&#x15a;" horiz-adv-x="1248" 
d="M1027 357q0 119 -89 194.5t-310 133.5q-239 60 -362 156t-123 259q0 167 137.5 272t354.5 105q224 0 362.5 -125t134.5 -305l-3 -6h-111q0 146 -103.5 240t-279.5 94q-175 0 -273.5 -78t-98.5 -194q0 -110 91 -183.5t313 -129.5q235 -60 357.5 -162t122.5 -269
q0 -174 -142 -277t-363 -103q-218 0 -381 109.5t-158 319.5l2 6h111q0 -170 126.5 -252t299.5 -82q172 0 278.5 76t106.5 201zM756 1844h147l3 -6l-249 -260h-108z" />
    <glyph glyph-name="sacute" unicode="&#x15b;" horiz-adv-x="1043" 
d="M806 275q0 76 -62.5 133t-225.5 93q-194 42 -286.5 111t-92.5 195q0 124 104.5 209.5t276.5 85.5q183 0 290 -90.5t102 -226.5l-2 -6h-111q0 89 -75.5 155t-203.5 66q-131 0 -196.5 -56.5t-65.5 -132.5q0 -75 56.5 -124t225.5 -86q193 -43 289 -117.5t96 -202.5
q0 -135 -109.5 -218.5t-289.5 -83.5q-197 0 -309.5 94t-106.5 224l2 6h110q7 -117 95.5 -170t208.5 -53q130 0 205 57t75 138zM652 1501h147l3 -6l-249 -260h-108z" />
    <glyph glyph-name="Scircumflex" unicode="&#x15c;" horiz-adv-x="1248" 
d="M903 1640v-18h-112l-167 168l-166 -168h-110v21l227 221h98zM1027 357q0 119 -89 194.5t-310 133.5q-239 60 -362 156t-123 259q0 167 137.5 272t354.5 105q224 0 362.5 -125t134.5 -305l-3 -6h-111q0 146 -103.5 240t-279.5 94q-175 0 -273.5 -78t-98.5 -194
q0 -110 91 -183.5t313 -129.5q235 -60 357.5 -162t122.5 -269q0 -174 -142 -277t-363 -103q-218 0 -381 109.5t-158 319.5l2 6h111q0 -170 126.5 -252t299.5 -82q172 0 278.5 76t106.5 201z" />
    <glyph glyph-name="scircumflex" unicode="&#x15d;" horiz-adv-x="1043" 
d="M799 1297v-18h-112l-167 168l-166 -168h-110v21l227 221h98zM806 275q0 76 -62.5 133t-225.5 93q-194 42 -286.5 111t-92.5 195q0 124 104.5 209.5t276.5 85.5q183 0 290 -90.5t102 -226.5l-2 -6h-111q0 89 -75.5 155t-203.5 66q-131 0 -196.5 -56.5t-65.5 -132.5
q0 -75 56.5 -124t225.5 -86q193 -43 289 -117.5t96 -202.5q0 -135 -109.5 -218.5t-289.5 -83.5q-197 0 -309.5 94t-106.5 224l2 6h110q7 -117 95.5 -170t208.5 -53q130 0 205 57t75 138z" />
    <glyph glyph-name="Scedilla" unicode="&#x15e;" horiz-adv-x="1248" 
d="M1027 357q0 119 -89 194.5t-310 133.5q-239 60 -362 156t-123 259q0 167 137.5 272t354.5 105q224 0 362.5 -125t134.5 -305l-3 -6h-111q0 146 -103.5 240t-279.5 94q-175 0 -273.5 -78t-98.5 -194q0 -110 91 -183.5t313 -129.5q235 -60 357.5 -162t122.5 -269
q0 -174 -142 -277t-363 -103q-218 0 -381 109.5t-158 319.5l2 6h111q0 -170 126.5 -252t299.5 -82q172 0 278.5 76t106.5 201zM660 -9l-12 -64q79 -9 127.5 -48.5t48.5 -122.5q0 -91 -79 -145.5t-226 -54.5l-7 78q90 0 151.5 30.5t61.5 89.5q0 57 -41.5 79.5t-145.5 30.5
l29 127h93z" />
    <glyph glyph-name="scedilla" unicode="&#x15f;" horiz-adv-x="1043" 
d="M806 275q0 76 -62.5 133t-225.5 93q-194 42 -286.5 111t-92.5 195q0 124 104.5 209.5t276.5 85.5q183 0 290 -90.5t102 -226.5l-2 -6h-111q0 89 -75.5 155t-203.5 66q-131 0 -196.5 -56.5t-65.5 -132.5q0 -75 56.5 -124t225.5 -86q193 -43 289 -117.5t96 -202.5
q0 -135 -109.5 -218.5t-289.5 -83.5q-197 0 -309.5 94t-106.5 224l2 6h110q7 -117 95.5 -170t208.5 -53q130 0 205 57t75 138zM556 -6l-12 -64q79 -9 127.5 -48.5t48.5 -122.5q0 -91 -79 -145.5t-226 -54.5l-7 78q90 0 151.5 30.5t61.5 89.5q0 57 -41.5 79.5t-145.5 30.5
l29 127h93z" />
    <glyph glyph-name="Scaron" unicode="&#x160;" horiz-adv-x="1248" 
d="M623 1697l166 169h115v-17l-233 -225h-97l-232 225v17h114zM1027 357q0 119 -89 194.5t-310 133.5q-239 60 -362 156t-123 259q0 167 137.5 272t354.5 105q224 0 362.5 -125t134.5 -305l-3 -6h-111q0 146 -103.5 240t-279.5 94q-175 0 -273.5 -78t-98.5 -194
q0 -110 91 -183.5t313 -129.5q235 -60 357.5 -162t122.5 -269q0 -174 -142 -277t-363 -103q-218 0 -381 109.5t-158 319.5l2 6h111q0 -170 126.5 -252t299.5 -82q172 0 278.5 76t106.5 201z" />
    <glyph glyph-name="scaron" unicode="&#x161;" horiz-adv-x="1043" 
d="M519 1354l166 169h115v-17l-233 -225h-97l-232 225v17h114zM806 275q0 76 -62.5 133t-225.5 93q-194 42 -286.5 111t-92.5 195q0 124 104.5 209.5t276.5 85.5q183 0 290 -90.5t102 -226.5l-2 -6h-111q0 89 -75.5 155t-203.5 66q-131 0 -196.5 -56.5t-65.5 -132.5
q0 -75 56.5 -124t225.5 -86q193 -43 289 -117.5t96 -202.5q0 -135 -109.5 -218.5t-289.5 -83.5q-197 0 -309.5 94t-106.5 224l2 6h110q7 -117 95.5 -170t208.5 -53q130 0 205 57t75 138z" />
    <glyph glyph-name="uni0162" unicode="&#x162;" horiz-adv-x="1213" 
d="M654 -245l-83 -209h-71l52 211v120h102v-122zM1167 1354h-501v-1354h-120v1354h-501v102h1122v-102z" />
    <glyph glyph-name="uni0163" unicode="&#x163;" horiz-adv-x="667" 
d="M500 -255l-83 -209h-71l52 211v120h102v-122zM338 1359v-277h238v-98h-238v-705q0 -106 39 -150.5t103 -44.5q22 0 41 2.5t50 8.5l18 -89q-25 -13 -60 -20t-70 -7q-114 0 -177.5 72t-63.5 228v705h-187v98h187v277h120z" />
    <glyph glyph-name="Tcaron" unicode="&#x164;" horiz-adv-x="1213" 
d="M605 1671l166 169h115v-17l-233 -225h-97l-232 225v17h114zM1167 1354h-501v-1354h-120v1354h-501v102h1122v-102z" />
    <glyph glyph-name="tcaron" unicode="&#x165;" horiz-adv-x="707" 
d="M640 1440l-83 -209h-71l52 211v120h102v-122zM338 1359v-277h238v-98h-238v-705q0 -106 39 -150.5t103 -44.5q22 0 41 2.5t50 8.5l18 -89q-25 -13 -60 -20t-70 -7q-114 0 -177.5 72t-63.5 228v705h-187v98h187v277h120z" />
    <glyph glyph-name="Tbar" unicode="&#x166;" horiz-adv-x="1213" 
d="M901 834h-235v-834h-120v834h-257v102h257v418h-501v102h1122v-102h-501v-418h235v-102z" />
    <glyph glyph-name="tbar" unicode="&#x167;" horiz-adv-x="667" 
d="M338 1359v-277h238v-98h-238v-265h287v-102h-287v-338q0 -106 39 -150.5t103 -44.5q22 0 41 2.5t50 8.5l18 -89q-25 -13 -60 -20t-70 -7q-114 0 -177.5 72t-63.5 228v338h-205v102h205v265h-187v98h187v277h120z" />
    <glyph glyph-name="Utilde" unicode="&#x168;" horiz-adv-x="1374" 
d="M1017 1822q0 -88 -55 -146t-137 -58q-74 0 -151 55t-131 55q-47 0 -79 -35t-32 -89l-80 18q0 86 54 144.5t137 58.5q65 0 147 -55t135 -55q46 0 79 36t33 91zM1209 1456v-987q0 -238 -145.5 -364t-379.5 -126q-231 0 -374 126.5t-143 363.5v987h120v-987
q0 -186 110 -287.5t287 -101.5q180 0 293 101t113 288v987h119z" />
    <glyph glyph-name="utilde" unicode="&#x169;" horiz-adv-x="1140" 
d="M900 1480q0 -88 -55 -146t-137 -58q-74 0 -151 55t-131 55q-47 0 -79 -35t-32 -89l-80 18q0 86 54 144.5t137 58.5q65 0 147 -55t135 -55q46 0 79 36t33 91zM867 177q-52 -95 -140 -146.5t-208 -51.5q-171 0 -268 116t-97 360v627h120v-629q0 -198 67.5 -284t191.5 -86
q136 0 217 61t113 168v770h120v-1082h-106z" />
    <glyph glyph-name="Umacron" unicode="&#x16a;" horiz-adv-x="1374" 
d="M1209 1456v-987q0 -238 -145.5 -364t-379.5 -126q-231 0 -374 126.5t-143 363.5v987h120v-987q0 -186 110 -287.5t287 -101.5q180 0 293 101t113 288v987h119zM1030 1689h-670v97h670v-97z" />
    <glyph glyph-name="umacron" unicode="&#x16b;" horiz-adv-x="1140" 
d="M867 177q-52 -95 -140 -146.5t-208 -51.5q-171 0 -268 116t-97 360v627h120v-629q0 -198 67.5 -284t191.5 -86q136 0 217 61t113 168v770h120v-1082h-106zM913 1347h-670v97h670v-97z" />
    <glyph glyph-name="Ubreve" unicode="&#x16c;" horiz-adv-x="1374" 
d="M978 1854l2 -6q4 -112 -73 -182t-210 -70t-210.5 70.5t-72.5 181.5l2 6h94q0 -77 45 -124t142 -47q94 0 140.5 48t46.5 123h94zM1209 1456v-987q0 -238 -145.5 -364t-379.5 -126q-231 0 -374 126.5t-143 363.5v987h120v-987q0 -186 110 -287.5t287 -101.5q180 0 293 101
t113 288v987h119z" />
    <glyph glyph-name="ubreve" unicode="&#x16d;" horiz-adv-x="1140" 
d="M861 1511l2 -6q4 -112 -73 -182t-210 -70t-210.5 70.5t-72.5 181.5l2 6h94q0 -77 45 -124t142 -47q94 0 140.5 48t46.5 123h94zM867 177q-52 -95 -140 -146.5t-208 -51.5q-171 0 -268 116t-97 360v627h120v-629q0 -198 67.5 -284t191.5 -86q136 0 217 61t113 168v770h120
v-1082h-106z" />
    <glyph glyph-name="Uring" unicode="&#x16e;" horiz-adv-x="1374" 
d="M526 1730q0 69 49.5 117.5t119.5 48.5q68 0 117 -48.5t49 -117.5q0 -71 -48.5 -117t-117.5 -46q-71 0 -120 46t-49 117zM604 1730q0 -39 26.5 -65t64.5 -26q37 0 62.5 25.5t25.5 65.5t-25.5 66.5t-62.5 26.5q-38 0 -64.5 -27t-26.5 -66zM1209 1456v-987
q0 -238 -145.5 -364t-379.5 -126q-231 0 -374 126.5t-143 363.5v987h120v-987q0 -186 110 -287.5t287 -101.5q180 0 293 101t113 288v987h119z" />
    <glyph glyph-name="uring" unicode="&#x16f;" horiz-adv-x="1140" 
d="M409 1387q0 69 49.5 117.5t119.5 48.5q68 0 117 -48.5t49 -117.5q0 -71 -48.5 -117t-117.5 -46q-71 0 -120 46t-49 117zM487 1387q0 -39 26.5 -65t64.5 -26q37 0 62.5 25.5t25.5 65.5t-25.5 66.5t-62.5 26.5q-38 0 -64.5 -27t-26.5 -66zM867 177q-52 -95 -140 -146.5
t-208 -51.5q-171 0 -268 116t-97 360v627h120v-629q0 -198 67.5 -284t191.5 -86q136 0 217 61t113 168v770h120v-1082h-106z" />
    <glyph glyph-name="Uhungarumlaut" unicode="&#x170;" horiz-adv-x="1374" 
d="M1004 1867h145l2 -6l-296 -260h-113l-2 6zM709 1867h133l3 -6l-245 -260h-102l-3 5zM1209 1456v-987q0 -238 -145.5 -364t-379.5 -126q-231 0 -374 126.5t-143 363.5v987h120v-987q0 -186 110 -287.5t287 -101.5q180 0 293 101t113 288v987h119z" />
    <glyph glyph-name="uhungarumlaut" unicode="&#x171;" horiz-adv-x="1140" 
d="M887 1524h145l2 -6l-296 -260h-113l-2 6zM592 1524h133l3 -6l-245 -260h-102l-3 5zM867 177q-52 -95 -140 -146.5t-208 -51.5q-171 0 -268 116t-97 360v627h120v-629q0 -198 67.5 -284t191.5 -86q136 0 217 61t113 168v770h120v-1082h-106z" />
    <glyph glyph-name="Uogonek" unicode="&#x172;" horiz-adv-x="1374" 
d="M780 0q-72 -60 -110 -108t-38 -104q0 -31 19 -58t70 -27q32 0 56.5 9t48.5 23l24 -83q-30 -19 -66.5 -31.5t-85.5 -12.5q-76 0 -125 44.5t-49 124.5q0 71 51 139t144 121zM1209 1456v-987q0 -238 -145.5 -364t-379.5 -126q-231 0 -374 126.5t-143 363.5v987h120v-987
q0 -186 110 -287.5t287 -101.5q180 0 293 101t113 288v987h119z" />
    <glyph glyph-name="uogonek" unicode="&#x173;" horiz-adv-x="1140" 
d="M966 0q-72 -60 -110 -108t-38 -104q0 -31 19 -58t70 -27q32 0 56.5 9t48.5 23l24 -83q-30 -19 -66.5 -31.5t-85.5 -12.5q-76 0 -125 44.5t-49 124.5q0 71 51 139t144 121zM867 177q-52 -95 -140 -146.5t-208 -51.5q-171 0 -268 116t-97 360v627h120v-629
q0 -198 67.5 -284t191.5 -86q136 0 217 61t113 168v770h120v-1082h-106z" />
    <glyph glyph-name="Wcircumflex" unicode="&#x174;" horiz-adv-x="1834" 
d="M1192 1619v-18h-112l-167 168l-166 -168h-110v21l227 221h98zM445 412l44 -223l6 -1l55 224l308 1044h113l308 -1044l53 -225l6 1l47 224l263 1044h122l-374 -1456h-113l-327 1117l-38 153h-6l-37 -153l-330 -1117h-114l-374 1456h123z" />
    <glyph glyph-name="wcircumflex" unicode="&#x175;" horiz-adv-x="1550" 
d="M1052 1276v-18h-112l-167 168l-166 -168h-110v21l227 221h98zM391 351l41 -193h6l51 193l230 731h103l230 -731l52 -198h6l45 198l197 731h124l-315 -1082h-102l-240 740l-47 187h-6l-48 -187l-236 -740h-103l-314 1082h124z" />
    <glyph glyph-name="Ycircumflex" unicode="&#x176;" horiz-adv-x="1235" 
d="M895 1612v-18h-112l-167 168l-166 -168h-110v21l227 221h98zM616 646l450 810h139l-530 -922v-534h-120v539l-527 917h139z" />
    <glyph glyph-name="ycircumflex" unicode="&#x177;" horiz-adv-x="1002" 
d="M793 1276v-18h-112l-167 168l-166 -168h-110v21l227 221h98zM465 293l38 -129h6l327 918h134l-470 -1255q-42 -110 -109 -187t-196 -77q-21 0 -51 4.5t-44 9.5l14 100q12 -2 38.5 -4.5t38.5 -2.5q78 0 125 55.5t80 142.5l57 146l-418 1068h133z" />
    <glyph glyph-name="Ydieresis" unicode="&#x178;" horiz-adv-x="1235" 
d="M616 646l450 810h139l-530 -922v-534h-120v539l-527 917h139zM942 1634h-173v157h173v-157zM473 1634h-174v157h174v-157z" />
    <glyph glyph-name="Zacute" unicode="&#x179;" horiz-adv-x="1224" 
d="M238 101h893v-101h-1036v92l858 1262h-831v102h977v-87zM741 1823h147l3 -6l-249 -260h-108z" />
    <glyph glyph-name="zacute" unicode="&#x17a;" horiz-adv-x="1002" 
d="M238 101h703v-101h-851v88l652 891h-632v103h783v-89zM656 1480h147l3 -6l-249 -260h-108z" />
    <glyph glyph-name="Zdotaccent" unicode="&#x17b;" horiz-adv-x="1224" 
d="M683 1637h-151v168h151v-168zM238 101h893v-101h-1036v92l858 1262h-831v102h977v-87z" />
    <glyph glyph-name="zdotaccent" unicode="&#x17c;" horiz-adv-x="1002" 
d="M598 1294h-151v168h151v-168zM238 101h703v-101h-851v88l652 891h-632v103h783v-89z" />
    <glyph glyph-name="Zcaron" unicode="&#x17d;" horiz-adv-x="1224" 
d="M608 1676l166 169h115v-17l-233 -225h-97l-232 225v17h114zM238 101h893v-101h-1036v92l858 1262h-831v102h977v-87z" />
    <glyph glyph-name="zcaron" unicode="&#x17e;" horiz-adv-x="1002" 
d="M523 1333l166 169h115v-17l-233 -225h-97l-232 225v17h114zM238 101h703v-101h-851v88l652 891h-632v103h783v-89z" />
    <glyph glyph-name="longs" unicode="&#x17f;" horiz-adv-x="465" 
d="M167 0v1240q0 163 81.5 252t228.5 89q33 0 67 -5t69 -14l-16 -96q-25 6 -49 9.5t-56 3.5q-98 0 -152 -63.5t-54 -175.5v-1240h-119z" />
    <glyph glyph-name="florin" unicode="&#x192;" horiz-adv-x="670" 
d="M600 984h-244v-1073q0 -167 -80.5 -257.5t-223.5 -90.5q-30 0 -55 4.5t-56 14.5l14 99q15 -5 45 -10.5t52 -5.5q87 0 135.5 64.5t48.5 181.5v1073h-180v98h180v158q0 163 81.5 252t228.5 89q33 0 67 -5t69 -14l-15 -99q-25 6 -50 9.5t-59 3.5q-98 0 -150 -62t-52 -174
v-158h244v-98z" />
    <glyph glyph-name="Ohorn" unicode="&#x1a0;" horiz-adv-x="1429" 
d="M1249 609q0 -282 -154.5 -456t-414.5 -174q-256 0 -408.5 174t-152.5 456v237q0 281 152 456t408 175q137 0 248 -52t187 -147q145 3 221.5 93t76.5 255h113l3 -5q2 -192 -90 -306t-262 -135q35 -72 54 -156.5t19 -177.5v-237zM1130 848q0 236 -119.5 380t-331.5 144
q-208 0 -324 -144t-116 -380v-239q0 -238 116.5 -382t324.5 -144q213 0 331.5 143.5t118.5 382.5v239z" />
    <glyph glyph-name="ohorn" unicode="&#x1a1;" horiz-adv-x="1146" 
d="M91 557q0 239 131 392t347 153q104 0 190 -37.5t150 -106.5q112 9 169 82.5t57 199.5h111q0 -151 -72.5 -244t-207.5 -116q40 -68 61 -149.5t21 -173.5v-33q0 -240 -130.5 -392.5t-346.5 -152.5q-218 0 -349 152.5t-131 392.5v33zM211 524q0 -188 95 -316t265 -128
q167 0 262.5 128t95.5 316v33q0 185 -96 314t-264 129t-263 -129t-95 -314v-33z" />
    <glyph glyph-name="Uhorn" unicode="&#x1af;" horiz-adv-x="1395" 
d="M1209 1456v-193l6 -2q131 11 200.5 101t69.5 245h113l2 -5q3 -197 -99.5 -312t-291.5 -131v-690q0 -238 -145.5 -364t-379.5 -126q-231 0 -374 126.5t-143 363.5v987h120v-987q0 -186 110 -287.5t287 -101.5q180 0 293 101t113 288v987h119z" />
    <glyph glyph-name="uhorn" unicode="&#x1b0;" horiz-adv-x="1159" 
d="M1321 1250l2 -5q3 -173 -83 -270t-257 -109v-866h-106l-10 177q-52 -95 -140 -146.5t-208 -51.5q-171 0 -268 116t-97 360v627h120v-629q0 -198 67.5 -284t191.5 -86q136 0 217 61t113 168v770h120v-121l6 -2q116 7 172 80.5t56 210.5h104z" />
    <glyph glyph-name="uni01F0" unicode="&#x1f0;" horiz-adv-x="468" 
d="M237 1314l166 169h115v-17l-233 -225h-97l-232 225v17h114zM298 1082v-1171q0 -167 -80 -257.5t-222 -90.5q-30 0 -56 5t-56 14l13 99q16 -5 47 -10.5t52 -5.5q87 0 135 65t48 181v1171h119z" />
    <glyph glyph-name="Aringacute" unicode="&#x1fa;" horiz-adv-x="1270" 
d="M779 2083h129l3 -6l-197 -198h-95zM499 1673q0 65 45.5 109.5t109.5 44.5q63 0 107.5 -44.5t44.5 -109.5q0 -64 -44.5 -107t-107.5 -43q-64 0 -109.5 43t-45.5 107zM567 1673q0 -36 25.5 -61t61.5 -25q35 0 60 24.5t25 61.5q0 38 -25 64t-60 26q-36 0 -61.5 -26
t-25.5 -64zM969 406h-668l-150 -406h-124l553 1456h113l549 -1456h-124zM341 513h588l-289 788h-6z" />
    <glyph glyph-name="aringacute" unicode="&#x1fb;" horiz-adv-x="1101" 
d="M669 1762h129l3 -6l-197 -198h-95zM389 1352q0 65 45.5 109.5t109.5 44.5q63 0 107.5 -44.5t44.5 -109.5q0 -64 -44.5 -107t-107.5 -43q-64 0 -109.5 43t-45.5 107zM457 1352q0 -36 25.5 -61t61.5 -25q35 0 60 24.5t25 61.5q0 38 -25 64t-60 26q-36 0 -61.5 -26
t-25.5 -64zM843 0q-11 57 -16.5 98t-5.5 84q-56 -88 -157 -145.5t-232 -57.5q-159 0 -246.5 84.5t-87.5 229.5t127 235t330 90h266v134q0 116 -73.5 182t-207.5 66q-123 0 -198.5 -60.5t-75.5 -151.5l-111 1l-2 6q-6 122 104.5 214.5t288.5 92.5t286 -91t108 -261v-532
q0 -57 6.5 -111t21.5 -107h-125zM445 85q138 0 239 65.5t137 168.5v207h-267q-146 0 -241 -69.5t-95 -167.5q0 -92 60.5 -148t166.5 -56z" />
    <glyph glyph-name="AEacute" unicode="&#x1fc;" horiz-adv-x="1865" 
d="M1823 0h-817l-17 389h-597l-229 -389h-146l881 1456h864v-102h-694l23 -545h589v-102h-585l26 -606h702v-101zM459 502h526l-35 839l-6 1l-15 -44zM1086 1823h147l3 -6l-249 -260h-108z" />
    <glyph glyph-name="aeacute" unicode="&#x1fd;" horiz-adv-x="1732" 
d="M1265 -21q-138 0 -241 55.5t-163 157.5q-49 -87 -159.5 -150t-269.5 -63q-170 0 -262.5 84.5t-92.5 229.5q0 158 113 248.5t326 90.5h262v88q0 134 -63 207t-187 73q-135 0 -213.5 -67t-78.5 -168l-110 12l-2 6q-5 138 106.5 228.5t297.5 90.5q124 0 212.5 -54
t128.5 -157q61 99 156.5 155t209.5 56q200 0 311.5 -124t111.5 -340v-100h-754v-29q0 -191 89.5 -310t271.5 -119q103 0 181.5 32.5t142.5 86.5l47 -87q-60 -55 -148.5 -94t-222.5 -39zM449 79q102 0 197.5 53.5t131.5 115.5v288h-260q-155 0 -238 -71t-83 -176
q0 -97 65 -153.5t187 -56.5zM1235 1000q-138 0 -224 -101.5t-99 -257.5l2 -5h625v31q0 146 -77.5 239.5t-226.5 93.5zM991 1502h147l3 -6l-249 -260h-108z" />
    <glyph glyph-name="Oslashacute" unicode="&#x1fe;" horiz-adv-x="1379" 
d="M1254 609q0 -282 -154.5 -456t-414.5 -174q-92 0 -171.5 23.5t-144.5 68.5l-96 -155h-104l131 212q-86 84 -131 207.5t-45 273.5v237q0 281 152 456t408 175q109 0 201.5 -33t165.5 -95l96 156h104l-136 -222q67 -84 103 -195.5t36 -241.5v-237zM244 609
q0 -118 29.5 -214.5t85.5 -160.5l6 -1l627 1021q-58 57 -135.5 87.5t-172.5 30.5q-208 0 -324 -144t-116 -380v-239zM1135 848q0 97 -21.5 180.5t-60.5 144.5h-6l-621 -1009q51 -40 116.5 -60.5t142.5 -20.5q213 0 331.5 143.5t118.5 382.5v239zM838 1885h147l3 -6
l-249 -260h-108z" />
    <glyph glyph-name="oslashacute" unicode="&#x1ff;" horiz-adv-x="1141" 
d="M91 557q0 239 131 392t347 153q60 0 114 -12.5t102 -36.5l79 161h93l-101 -207q91 -72 141.5 -189t50.5 -261v-33q0 -240 -130.5 -392.5t-346.5 -152.5q-55 0 -104.5 10.5t-94.5 30.5l-78 -160h-93l99 202q-100 70 -154.5 190.5t-54.5 271.5v33zM211 524q0 -112 35 -206
t100 -149h6l385 787q-36 21 -78.5 32.5t-89.5 11.5q-168 0 -263 -129t-95 -314v-33zM929 557q0 102 -32 192t-89 147h-6l-384 -782q33 -17 71.5 -25.5t81.5 -8.5q167 0 262.5 128t95.5 316v33zM655 1500h147l3 -6l-249 -260h-108z" />
    <glyph glyph-name="uni0218" unicode="&#x218;" horiz-adv-x="1248" 
d="M672 -265l-83 -209h-71l52 211v120h102v-122zM1027 357q0 119 -89 194.5t-310 133.5q-239 60 -362 156t-123 259q0 167 137.5 272t354.5 105q224 0 362.5 -125t134.5 -305l-3 -6h-111q0 146 -103.5 240t-279.5 94q-175 0 -273.5 -78t-98.5 -194q0 -110 91 -183.5
t313 -129.5q235 -60 357.5 -162t122.5 -269q0 -174 -142 -277t-363 -103q-218 0 -381 109.5t-158 319.5l2 6h111q0 -170 126.5 -252t299.5 -82q172 0 278.5 76t106.5 201z" />
    <glyph glyph-name="uni0219" unicode="&#x219;" horiz-adv-x="1043" 
d="M568 -262l-83 -209h-71l52 211v120h102v-122zM806 275q0 76 -62.5 133t-225.5 93q-194 42 -286.5 111t-92.5 195q0 124 104.5 209.5t276.5 85.5q183 0 290 -90.5t102 -226.5l-2 -6h-111q0 89 -75.5 155t-203.5 66q-131 0 -196.5 -56.5t-65.5 -132.5q0 -75 56.5 -124
t225.5 -86q193 -43 289 -117.5t96 -202.5q0 -135 -109.5 -218.5t-289.5 -83.5q-197 0 -309.5 94t-106.5 224l2 6h110q7 -117 95.5 -170t208.5 -53q130 0 205 57t75 138z" />
    <glyph glyph-name="uni0237" unicode="&#x237;" horiz-adv-x="468" 
d="M298 1082v-1171q0 -167 -80 -257.5t-222 -90.5q-30 0 -56 5t-56 14l13 99q16 -5 47 -10.5t52 -5.5q87 0 135 65t48 181v1171h119z" />
    <glyph glyph-name="uni1000" unicode="&#x1000;" horiz-adv-x="2056" 
d="M1053 621h-11q-14 -274 -336 -446l-73 127q251 141 250 343q0 151 -102.5 249t-257.5 98q-159 0 -264 -98t-105 -249q0 -207 266 -343l-78 -130l-69 36q-277 142 -277 437q0 223 145.5 359.5t381.5 136.5q283 0 445 -231q160 230 446 231q232 0 378 -137.5t146 -358.5
q0 -219 -147 -358.5t-377 -139.5q-69 0 -137 16q5 49 28 151q80 -14 109 -14q161 0 264.5 96t103.5 249q0 146 -106.5 246.5t-261.5 100.5q-159 0 -260 -97t-101 -250v-24z" />
    <glyph glyph-name="uni1001" unicode="&#x1001;" horiz-adv-x="1156" 
d="M524 122q-268 0 -410 195q-71 100 -71 164q0 91 73 144q67 49 161 50q208 0 322 -183q55 -89 67 -187q224 104 222 337q0 158 -103 260.5t-261 102.5q-206 0 -354 -254l-137 74q190 336 491 335q230 0 377.5 -144.5t147.5 -373.5q0 -230 -147.5 -375t-377.5 -145z
M291 523q-87 0 -88 -40q0 -9 5 -23q25 -34 43 -63q105 -116 273 -116h21q-4 109 -74.5 175.5t-179.5 66.5z" />
    <glyph glyph-name="uni1002" unicode="&#x1002;" horiz-adv-x="1156" 
d="M744 167l-101 120q244 149 245 351q0 152 -104 256.5t-256 104.5q-159 0 -264 -102t-105 -259q0 -203 244 -348l-107 -119l-47 23q-249 123 -248 444q0 228 148.5 374.5t378.5 146.5q225 0 369.5 -147.5t144.5 -373.5q0 -334 -298 -471z" />
    <glyph glyph-name="uni1003" unicode="&#x1003;" horiz-adv-x="2056" 
d="M1412 128q-283 0 -444 235q-161 -239 -444 -239q-230 0 -379 146.5t-149 376.5q0 118 78 216q34 24 199 160l-22 11q-28 0 -88 -49l-78 152q69 51 198 51q69 0 123 -49t54 -116q0 -71 -95 -143q-16 -16 -139 -102q-58 -63 -58 -131q0 -156 101 -255.5t255 -99.5
t255.5 99.5t101.5 255.5q0 206 -260 349l80 149l74 -40q258 -139 278 -424h2v-33q0 -154 100.5 -254t256.5 -100q154 0 255 100t101 254q0 152 -102 252t-254 100q-52 0 -141 -29l11 183q91 13 130 12q232 0 379 -143t147 -375t-147 -376t-379 -144z" />
    <glyph glyph-name="uni1004" unicode="&#x1004;" horiz-adv-x="1156" 
d="M981 385q-55 -120 -190 -196q-127 -69 -267 -68q-230 0 -375 145t-145 375t145 374t375 144q304 0 491 -335l-134 -74q-146 255 -357 254q-158 0 -259.5 -102.5t-101.5 -260.5t102 -259.5t259 -101.5q212 0 357 254l134 -75z" />
    <glyph glyph-name="uni1005" unicode="&#x1005;" horiz-adv-x="1156" 
d="M517 122q-228 0 -374.5 147t-146.5 376q0 226 146.5 372t374.5 146t374 -145t146 -373t-147 -375.5t-373 -147.5zM517 1005q-99 0 -186 -51q116 -127 117 -309q-18 -180 -146 -297q97 -69 215 -68q158 0 262 103.5t104 261.5q0 156 -104 258t-262 102zM234 867
q-80 -103 -80 -222q0 -104 57 -194q81 72 102 199q-10 126 -79 217z" />
    <glyph glyph-name="uni1006" unicode="&#x1006;" horiz-adv-x="2056" 
d="M1414 121q-259 0 -422 211l-18 24q-158 -235 -444 -235q-267 0 -407 195q-72 101 -72 164q0 91 72 144q65 49 160 50q214 0 325 -180q53 -88 59 -190q228 104 229 337q0 158 -104.5 260.5t-261.5 102.5q-208 0 -349 -254l-138 74q181 336 487 335q288 0 445 -235
q156 235 439 235q232 0 378 -143t146 -375q0 -230 -147 -375t-377 -145zM1414 1004q-159 0 -260 -101.5t-101 -261.5q0 -158 101.5 -259.5t259.5 -101.5q161 0 264.5 101t103.5 260q0 154 -106 258.5t-262 104.5zM301 522q-91 0 -93 -40q4 -7 47 -86q107 -116 275 -116h17
q-4 105 -73 173.5t-173 68.5z" />
    <glyph glyph-name="uni1007" unicode="&#x1007;" horiz-adv-x="1156" 
d="M1015 191q-46 9 -119 46q-40 22 -72 73t-32 98v26l-63 19q-78 15 -132 95q-52 72 -57 156q-10 161 126 272q-85 24 -143 24q-156 0 -258 -103t-102 -257q0 -156 96 -258t252 -102q69 0 171 20l24 -154q-91 -29 -183 -29q-228 0 -373.5 147t-145.5 376q0 226 145 372
t374 146q243 0 386.5 -135t143.5 -378q0 -56 -38 -177q-24 -25 -70 -38q0 -40 7 -52q11 -29 49 -38l92 -24zM769 915q-89 -81 -91 -194q-2 -78 67 -121q59 -42 138 -38q12 63 13 107q-1 152 -127 246z" />
    <glyph glyph-name="uni1008" unicode="&#x1008;" horiz-adv-x="1466" 
d="M1259 -522q-14 0 -42 6l-269 58q-123 26 -125 116l-2 83v531h156v-569l216 -51v1505h157v-1593q0 -86 -91 -86zM519 122q-228 0 -374.5 147t-146.5 376q0 226 146.5 372t374.5 146t374 -145t146 -373t-147 -375.5t-373 -147.5zM519 1005q-99 0 -186 -51
q116 -127 117 -309q-18 -180 -146 -297q97 -69 215 -68q158 0 262 103.5t104 261.5q0 156 -104 258t-262 102zM236 867q-80 -103 -80 -222q0 -104 57 -194q81 72 102 199q-10 126 -79 217z" />
    <glyph glyph-name="uni1009" unicode="&#x1009;" horiz-adv-x="1143" 
d="M1855 -456q-38 -29 -92 -40q-65 -14 -111 -14h-1382q-263 0 -262 181l2 803l21 4l138 73q148 -242 359 -242q160 0 261.5 97.5t101.5 252.5q0 149 -102.5 249.5t-260.5 100.5q-211 0 -359 -244l-136 71q194 323 495 323q230 0 377 -140.5t147 -359.5q0 -225 -146 -365
t-378 -140q-198 0 -355 133v-610q0 -45 99 -45h1383q25 0 68 17q29 14 29 73v116h165v-112q0 -124 -62 -182z" />
    <glyph glyph-name="uni100A" unicode="&#x100a;" horiz-adv-x="2028" 
d="M154 503l4 -4l7 12v-22q150 -180 331 -180q158 0 260.5 88.5t102.5 236.5v55q0 145 -105 231t-258 86q-206 0 -355 -236l-137 77l40 68q141 243 452 243q231 0 378 -140t147 -362v-27q0 -150 104 -236t260 -86q160 0 264 97t104 252q0 150 -105 250t-263 100
q-67 0 -205 -48l-51 142l73 26q78 28 183 28q230 0 377 -140t147 -358t-149 -360.5t-375 -142.5q-289 1 -446 236q-158 -232 -443 -233q-181 0 -331 110v-529q0 -104 101 -104h1382q96 0 96 68v141h165v-124q0 -224 -263 -224l-1380 -2q-266 -1 -266 251v647l112 77z" />
    <glyph glyph-name="uni100B" unicode="&#x100b;" horiz-adv-x="1128" 
d="M1143 -506h-169q-114 0 -114 128v167q-99 -56 -274 -55q-47 0 -108 12q-183 32 -230 61q-148 49 -148 174q0 65 44.5 110t115.5 45q38 0 87 -19q31 0 159 -25q256 0 314 105q7 7 11 13q0 15 -25 15q-26 0 -125 -48q-186 -21 -214 -22q-215 0 -346 153q-122 143 -122 354
q0 222 144.5 361t377.5 139q304 0 493 -323l-139 -76q-145 249 -354 249q-156 0 -257.5 -101t-101.5 -249q0 -154 101 -252t258 -98h29q7 -4 19 -4q74 33 217 70q205 8 205 -165q0 -74 -36 -121l-115 -94q-100 -59 -334 -59h-5q-118 0 -200 43q-12 -6 -12 -12q0 -39 221 -81
q192 -7 422 107q13 6 28 6q50 0 54 -77q-2 -21 -2 -120v-129q0 -50 42 -44l91 1z" />
    <glyph glyph-name="uni100C" unicode="&#x100c;" horiz-adv-x="1133" 
d="M881 764q-146 243 -357 243q-158 0 -259.5 -100t-101.5 -250q0 -152 101.5 -250.5t259.5 -98.5q212 0 357 241l132 -71v-858q2 -12 2 -18q0 -69 -55 -86q-77 -24 -128 -24h-616q-210 0 -210 164v36q0 180 220 159l53 -5l23 -140q-68 -9 -137 -19q-3 -12 21 -55q6 1 80 1
h486q107 0 107 36v596q-154 -113 -335 -113q-230 0 -375 142t-145 363q0 219 145 359.5t375 140.5q304 0 491 -322z" />
    <glyph glyph-name="uni100D" unicode="&#x100d;" horiz-adv-x="1133" 
d="M975 -505q-116 0 -116 126v373q-185 -66 -346 -62q-290 6 -452 156q-38 47 -38 121q0 172 203 164q42 -4 120 -41q38 -20 98 -28q16 0 18 4h34q158 0 260.5 99t102.5 250q0 148 -105 249.5t-258 101.5q-217 0 -360 -244l-136 71q190 322 496 322q231 0 374 -138.5
t143 -361.5q0 -235 -135 -373q-140 -145 -382 -132q-29 4 -162 20q-100 48 -129 48q-31 0 -13 -27q57 -105 319 -105h2q76 0 160 13q118 21 141 45q70 26 104 26q91 0 95 -136v0v-368q0 -24 40 -34h91v-139h-169z" />
    <glyph glyph-name="uni100E" unicode="&#x100e;" horiz-adv-x="1156" 
d="M522 124q-230 0 -378 146t-148 376q0 122 78 214q1 1 176 147q12 10 18 16h-7l2 -4l5 15l-29 13q-38 0 -91 -42l-47 127q70 56 176 56q58 0 112.5 -50.5t54.5 -108.5q0 -71 -91 -141q-11 -13 -137 -108q-62 -63 -62 -134q0 -161 103.5 -262.5t264.5 -101.5
q154 0 257.5 104t103.5 260q0 213 -258 361l71 132l71 -34q270 -129 270 -459q0 -230 -143.5 -376t-371.5 -146z" />
    <glyph glyph-name="uni100F" unicode="&#x100f;" horiz-adv-x="2277" 
d="M1271 563h-2v-181q0 -86 -54 -147t-138 -61q-87 0 -138.5 59.5t-51.5 148.5v305q-19 143 -118.5 231t-244.5 88q-161 0 -265.5 -101.5t-104.5 -261.5q0 -216 266 -355l-78 -140l-68 38q-277 148 -278 457q0 234 146.5 376.5t381.5 142.5q228 0 392 -173q56 103 161 103
q103 0 165 -103q156 173 388 173q238 0 384.5 -140.5t146.5 -378.5q0 -303 -337 -492l-80 137q261 145 261 355q0 163 -106 263t-269 100q-154 0 -256.5 -103.5t-102.5 -259.5v-80zM1110 883q0 50 -33 50q-34 0 -34 -50v-501q0 -52 34 -52q32 0 33 52v501z" />
    <glyph glyph-name="uni1010" unicode="&#x1010;" horiz-adv-x="2056" 
d="M1414 118q-105 0 -225 50l60 143q108 -34 165 -34q161 0 264.5 101t103.5 260q0 154 -106.5 258.5t-261.5 104.5q-159 0 -260 -101.5t-101 -261.5v-17l-4 -5q-11 -228 -154.5 -363t-371.5 -135q-230 0 -378.5 145t-148.5 375q0 234 145.5 376t381.5 142q283 0 445 -241
q160 241 446 241q232 0 378 -143t146 -375q0 -230 -147 -375t-377 -145zM523 1001q-159 0 -264 -102.5t-105 -260.5t104.5 -259.5t264.5 -101.5q156 0 258 102t102 259q0 158 -102 260.5t-258 102.5z" />
    <glyph glyph-name="uni1011" unicode="&#x1011;" horiz-adv-x="2056" 
d="M1414 120q-284 0 -446 245q-161 -244 -445 -245q-230 0 -378.5 145t-148.5 375q0 234 145.5 376t381.5 142q283 0 445 -241q160 241 446 241q232 0 378 -143t146 -375q0 -230 -147 -375t-377 -145zM1414 1003q-159 0 -260 -101.5t-101 -261.5q0 -158 101.5 -259.5
t259.5 -101.5q161 0 264.5 101t103.5 260q0 154 -106 258.5t-262 104.5zM523 1003q-159 0 -264 -102.5t-105 -260.5t104.5 -259.5t264.5 -101.5q156 0 258 102t102 259q0 158 -102 260.5t-258 102.5z" />
    <glyph glyph-name="uni1012" unicode="&#x1012;" horiz-adv-x="1111" 
d="M528 550v1h-14l3 154h91q197 0 224 148q-25 154 -370 154q-217 0 -287 -130q-7 -13 -8 -26q0 -21 36 -20h34l-14 -145h-20q-194 0 -194 183q0 152 159 234q123 63 294 62q490 0 530 -299v-7q0 -138 -111 -224q125 -83 111 -228q-29 -283 -530 -283q-147 0 -275 51
q-168 67 -176 193l-2 50l156 37q4 -72 51 -108q88 -65 246 -65q359 0 370 143q11 123 -245 125q-21 2 -59 0z" />
    <glyph glyph-name="uni1013" unicode="&#x1013;" horiz-adv-x="1156" 
d="M523 118q-234 0 -380.5 144.5t-146.5 378.5q0 226 149 372t378 146q226 0 370 -146t144 -372q0 -228 -144.5 -375.5t-369.5 -147.5zM523 1001q-159 0 -264 -102.5t-105 -257.5q0 -121 69 -217q120 127 300 148q179 0 309 -120q51 86 51 189q0 154 -103 257t-257 103z
M524 435q-125 -16 -202 -102q93 -56 201 -57q116 0 219 79q-89 67 -218 80z" />
    <glyph glyph-name="uni1014" unicode="&#x1014;" horiz-adv-x="1156" 
d="M632 126l6 -631l-160 -2v633q-209 -4 -281 21q-148 44 -159 184q-26 297 304 297q114 0 195 -58.5t95 -169.5v-116q274 0 274 107q0 93 -196 184q-95 42 -302 142q-174 82 -175 236q0 220 312 220q89 0 167 -28q141 -52 141 -164q0 -20 -27 -42h-156q18 21 18 34
q0 7 -6 20q-20 11 -137 22q-23 2 -42 2q-110 0 -110 -70q0 -63 137 -119q111 -46 193 -82q348 -156 348 -364q0 -250 -439 -256zM451 434q-36 33 -111 34q-59 0 -101 -32q-47 -34 -42 -90q6 -71 281 -62q-3 125 -27 150z" />
    <glyph glyph-name="uni1015" unicode="&#x1015;" horiz-adv-x="1156" 
d="M523 124q-234 0 -380.5 144.5t-146.5 378.5q0 321 305 469l97 -120q-244 -150 -244 -349q0 -161 103 -263t266 -102q154 0 257 104.5t103 260.5q0 196 -245 347l109 116l45 -23q244 -121 245 -440q0 -230 -143 -376.5t-371 -146.5z" />
    <glyph glyph-name="uni1016" unicode="&#x1016;" horiz-adv-x="1156" 
d="M523 123q-230 0 -378.5 146.5t-148.5 376.5q0 321 305 469l97 -122q-244 -152 -244 -347q0 -161 103 -263t266 -102q241 0 333 228q-234 13 -328 195q-49 92 -49 188q0 98 47 165q55 73 151 72q51 0 115 -43q244 -161 245 -440q0 -230 -143 -376.5t-371 -146.5zM883 646
q0 181 -189 313q-14 7 -21 7q-45 0 -45 -90q0 -56 39 -139q81 -107 216 -107v16z" />
    <glyph glyph-name="uni1017" unicode="&#x1017;" horiz-adv-x="1156" 
d="M524 128q-230 0 -374.5 146.5t-144.5 376.5q0 297 297 463l27 -11l24 -52v-7l4 -6q71 -89 167 -89q120 0 177 129l21 45h25l45 -27q256 -144 257 -445q0 -234 -146.5 -378.5t-378.5 -144.5zM756 931q-63 -104 -211 -114q-176 -11 -254 103q-127 -107 -128 -269
q0 -156 103.5 -260.5t257.5 -104.5q159 0 261.5 101t102.5 264q0 168 -132 280z" />
    <glyph glyph-name="uni1018" unicode="&#x1018;" horiz-adv-x="2056" 
d="M1412 126q-98 0 -183 33l-73 23l53 149q139 -47 203 -47q159 0 264.5 101t105.5 264q0 156 -106.5 258t-263.5 102q-158 0 -259 -89q-105 -94 -104 -249v-22q0 -234 -147.5 -380.5t-378.5 -146.5q-303 0 -451 255l-39 68l135 84q147 -249 355 -249q150 0 254 87
q110 94 110 244v60q0 152 -105 245t-259 93q-175 0 -336 -205l-131 102q207 258 467 257q283 0 443 -239q158 243 446 243q232 0 379 -144t147 -374q0 -235 -146 -379t-380 -144z" />
    <glyph glyph-name="uni1019" unicode="&#x1019;" horiz-adv-x="1156" 
d="M523 125q-234 0 -380.5 144.5t-146.5 378.5q0 321 305 469l97 -120q-244 -150 -244 -349q0 -121 69 -217q125 135 300 142q172 4 309 -117q51 88 51 192q0 196 -245 347l109 116l45 -23q244 -121 245 -440q0 -230 -143 -376.5t-371 -146.5zM524 442q-125 -16 -202 -102
q93 -56 201 -57q116 0 219 79q-89 71 -218 80z" />
    <glyph glyph-name="uni101A" unicode="&#x101a;" horiz-adv-x="2056" 
d="M1414 123q-284 0 -446 245q-161 -244 -445 -245q-230 0 -378.5 145t-148.5 375q0 310 277 460l69 37l78 -138q-266 -144 -266 -359q0 -158 104.5 -259.5t264.5 -101.5q156 0 258 102t102 259q0 212 -250 359l73 132q322 -183 336 -463h11v-28q0 -158 101.5 -259.5
t259.5 -101.5q161 0 264.5 101t103.5 260q0 154 -106.5 258.5t-261.5 104.5q-29 0 -109 -17q-24 107 -28 156q69 16 137 16q232 0 378 -143t146 -375q0 -230 -147 -375t-377 -145z" />
    <glyph glyph-name="uni101B" unicode="&#x101b;" horiz-adv-x="1156" 
d="M967 -502q-78 0 -78 124v1025q0 154 -102.5 257.5t-258.5 103.5q-158 0 -260.5 -103.5t-102.5 -257.5v-12q58 17 125 17q170 0 295 -96q136 -104 137 -266q0 -171 -169 -171q-32 0 -59 5q-229 15 -358.5 154.5t-129.5 368.5q0 225 146.5 370.5t375.5 145.5
q228 0 376.5 -145t148.5 -371v-1016h102v-133h-188zM562 313q0 107 -116 169q-98 55 -212 47l-40 -11q7 -33 32 -64q127 -179 270 -179q33 0 51 15l15 11v12z" />
    <glyph glyph-name="uni101C" unicode="&#x101c;" horiz-adv-x="2056" 
d="M1414 120q-243 0 -387 139.5t-144 383.5q0 156 -102.5 258t-257.5 102q-156 0 -262.5 -103t-106.5 -257q0 -170 106.5 -277t275.5 -97l-25 -158l-78 14q-196 35 -317 176q-120 140 -120 342q0 228 148.5 373t378.5 145q232 0 379 -144t147 -374q0 -161 102.5 -263
t262.5 -102q158 0 263 103.5t105 261.5q0 156 -105.5 258t-262.5 102q-53 0 -168 -40l12 178q80 21 156 20q230 0 377 -145t147 -373q0 -234 -146 -378.5t-378 -144.5z" />
    <glyph glyph-name="uni101D" unicode="&#x101d;" horiz-adv-x="1156" 
d="M523 118q-234 0 -380.5 144.5t-146.5 378.5q0 226 149 372t378 146q226 0 370 -146t144 -372q0 -228 -144.5 -375.5t-369.5 -147.5zM523 1001q-159 0 -264 -102.5t-105 -257.5q0 -161 103 -263t266 -102q154 0 257 104.5t103 260.5q0 154 -103 257t-257 103z" />
    <glyph glyph-name="uni101E" unicode="&#x101e;" horiz-adv-x="2056" 
d="M1412 114q-288 0 -446 243q-161 -239 -443 -239q-258 0 -467 263l131 96q161 -201 336 -201q156 0 260 91.5t104 246.5v57q0 150 -110 243q-105 87 -254 87q-206 0 -355 -245l-135 80l39 69q147 255 451 254q232 0 379 -144t147 -374v-29q0 -153 106 -250
q101 -91 257 -90q159 0 264.5 103t105.5 266q0 156 -106.5 258t-263.5 102q-65 0 -203 -51l-53 152l73 25q78 29 183 28q237 0 381.5 -139.5t144.5 -374.5q0 -234 -147 -380.5t-379 -146.5z" />
    <glyph glyph-name="uni101F" unicode="&#x101f;" horiz-adv-x="2056" 
d="M1412 123q-69 0 -137 18q7 53 28 161q78 -21 109 -21q154 0 259.5 106.5t105.5 262.5q0 154 -105.5 257t-259.5 103q-161 0 -262 -93t-101 -250v-17q0 -232 -147.5 -377.5t-378.5 -145.5q-235 0 -381 143.5t-146 379.5q0 327 306 472l96 -125q-244 -152 -244 -347
q0 -158 104.5 -261.5t264.5 -103.5q360 0 360 365v45q-16 168 -235 302l103 122l47 -29q103 -61 170 -160q160 237 444 238q227 0 375.5 -145t148.5 -373q0 -230 -148.5 -378.5t-375.5 -148.5z" />
    <glyph glyph-name="uni1020" unicode="&#x1020;" horiz-adv-x="1133" 
d="M909 765q-146 243 -357 243q-158 0 -259.5 -100t-101.5 -250q0 -152 101.5 -250.5t259.5 -98.5h29q7 -4 20 -4l18 4q63 26 199 65q207 7 207 -164q0 -37 -13 -78q-96 -182 -477 -199q-173 -7 -344 62v-325q0 -37 103 -37h492q42 1 83 2q14 6 14 28q-23 33 -139 33l29 127
h47q221 0 221 -158v-50q0 -125 -210 -125h-617q-65 0 -134 45q-55 33 -46 103v388q0 147 95 147q106 0 108 -30q144 -54 298 -54h4q254 0 319 99q2 12 2 18q0 15 -25 15q-19 0 -60 -21l-60 -27q-37 -16 -62 -20h-101q-230 0 -375 142t-145 363q0 219 145 359.5t375 140.5
q304 0 491 -322z" />
    <glyph glyph-name="uni1021" unicode="&#x1021;" horiz-adv-x="1934" 
d="M500 544v7h-15l3 154h93q205 0 226 148q-24 154 -340 154q-220 0 -290 -130q-7 -13 -9 -24q0 -23 37 -22h32l-11 -145h-21q-196 0 -196 183q0 158 158 236q123 61 300 60q310 0 445 -169q156 165 386 165q182 0 332 -121q187 -154 187 -399q0 -187 -123 -334
q-156 -188 -396 -188q-87 0 -171 27q-37 9 -38 61q0 100 6 116q28 87 66 120q131 114 251 114q127 0 211 -68q36 69 36 152q0 158 -102.5 262t-258.5 104q-230 0 -335 -206q-21 -94 -104 -166q127 -83 115 -228q-29 -283 -507 -283q-150 0 -279 51q-169 67 -177 193l-2 50
l156 37q2 -40 12 -92q20 -36 135 -62q87 -18 155 -19q334 0 346 143q6 112 -251 125q-20 1 -62 -6zM1423 436q-78 0 -148 -91q-13 -15 -29 -72q31 -2 52 -2q130 0 270 125q-53 40 -145 40z" />
    <glyph glyph-name="uni1023" unicode="&#x1023;" horiz-adv-x="2056" 
d="M1891 415h-189q82 123 80 222q-15 363 -368 363q-158 0 -259.5 -102.5t-101.5 -260.5v-25q-40 -13 -40 -74q0 -95 -12 -123h-182q64 95 64 222q0 158 -102.5 260.5t-258.5 102.5t-262 -105t-106 -258q0 -124 78 -222h-187q-49 105 -49 222q0 225 149 372t377 147
q283 0 447 -246q160 246 445 246q225 0 374.5 -146.5t149.5 -372.5q0 -113 -47 -222zM1550 -503q-69 0 -101.5 15t-68.5 65v27q0 118 136 417v23q0 95 -69 154.5t-178 59.5q-107 0 -177.5 -60.5t-70.5 -153.5v-30q-56 -8 -69 -80q-17 -89 -42 -124l-112 88q69 65 69 146
q0 95 -72.5 154.5t-180.5 59.5q-110 0 -180.5 -59.5t-70.5 -154.5q0 -69 54 -129l-111 -96q-92 106 -92 225q0 150 113.5 249.5t286.5 99.5q203 0 327 -146q122 145 328 146q171 0 286 -99.5t115 -249.5v-25l-120 -311q-11 -29 -11 -44q0 -27 27 -35h104v-132h-120z" />
    <glyph glyph-name="uni1024" unicode="&#x1024;" horiz-adv-x="2323" 
d="M2107 1502q-11 90 -71 148.5t-155 58.5q-107 0 -170 -61t-63 -159q0 -159 159 -207q116 0 216 -52q110 -59 149 -156q29 -72 29 -216v-1236q0 -41 -53 -81q-55 -42 -125 -42h-1791q-70 0 -146 31q-63 27 -71 102q-13 112 63 179t199 67h1148q7 0 29 -6q125 -7 169 -47
l41 -48l-132 -90q-10 41 -107 41h-1175q-24 0 -51.5 -19t-27.5 -40q0 -27 26 -28t53 -1h1743q26 17 52 35v1183q0 100 -12 147q-20 79 -160 112h-31l9 -2l-29 8q-150 24 -240 124t-90 242q0 157 111 260t282 103q146 0 248.5 -82.5t132.5 -220.5zM1048 649h-5
q-15 -271 -336 -445l-80 131q260 138 260 338q0 148 -102.5 245t-260.5 97q-161 0 -265.5 -96t-104.5 -246q0 -204 266 -338l-78 -133l-68 36q-277 138 -278 435q0 216 148 354t380 138q287 0 449 -232q153 232 445 232q228 0 374 -139t146 -353v-931h-156v931
q0 150 -102.5 246t-261.5 96q-161 0 -265.5 -96t-104.5 -246v-24z" />
    <glyph glyph-name="uni1025" unicode="&#x1025;" horiz-adv-x="1156" 
d="M903 -502q-22 -5 -114 -5h-515q-264 0 -262 264l2 690l23 4l134 76q145 -252 359 -252q156 0 258.5 103.5t102.5 260.5q0 154 -103.5 259.5t-257.5 105.5q-214 0 -359 -254l-134 74q190 336 493 336q230 0 374.5 -144.5t144.5 -376.5q0 -236 -142.5 -381t-376.5 -145
q-196 0 -353 139v-509q0 -108 97 -108h519q91 0 91 71v72h165v-86q0 -162 -146 -194z" />
    <glyph glyph-name="uni1026" unicode="&#x1026;" horiz-adv-x="1156" 
d="M903 -502q-22 -5 -114 -5h-515q-264 0 -262 264l2 690l23 4l134 76q145 -252 359 -252q156 0 258.5 103.5t102.5 260.5q0 154 -103.5 259.5t-257.5 105.5q-214 0 -359 -254l-134 74q190 336 493 336q230 0 374.5 -144.5t144.5 -376.5q0 -236 -142.5 -381t-376.5 -145
q-196 0 -353 139v-509q0 -108 97 -108h519q91 0 91 71v72h165v-86q0 -162 -146 -194zM554 1127q-161 0 -272 104.5t-111 256.5q0 151 112 254.5t275 103.5t270.5 -103t107.5 -255q0 -147 -112 -254t-270 -107zM554 1703q-102 0 -166 -60t-64 -155q0 -27 6 -62q97 67 213 81
q118 0 228 -69q5 31 6 50q0 94 -61 154.5t-162 60.5zM547 1390q-81 -8 -149 -58q69 -52 150 -53q91 0 163 64q-72 43 -164 47z" />
    <glyph glyph-name="uni1027" unicode="&#x1027;" horiz-adv-x="1156" 
d="M1008 823q0 -85 -79 -129q-66 -36 -155 -36q-88 0 -192 51q-163 80 -196 270q-223 -92 -223 -337q0 -243 225 -338q29 102 56 148q118 179 337 179q227 0 227 -161q0 -49 -73 -153q-143 -196 -411 -195q-230 0 -375 145t-145 375t145 374.5t375 144.5q241 0 405 -202h4
l40 -54q9 -23 42 -80zM524 1005h-17v-6q0 -144 158 -187q15 -12 64 -12q88 0 101 34q-127 171 -306 171zM843 470q0 19 -81 18q-66 0 -140 -36q-109 -71 -115 -171h17q228 0 319 179v10z" />
    <glyph glyph-name="uni1029" unicode="&#x1029;" horiz-adv-x="2369" 
d="M2216 1452h-162v138q0 117 -74 117l-1710 -2q-101 0 -101 -134v-1839q0 -94 101 -94h1686q95 0 95 61v611h165v-607q0 -204 -263 -204h-1683q-266 0 -266 229l-4 1867q-1 253 270 253l1728 1q225 0 221 -228zM1685 107q-288 0 -445 243q-161 -239 -445 -239
q-258 0 -465 263l130 96q161 -201 335 -201q156 0 260.5 91t104.5 247v57q0 150 -110 243q-105 87 -255 87q-207 0 -353 -245l-136 80l39 69q147 254 450 254q232 0 379 -144.5t147 -374.5v-28q0 -153 107 -249q101 -91 257 -91q160 0 265 103.5t105 264.5q0 156 -106 258.5
t-264 102.5q-65 0 -203 -51l-52 152l72 24q78 29 183 29q238 0 382 -139.5t144 -375.5q0 -234 -147 -380t-379 -146z" />
    <glyph glyph-name="uni102A" unicode="&#x102a;" horiz-adv-x="4513" 
d="M3367 1452h-162v138q0 117 -74 117l-1710 -2q-101 0 -101 -134v-1839q0 -94 101 -94h1686q95 0 95 61v611h165v-607q0 -204 -263 -204h-1683q-266 0 -266 229l-4 1867q-1 253 270 253l1728 1q225 0 221 -228zM4098 1509q-4 -2 -11 -1q-5 0 -5 5q-7 85 -68 138.5
t-155 53.5q-102 0 -166 -60.5t-64 -156.5q0 -91 64 -151t160 -60q22 0 64 5v-154q-33 -3 -58 -3q-161 0 -272 105.5t-111 257.5q0 153 112 257t275 104q149 0 248 -81.5t128 -220.5q-67 -25 -141 -38zM2835 103q-288 0 -445 243q-161 -239 -445 -239q-258 0 -465 263l130 96
q161 -201 335 -201q156 0 260.5 91t104.5 247v57q0 150 -109 243q-105 87 -256 87q-207 0 -353 -245l-136 80l40 69q147 254 449 254q232 0 379 -144.5t147 -374.5v-28q0 -153 107 -249q101 -91 257 -91q160 0 265 103.5t105 264.5q0 156 -106 258.5t-264 102.5
q-65 0 -203 -51l-52 152l72 24q78 29 183 29q238 0 382 -139.5t144 -375.5q0 -234 -147 -380t-379 -146zM881 740q-146 254 -357 254q-158 0 -259.5 -102.5t-101.5 -260.5q0 -234 225 -338q19 224 197 321q87 49 189 50q98 0 163 -48q71 -51 71 -146q0 -60 -73 -164
q-143 -196 -411 -195q-230 0 -375 145t-145 375t145 374.5t375 144.5q304 0 491 -336zM758 511q-107 0 -177 -68t-74 -173h17q170 0 278 116q16 29 41 63q4 15 4 23q0 39 -89 39zM3756 111q-47 0 -142 23v161q89 -25 142 -25q160 0 260.5 101t100.5 260q0 154 -103.5 258.5
t-257.5 104.5q-253 0 -349 -277q-2 -15 -24 -68l-141 83l11 40q109 378 503 378q225 0 373 -146t148 -373q0 -232 -144.5 -376t-376.5 -144z" />
    <glyph glyph-name="uni102B" unicode="&#x102b;" horiz-adv-x="264" 
d="M-6 111v1366q0 14 -3 16q-33 204 -223 203q-102 0 -165.5 -65.5t-63.5 -167.5q0 -38 10 -78l-152 -34q-13 59 -12 112q0 165 111 276t276 111q156 0 260.5 -96.5t121.5 -250.5v-1392h-160z" />
    <glyph glyph-name="uni102C" unicode="&#x102c;" horiz-adv-x="1126" 
d="M413 120q-47 0 -143 23v161q89 -25 143 -25q159 0 260.5 101t101.5 260q0 154 -104 258.5t-258 104.5q-254 0 -349 -278q-2 -14 -25 -67l-141 83l12 41q109 378 503 376q226 0 373.5 -145.5t147.5 -372.5q0 -232 -144.5 -376t-376.5 -144z" />
    <glyph glyph-name="uni102D" unicode="&#x102d;" 
d="M-632 1118q-161 0 -272 105.5t-111 258.5t112 257t275 104t270.5 -103.5t107.5 -257.5q0 -148 -112 -256t-270 -108zM-632 1699q-102 0 -166 -60.5t-64 -156.5q0 -92 64 -151.5t160 -59.5q101 0 165 58.5t64 153t-61 155.5t-162 61z" />
    <glyph glyph-name="uni102E" unicode="&#x102e;" 
d="M-632 1125q-161 0 -272 104.5t-111 256.5q0 151 112 254.5t275 103.5t270.5 -103t107.5 -255q0 -147 -112 -254t-270 -107zM-632 1701q-102 0 -166 -60t-64 -155q0 -27 6 -62q97 67 213 81q118 0 228 -69q5 31 6 50q0 94 -61 154.5t-162 60.5zM-639 1388q-81 -8 -149 -58
q69 -52 150 -53q91 0 163 64q-72 43 -164 47z" />
    <glyph glyph-name="uni102F" unicode="&#x102f;" 
d="M-642 -503q-74 0 -74 91v541h152v-476h210v-156h-288z" />
    <glyph glyph-name="uni1030" unicode="&#x1030;" 
d="M-510 -506q-70 0 -70 91v548h155v-483h179v-156h-264zM-830 -506v634h153v-634h-153z" />
    <glyph glyph-name="uni1031" unicode="&#x1031;" horiz-adv-x="1156" 
d="M881 752q-146 255 -357 254q-158 0 -259.5 -102.5t-101.5 -260.5q0 -234 225 -337q18 224 197 320q87 49 188 50q99 0 164 -48q72 -51 72 -146q0 -61 -73 -164q-143 -196 -412 -195q-230 0 -375 145t-145 375t145 374t375 144q304 0 491 -335zM758 524q-107 0 -177 -68.5
t-74 -173.5h17q169 0 277 116q15 29 42 63q4 14 4 23q0 40 -89 40z" />
    <glyph glyph-name="uni1032" unicode="&#x1032;" horiz-adv-x="5" 
d="M-331 1244l-736 352l78 165l745 -346z" />
    <glyph glyph-name="uni1033" unicode="&#x1033;" horiz-adv-x="265" 
d="M72 -508q-72 0 -72 91v1572h152v-1507h127v-156h-207z" />
    <glyph glyph-name="uni1034" unicode="&#x1034;" horiz-adv-x="529" 
d="M328 -507q-67 0 -67 91v1571h156v-1506h156v-156h-245zM0 -508v1665h154v-1665h-154z" />
    <glyph glyph-name="uni1036" unicode="&#x1036;" 
d="M-610 1296q-73 0 -124.5 45t-51.5 111q0 68 50 114.5t126 46.5q74 0 125 -45.5t51 -115.5q0 -66 -51.5 -111t-124.5 -45zM-610 1502q-55 0 -55 -50t55 -50q56 0 55 50q1 50 -55 50z" />
    <glyph glyph-name="uni1037" unicode="&#x1037;" 
d="M-646 -283q-78 0 -131 50.5t-53 123.5q0 74 52 123.5t132 49.5q79 0 133.5 -49.5t54.5 -123.5t-54.5 -124t-133.5 -50zM-646 -55q-58 0 -56 -54q0 -55 56 -55q59 0 60 55q-1 54 -60 54z" />
    <glyph glyph-name="uni1038" unicode="&#x1038;" horiz-adv-x="511" 
d="M197 703q-89 0 -145 57t-56 147q0 85 57 143t144 58q85 0 142.5 -58t57.5 -143q0 -89 -56.5 -146.5t-143.5 -57.5zM197 154q-89 0 -145 56t-56 145q0 85 57 144.5t144 59.5t143.5 -57t56.5 -147q0 -89 -56.5 -145t-143.5 -56zM197 972q-62 0 -60 -65q0 -62 60 -62
q65 0 66 62q-1 65 -66 65zM197 418q-62 0 -60 -63q0 -65 60 -64q65 0 66 64q-1 63 -66 63z" />
    <glyph glyph-name="uni1039" unicode="&#x1039;" 
d="M-403 1503q-4 -2 -11 -1q-5 0 -5 5q-7 85 -68 138.5t-155 53.5q-102 0 -166 -60.5t-64 -156.5q0 -91 64 -151t160 -60q22 0 64 5v-154q-33 -3 -58 -3q-161 0 -272 105.5t-111 257.5q0 153 112 257t275 104q149 0 248 -81.5t128 -220.5q-67 -25 -141 -38z" />
    <glyph glyph-name="uni103A" unicode="&#x103a;" horiz-adv-x="265" 
d="M57 -522q-14 0 -42 6l-269 58q-123 26 -125 116l-2 83v531h156v-569l216 -51v1505h157v-1593q0 -86 -91 -86z" />
    <glyph glyph-name="uni103B" unicode="&#x103b;" horiz-adv-x="288" 
d="M1317 1473h-167l-2 97q-3 137 -67 137h-779q-58 0 -113 -71q-17 -22 -17 -90v-1807q0 -103 98 -103h787q91 0 91 68v584h166v-580q0 -216 -261 -216h-783q-265 0 -266 242l-4 1817q-1 298 299 298h804q220 0 216 -255z" />
    <glyph glyph-name="uni103C" unicode="&#x103c;" horiz-adv-x="5" 
d="M-619 -575q-163 0 -276.5 101.5t-113.5 246.5q0 149 112.5 249t277.5 100q167 0 280 -100t113 -249q0 -146 -113 -247t-280 -101zM-619 -8q-105 0 -172.5 -62t-67.5 -157q0 -91 68.5 -151.5t171.5 -60.5q107 0 176 58.5t69 153.5t-69 157t-176 62z" />
    <glyph glyph-name="uni103D" unicode="&#x103d;" 
d="M-621 -505h-300v156h221v479h154v-544q0 -91 -75 -91z" />
    <glyph glyph-name="uni1040" unicode="&#x1040;" horiz-adv-x="1156" 
d="M523 118q-234 0 -380.5 144.5t-146.5 378.5q0 226 149 372t378 146q226 0 370 -146t144 -372q0 -228 -144.5 -375.5t-369.5 -147.5zM523 1001q-159 0 -264 -102.5t-105 -257.5q0 -161 103 -263t266 -102q154 0 257 104.5t103 260.5q0 154 -103 257t-257 103z" />
    <glyph glyph-name="uni1041" unicode="&#x1041;" horiz-adv-x="1156" 
d="M522 122q-312 0 -453 264l-40 74l136 75q143 -253 357 -254q156 0 258.5 101.5t102.5 259.5q0 154 -103.5 258.5t-257.5 104.5q-214 0 -357 -254l-136 74q190 336 493 336q226 0 372.5 -146t146.5 -373q0 -230 -145.5 -375t-373.5 -145z" />
    <glyph glyph-name="uni1042" unicode="&#x1042;" horiz-adv-x="1156" 
d="M522 -515q-234 0 -380 146t-146 378v80h158v-80q0 -158 105.5 -263t262.5 -105q154 0 257.5 106t103.5 262l1 1154h154l-1 -1154q0 -237 -141 -380q-140 -144 -374 -144z" />
    <glyph glyph-name="uni1043" unicode="&#x1043;" horiz-adv-x="1156" 
d="M522 110q-98 0 -199 38l302 -623l-146 -63l-428 943l97 39l35 29l9 -11h7l4 -16q145 -176 319 -176q154 0 257.5 103.5t103.5 259.5q0 158 -102.5 262t-258.5 104q-207 0 -357 -247l-133 80l40 71q140 254 450 254q234 0 374.5 -145t140.5 -379q0 -230 -143.5 -376.5
t-371.5 -146.5z" />
    <glyph glyph-name="uni1044" unicode="&#x1044;" horiz-adv-x="1156" 
d="M883 752q-152 247 -355 247q-158 0 -261.5 -104.5t-103.5 -261.5q0 -156 104.5 -259.5t260.5 -103.5q128 0 331 194v5l51 -23l85 -47l-425 -932l-144 63l296 618q-96 -38 -194 -38q-227 0 -374.5 147.5t-147.5 375.5q0 232 144 378t378 146q315 0 447 -254l38 -71z" />
    <glyph glyph-name="uni1045" unicode="&#x1045;" horiz-adv-x="1156" 
d="M522 -513q-234 0 -380 135t-146 348v78h158v-78q0 -143 104.5 -244t263.5 -101q156 0 258.5 101.5t102.5 243.5v705q0 145 -102.5 241t-258.5 96q-236 0 -341 -211q225 -25 319 -178q51 -89 51 -182q0 -88 -49 -147q-54 -68 -145 -68q-65 0 -163 66q-198 129 -198 379v4
q0 214 146.5 349.5t379.5 135.5q239 0 377 -123.5t138 -343.5v-723q0 -213 -142.5 -348t-372.5 -135zM154 693v-22q0 -157 120 -256q29 -14 62 -37q14 -2 23 -2q40 0 40 78q0 101 -68 167t-177 72z" />
    <glyph glyph-name="uni1046" unicode="&#x1046;" horiz-adv-x="1156" 
d="M522 129q-234 0 -380 146t-146 378v765q0 231 146.5 337t379.5 106q241 0 378 -128.5t137 -372.5h-154q-2 166 -99.5 258.5t-261.5 92.5q-161 0 -264.5 -67t-103.5 -226v-765q0 -160 103.5 -263t264.5 -103q134 0 230.5 83.5t128.5 218.5l-313 57q-249 44 -251 234
q-2 91 69.5 163t164.5 72q60 0 116 -29l95 -62l-106 -131q-48 58 -83 57q-28 0 -56.5 -23.5t-28.5 -50.5q0 -44 29 -53q201 -38 456 -86q35 -4 64 -61v-23q0 -232 -142.5 -378t-372.5 -146z" />
    <glyph glyph-name="uni1047" unicode="&#x1047;" horiz-adv-x="1156" 
d="M1015 509l-196 -587q-29 -86 -29 -207q0 -91 82 -81q72 8 80 38l62 -111q-48 -53 -142 -75q-108 -1 -165 48q-77 58 -74 181q5 193 237 843q13 36 13 99q0 150 -102.5 250t-258.5 100q-161 0 -264.5 -99.5t-103.5 -250.5q0 -195 249 -339l-84 -130l-69 40
q-254 151 -254 429q0 222 146.5 361.5t379.5 139.5q234 0 374.5 -139t140.5 -362q0 -82 -22 -148z" />
    <glyph glyph-name="uni1048" unicode="&#x1048;" horiz-adv-x="1156" 
d="M705 150l-80 136q258 141 258 354q0 158 -102.5 262t-258.5 104q-236 0 -341 -229q222 -19 319 -194q51 -96 51 -192q0 -89 -51 -159q-58 -76 -143 -77q-57 0 -163 77q-198 142 -198 408q0 228 148 374t378 146q225 0 370 -147t145 -373q0 -303 -332 -490zM154 659v-19
q0 -169 120 -278q29 -15 62 -40q14 -6 23 -5q40 0 40 89q0 109 -68 181t-177 72z" />
    <glyph glyph-name="uni1049" unicode="&#x1049;" horiz-adv-x="1156" 
d="M928 -369q-89 -95 -223 -127q-58 -19 -183 -20q-234 0 -380 107t-146 330v740q0 223 146.5 361.5t379.5 138.5q230 0 372.5 -138.5t142.5 -361.5v-25q-29 -54 -64 -55q-255 -49 -456 -83q-29 -9 -29 -49q0 -52 70 -72q40 -14 98 51l106 -126q-83 -59 -95 -61
q-53 -28 -116 -27q-93 0 -164.5 69.5t-69.5 158.5q2 181 251 225l313 54q-30 130 -126.5 210t-232.5 80q-160 0 -264 -100t-104 -250v-740q0 -150 104.5 -223t263.5 -73q163 0 261 73.5t100 231.5h154q-1 -184 -109 -299z" />
    <glyph glyph-name="uni104A" unicode="&#x104a;" horiz-adv-x="386" 
d="M57 130v957h148v-957h-148z" />
    <glyph glyph-name="uni104B" unicode="&#x104b;" horiz-adv-x="638" 
d="M302 132v957h158v-957h-158zM57 132v957h157v-957h-157z" />
    <glyph glyph-name="uni104C" unicode="&#x104c;" horiz-adv-x="1131" 
d="M496 180q-46 4 -166 20q-96 52 -121 51q-36 0 -17 -32q55 -101 319 -101v0q69 0 156 15q125 21 140 41q76 30 109 30q97 0 97 -140v-399q7 -72 -48 -122.5t-133 -50.5h-618q-210 0 -210 199v-47q0 209 176 222l97 7l25 -135q-116 4 -137 -22q13 -25 15 -50q42 -16 83 -33
h488q108 0 108 80v314q-170 -58 -346 -58h-2q-154 0 -245 28q-105 32 -205 121q-38 46 -38 119q0 171 203 157q42 -3 110 -30q76 -31 108 -37q12 0 16 4h36q158 0 260.5 96.5t102.5 243.5q0 145 -105 242.5t-258 97.5q-217 0 -360 -236l-136 66q148 251 380 307
q-257 114 -257 349q0 153 110.5 256.5t277.5 103.5q147 0 249.5 -85t128.5 -221q-49 -16 -137 -42q-17 0 -16 10q-25 195 -225 195q-107 0 -170.5 -60t-63.5 -157q0 -94 64.5 -155t165.5 -61q15 0 61 6v-133q206 -30 325.5 -158.5t119.5 -324.5q0 -221 -139 -358
q-143 -145 -378 -133z" />
    <glyph glyph-name="uni104D" unicode="&#x104d;" horiz-adv-x="1394" 
d="M1200 1500q-23 198 -224 199q-100 0 -166 -37.5t-66 -128.5q0 -158 157 -205q285 0 365 -207q29 -74 29 -214v-1254q0 -64 -51 -107.5t-120 -43.5h-878q-82 0 -142.5 54.5t-68.5 129.5q-13 111 63 180t199 69h234l87 -11q53 -7 91 -37q12 -6 52 -78l-133 -90
q-17 67 -112 67h-247q-24 0 -49.5 -18.5t-25.5 -39.5q0 -30 22.5 -55t53.5 -25h814q37 -6 53 32v1227q0 99 -11 146q-21 79 -160 111h-23l4 -6l-32 12q-147 24 -237 124t-90 239q0 155 110.5 235.5t278.5 80.5q147 0 250.5 -83.5t132.5 -217.5zM909 -243v875
q0 156 -103.5 260.5t-257.5 104.5q-158 0 -260.5 -103.5t-102.5 -261.5v-11q58 17 129 17q166 0 293 -99q136 -107 137 -268q0 -173 -167 -172q-32 0 -63 5q-227 15 -357.5 156.5t-130.5 371.5t146.5 379.5t375.5 149.5q232 0 378.5 -148.5t146.5 -380.5v-875h-164zM584 294
q0 109 -114 175q-100 56 -216 47l-40 -16q15 -32 32 -64q122 -180 268 -180q31 0 57 15l13 11v12z" />
    <glyph glyph-name="uni104E" unicode="&#x104e;" horiz-adv-x="2712" 
d="M1923 1522q-4 -2 -11 -1q-5 0 -5 5q-7 85 -68 138.5t-155 53.5q-102 0 -166 -60.5t-64 -156.5q0 -91 64 -151t160 -60q22 0 64 5v-154q-33 -3 -58 -3q-161 0 -272 105.5t-111 257.5q0 153 112 257t275 104q149 0 248 -81.5t128 -220.5q-67 -25 -141 -38zM876 748
q-145 254 -354 254q-158 0 -261 -104.5t-103 -260.5q0 -158 103.5 -261t260.5 -103q212 0 354 252l91 -47h6l40 -27v-949h-158v727q-150 -118 -333 -118q-230 0 -376 148t-146 378q0 228 146 374.5t376 146.5q304 0 493 -336zM2090 383q-56 -120 -190 -196
q-127 -69 -266 -68q-230 0 -375.5 145t-145.5 375t145.5 374.5t375.5 144.5q304 0 491 -336l-134 -74q-146 254 -357 254q-158 0 -259.5 -102.5t-101.5 -260.5t101.5 -259.5t259.5 -101.5q212 0 357 254l134 -75zM2381 702q-89 0 -145 57t-56 146q0 85 57 143.5t144 58.5
q85 0 142.5 -58t57.5 -144q0 -89 -56.5 -146t-143.5 -57zM2381 153q-89 0 -145 56t-56 145q0 85 57 144.5t144 59.5t143.5 -57.5t56.5 -146.5t-56.5 -145t-143.5 -56zM2381 970q-61 0 -61 -65q0 -61 61 -61q65 0 65 61q0 65 -65 65zM2381 417q-61 0 -61 -63q0 -65 61 -65
q65 0 65 65q0 63 -65 63z" />
    <glyph glyph-name="uni104F" unicode="&#x104f;" horiz-adv-x="1673" 
d="M1465 1487q-31 223 -234 224q-107 0 -168.5 -42t-61.5 -146q0 -170 161 -221q120 0 219 -55q107 -61 147 -167q26 -68 26 -224v-745h-158v745q0 116 -11 154q-17 82 -154 122h-31l2 -8l-27 11q-147 24 -237.5 131t-90.5 257q0 165 110.5 245.5t277.5 80.5
q152 0 253.5 -85t130.5 -236zM1123 109v764q-6 29 -59 28q-16 -4 -69 -30q18 -31 29 -46l-11 -9q0 -80 -82 -125q-67 -40 -152 -40q-99 0 -194 49q-161 78 -193 276q-228 -93 -229 -339q0 -247 225 -340q34 108 60 148q110 181 339 181q226 0 226 -165q0 -45 -74 -149
q-143 -199 -411 -199q-229 0 -376.5 147.5t-147.5 376.5q0 228 147.5 376.5t376.5 148.5q213 0 371 -170q87 69 161 69q188 0 222 -173v-779h-159zM528 998h-17v-6q0 -140 156 -182q19 -12 67 -12q87 0 98 29q-127 171 -304 171zM849 461q0 22 -85 22q-58 0 -139 -32
q-110 -76 -114 -179h17q170 0 279 120q16 21 36 59l6 4v6z" />
    <glyph glyph-name="uni105A" unicode="&#x105a;" horiz-adv-x="264" 
d="M476 1644l-44 42q-40 29 -105 29q-76 0 -124.5 -53t-48.5 -126l3 -1426h-157v1366q0 14 -4 16q-33 204 -224 203q-103 0 -165.5 -65.5t-62.5 -167.5q0 -38 7 -78l-154 -34q-13 59 -12 112q0 167 109.5 277t279.5 110q151 0 276 -114l22 -20q81 143 246 143q120 0 215 -83
z" />
    <glyph glyph-name="uni1060" unicode="&#x1060;" 
d="M-1020 -288h-3q-14 -176 -274 -294l-70 113q196 94 195 212q0 94 -70.5 152t-179.5 58q-105 0 -176.5 -59t-71.5 -151q0 -125 194 -212l-72 -113l-68 29q-208 90 -208 296q0 154 112.5 245.5t289.5 91.5q203 0 328 -140q122 140 325 140q179 0 290 -91t111 -246
q0 -152 -111 -243.5t-290 -91.5q-49 0 -112 11q9 43 15 133q80 -20 97 -20q107 0 177 61t70 150q0 92 -70 151t-177 59q-109 0 -180 -57.5t-71 -152.5v-31z" />
    <glyph glyph-name="uni1061" unicode="&#x1061;" 
d="M-624 -600q-128 0 -238 68q-122 74 -121 181q0 16 3 37q22 20 76 47q15 3 63 21q40 13 57 12q114 0 195 -52t95 -146q109 61 109 174q0 93 -67 153t-172 60q-137 0 -248 -162l-129 70q158 218 377 218q167 0 276.5 -96.5t109.5 -242.5t-109.5 -244t-276.5 -98zM-756 -336
q-19 -2 -85 -22q67 -118 193 -118q25 0 40 4l50 12q-80 124 -198 124z" />
    <glyph glyph-name="uni1062" unicode="&#x1062;" 
d="M-459 -606l-91 107q180 100 180 219q0 95 -69 157.5t-174 62.5t-175 -61.5t-70 -158.5q0 -116 182 -219l-97 -103l-45 21q-188 84 -189 301q0 151 114.5 253t279.5 102q167 0 279 -102t112 -253q1 -219 -237 -326z" />
    <glyph glyph-name="uni1063" unicode="&#x1063;" 
d="M-305 -600q-205 0 -327 144q-126 -144 -329 -144q-176 0 -287.5 92.5t-111.5 247.5q0 73 63 137q30 30 131 102l-29 5q-7 0 -47 -22l-55 87q70 48 160 48q58 0 94 -33.5t36 -84.5q0 -59 -74 -104q-125 -76 -125 -135q0 -91 70.5 -151t174.5 -60q110 0 180.5 58t70.5 153
q0 124 -199 219l73 112l67 -28q188 -78 211 -270h1v-30q0 -95 71.5 -154.5t180.5 -59.5q106 0 177 60.5t71 153.5t-71 151.5t-177 58.5q-36 0 -122 -19l13 141q83 9 109 9q178 0 289.5 -93t111.5 -248q0 -152 -112.5 -247.5t-288.5 -95.5z" />
    <glyph glyph-name="uni1064" unicode="&#x1064;" horiz-adv-x="5" 
d="M-836 1620h4q5 83 56.5 135.5t133.5 52.5q101 0 154 -68l-70 -87q-33 38 -78 51q-87 0 -88 -91q-7 -31 35 -72l51 9q92 0 143 -69l-69 -89q-28 36 -72 44q-80 -4 -99 -91q0 -87 93 -92q47 -2 74 52q45 -38 73 -78q-78 -76 -153 -76q-87 0 -140 53.5t-53 142.5
q0 74 55 140q-46 68 -50 133z" />
    <glyph glyph-name="uni1065" unicode="&#x1065;" 
d="M-610 -602q-163 0 -277 99t-114 243q0 147 112 246t279 99t278.5 -99t111.5 -246q0 -146 -111.5 -244t-278.5 -98zM-610 -46q-13 0 -79 -18q51 -86 51 -190q0 -101 -51 -201q34 -17 79 -17q103 0 172.5 61t69.5 151q0 94 -67.5 154t-174.5 60zM-784 -109
q-65 -51 -65 -151q0 -105 65 -157q49 63 51 137q4 99 -51 171z" />
    <glyph glyph-name="uni1066" unicode="&#x1066;" 
d="M-779 -600q-199 0 -325 141q-125 -144 -328 -144q-132 0 -241 65q-126 73 -126 182q0 49 65 101q42 5 108 20q6 -4 6 -7l-6 -4l11 -4l-5 20l-2 -2v6l-6 -6q281 0 310 -219q136 67 137 191q0 96 -71 154t-180 58q-139 0 -251 -157l-133 64q160 222 384 222q199 0 328 -142
q120 145 325 145q175 0 289 -96t114 -248q0 -154 -112 -247t-291 -93zM-779 -46q-107 0 -177.5 -61t-70.5 -152.5t70.5 -150.5t177.5 -59t177 59t70 150q0 93 -70 153.5t-177 60.5zM-1571 -345q-69 0 -69 -14v-21q48 -79 230 -91q-13 126 -161 126z" />
    <glyph glyph-name="uni1067" unicode="&#x1067;" 
d="M-323 -600q-199 0 -325 141q-125 -144 -328 -144q-132 0 -241 65q-126 73 -126 182q0 49 65 101q42 5 108 20q6 -4 6 -7l-6 -4l11 -4l-5 20l-2 -2v6l-6 -6q281 0 310 -219q136 67 137 191q0 96 -71 154t-180 58q-139 0 -251 -157l-133 64q160 222 384 222q199 0 328 -142
q120 145 325 145q175 0 289 -96t114 -248q0 -154 -112 -247t-291 -93zM-323 -46q-107 0 -177.5 -61t-70.5 -152.5t70.5 -150.5t177.5 -59t177 59t70 150q0 93 -70 153.5t-177 60.5zM-1115 -345q-69 0 -69 -14v-21q48 -79 230 -91q-13 126 -161 126z" />
    <glyph glyph-name="uni1068" unicode="&#x1068;" 
d="M-222 -562q-183 22 -177 160q-193 34 -193 190q0 91 57 141q-40 15 -75 14q-107 0 -173 -59t-66 -150q0 -88 63.5 -145t166.5 -57q51 0 140 14l20 -126q-80 -20 -154 -20q-163 0 -275.5 96.5t-112.5 237.5q0 146 111.5 241.5t279.5 95.5q175 0 285.5 -91t110.5 -241
q0 -129 -53 -141q-10 -60 51 -60q11 0 42 5zM-459 -97q-29 -38 -29 -98q0 -42 34.5 -72.5t83.5 -30.5h13q6 20 6 31q1 119 -108 170z" />
    <glyph glyph-name="uni1069" unicode="&#x1069;" horiz-adv-x="265" 
d="M-610 -601q-163 0 -277 99t-114 244q0 147 112 245.5t279 98.5t278.5 -98.5t111.5 -245.5q0 -63 -19 -121l228 -54v1554h159v-1632q0 -75 -91 -76q-24 0 -46 6l-345 81q-111 -101 -276 -101zM-610 -44q-13 0 -79 -19q51 -86 51 -190q0 -100 -51 -201q34 -16 79 -16
q103 0 172.5 60.5t69.5 151.5q0 93 -67.5 153.5t-174.5 60.5zM-784 -108q-65 -51 -65 -150q0 -106 65 -158q49 64 51 138q4 98 -51 170z" />
    <glyph glyph-name="uni106A" unicode="&#x106a;" horiz-adv-x="1156" 
d="M530 115q-196 0 -353 139v-478q0 -142 97 -142h107v-139h-107q-264 0 -262 285l2 669l23 4l134 76q145 -252 359 -252q156 0 258.5 103.5t102.5 260.5q0 154 -103.5 259.5t-257.5 105.5q-214 0 -359 -254l-134 74q190 336 493 336q230 0 374.5 -144.5t144.5 -376.5
q0 -236 -142.5 -381t-376.5 -145z" />
    <glyph glyph-name="uni106B" unicode="&#x106b;" horiz-adv-x="2028" 
d="M154 498l4 -4l7 11v-22q150 -180 331 -180q158 0 260.5 88.5t102.5 237.5v55q0 146 -105 232.5t-258 86.5q-206 0 -355 -238l-137 77l40 68q141 244 452 244q231 0 378 -140t147 -363v-28q0 -149 104 -235.5t260 -86.5q160 0 264 97.5t104 252.5q0 150 -105 251t-263 101
q-67 0 -205 -49l-51 143l73 26q78 27 183 27q230 0 377 -140t147 -359t-149 -362t-375 -143q-289 1 -446 237q-158 -233 -443 -234q-181 0 -331 111v-512q0 -116 101 -116h1032v-140h-1032q-266 0 -266 253v639l112 77z" />
    <glyph glyph-name="uni106C" unicode="&#x106c;" 
d="M-373 -194q-78 -95 -258 -95q-108 0 -194 45q-99 55 -99 143q0 91 99 144q85 46 194 46q169 0 292 -137l-116 -39q-80 90 -176 90q-59 0 -109 -23q-57 -29 -56 -81q0 -49 56 -79q49 -25 109 -24q96 0 176 92l116 -39zM-287 -585h-113q-81 0 -80 64v119q-77 -14 -153 -14
q-156 0 -228 45l-49 29l60 72l73 -34q88 -24 146 -24q54 0 163 28q25 7 46 8q68 0 68 -69v-144h67v-80z" />
    <glyph glyph-name="uni106D" unicode="&#x106d;" 
d="M-495 -568l-12 -8l-85 112q96 73 97 181q0 102 -68.5 168t-176.5 66q-109 0 -176 -64t-69 -165q-10 -317 -272 -317h-525q-104 0 -183 72t-79 170v188q0 248 256 248q107 0 185 -62.5t82 -159.5l-135 -26q-2 116 -132 116q-104 10 -104 -116v-180q0 -46 31.5 -85.5
t78.5 -39.5h525q120 0 120 154v29q0 169 109.5 268t289.5 99q167 0 279 -104t112 -259q0 -182 -148 -285z" />
    <glyph glyph-name="uni106E" unicode="&#x106e;" horiz-adv-x="1133" 
d="M975 -510q-116 0 -116 121v431q-185 -63 -346 -59q-290 6 -452 149q-38 45 -38 116q0 165 203 158q42 -4 120 -40q38 -19 98 -27q16 0 18 4h34q158 0 260.5 95.5t102.5 239.5q0 142 -105 239t-258 97q-217 0 -360 -234l-136 68q190 309 496 309q231 0 374 -133t143 -346
q0 -224 -135 -356q-142 -143 -382 -128q-16 2 -162 19q-100 46 -129 46q-31 0 -13 -26q57 -101 319 -101h2q76 0 160 13q118 20 141 43q70 25 104 25q91 0 95 -130v0v-430q0 -29 40 -25h91v-138h-169zM776 -508q-59 0 -60 41v120q-80 -19 -163 -19h-6q-69 0 -76 3
q-67 1 -141 42q-17 13 -16 38q0 52 106 48q26 -7 97 -16h29q171 0 170 93q0 88 -170 89q-101 0 -176 -67l-69 25q102 94 245 94q252 0 252 -141q0 -77 -91 -115q-72 -32 -161 -31q-9 4 -78 6q-7 4 -29 8l-6 -10q40 -10 120 -10q32 0 96.5 11t97.5 11q51 0 51 -47v-126h61
v-47h-83z" />
    <glyph glyph-name="uni106F" unicode="&#x106f;" horiz-adv-x="1156" 
d="M718 161v-570h51v-99h-82q-64 0 -64 109l2 534q-58 -11 -103 -12q-234 0 -380 147.5t-146 380.5q0 207 265 365l28 18q-24 19 -28 18q-50 0 -103 -40l-62 130q65 51 181 51q63 0 115 -50.5t52 -112.5q0 -63 -91 -137q-6 -7 -137 -110q-62 -63 -62 -132
q0 -161 103.5 -264.5t264.5 -103.5q47 0 103 15v69q-103 -21 -141 -15l-56 9q-34 7 -98 58q-13 36 -13 63q0 80 86 80q14 0 81 -23h10q132 0 131 120q0 50 -33.5 84.5t-80.5 34.5q-67 0 -129 -107l-88 51q90 158 217 158q93 0 152 -63t59 -158q0 -96 -57 -160
q-59 -68 -154 -62q-27 -4 -67 9q-9 0 -11 2v9h-7l2 -9q17 -6 79 -13q80 2 113 24l18 16q18 2 40 6q40 -9 40 -75v-63q165 112 165 308q0 209 -258 359l71 134l71 -34q270 -129 270 -459q0 -352 -319 -490z" />
    <glyph glyph-name="uni1070" unicode="&#x1070;" 
d="M-655 -599l-78 119q198 90 198 220q0 99 -71.5 159t-183.5 60q-109 0 -178 -61t-69 -158v-171q0 -61 -43.5 -103.5t-114.5 -42.5q-68 0 -114.5 43t-46.5 103v198q-11 85 -81.5 138.5t-167.5 53.5q-110 0 -180 -59.5t-70 -159.5q0 -131 199 -222l-74 -121l-69 34
q-207 99 -207 309q0 154 113.5 253t287.5 99q163 0 285 -104q49 53 125 53q69 0 120 -53q125 105 285 104q178 0 291.5 -97.5t113.5 -254.5q0 -206 -270 -339zM-1166 -122q0 40 -29 41q-36 0 -36 -41v-303q0 -40 36 -41q29 0 29 41v303z" />
    <glyph glyph-name="uni1071" unicode="&#x1071;" 
d="M-1037 -289h-2q-16 -143 -122 -226.5t-269 -83.5q-171 0 -279.5 94t-108.5 247q0 155 106.5 245.5t281.5 90.5q198 0 319 -142q118 143 317 142q179 0 285 -89.5t106 -246.5q0 -155 -108 -248t-283 -93q-80 0 -183 43l54 115q89 -29 129 -30q107 0 174 59t67 154t-67 151
t-174 56t-175 -56.5t-68 -150.5v-31zM-1430 -51q-105 0 -172.5 -56.5t-67.5 -150.5q0 -95 67.5 -154t172.5 -59q107 0 175 59t68 154t-68 151t-175 56z" />
    <glyph glyph-name="uni1072" unicode="&#x1072;" 
d="M-579 -289h-2q-16 -143 -122 -226.5t-269 -83.5q-171 0 -279.5 94t-108.5 247q0 155 106.5 245.5t281.5 90.5q198 0 319 -142q118 143 317 142q179 0 285 -89.5t106 -246.5q0 -155 -108 -248t-283 -93q-80 0 -183 43l54 115q89 -29 129 -30q107 0 174 59t67 154t-67 151
t-174 56t-175 -56.5t-68 -150.5v-31zM-972 -51q-105 0 -172.5 -56.5t-67.5 -150.5q0 -95 67.5 -154t172.5 -59q107 0 175 59t68 154t-68 151t-175 56z" />
    <glyph glyph-name="uni1073" unicode="&#x1073;" 
d="M-757 -605q-203 0 -329 146q-122 -145 -327 -146q-178 0 -290.5 95.5t-112.5 252.5t112.5 251.5t290.5 94.5q205 0 327 -144q126 143 329 144q178 0 289.5 -94.5t111.5 -251.5t-111.5 -252.5t-289.5 -95.5zM-757 -39q-109 0 -182 -61.5t-73 -156.5q0 -96 72.5 -156
t182.5 -60q106 0 175.5 60.5t69.5 155.5q0 94 -69.5 156t-175.5 62zM-1413 -39q-106 0 -175.5 -62t-69.5 -156q0 -95 69.5 -155.5t175.5 -60.5q109 0 180 60t71 156t-71 157t-180 61z" />
    <glyph glyph-name="uni1074" unicode="&#x1074;" 
d="M-305 -605q-203 0 -329 146q-122 -145 -327 -146q-178 0 -290.5 95.5t-112.5 252.5t112.5 251.5t290.5 94.5q205 0 327 -144q126 143 329 144q178 0 289.5 -94.5t111.5 -251.5t-111.5 -252.5t-289.5 -95.5zM-305 -39q-109 0 -182 -61.5t-73 -156.5q0 -96 72.5 -156
t182.5 -60q106 0 175.5 60.5t69.5 155.5q0 94 -69.5 156t-175.5 62zM-961 -39q-106 0 -175.5 -62t-69.5 -156q0 -95 69.5 -155.5t175.5 -60.5q109 0 180 60t71 156t-71 157t-180 61z" />
    <glyph glyph-name="uni1075" unicode="&#x1075;" 
d="M-841 -128v-5q21 4 38 6l-15 -123h-25q-158 0 -158 129q0 108 116 161q89 41 224 41q361 0 396 -204v-5q0 -79 -69 -138q78 -59 69 -143q-19 -191 -396 -191q-110 0 -211 37q-129 48 -129 133v44l143 25q15 -114 197 -113q238 0 247 78q7 60 -184 59q-7 0 -34 -4
q-6 10 -16 10l6 124q47 2 72 2h12q126 0 142 77q-23 80 -245 80q-147 0 -193 -80h13z" />
    <glyph glyph-name="uni1076" unicode="&#x1076;" 
d="M-613 -603q-165 0 -276.5 100t-111.5 245q0 144 112 242.5t276 98.5q167 0 279 -97.5t112 -243.5q0 -144 -112 -244.5t-279 -100.5zM-613 -45q-103 0 -172 -61t-69 -152q0 -67 22 -92q88 74 219 81q107 5 226 -81q19 39 19 92q0 94 -69 153.5t-176 59.5zM-613 -353
q-114 0 -171 -67q45 -52 171 -52q125 0 174 54q-47 66 -174 65z" />
    <glyph glyph-name="uni1077" unicode="&#x1077;" 
d="M-559 -595h-92q-183 0 -220 11q-118 30 -128 129q-17 192 245 192q202 0 224 -149q0 -19 4 -65q161 3 173 46q17 57 -137 116l-228 87q-133 68 -133 159q0 150 247 150q90 0 156 -28q82 -37 82 -105q0 -15 -21 -32h-154l29 20v12q-6 6 -98 11q-98 3 -98 -33q0 -24 97 -59
q186 -69 268 -115q143 -83 143 -180q0 -167 -359 -167zM-760 -390q-95 0 -85 -60q0 -23 167 -23q-2 50 -15 66.5t-67 16.5z" />
    <glyph glyph-name="uni1078" unicode="&#x1078;" 
d="M-610 -595q-169 0 -280 97.5t-111 243.5q0 212 237 312l92 -100q-177 -99 -177 -212q0 -90 68.5 -150.5t170.5 -60.5q107 0 176 59.5t69 151.5q0 113 -181 212l98 100l44 -20q188 -88 188 -292q0 -144 -113.5 -242.5t-280.5 -98.5z" />
    <glyph glyph-name="uni1079" unicode="&#x1079;" 
d="M-610 -597q-169 0 -280 100.5t-111 251.5q0 220 237 323l92 -103q-177 -103 -177 -220q0 -93 68.5 -156t170.5 -63q127 0 207 101q-173 64 -205 232q-13 78 25 139q42 67 127 67q11 0 24 -6l28 -11q188 -85 188 -303q0 -149 -113.5 -250.5t-280.5 -101.5zM-479 -51
q-17 -23 -16 -76q0 -130 125 -166q11 41 11 67q0 98 -120 175z" />
    <glyph glyph-name="uni107A" unicode="&#x107a;" 
d="M-610 -603q-169 0 -280 99.5t-111 248.5q0 190 232 312l19 -15l28 -34l6 -15q52 -47 108 -47q58 0 96 40l42 76h22l9 -9l29 -10q190 -101 190 -298q0 -149 -110.5 -248.5t-279.5 -99.5zM-444 -85q-62 -69 -166 -69q-100 0 -159 61q-80 -68 -80 -162t66.5 -155t172.5 -61
q103 0 172.5 62t69.5 154q0 101 -76 170z" />
    <glyph glyph-name="uni107B" unicode="&#x107b;" 
d="M-756 -601q-70 0 -205 45l52 124q108 -37 153 -37q105 0 172 59.5t67 152.5q0 92 -67 153t-172 61q-96 0 -165 -53q-74 -54 -74 -141v-20q0 -158 -108.5 -251.5t-285.5 -93.5q-220 0 -336 167l-36 54l125 69q110 -159 247 -159q101 0 173.5 51.5t72.5 138.5v39
q0 87 -76 144q-71 54 -170 55q-113 0 -235 -135l-114 80q163 182 349 183q192 0 317 -141q120 141 316 141q177 0 284 -92t107 -250t-107 -251t-284 -93z" />
    <glyph glyph-name="uni107C" unicode="&#x107c;" 
d="M-610 -598q-169 0 -280 101.5t-111 253.5q0 221 237 325l92 -104q-177 -104 -177 -221q0 -59 34 -119q85 64 202 64q114 0 210 -61q38 56 38 116q0 117 -181 221l98 104l44 -21q188 -91 188 -304q0 -150 -113.5 -252.5t-280.5 -102.5zM-610 -385q-67 -4 -146 -40
q52 -38 146 -38q69 0 149 44q-88 36 -149 34z" />
    <glyph glyph-name="uni107D" unicode="&#x107d;" horiz-adv-x="265" 
d="M57 -522q-14 0 -42 6l-269 58q-122 26 -125 116l154 45l216 -51v1504h157v-1592q0 -86 -91 -86z" />
    <glyph glyph-name="uni107E" unicode="&#x107e;" horiz-adv-x="288" 
d="M2216 1452h-162v138q0 117 -74 117l-1710 -2q-101 0 -101 -134v-1839q0 -94 101 -94h1686q95 0 95 61v611h165v-607q0 -204 -263 -204h-1683q-266 0 -266 229l-4 1867q-1 253 270 253l1728 1q225 0 221 -228z" />
    <glyph glyph-name="uni107F" unicode="&#x107f;" horiz-adv-x="288" 
d="M1052 -512h-782q-266 0 -266 231l-4 1873q-1 252 270 256l262 4v-147l-262 -2q-41 0 -81 -57q-16 -22 -16 -141v-1781q0 -96 97 -96h787q91 0 91 62v602h167v-598q0 -206 -263 -206z" />
    <glyph glyph-name="uni1080" unicode="&#x1080;" horiz-adv-x="288" 
d="M1953 -499h-1683q-265 0 -266 246l-4 1834q-1 267 270 267h1159v-148l-1159 1q-101 0 -101 -135v-1814q0 -102 101 -102h1687q94 0 94 67v593h165v-590q0 -219 -263 -219z" />
    <glyph glyph-name="uni1081" unicode="&#x1081;" horiz-adv-x="288" 
d="M1315 1469h-165v139q0 95 -69 95h-811q-61 0 -81 -31q-16 -23 -16 -81v-1856q0 -103 97 -102l325 4v-146l-325 -3q-265 -2 -266 246l-4 1869q-1 246 270 246h832q220 0 217 -219z" />
    <glyph glyph-name="uni1082" unicode="&#x1082;" horiz-adv-x="288" 
d="M2216 1468h-162v140q0 94 -74 94h-1710q-101 0 -101 -112v-1860q0 -91 101 -91h1191l-3 -139h-1188q-266 0 -266 223l-4 1879q-1 247 270 247h1729q225 0 220 -220z" />
    <glyph glyph-name="uni1083" unicode="&#x1083;" horiz-adv-x="288" 
d="M528 1701h-258q-61 0 -81 -31q-16 -23 -16 -81v-1862q0 -89 97 -89h325v-137h-325q-266 0 -266 220l-4 1880q-1 247 270 247h262z" />
    <glyph glyph-name="uni1084" unicode="&#x1084;" horiz-adv-x="288" 
d="M1429 1706h-1159q-101 0 -101 -112v-1864q0 -90 101 -90h1191l-3 -142h-1188q-266 0 -266 229l-4 1879q-1 246 270 246h1159v-146z" />
    <glyph glyph-name="uni1085" unicode="&#x1085;" 
d="M-778 -599q-177 0 -289 92t-112 243q0 95 -69.5 153.5t-180.5 58.5q-104 0 -175 -59.5t-71 -152.5q0 -168 275 -215l-25 -128l-73 13q-148 25 -239.5 114t-91.5 216q0 150 113 245.5t287 95.5q177 0 290.5 -95t113.5 -246q0 -93 69 -149t178 -56q107 0 177.5 57.5
t70.5 147.5q0 93 -71 152.5t-177 59.5q-38 0 -145 -35l14 141q73 23 131 23q176 0 289 -95t113 -246t-112 -243t-290 -92z" />
    <glyph glyph-name="uni1086" unicode="&#x1086;" horiz-adv-x="2955" 
d="M2312 114q-298 0 -448 243q-161 -243 -450 -243t-445 243q-158 -239 -447 -239q-254 0 -465 263l126 96q165 -201 339 -201q156 0 261.5 91t105.5 247v57q0 148 -110 243q-107 87 -257 87q-207 0 -353 -245l-137 80l40 69q147 254 450 254q234 0 380 -142.5t146 -376.5
v-28q0 -153 109 -249q103 -91 257 -91q160 0 265 103.5t105 264.5q0 156 -106 258.5t-264 102.5q-63 0 -200 -51l-53 152l70 24q80 29 183 29q238 0 383 -139.5t145 -375.5v-28q0 -153 110 -249q104 -91 260 -91q160 0 263.5 103.5t103.5 264.5q0 156 -104.5 258.5
t-262.5 102.5q-66 0 -203 -51l-59 152l76 24q85 29 186 29q232 0 378.5 -142.5t146.5 -372.5q0 -236 -145.5 -381t-379.5 -145z" />
    <glyph glyph-name="uni1087" unicode="&#x1087;" 
d="M-621 -330h-262v154h183v240h154v-305q0 -89 -75 -89z" />
    <glyph glyph-name="uni1088" unicode="&#x1088;" 
d="M-533 -505q-74 0 -74 91l1 543h155l-1 -478h164v-156h-245zM-769 -505h-244v156h160v477h157v-542q0 -91 -73 -91z" />
    <glyph glyph-name="uni1089" unicode="&#x1089;" 
d="M-370 -504q-74 0 -74 91v542h155v-477h164v-156h-245zM-693 -504v633h158v-633h-158zM-866 -504h-244v156h160v477h158v-542q0 -91 -74 -91z" />
    <glyph glyph-name="uni108A" unicode="&#x108a;" 
d="M-619 -8q-105 0 -172.5 -62t-67.5 -157q0 -91 68.5 -151.5t171.5 -60.5q107 0 176 58.5t69 153.5t-69 157t-176 62zM-624 -575q-127 0 -249 88q-80 -45 -190 -45q-232 0 -275 144l-18 66l155 29q-2 -11 -2 -21q0 -25 15 -45q10 -39 138 -39q48 0 83 19q-44 75 -44 156
q0 149 109.5 247.5t277.5 98.5q185 0 293.5 -98.5t108.5 -247.5q0 -153 -120 -252.5t-282 -99.5z" />
    <glyph glyph-name="uni108B" unicode="&#x108b;" 
d="M-1315 1634h4q6 78 57.5 127t132.5 49q32 0 73 -8l18 -149q-44 47 -85 59q-87 0 -91 -85q0 -27 34 -67l51 8q32 0 73 -8l11 -157q-40 52 -78 58q-80 -3 -98 -85q0 -36 34 -59q20 -27 58 -27q29 -2 84 59l-11 -137q-40 -18 -78 -18q-85 0 -137.5 51.5t-52.5 132.5
q0 69 57 131q-52 64 -56 125zM-642 1121q-161 0 -272 105.5t-111 258.5t111.5 257t275.5 104q163 0 270.5 -104t107.5 -257q0 -148 -112 -256t-270 -108zM-642 1702q-102 0 -166 -61t-64 -156q0 -91 64 -151t160 -60q101 0 165 58t64 153q0 93 -61 155t-162 62z" />
    <glyph glyph-name="uni108C" unicode="&#x108c;" 
d="M-1342 1634h3q6 78 60 127t136 49q106 0 160 -64l-76 -79q-29 33 -75 46q-96 0 -95 -86q-6 -29 34 -67l56 8q62 0 114 -31q20 143 126.5 226t260.5 83q166 0 272 -102.5t106 -258.5q0 -153 -109.5 -258.5t-272.5 -105.5q-160 0 -264 92t-124 243l-33 -38q-25 38 -71 40
q-85 2 -106 -80q0 -88 95 -88q53 -7 82 49q49 -36 71 -75q-75 -75 -157 -75q-85 0 -140 53t-55 134q0 71 56 133q-15 22 -40 54q-14 29 -14 71zM-642 1702q-104 0 -169 -61t-65 -158q0 -36 16 -75q57 102 207 103q152 0 221 -101q13 37 13 75q0 94 -61 155.5t-162 61.5z
M-642 1420q-45 0 -96 -25q-59 -26 -65 -65q44 -54 154 -59q59 -4 121 32l44 36q-28 81 -158 81z" />
    <glyph glyph-name="uni108D" unicode="&#x108d;" horiz-adv-x="5" 
d="M-836 1620h4q5 83 56.5 135.5t133.5 52.5q101 0 154 -68l-70 -87q-33 38 -78 51q-87 0 -88 -91q-7 -31 35 -72l51 9q92 0 143 -69l-69 -89q-28 36 -72 44q-80 -4 -99 -91q0 -87 93 -92q47 -2 74 52q45 -38 73 -78q-78 -76 -153 -76q-87 0 -140 53.5t-53 142.5
q0 74 55 140q-46 68 -50 133zM-265 1494q-92 0 -147 48t-55 128q0 74 58 125.5t144 51.5q89 0 147 -49.5t58 -127.5t-58 -127t-147 -49zM-265 1724q-63 0 -63 -54q0 -57 63 -57q66 0 66 57q0 54 -66 54z" />
    <glyph glyph-name="uni108E" unicode="&#x108e;" 
d="M-632 1118q-161 0 -272 105.5t-111 258.5t112 257t275 104t270.5 -103.5t107.5 -257.5q0 -148 -112 -256t-270 -108zM-632 1699q-102 0 -166 -60.5t-64 -156.5q0 -92 64 -151.5t160 -59.5q101 0 165 58.5t64 153t-61 155.5t-162 61zM-58 1508q-83 0 -137.5 51t-54.5 129
q0 80 53.5 129t138.5 49q84 0 137 -50t53 -128q0 -80 -52 -130t-138 -50zM-58 1742q-62 0 -62 -54q0 -57 62 -57q59 0 59 57q0 54 -59 54z" />
    <glyph glyph-name="uni108F" unicode="&#x108f;" horiz-adv-x="1156" 
d="M623 121h-139q-225 0 -291 21q-150 44 -159 188q-24 288 304 287q262 0 290 -219v-123q253 0 272 85q21 95 -194 205q-72 36 -302 147q-174 82 -175 230q0 220 312 220q93 0 167 -28q141 -56 141 -158q0 -23 -27 -48h-156q18 21 18 36q0 8 -6 24q-26 9 -137 16
q-152 12 -152 -68q0 -48 181 -128l149 -67q348 -158 348 -366q0 -254 -444 -254zM447 427q-38 36 -111 36q-59 0 -101 -32q-47 -38 -42 -94q6 -68 281 -62q-3 125 -27 152z" />
    <glyph glyph-name="uni1090" unicode="&#x1090;" horiz-adv-x="1156" 
d="M889 -330v968q0 154 -103.5 259.5t-257.5 105.5q-158 0 -261.5 -104.5t-103.5 -260.5v-11q59 13 127 13q166 0 292 -96q136 -105 136 -265q0 -182 -165 -169q-11 2 -65 6q-229 21 -355.5 156.5t-126.5 365.5q0 228 146.5 374.5t375.5 146.5q232 0 376 -144.5t144 -376.5
v-968h-159zM234 520l-40 -12q7 -32 32 -64q127 -180 268 -180q31 0 57 15l7 8q6 6 6 15q0 109 -114 175q-100 55 -216 43z" />
    <glyph glyph-name="uni1091" unicode="&#x1091;" horiz-adv-x="2277" 
d="M1271 563h-2v-181q0 -86 -54 -147t-138 -61q-87 0 -138.5 59.5t-51.5 148.5v305q-19 143 -118.5 231t-244.5 88q-161 0 -265.5 -101.5t-104.5 -261.5q0 -216 266 -355l-78 -140l-68 38q-277 148 -278 457q0 234 146.5 376.5t381.5 142.5q228 0 392 -173q56 103 161 103
q103 0 165 -103q156 173 388 173q238 0 384.5 -140.5t146.5 -378.5q0 -303 -337 -492l-80 137q261 145 261 355q0 163 -106 263t-269 100q-154 0 -256.5 -103.5t-102.5 -259.5v-80zM1110 883q0 50 -33 50q-34 0 -34 -50v-501q0 -52 34 -52q32 0 33 52v501zM1465 11
q-91 -37 -91 -94v-257q0 -173 -196 -166q-194 7 -194 166v121q0 99 -68.5 162.5t-179.5 63.5q-112 0 -181 -62t-71 -160q-2 -116 126 -190l-99 -94q-165 105 -165 278q0 149 110 246.5t280 102.5q169 6 281 -97t109 -252l-3 -124q0 -36 63 -56q54 6 54 56v257q0 87 62 148
t161 61h382v-114z" />
    <glyph glyph-name="uni1092" unicode="&#x1092;" horiz-adv-x="1133" 
d="M981 414q-59 -118 -187.5 -188.5t-269.5 -70.5q-230 0 -375 142t-145 363q0 219 145 359.5t375 140.5q304 0 491 -323l-134 -71q-146 244 -357 244q-158 0 -259.5 -100.5t-101.5 -249.5q0 -152 101.5 -251t259.5 -99q212 0 357 242l134 -71zM832 -510h-616
q-210 0 -210 157v29q0 146 220 154l53 2l23 -142q-123 0 -137 -19q11 -16 21 -31q38 -9 80 -9l486 -1q107 0 107 102v264q-165 -61 -342 -61h-4q-254 0 -458 166l74 134q16 -6 34 -22q156 -123 348 -123h2q60 0 163 14q122 16 138 44q57 27 104 27q95 0 95 -147v-303
q2 -13 2 -48q0 -69 -55.5 -128t-127.5 -59z" />
    <glyph glyph-name="uni1093" unicode="&#x1093;" 
d="M-331 -601q-70 0 -205 45l52 124q108 -37 153 -37q105 0 172 59.5t67 152.5q0 92 -67 153t-172 61q-96 0 -165 -53q-74 -54 -74 -141v-20q0 -158 -108.5 -251.5t-285.5 -93.5q-220 0 -336 167l-36 54l125 69q110 -159 247 -159q101 0 173.5 51.5t72.5 138.5v39
q0 87 -76 144q-71 54 -170 55q-113 0 -235 -135l-114 80q163 182 349 183q192 0 317 -141q120 141 316 141q177 0 284 -92t107 -250t-107 -251t-284 -93z" />
    <glyph glyph-name="uni1094" unicode="&#x1094;" 
d="M-197 -282q-78 0 -131 50.5t-53 123.5q0 74 52 123.5t132 49.5q79 0 133.5 -49.5t54.5 -123.5t-54.5 -124t-133.5 -50zM-197 -54q-58 0 -56 -54q0 -55 56 -55q59 0 60 55q-1 54 -60 54z" />
    <glyph glyph-name="uni1095" unicode="&#x1095;" horiz-adv-x="438" 
d="M230 -282q-78 0 -131 50.5t-53 123.5q0 74 52 123.5t132 49.5q79 0 133.5 -49.5t54.5 -123.5t-54.5 -124t-133.5 -50zM230 -54q-58 0 -56 -54q0 -55 56 -55q59 0 60 55q-1 54 -60 54z" />
    <glyph glyph-name="uni1096" unicode="&#x1096;" 
d="M-807 -307q-73 0 -158 18l42 53q75 -13 116 -13q113 0 186 37t73 95q0 56 -75 94.5t-184 38.5q-112 0 -182.5 -37t-70.5 -96v-6l-4 -1q-7 -84 -108 -133.5t-261 -49.5q-161 0 -265.5 53t-104.5 137q0 85 102.5 137.5t267.5 52.5q199 0 313 -88q112 88 313 88
q162 0 264.5 -53t102.5 -137t-103 -137t-264 -53zM-1433 16q-112 0 -185 -37.5t-73 -95.5t72.5 -95t185.5 -37q109 0 181 37t72 95t-72 95.5t-181 37.5zM-823 -594q-115 0 -194.5 41.5t-79.5 101.5q0 62 79 103t195 41q117 0 197 -41.5t80 -102.5q0 -60 -80 -101.5
t-197 -41.5zM-823 -361q-73 0 -120.5 -25.5t-47.5 -64.5q0 -38 48 -62.5t120 -24.5q75 0 123.5 24t48.5 63t-48.5 64.5t-123.5 25.5z" />
    <glyph glyph-name="uni1097" unicode="&#x1097;" horiz-adv-x="972" 
d="M996 -298h-155q-109 0 -109 115v220q-70 -40 -226 -40q-42 0 -97 10q-161 30 -203 57q-129 44 -129 154q0 56 40 98t108 42q37 0 79 -17q24 0 136 -23q209 0 257 91q6 6 11 12q0 17 -12 17q-17 0 -102 -43q-165 -20 -191 -20q-193 0 -309 142q-104 127 -104 313
q0 197 126 323t334 126q272 0 433 -287l-133 -77q-129 230 -300 230q-127 0 -213 -89.5t-86 -225.5q0 -140 85 -227t214 -87h29q-40 17 52 17q18 8 144 42q190 8 190 -148q0 -63 -30 -105l-99 -85q-92 -56 -298 -56h-5q-107 0 -151 25q-22 -10 -22 2q0 -36 183 -72
q159 -6 354 95q15 7 32 7q53 0 56 -69q-1 -19 -1 -108v-190q0 -43 25 -40h89zM690 -322h-66q-48 0 -48 22v41q-20 -6 -81 -6q-17 0 -38 3q-63 5 -80 11q-53 10 -53 29q0 9 17 18.5t45 9.5q15 0 32 -4q9 0 52 -4q77 0 95 18q1 -1 -18 -11q0 12 1 12q1 2 -19 -3q-63 -4 -74 -4
q-76 0 -123 29q-42 26 -42 59q0 37 51 62.5t133 25.5q107 0 170 -55l-57 -16q-51 45 -113 45q-47 0 -78.5 -16t-31.5 -46q0 -29 31.5 -45t78.5 -16h9h5q23 5 72 12q80 1 80 -29q0 -11 -14 -20l-39 -17q-38 -12 -118 -12h-2q-42 0 -46 1q-14 -3 -14 -11q39 4 64 1
q60 0 136 20h12q27 0 29 -12q-1 -2 -1 -22v0l20 -26l24 -20z" />
    <glyph glyph-name="uni200B" unicode="&#x200b;" 
 />
    <glyph glyph-name="uni200C" unicode="&#x200c;" 
d="M49 1421v-1271h-98v1271h98z" />
    <glyph glyph-name="uni200D" unicode="&#x200d;" 
d="M49 150h-98v1079l-87 -89l-60 62l137 135l-137 134l60 60l136 -136l136 136l60 -60l-137 -134l137 -135l-60 -62l-87 89v-1079z" />
    <glyph glyph-name="uni200E" unicode="&#x200e;" 
d="M365 1338l-195 -192l-60 60l99 94h-161v-1150h-97v1227h258l-99 94l60 60z" />
    <glyph glyph-name="uni200F" unicode="&#x200f;" 
d="M48 150h-97v1150h-161l99 -94l-60 -60l-195 192l195 193l60 -60l-99 -94h258v-1227z" />
    <glyph glyph-name="uniF100" unicode="&#xf100;" horiz-adv-x="2056" 
d="M1053 621h-11q-14 -274 -336 -446l-73 127q251 141 250 343q0 151 -102.5 249t-257.5 98q-159 0 -264 -98t-105 -249q0 -207 266 -343l-78 -130l-69 36q-277 142 -277 437q0 223 145.5 359.5t381.5 136.5q283 0 445 -231q160 230 446 231q232 0 378 -137.5t146 -358.5
q0 -219 -147 -358.5t-377 -139.5q-69 0 -137 16q5 49 28 151q80 -14 109 -14q161 0 264.5 96t103.5 249q0 146 -106.5 246.5t-261.5 100.5q-159 0 -260 -97t-101 -250v-24z" />
    <glyph glyph-name="uniF101" unicode="&#xf101;" horiz-adv-x="1156" 
d="M524 122q-268 0 -410 195q-71 100 -71 164q0 91 73 144q67 49 161 50q208 0 322 -183q55 -89 67 -187q224 104 222 337q0 158 -103 260.5t-261 102.5q-206 0 -354 -254l-137 74q190 336 491 335q230 0 377.5 -144.5t147.5 -373.5q0 -230 -147.5 -375t-377.5 -145z
M291 523q-87 0 -88 -40q0 -9 5 -23q25 -34 43 -63q105 -116 273 -116h21q-4 109 -74.5 175.5t-179.5 66.5z" />
    <glyph glyph-name="uniF102" unicode="&#xf102;" horiz-adv-x="1156" 
d="M744 167l-101 120q244 149 245 351q0 152 -104 256.5t-256 104.5q-159 0 -264 -102t-105 -259q0 -203 244 -348l-107 -119l-47 23q-249 123 -248 444q0 228 148.5 374.5t378.5 146.5q225 0 369.5 -147.5t144.5 -373.5q0 -334 -298 -471z" />
    <glyph glyph-name="uniF103" unicode="&#xf103;" horiz-adv-x="2056" 
d="M1412 128q-283 0 -444 235q-161 -239 -444 -239q-230 0 -379 146.5t-149 376.5q0 118 78 216q34 24 199 160l-22 11q-28 0 -88 -49l-78 152q69 51 198 51q69 0 123 -49t54 -116q0 -71 -95 -143q-16 -16 -139 -102q-58 -63 -58 -131q0 -156 101 -255.5t255 -99.5
t255.5 99.5t101.5 255.5q0 206 -260 349l80 149l74 -40q258 -139 278 -424h2v-33q0 -154 100.5 -254t256.5 -100q154 0 255 100t101 254q0 152 -102 252t-254 100q-52 0 -141 -29l11 183q91 13 130 12q232 0 379 -143t147 -375t-147 -376t-379 -144z" />
    <glyph glyph-name="uniF104" unicode="&#xf104;" horiz-adv-x="1156" 
d="M981 385q-55 -120 -190 -196q-127 -69 -267 -68q-230 0 -375 145t-145 375t145 374t375 144q304 0 491 -335l-134 -74q-146 255 -357 254q-158 0 -259.5 -102.5t-101.5 -260.5t102 -259.5t259 -101.5q212 0 357 254l134 -75z" />
    <glyph glyph-name="uniF105" unicode="&#xf105;" horiz-adv-x="1156" 
d="M517 122q-228 0 -374.5 147t-146.5 376q0 226 146.5 372t374.5 146t374 -145t146 -373t-147 -375.5t-373 -147.5zM517 1005q-99 0 -186 -51q116 -127 117 -309q-18 -180 -146 -297q97 -69 215 -68q158 0 262 103.5t104 261.5q0 156 -104 258t-262 102zM234 867
q-80 -103 -80 -222q0 -104 57 -194q81 72 102 199q-10 126 -79 217z" />
    <glyph glyph-name="uniF106" unicode="&#xf106;" horiz-adv-x="2056" 
d="M1414 121q-259 0 -422 211l-18 24q-158 -235 -444 -235q-267 0 -407 195q-72 101 -72 164q0 91 72 144q65 49 160 50q214 0 325 -180q53 -88 59 -190q228 104 229 337q0 158 -104.5 260.5t-261.5 102.5q-208 0 -349 -254l-138 74q181 336 487 335q288 0 445 -235
q156 235 439 235q232 0 378 -143t146 -375q0 -230 -147 -375t-377 -145zM1414 1004q-159 0 -260 -101.5t-101 -261.5q0 -158 101.5 -259.5t259.5 -101.5q161 0 264.5 101t103.5 260q0 154 -106 258.5t-262 104.5zM301 522q-91 0 -93 -40q4 -7 47 -86q107 -116 275 -116h17
q-4 105 -73 173.5t-173 68.5z" />
    <glyph glyph-name="uniF107" unicode="&#xf107;" horiz-adv-x="1156" 
d="M1015 191q-46 9 -119 46q-40 22 -72 73t-32 98v26l-63 19q-78 15 -132 95q-52 72 -57 156q-10 161 126 272q-85 24 -143 24q-156 0 -258 -103t-102 -257q0 -156 96 -258t252 -102q69 0 171 20l24 -154q-91 -29 -183 -29q-228 0 -373.5 147t-145.5 376q0 226 145 372
t374 146q243 0 386.5 -135t143.5 -378q0 -56 -38 -177q-24 -25 -70 -38q0 -40 7 -52q11 -29 49 -38l92 -24zM769 915q-89 -81 -91 -194q-2 -78 67 -121q59 -42 138 -38q12 63 13 107q-1 152 -127 246z" />
    <glyph glyph-name="uniF108" unicode="&#xf108;" horiz-adv-x="1466" 
d="M1259 -522q-14 0 -42 6l-269 58q-123 26 -125 116l-2 83v531h156v-569l216 -51v1505h157v-1593q0 -86 -91 -86zM519 122q-228 0 -374.5 147t-146.5 376q0 226 146.5 372t374.5 146t374 -145t146 -373t-147 -375.5t-373 -147.5zM519 1005q-99 0 -186 -51
q116 -127 117 -309q-18 -180 -146 -297q97 -69 215 -68q158 0 262 103.5t104 261.5q0 156 -104 258t-262 102zM236 867q-80 -103 -80 -222q0 -104 57 -194q81 72 102 199q-10 126 -79 217z" />
    <glyph glyph-name="uniF109" unicode="&#xf109;" horiz-adv-x="1143" 
d="M1855 -456q-38 -29 -92 -40q-65 -14 -111 -14h-1382q-263 0 -262 181l2 803l21 4l138 73q148 -242 359 -242q160 0 261.5 97.5t101.5 252.5q0 149 -102.5 249.5t-260.5 100.5q-211 0 -359 -244l-136 71q194 323 495 323q230 0 377 -140.5t147 -359.5q0 -225 -146 -365
t-378 -140q-198 0 -355 133v-610q0 -45 99 -45h1383q25 0 68 17q29 14 29 73v116h165v-112q0 -124 -62 -182z" />
    <glyph glyph-name="uniF10A" unicode="&#xf10a;" horiz-adv-x="2028" 
d="M154 503l4 -4l7 12v-22q150 -180 331 -180q158 0 260.5 88.5t102.5 236.5v55q0 145 -105 231t-258 86q-206 0 -355 -236l-137 77l40 68q141 243 452 243q231 0 378 -140t147 -362v-27q0 -150 104 -236t260 -86q160 0 264 97t104 252q0 150 -105 250t-263 100
q-67 0 -205 -48l-51 142l73 26q78 28 183 28q230 0 377 -140t147 -358t-149 -360.5t-375 -142.5q-289 1 -446 236q-158 -232 -443 -233q-181 0 -331 110v-529q0 -104 101 -104h1382q96 0 96 68v141h165v-124q0 -224 -263 -224l-1380 -2q-266 -1 -266 251v647l112 77z" />
    <glyph glyph-name="uniF10B" unicode="&#xf10b;" horiz-adv-x="1128" 
d="M1143 -506h-169q-114 0 -114 128v167q-99 -56 -274 -55q-47 0 -108 12q-183 32 -230 61q-148 49 -148 174q0 65 44.5 110t115.5 45q38 0 87 -19q31 0 159 -25q256 0 314 105q7 7 11 13q0 15 -25 15q-26 0 -125 -48q-186 -21 -214 -22q-215 0 -346 153q-122 143 -122 354
q0 222 144.5 361t377.5 139q304 0 493 -323l-139 -76q-145 249 -354 249q-156 0 -257.5 -101t-101.5 -249q0 -154 101 -252t258 -98h29q7 -4 19 -4q74 33 217 70q205 8 205 -165q0 -74 -36 -121l-115 -94q-100 -59 -334 -59h-5q-118 0 -200 43q-12 -6 -12 -12q0 -39 221 -81
q192 -7 422 107q13 6 28 6q50 0 54 -77q-2 -21 -2 -120v-129q0 -50 42 -44l91 1z" />
    <glyph glyph-name="uniF10C" unicode="&#xf10c;" horiz-adv-x="1133" 
d="M881 764q-146 243 -357 243q-158 0 -259.5 -100t-101.5 -250q0 -152 101.5 -250.5t259.5 -98.5q212 0 357 241l132 -71v-858q2 -12 2 -18q0 -69 -55 -86q-77 -24 -128 -24h-616q-210 0 -210 164v36q0 180 220 159l53 -5l23 -140q-68 -9 -137 -19q-3 -12 21 -55q6 1 80 1
h486q107 0 107 36v596q-154 -113 -335 -113q-230 0 -375 142t-145 363q0 219 145 359.5t375 140.5q304 0 491 -322z" />
    <glyph glyph-name="uniF10D" unicode="&#xf10d;" horiz-adv-x="1133" 
d="M975 -505q-116 0 -116 126v373q-185 -66 -346 -62q-290 6 -452 156q-38 47 -38 121q0 172 203 164q42 -4 120 -41q38 -20 98 -28q16 0 18 4h34q158 0 260.5 99t102.5 250q0 148 -105 249.5t-258 101.5q-217 0 -360 -244l-136 71q190 322 496 322q231 0 374 -138.5
t143 -361.5q0 -235 -135 -373q-140 -145 -382 -132q-29 4 -162 20q-100 48 -129 48q-31 0 -13 -27q57 -105 319 -105h2q76 0 160 13q118 21 141 45q70 26 104 26q91 0 95 -136v0v-368q0 -24 40 -34h91v-139h-169z" />
    <glyph glyph-name="uniF10E" unicode="&#xf10e;" horiz-adv-x="1156" 
d="M522 124q-230 0 -378 146t-148 376q0 122 78 214q1 1 176 147q12 10 18 16h-7l2 -4l5 15l-29 13q-38 0 -91 -42l-47 127q70 56 176 56q58 0 112.5 -50.5t54.5 -108.5q0 -71 -91 -141q-11 -13 -137 -108q-62 -63 -62 -134q0 -161 103.5 -262.5t264.5 -101.5
q154 0 257.5 104t103.5 260q0 213 -258 361l71 132l71 -34q270 -129 270 -459q0 -230 -143.5 -376t-371.5 -146z" />
    <glyph glyph-name="uniF10F" unicode="&#xf10f;" horiz-adv-x="2277" 
d="M1271 563h-2v-181q0 -86 -54 -147t-138 -61q-87 0 -138.5 59.5t-51.5 148.5v305q-19 143 -118.5 231t-244.5 88q-161 0 -265.5 -101.5t-104.5 -261.5q0 -216 266 -355l-78 -140l-68 38q-277 148 -278 457q0 234 146.5 376.5t381.5 142.5q228 0 392 -173q56 103 161 103
q103 0 165 -103q156 173 388 173q238 0 384.5 -140.5t146.5 -378.5q0 -303 -337 -492l-80 137q261 145 261 355q0 163 -106 263t-269 100q-154 0 -256.5 -103.5t-102.5 -259.5v-80zM1110 883q0 50 -33 50q-34 0 -34 -50v-501q0 -52 34 -52q32 0 33 52v501z" />
    <glyph glyph-name="uniF110" unicode="&#xf110;" horiz-adv-x="2056" 
d="M1414 118q-105 0 -225 50l60 143q108 -34 165 -34q161 0 264.5 101t103.5 260q0 154 -106.5 258.5t-261.5 104.5q-159 0 -260 -101.5t-101 -261.5v-17l-4 -5q-11 -228 -154.5 -363t-371.5 -135q-230 0 -378.5 145t-148.5 375q0 234 145.5 376t381.5 142q283 0 445 -241
q160 241 446 241q232 0 378 -143t146 -375q0 -230 -147 -375t-377 -145zM523 1001q-159 0 -264 -102.5t-105 -260.5t104.5 -259.5t264.5 -101.5q156 0 258 102t102 259q0 158 -102 260.5t-258 102.5z" />
    <glyph glyph-name="uniF111" unicode="&#xf111;" horiz-adv-x="2056" 
d="M1414 120q-284 0 -446 245q-161 -244 -445 -245q-230 0 -378.5 145t-148.5 375q0 234 145.5 376t381.5 142q283 0 445 -241q160 241 446 241q232 0 378 -143t146 -375q0 -230 -147 -375t-377 -145zM1414 1003q-159 0 -260 -101.5t-101 -261.5q0 -158 101.5 -259.5
t259.5 -101.5q161 0 264.5 101t103.5 260q0 154 -106 258.5t-262 104.5zM523 1003q-159 0 -264 -102.5t-105 -260.5t104.5 -259.5t264.5 -101.5q156 0 258 102t102 259q0 158 -102 260.5t-258 102.5z" />
    <glyph glyph-name="uniF112" unicode="&#xf112;" horiz-adv-x="1111" 
d="M528 550v1h-14l3 154h91q197 0 224 148q-25 154 -370 154q-217 0 -287 -130q-7 -13 -8 -26q0 -21 36 -20h34l-14 -145h-20q-194 0 -194 183q0 152 159 234q123 63 294 62q490 0 530 -299v-7q0 -138 -111 -224q125 -83 111 -228q-29 -283 -530 -283q-147 0 -275 51
q-168 67 -176 193l-2 50l156 37q4 -72 51 -108q88 -65 246 -65q359 0 370 143q11 123 -245 125q-21 2 -59 0z" />
    <glyph glyph-name="uniF113" unicode="&#xf113;" horiz-adv-x="1156" 
d="M523 118q-234 0 -380.5 144.5t-146.5 378.5q0 226 149 372t378 146q226 0 370 -146t144 -372q0 -228 -144.5 -375.5t-369.5 -147.5zM523 1001q-159 0 -264 -102.5t-105 -257.5q0 -121 69 -217q120 127 300 148q179 0 309 -120q51 86 51 189q0 154 -103 257t-257 103z
M524 435q-125 -16 -202 -102q93 -56 201 -57q116 0 219 79q-89 67 -218 80z" />
    <glyph glyph-name="uniF114" unicode="&#xf114;" horiz-adv-x="1156" 
d="M632 126l6 -631l-160 -2v633q-209 -4 -281 21q-148 44 -159 184q-26 297 304 297q114 0 195 -58.5t95 -169.5v-116q274 0 274 107q0 93 -196 184q-95 42 -302 142q-174 82 -175 236q0 220 312 220q89 0 167 -28q141 -52 141 -164q0 -20 -27 -42h-156q18 21 18 34
q0 7 -6 20q-20 11 -137 22q-23 2 -42 2q-110 0 -110 -70q0 -63 137 -119q111 -46 193 -82q348 -156 348 -364q0 -250 -439 -256zM451 434q-36 33 -111 34q-59 0 -101 -32q-47 -34 -42 -90q6 -71 281 -62q-3 125 -27 150z" />
    <glyph glyph-name="uniF115" unicode="&#xf115;" horiz-adv-x="1156" 
d="M523 124q-234 0 -380.5 144.5t-146.5 378.5q0 321 305 469l97 -120q-244 -150 -244 -349q0 -161 103 -263t266 -102q154 0 257 104.5t103 260.5q0 196 -245 347l109 116l45 -23q244 -121 245 -440q0 -230 -143 -376.5t-371 -146.5z" />
    <glyph glyph-name="uniF116" unicode="&#xf116;" horiz-adv-x="1156" 
d="M523 123q-230 0 -378.5 146.5t-148.5 376.5q0 321 305 469l97 -122q-244 -152 -244 -347q0 -161 103 -263t266 -102q241 0 333 228q-234 13 -328 195q-49 92 -49 188q0 98 47 165q55 73 151 72q51 0 115 -43q244 -161 245 -440q0 -230 -143 -376.5t-371 -146.5zM883 646
q0 181 -189 313q-14 7 -21 7q-45 0 -45 -90q0 -56 39 -139q81 -107 216 -107v16z" />
    <glyph glyph-name="uniF117" unicode="&#xf117;" horiz-adv-x="1156" 
d="M524 128q-230 0 -374.5 146.5t-144.5 376.5q0 297 297 463l27 -11l24 -52v-7l4 -6q71 -89 167 -89q120 0 177 129l21 45h25l45 -27q256 -144 257 -445q0 -234 -146.5 -378.5t-378.5 -144.5zM756 931q-63 -104 -211 -114q-176 -11 -254 103q-127 -107 -128 -269
q0 -156 103.5 -260.5t257.5 -104.5q159 0 261.5 101t102.5 264q0 168 -132 280z" />
    <glyph glyph-name="uniF118" unicode="&#xf118;" horiz-adv-x="2056" 
d="M1412 126q-98 0 -183 33l-73 23l53 149q139 -47 203 -47q159 0 264.5 101t105.5 264q0 156 -106.5 258t-263.5 102q-158 0 -259 -89q-105 -94 -104 -249v-22q0 -234 -147.5 -380.5t-378.5 -146.5q-303 0 -451 255l-39 68l135 84q147 -249 355 -249q150 0 254 87
q110 94 110 244v60q0 152 -105 245t-259 93q-175 0 -336 -205l-131 102q207 258 467 257q283 0 443 -239q158 243 446 243q232 0 379 -144t147 -374q0 -235 -146 -379t-380 -144z" />
    <glyph glyph-name="uniF119" unicode="&#xf119;" horiz-adv-x="1156" 
d="M523 125q-234 0 -380.5 144.5t-146.5 378.5q0 321 305 469l97 -120q-244 -150 -244 -349q0 -121 69 -217q125 135 300 142q172 4 309 -117q51 88 51 192q0 196 -245 347l109 116l45 -23q244 -121 245 -440q0 -230 -143 -376.5t-371 -146.5zM524 442q-125 -16 -202 -102
q93 -56 201 -57q116 0 219 79q-89 71 -218 80z" />
    <glyph glyph-name="uniF11A" unicode="&#xf11a;" horiz-adv-x="2056" 
d="M1414 123q-284 0 -446 245q-161 -244 -445 -245q-230 0 -378.5 145t-148.5 375q0 310 277 460l69 37l78 -138q-266 -144 -266 -359q0 -158 104.5 -259.5t264.5 -101.5q156 0 258 102t102 259q0 212 -250 359l73 132q322 -183 336 -463h11v-28q0 -158 101.5 -259.5
t259.5 -101.5q161 0 264.5 101t103.5 260q0 154 -106.5 258.5t-261.5 104.5q-29 0 -109 -17q-24 107 -28 156q69 16 137 16q232 0 378 -143t146 -375q0 -230 -147 -375t-377 -145z" />
    <glyph glyph-name="uniF11B" unicode="&#xf11b;" horiz-adv-x="1156" 
d="M967 -502q-78 0 -78 124v1025q0 154 -102.5 257.5t-258.5 103.5q-158 0 -260.5 -103.5t-102.5 -257.5v-12q58 17 125 17q170 0 295 -96q136 -104 137 -266q0 -171 -169 -171q-32 0 -59 5q-229 15 -358.5 154.5t-129.5 368.5q0 225 146.5 370.5t375.5 145.5
q228 0 376.5 -145t148.5 -371v-1016h102v-133h-188zM562 313q0 107 -116 169q-98 55 -212 47l-40 -11q7 -33 32 -64q127 -179 270 -179q33 0 51 15l15 11v12z" />
    <glyph glyph-name="uniF11C" unicode="&#xf11c;" horiz-adv-x="2056" 
d="M1414 120q-243 0 -387 139.5t-144 383.5q0 156 -102.5 258t-257.5 102q-156 0 -262.5 -103t-106.5 -257q0 -170 106.5 -277t275.5 -97l-25 -158l-78 14q-196 35 -317 176q-120 140 -120 342q0 228 148.5 373t378.5 145q232 0 379 -144t147 -374q0 -161 102.5 -263
t262.5 -102q158 0 263 103.5t105 261.5q0 156 -105.5 258t-262.5 102q-53 0 -168 -40l12 178q80 21 156 20q230 0 377 -145t147 -373q0 -234 -146 -378.5t-378 -144.5z" />
    <glyph glyph-name="uniF11D" unicode="&#xf11d;" horiz-adv-x="1156" 
d="M523 118q-234 0 -380.5 144.5t-146.5 378.5q0 226 149 372t378 146q226 0 370 -146t144 -372q0 -228 -144.5 -375.5t-369.5 -147.5zM523 1001q-159 0 -264 -102.5t-105 -257.5q0 -161 103 -263t266 -102q154 0 257 104.5t103 260.5q0 154 -103 257t-257 103z" />
    <glyph glyph-name="uniF11E" unicode="&#xf11e;" horiz-adv-x="2056" 
d="M1412 114q-288 0 -446 243q-161 -239 -443 -239q-258 0 -467 263l131 96q161 -201 336 -201q156 0 260 91.5t104 246.5v57q0 150 -110 243q-105 87 -254 87q-206 0 -355 -245l-135 80l39 69q147 255 451 254q232 0 379 -144t147 -374v-29q0 -153 106 -250
q101 -91 257 -90q159 0 264.5 103t105.5 266q0 156 -106.5 258t-263.5 102q-65 0 -203 -51l-53 152l73 25q78 29 183 28q237 0 381.5 -139.5t144.5 -374.5q0 -234 -147 -380.5t-379 -146.5z" />
    <glyph glyph-name="uniF11F" unicode="&#xf11f;" horiz-adv-x="2056" 
d="M1412 123q-69 0 -137 18q7 53 28 161q78 -21 109 -21q154 0 259.5 106.5t105.5 262.5q0 154 -105.5 257t-259.5 103q-161 0 -262 -93t-101 -250v-17q0 -232 -147.5 -377.5t-378.5 -145.5q-235 0 -381 143.5t-146 379.5q0 327 306 472l96 -125q-244 -152 -244 -347
q0 -158 104.5 -261.5t264.5 -103.5q360 0 360 365v45q-16 168 -235 302l103 122l47 -29q103 -61 170 -160q160 237 444 238q227 0 375.5 -145t148.5 -373q0 -230 -148.5 -378.5t-375.5 -148.5z" />
    <glyph glyph-name="uniF120" unicode="&#xf120;" horiz-adv-x="1133" 
d="M909 765q-146 243 -357 243q-158 0 -259.5 -100t-101.5 -250q0 -152 101.5 -250.5t259.5 -98.5h29q7 -4 20 -4l18 4q63 26 199 65q207 7 207 -164q0 -37 -13 -78q-96 -182 -477 -199q-173 -7 -344 62v-325q0 -37 103 -37h492q42 1 83 2q14 6 14 28q-23 33 -139 33l29 127
h47q221 0 221 -158v-50q0 -125 -210 -125h-617q-65 0 -134 45q-55 33 -46 103v388q0 147 95 147q106 0 108 -30q144 -54 298 -54h4q254 0 319 99q2 12 2 18q0 15 -25 15q-19 0 -60 -21l-60 -27q-37 -16 -62 -20h-101q-230 0 -375 142t-145 363q0 219 145 359.5t375 140.5
q304 0 491 -322z" />
    <glyph glyph-name="uniF121" unicode="&#xf121;" horiz-adv-x="1934" 
d="M500 544v7h-15l3 154h93q205 0 226 148q-24 154 -340 154q-220 0 -290 -130q-7 -13 -9 -24q0 -23 37 -22h32l-11 -145h-21q-196 0 -196 183q0 158 158 236q123 61 300 60q310 0 445 -169q156 165 386 165q182 0 332 -121q187 -154 187 -399q0 -187 -123 -334
q-156 -188 -396 -188q-87 0 -171 27q-37 9 -38 61q0 100 6 116q28 87 66 120q131 114 251 114q127 0 211 -68q36 69 36 152q0 158 -102.5 262t-258.5 104q-230 0 -335 -206q-21 -94 -104 -166q127 -83 115 -228q-29 -283 -507 -283q-150 0 -279 51q-169 67 -177 193l-2 50
l156 37q2 -40 12 -92q20 -36 135 -62q87 -18 155 -19q334 0 346 143q6 112 -251 125q-20 1 -62 -6zM1423 436q-78 0 -148 -91q-13 -15 -29 -72q31 -2 52 -2q130 0 270 125q-53 40 -145 40z" />
    <glyph glyph-name="uniF123" unicode="&#xf123;" horiz-adv-x="2056" 
d="M1891 415h-189q82 123 80 222q-15 363 -368 363q-158 0 -259.5 -102.5t-101.5 -260.5v-25q-40 -13 -40 -74q0 -95 -12 -123h-182q64 95 64 222q0 158 -102.5 260.5t-258.5 102.5t-262 -105t-106 -258q0 -124 78 -222h-187q-49 105 -49 222q0 225 149 372t377 147
q283 0 447 -246q160 246 445 246q225 0 374.5 -146.5t149.5 -372.5q0 -113 -47 -222zM1550 -503q-69 0 -101.5 15t-68.5 65v27q0 118 136 417v23q0 95 -69 154.5t-178 59.5q-107 0 -177.5 -60.5t-70.5 -153.5v-30q-56 -8 -69 -80q-17 -89 -42 -124l-112 88q69 65 69 146
q0 95 -72.5 154.5t-180.5 59.5q-110 0 -180.5 -59.5t-70.5 -154.5q0 -69 54 -129l-111 -96q-92 106 -92 225q0 150 113.5 249.5t286.5 99.5q203 0 327 -146q122 145 328 146q171 0 286 -99.5t115 -249.5v-25l-120 -311q-11 -29 -11 -44q0 -27 27 -35h104v-132h-120z" />
    <glyph glyph-name="uniF124" unicode="&#xf124;" horiz-adv-x="2323" 
d="M2107 1502q-11 90 -71 148.5t-155 58.5q-107 0 -170 -61t-63 -159q0 -159 159 -207q116 0 216 -52q110 -59 149 -156q29 -72 29 -216v-1236q0 -41 -53 -81q-55 -42 -125 -42h-1791q-70 0 -146 31q-63 27 -71 102q-13 112 63 179t199 67h1148q7 0 29 -6q125 -7 169 -47
l41 -48l-132 -90q-10 41 -107 41h-1175q-24 0 -51.5 -19t-27.5 -40q0 -27 26 -28t53 -1h1743q26 17 52 35v1183q0 100 -12 147q-20 79 -160 112h-31l9 -2l-29 8q-150 24 -240 124t-90 242q0 157 111 260t282 103q146 0 248.5 -82.5t132.5 -220.5zM1048 649h-5
q-15 -271 -336 -445l-80 131q260 138 260 338q0 148 -102.5 245t-260.5 97q-161 0 -265.5 -96t-104.5 -246q0 -204 266 -338l-78 -133l-68 36q-277 138 -278 435q0 216 148 354t380 138q287 0 449 -232q153 232 445 232q228 0 374 -139t146 -353v-931h-156v931
q0 150 -102.5 246t-261.5 96q-161 0 -265.5 -96t-104.5 -246v-24z" />
    <glyph glyph-name="uniF125" unicode="&#xf125;" horiz-adv-x="1156" 
d="M903 -502q-22 -5 -114 -5h-515q-264 0 -262 264l2 690l23 4l134 76q145 -252 359 -252q156 0 258.5 103.5t102.5 260.5q0 154 -103.5 259.5t-257.5 105.5q-214 0 -359 -254l-134 74q190 336 493 336q230 0 374.5 -144.5t144.5 -376.5q0 -236 -142.5 -381t-376.5 -145
q-196 0 -353 139v-509q0 -108 97 -108h519q91 0 91 71v72h165v-86q0 -162 -146 -194z" />
    <glyph glyph-name="uniF126" unicode="&#xf126;" horiz-adv-x="1156" 
d="M903 -502q-22 -5 -114 -5h-515q-264 0 -262 264l2 690l23 4l134 76q145 -252 359 -252q156 0 258.5 103.5t102.5 260.5q0 154 -103.5 259.5t-257.5 105.5q-214 0 -359 -254l-134 74q190 336 493 336q230 0 374.5 -144.5t144.5 -376.5q0 -236 -142.5 -381t-376.5 -145
q-196 0 -353 139v-509q0 -108 97 -108h519q91 0 91 71v72h165v-86q0 -162 -146 -194zM554 1127q-161 0 -272 104.5t-111 256.5q0 151 112 254.5t275 103.5t270.5 -103t107.5 -255q0 -147 -112 -254t-270 -107zM554 1703q-102 0 -166 -60t-64 -155q0 -27 6 -62q97 67 213 81
q118 0 228 -69q5 31 6 50q0 94 -61 154.5t-162 60.5zM547 1390q-81 -8 -149 -58q69 -52 150 -53q91 0 163 64q-72 43 -164 47z" />
    <glyph glyph-name="uniF127" unicode="&#xf127;" horiz-adv-x="1156" 
d="M1008 823q0 -85 -79 -129q-66 -36 -155 -36q-88 0 -192 51q-163 80 -196 270q-223 -92 -223 -337q0 -243 225 -338q29 102 56 148q118 179 337 179q227 0 227 -161q0 -49 -73 -153q-143 -196 -411 -195q-230 0 -375 145t-145 375t145 374.5t375 144.5q241 0 405 -202h4
l40 -54q9 -23 42 -80zM524 1005h-17v-6q0 -144 158 -187q15 -12 64 -12q88 0 101 34q-127 171 -306 171zM843 470q0 19 -81 18q-66 0 -140 -36q-109 -71 -115 -171h17q228 0 319 179v10z" />
    <glyph glyph-name="uniF129" unicode="&#xf129;" horiz-adv-x="2369" 
d="M2216 1452h-162v138q0 117 -74 117l-1710 -2q-101 0 -101 -134v-1839q0 -94 101 -94h1686q95 0 95 61v611h165v-607q0 -204 -263 -204h-1683q-266 0 -266 229l-4 1867q-1 253 270 253l1728 1q225 0 221 -228zM1685 107q-288 0 -445 243q-161 -239 -445 -239
q-258 0 -465 263l130 96q161 -201 335 -201q156 0 260.5 91t104.5 247v57q0 150 -110 243q-105 87 -255 87q-207 0 -353 -245l-136 80l39 69q147 254 450 254q232 0 379 -144.5t147 -374.5v-28q0 -153 107 -249q101 -91 257 -91q160 0 265 103.5t105 264.5q0 156 -106 258.5
t-264 102.5q-65 0 -203 -51l-52 152l72 24q78 29 183 29q238 0 382 -139.5t144 -375.5q0 -234 -147 -380t-379 -146z" />
    <glyph glyph-name="uniF12A" unicode="&#xf12a;" horiz-adv-x="4513" 
d="M3367 1452h-162v138q0 117 -74 117l-1710 -2q-101 0 -101 -134v-1839q0 -94 101 -94h1686q95 0 95 61v611h165v-607q0 -204 -263 -204h-1683q-266 0 -266 229l-4 1867q-1 253 270 253l1728 1q225 0 221 -228zM4098 1509q-4 -2 -11 -1q-5 0 -5 5q-7 85 -68 138.5
t-155 53.5q-102 0 -166 -60.5t-64 -156.5q0 -91 64 -151t160 -60q22 0 64 5v-154q-33 -3 -58 -3q-161 0 -272 105.5t-111 257.5q0 153 112 257t275 104q149 0 248 -81.5t128 -220.5q-67 -25 -141 -38zM2835 103q-288 0 -445 243q-161 -239 -445 -239q-258 0 -465 263l130 96
q161 -201 335 -201q156 0 260.5 91t104.5 247v57q0 150 -109 243q-105 87 -256 87q-207 0 -353 -245l-136 80l40 69q147 254 449 254q232 0 379 -144.5t147 -374.5v-28q0 -153 107 -249q101 -91 257 -91q160 0 265 103.5t105 264.5q0 156 -106 258.5t-264 102.5
q-65 0 -203 -51l-52 152l72 24q78 29 183 29q238 0 382 -139.5t144 -375.5q0 -234 -147 -380t-379 -146zM881 740q-146 254 -357 254q-158 0 -259.5 -102.5t-101.5 -260.5q0 -234 225 -338q19 224 197 321q87 49 189 50q98 0 163 -48q71 -51 71 -146q0 -60 -73 -164
q-143 -196 -411 -195q-230 0 -375 145t-145 375t145 374.5t375 144.5q304 0 491 -336zM758 511q-107 0 -177 -68t-74 -173h17q170 0 278 116q16 29 41 63q4 15 4 23q0 39 -89 39zM3756 111q-47 0 -142 23v161q89 -25 142 -25q160 0 260.5 101t100.5 260q0 154 -103.5 258.5
t-257.5 104.5q-253 0 -349 -277q-2 -15 -24 -68l-141 83l11 40q109 378 503 378q225 0 373 -146t148 -373q0 -232 -144.5 -376t-376.5 -144z" />
    <glyph glyph-name="uniF12B" unicode="&#xf12b;" horiz-adv-x="264" 
d="M-6 111v1366q0 14 -3 16q-33 204 -223 203q-102 0 -165.5 -65.5t-63.5 -167.5q0 -38 10 -78l-152 -34q-13 59 -12 112q0 165 111 276t276 111q156 0 260.5 -96.5t121.5 -250.5v-1392h-160z" />
    <glyph glyph-name="uniF12C" unicode="&#xf12c;" horiz-adv-x="1126" 
d="M413 120q-47 0 -143 23v161q89 -25 143 -25q159 0 260.5 101t101.5 260q0 154 -104 258.5t-258 104.5q-254 0 -349 -278q-2 -14 -25 -67l-141 83l12 41q109 378 503 376q226 0 373.5 -145.5t147.5 -372.5q0 -232 -144.5 -376t-376.5 -144z" />
    <glyph glyph-name="uniF12D" unicode="&#xf12d;" 
d="M-632 1118q-161 0 -272 105.5t-111 258.5t112 257t275 104t270.5 -103.5t107.5 -257.5q0 -148 -112 -256t-270 -108zM-632 1699q-102 0 -166 -60.5t-64 -156.5q0 -92 64 -151.5t160 -59.5q101 0 165 58.5t64 153t-61 155.5t-162 61z" />
    <glyph glyph-name="uniF12E" unicode="&#xf12e;" 
d="M-632 1125q-161 0 -272 104.5t-111 256.5q0 151 112 254.5t275 103.5t270.5 -103t107.5 -255q0 -147 -112 -254t-270 -107zM-632 1701q-102 0 -166 -60t-64 -155q0 -27 6 -62q97 67 213 81q118 0 228 -69q5 31 6 50q0 94 -61 154.5t-162 60.5zM-639 1388q-81 -8 -149 -58
q69 -52 150 -53q91 0 163 64q-72 43 -164 47z" />
    <glyph glyph-name="uniF12F" unicode="&#xf12f;" 
d="M-642 -503q-74 0 -74 91v541h152v-476h210v-156h-288z" />
    <glyph glyph-name="uniF130" unicode="&#xf130;" 
d="M-510 -506q-70 0 -70 91v548h155v-483h179v-156h-264zM-830 -506v634h153v-634h-153z" />
    <glyph glyph-name="uniF131" unicode="&#xf131;" horiz-adv-x="1156" 
d="M881 752q-146 255 -357 254q-158 0 -259.5 -102.5t-101.5 -260.5q0 -234 225 -337q18 224 197 320q87 49 188 50q99 0 164 -48q72 -51 72 -146q0 -61 -73 -164q-143 -196 -412 -195q-230 0 -375 145t-145 375t145 374t375 144q304 0 491 -335zM758 524q-107 0 -177 -68.5
t-74 -173.5h17q169 0 277 116q15 29 42 63q4 14 4 23q0 40 -89 40z" />
    <glyph glyph-name="uniF132" unicode="&#xf132;" horiz-adv-x="5" 
d="M-331 1244l-736 352l78 165l745 -346z" />
    <glyph glyph-name="uniF133" unicode="&#xf133;" horiz-adv-x="265" 
d="M72 -508q-72 0 -72 91v1572h152v-1507h127v-156h-207z" />
    <glyph glyph-name="uniF134" unicode="&#xf134;" horiz-adv-x="529" 
d="M328 -507q-67 0 -67 91v1571h156v-1506h156v-156h-245zM0 -508v1665h154v-1665h-154z" />
    <glyph glyph-name="uniF136" unicode="&#xf136;" 
d="M-610 1296q-73 0 -124.5 45t-51.5 111q0 68 50 114.5t126 46.5q74 0 125 -45.5t51 -115.5q0 -66 -51.5 -111t-124.5 -45zM-610 1502q-55 0 -55 -50t55 -50q56 0 55 50q1 50 -55 50z" />
    <glyph glyph-name="uniF137" unicode="&#xf137;" 
d="M-646 -283q-78 0 -131 50.5t-53 123.5q0 74 52 123.5t132 49.5q79 0 133.5 -49.5t54.5 -123.5t-54.5 -124t-133.5 -50zM-646 -55q-58 0 -56 -54q0 -55 56 -55q59 0 60 55q-1 54 -60 54z" />
    <glyph glyph-name="uniF138" unicode="&#xf138;" horiz-adv-x="511" 
d="M197 703q-89 0 -145 57t-56 147q0 85 57 143t144 58q85 0 142.5 -58t57.5 -143q0 -89 -56.5 -146.5t-143.5 -57.5zM197 154q-89 0 -145 56t-56 145q0 85 57 144.5t144 59.5t143.5 -57t56.5 -147q0 -89 -56.5 -145t-143.5 -56zM197 972q-62 0 -60 -65q0 -62 60 -62
q65 0 66 62q-1 65 -66 65zM197 418q-62 0 -60 -63q0 -65 60 -64q65 0 66 64q-1 63 -66 63z" />
    <glyph glyph-name="uniF139" unicode="&#xf139;" 
d="M-403 1503q-4 -2 -11 -1q-5 0 -5 5q-7 85 -68 138.5t-155 53.5q-102 0 -166 -60.5t-64 -156.5q0 -91 64 -151t160 -60q22 0 64 5v-154q-33 -3 -58 -3q-161 0 -272 105.5t-111 257.5q0 153 112 257t275 104q149 0 248 -81.5t128 -220.5q-67 -25 -141 -38z" />
    <glyph glyph-name="uniF13A" unicode="&#xf13a;" horiz-adv-x="265" 
d="M57 -522q-14 0 -42 6l-269 58q-123 26 -125 116l-2 83v531h156v-569l216 -51v1505h157v-1593q0 -86 -91 -86z" />
    <glyph glyph-name="uniF13B" unicode="&#xf13b;" horiz-adv-x="288" 
d="M1317 1473h-167l-2 97q-3 137 -67 137h-779q-58 0 -113 -71q-17 -22 -17 -90v-1807q0 -103 98 -103h787q91 0 91 68v584h166v-580q0 -216 -261 -216h-783q-265 0 -266 242l-4 1817q-1 298 299 298h804q220 0 216 -255z" />
    <glyph glyph-name="uniF13C" unicode="&#xf13c;" horiz-adv-x="5" 
d="M-619 -575q-163 0 -276.5 101.5t-113.5 246.5q0 149 112.5 249t277.5 100q167 0 280 -100t113 -249q0 -146 -113 -247t-280 -101zM-619 -8q-105 0 -172.5 -62t-67.5 -157q0 -91 68.5 -151.5t171.5 -60.5q107 0 176 58.5t69 153.5t-69 157t-176 62z" />
    <glyph glyph-name="uniF13D" unicode="&#xf13d;" 
d="M-621 -505h-300v156h221v479h154v-544q0 -91 -75 -91z" />
    <glyph glyph-name="uniF140" unicode="&#xf140;" horiz-adv-x="1156" 
d="M523 118q-234 0 -380.5 144.5t-146.5 378.5q0 226 149 372t378 146q226 0 370 -146t144 -372q0 -228 -144.5 -375.5t-369.5 -147.5zM523 1001q-159 0 -264 -102.5t-105 -257.5q0 -161 103 -263t266 -102q154 0 257 104.5t103 260.5q0 154 -103 257t-257 103z" />
    <glyph glyph-name="uniF141" unicode="&#xf141;" horiz-adv-x="1156" 
d="M522 122q-312 0 -453 264l-40 74l136 75q143 -253 357 -254q156 0 258.5 101.5t102.5 259.5q0 154 -103.5 258.5t-257.5 104.5q-214 0 -357 -254l-136 74q190 336 493 336q226 0 372.5 -146t146.5 -373q0 -230 -145.5 -375t-373.5 -145z" />
    <glyph glyph-name="uniF142" unicode="&#xf142;" horiz-adv-x="1156" 
d="M522 -515q-234 0 -380 146t-146 378v80h158v-80q0 -158 105.5 -263t262.5 -105q154 0 257.5 106t103.5 262l1 1154h154l-1 -1154q0 -237 -141 -380q-140 -144 -374 -144z" />
    <glyph glyph-name="uniF143" unicode="&#xf143;" horiz-adv-x="1156" 
d="M522 110q-98 0 -199 38l302 -623l-146 -63l-428 943l97 39l35 29l9 -11h7l4 -16q145 -176 319 -176q154 0 257.5 103.5t103.5 259.5q0 158 -102.5 262t-258.5 104q-207 0 -357 -247l-133 80l40 71q140 254 450 254q234 0 374.5 -145t140.5 -379q0 -230 -143.5 -376.5
t-371.5 -146.5z" />
    <glyph glyph-name="uniF144" unicode="&#xf144;" horiz-adv-x="1156" 
d="M883 752q-152 247 -355 247q-158 0 -261.5 -104.5t-103.5 -261.5q0 -156 104.5 -259.5t260.5 -103.5q128 0 331 194v5l51 -23l85 -47l-425 -932l-144 63l296 618q-96 -38 -194 -38q-227 0 -374.5 147.5t-147.5 375.5q0 232 144 378t378 146q315 0 447 -254l38 -71z" />
    <glyph glyph-name="uniF145" unicode="&#xf145;" horiz-adv-x="1156" 
d="M522 -513q-234 0 -380 135t-146 348v78h158v-78q0 -143 104.5 -244t263.5 -101q156 0 258.5 101.5t102.5 243.5v705q0 145 -102.5 241t-258.5 96q-236 0 -341 -211q225 -25 319 -178q51 -89 51 -182q0 -88 -49 -147q-54 -68 -145 -68q-65 0 -163 66q-198 129 -198 379v4
q0 214 146.5 349.5t379.5 135.5q239 0 377 -123.5t138 -343.5v-723q0 -213 -142.5 -348t-372.5 -135zM154 693v-22q0 -157 120 -256q29 -14 62 -37q14 -2 23 -2q40 0 40 78q0 101 -68 167t-177 72z" />
    <glyph glyph-name="uniF146" unicode="&#xf146;" horiz-adv-x="1156" 
d="M522 129q-234 0 -380 146t-146 378v765q0 231 146.5 337t379.5 106q241 0 378 -128.5t137 -372.5h-154q-2 166 -99.5 258.5t-261.5 92.5q-161 0 -264.5 -67t-103.5 -226v-765q0 -160 103.5 -263t264.5 -103q134 0 230.5 83.5t128.5 218.5l-313 57q-249 44 -251 234
q-2 91 69.5 163t164.5 72q60 0 116 -29l95 -62l-106 -131q-48 58 -83 57q-28 0 -56.5 -23.5t-28.5 -50.5q0 -44 29 -53q201 -38 456 -86q35 -4 64 -61v-23q0 -232 -142.5 -378t-372.5 -146z" />
    <glyph glyph-name="uniF147" unicode="&#xf147;" horiz-adv-x="1156" 
d="M1015 509l-196 -587q-29 -86 -29 -207q0 -91 82 -81q72 8 80 38l62 -111q-48 -53 -142 -75q-108 -1 -165 48q-77 58 -74 181q5 193 237 843q13 36 13 99q0 150 -102.5 250t-258.5 100q-161 0 -264.5 -99.5t-103.5 -250.5q0 -195 249 -339l-84 -130l-69 40
q-254 151 -254 429q0 222 146.5 361.5t379.5 139.5q234 0 374.5 -139t140.5 -362q0 -82 -22 -148z" />
    <glyph glyph-name="uniF148" unicode="&#xf148;" horiz-adv-x="1156" 
d="M705 150l-80 136q258 141 258 354q0 158 -102.5 262t-258.5 104q-236 0 -341 -229q222 -19 319 -194q51 -96 51 -192q0 -89 -51 -159q-58 -76 -143 -77q-57 0 -163 77q-198 142 -198 408q0 228 148 374t378 146q225 0 370 -147t145 -373q0 -303 -332 -490zM154 659v-19
q0 -169 120 -278q29 -15 62 -40q14 -6 23 -5q40 0 40 89q0 109 -68 181t-177 72z" />
    <glyph glyph-name="uniF149" unicode="&#xf149;" horiz-adv-x="1156" 
d="M928 -369q-89 -95 -223 -127q-58 -19 -183 -20q-234 0 -380 107t-146 330v740q0 223 146.5 361.5t379.5 138.5q230 0 372.5 -138.5t142.5 -361.5v-25q-29 -54 -64 -55q-255 -49 -456 -83q-29 -9 -29 -49q0 -52 70 -72q40 -14 98 51l106 -126q-83 -59 -95 -61
q-53 -28 -116 -27q-93 0 -164.5 69.5t-69.5 158.5q2 181 251 225l313 54q-30 130 -126.5 210t-232.5 80q-160 0 -264 -100t-104 -250v-740q0 -150 104.5 -223t263.5 -73q163 0 261 73.5t100 231.5h154q-1 -184 -109 -299z" />
    <glyph glyph-name="uniF14A" unicode="&#xf14a;" horiz-adv-x="386" 
d="M57 130v957h148v-957h-148z" />
    <glyph glyph-name="uniF14B" unicode="&#xf14b;" horiz-adv-x="638" 
d="M302 132v957h158v-957h-158zM57 132v957h157v-957h-157z" />
    <glyph glyph-name="uniF14C" unicode="&#xf14c;" horiz-adv-x="1131" 
d="M496 180q-46 4 -166 20q-96 52 -121 51q-36 0 -17 -32q55 -101 319 -101v0q69 0 156 15q125 21 140 41q76 30 109 30q97 0 97 -140v-399q7 -72 -48 -122.5t-133 -50.5h-618q-210 0 -210 199v-47q0 209 176 222l97 7l25 -135q-116 4 -137 -22q13 -25 15 -50q42 -16 83 -33
h488q108 0 108 80v314q-170 -58 -346 -58h-2q-154 0 -245 28q-105 32 -205 121q-38 46 -38 119q0 171 203 157q42 -3 110 -30q76 -31 108 -37q12 0 16 4h36q158 0 260.5 96.5t102.5 243.5q0 145 -105 242.5t-258 97.5q-217 0 -360 -236l-136 66q148 251 380 307
q-257 114 -257 349q0 153 110.5 256.5t277.5 103.5q147 0 249.5 -85t128.5 -221q-49 -16 -137 -42q-17 0 -16 10q-25 195 -225 195q-107 0 -170.5 -60t-63.5 -157q0 -94 64.5 -155t165.5 -61q15 0 61 6v-133q206 -30 325.5 -158.5t119.5 -324.5q0 -221 -139 -358
q-143 -145 -378 -133z" />
    <glyph glyph-name="uniF14D" unicode="&#xf14d;" horiz-adv-x="1394" 
d="M1200 1500q-23 198 -224 199q-100 0 -166 -37.5t-66 -128.5q0 -158 157 -205q285 0 365 -207q29 -74 29 -214v-1254q0 -64 -51 -107.5t-120 -43.5h-878q-82 0 -142.5 54.5t-68.5 129.5q-13 111 63 180t199 69h234l87 -11q53 -7 91 -37q12 -6 52 -78l-133 -90
q-17 67 -112 67h-247q-24 0 -49.5 -18.5t-25.5 -39.5q0 -30 22.5 -55t53.5 -25h814q37 -6 53 32v1227q0 99 -11 146q-21 79 -160 111h-23l4 -6l-32 12q-147 24 -237 124t-90 239q0 155 110.5 235.5t278.5 80.5q147 0 250.5 -83.5t132.5 -217.5zM909 -243v875
q0 156 -103.5 260.5t-257.5 104.5q-158 0 -260.5 -103.5t-102.5 -261.5v-11q58 17 129 17q166 0 293 -99q136 -107 137 -268q0 -173 -167 -172q-32 0 -63 5q-227 15 -357.5 156.5t-130.5 371.5t146.5 379.5t375.5 149.5q232 0 378.5 -148.5t146.5 -380.5v-875h-164zM584 294
q0 109 -114 175q-100 56 -216 47l-40 -16q15 -32 32 -64q122 -180 268 -180q31 0 57 15l13 11v12z" />
    <glyph glyph-name="uniF14E" unicode="&#xf14e;" horiz-adv-x="2712" 
d="M1923 1522q-4 -2 -11 -1q-5 0 -5 5q-7 85 -68 138.5t-155 53.5q-102 0 -166 -60.5t-64 -156.5q0 -91 64 -151t160 -60q22 0 64 5v-154q-33 -3 -58 -3q-161 0 -272 105.5t-111 257.5q0 153 112 257t275 104q149 0 248 -81.5t128 -220.5q-67 -25 -141 -38zM876 748
q-145 254 -354 254q-158 0 -261 -104.5t-103 -260.5q0 -158 103.5 -261t260.5 -103q212 0 354 252l91 -47h6l40 -27v-949h-158v727q-150 -118 -333 -118q-230 0 -376 148t-146 378q0 228 146 374.5t376 146.5q304 0 493 -336zM2090 383q-56 -120 -190 -196
q-127 -69 -266 -68q-230 0 -375.5 145t-145.5 375t145.5 374.5t375.5 144.5q304 0 491 -336l-134 -74q-146 254 -357 254q-158 0 -259.5 -102.5t-101.5 -260.5t101.5 -259.5t259.5 -101.5q212 0 357 254l134 -75zM2381 702q-89 0 -145 57t-56 146q0 85 57 143.5t144 58.5
q85 0 142.5 -58t57.5 -144q0 -89 -56.5 -146t-143.5 -57zM2381 153q-89 0 -145 56t-56 145q0 85 57 144.5t144 59.5t143.5 -57.5t56.5 -146.5t-56.5 -145t-143.5 -56zM2381 970q-61 0 -61 -65q0 -61 61 -61q65 0 65 61q0 65 -65 65zM2381 417q-61 0 -61 -63q0 -65 61 -65
q65 0 65 65q0 63 -65 63z" />
    <glyph glyph-name="uniF14F" unicode="&#xf14f;" horiz-adv-x="1673" 
d="M1465 1487q-31 223 -234 224q-107 0 -168.5 -42t-61.5 -146q0 -170 161 -221q120 0 219 -55q107 -61 147 -167q26 -68 26 -224v-745h-158v745q0 116 -11 154q-17 82 -154 122h-31l2 -8l-27 11q-147 24 -237.5 131t-90.5 257q0 165 110.5 245.5t277.5 80.5
q152 0 253.5 -85t130.5 -236zM1123 109v764q-6 29 -59 28q-16 -4 -69 -30q18 -31 29 -46l-11 -9q0 -80 -82 -125q-67 -40 -152 -40q-99 0 -194 49q-161 78 -193 276q-228 -93 -229 -339q0 -247 225 -340q34 108 60 148q110 181 339 181q226 0 226 -165q0 -45 -74 -149
q-143 -199 -411 -199q-229 0 -376.5 147.5t-147.5 376.5q0 228 147.5 376.5t376.5 148.5q213 0 371 -170q87 69 161 69q188 0 222 -173v-779h-159zM528 998h-17v-6q0 -140 156 -182q19 -12 67 -12q87 0 98 29q-127 171 -304 171zM849 461q0 22 -85 22q-58 0 -139 -32
q-110 -76 -114 -179h17q170 0 279 120q16 21 36 59l6 4v6z" />
    <glyph glyph-name="uniF15A" unicode="&#xf15a;" horiz-adv-x="264" 
d="M476 1644l-44 42q-40 29 -105 29q-76 0 -124.5 -53t-48.5 -126l3 -1426h-157v1366q0 14 -4 16q-33 204 -224 203q-103 0 -165.5 -65.5t-62.5 -167.5q0 -38 7 -78l-154 -34q-13 59 -12 112q0 167 109.5 277t279.5 110q151 0 276 -114l22 -20q81 143 246 143q120 0 215 -83
z" />
    <glyph glyph-name="uniF160" unicode="&#xf160;" 
d="M-1020 -288h-3q-14 -176 -274 -294l-70 113q196 94 195 212q0 94 -70.5 152t-179.5 58q-105 0 -176.5 -59t-71.5 -151q0 -125 194 -212l-72 -113l-68 29q-208 90 -208 296q0 154 112.5 245.5t289.5 91.5q203 0 328 -140q122 140 325 140q179 0 290 -91t111 -246
q0 -152 -111 -243.5t-290 -91.5q-49 0 -112 11q9 43 15 133q80 -20 97 -20q107 0 177 61t70 150q0 92 -70 151t-177 59q-109 0 -180 -57.5t-71 -152.5v-31z" />
    <glyph glyph-name="uniF161" unicode="&#xf161;" 
d="M-624 -600q-128 0 -238 68q-122 74 -121 181q0 16 3 37q22 20 76 47q15 3 63 21q40 13 57 12q114 0 195 -52t95 -146q109 61 109 174q0 93 -67 153t-172 60q-137 0 -248 -162l-129 70q158 218 377 218q167 0 276.5 -96.5t109.5 -242.5t-109.5 -244t-276.5 -98zM-756 -336
q-19 -2 -85 -22q67 -118 193 -118q25 0 40 4l50 12q-80 124 -198 124z" />
    <glyph glyph-name="uniF162" unicode="&#xf162;" 
d="M-459 -606l-91 107q180 100 180 219q0 95 -69 157.5t-174 62.5t-175 -61.5t-70 -158.5q0 -116 182 -219l-97 -103l-45 21q-188 84 -189 301q0 151 114.5 253t279.5 102q167 0 279 -102t112 -253q1 -219 -237 -326z" />
    <glyph glyph-name="uniF163" unicode="&#xf163;" 
d="M-305 -600q-205 0 -327 144q-126 -144 -329 -144q-176 0 -287.5 92.5t-111.5 247.5q0 73 63 137q30 30 131 102l-29 5q-7 0 -47 -22l-55 87q70 48 160 48q58 0 94 -33.5t36 -84.5q0 -59 -74 -104q-125 -76 -125 -135q0 -91 70.5 -151t174.5 -60q110 0 180.5 58t70.5 153
q0 124 -199 219l73 112l67 -28q188 -78 211 -270h1v-30q0 -95 71.5 -154.5t180.5 -59.5q106 0 177 60.5t71 153.5t-71 151.5t-177 58.5q-36 0 -122 -19l13 141q83 9 109 9q178 0 289.5 -93t111.5 -248q0 -152 -112.5 -247.5t-288.5 -95.5z" />
    <glyph glyph-name="uniF164" unicode="&#xf164;" horiz-adv-x="5" 
d="M-836 1620h4q5 83 56.5 135.5t133.5 52.5q101 0 154 -68l-70 -87q-33 38 -78 51q-87 0 -88 -91q-7 -31 35 -72l51 9q92 0 143 -69l-69 -89q-28 36 -72 44q-80 -4 -99 -91q0 -87 93 -92q47 -2 74 52q45 -38 73 -78q-78 -76 -153 -76q-87 0 -140 53.5t-53 142.5
q0 74 55 140q-46 68 -50 133z" />
    <glyph glyph-name="uniF165" unicode="&#xf165;" 
d="M-610 -602q-163 0 -277 99t-114 243q0 147 112 246t279 99t278.5 -99t111.5 -246q0 -146 -111.5 -244t-278.5 -98zM-610 -46q-13 0 -79 -18q51 -86 51 -190q0 -101 -51 -201q34 -17 79 -17q103 0 172.5 61t69.5 151q0 94 -67.5 154t-174.5 60zM-784 -109
q-65 -51 -65 -151q0 -105 65 -157q49 63 51 137q4 99 -51 171z" />
    <glyph glyph-name="uniF166" unicode="&#xf166;" 
d="M-779 -600q-199 0 -325 141q-125 -144 -328 -144q-132 0 -241 65q-126 73 -126 182q0 49 65 101q42 5 108 20q6 -4 6 -7l-6 -4l11 -4l-5 20l-2 -2v6l-6 -6q281 0 310 -219q136 67 137 191q0 96 -71 154t-180 58q-139 0 -251 -157l-133 64q160 222 384 222q199 0 328 -142
q120 145 325 145q175 0 289 -96t114 -248q0 -154 -112 -247t-291 -93zM-779 -46q-107 0 -177.5 -61t-70.5 -152.5t70.5 -150.5t177.5 -59t177 59t70 150q0 93 -70 153.5t-177 60.5zM-1571 -345q-69 0 -69 -14v-21q48 -79 230 -91q-13 126 -161 126z" />
    <glyph glyph-name="uniF167" unicode="&#xf167;" 
d="M-323 -600q-199 0 -325 141q-125 -144 -328 -144q-132 0 -241 65q-126 73 -126 182q0 49 65 101q42 5 108 20q6 -4 6 -7l-6 -4l11 -4l-5 20l-2 -2v6l-6 -6q281 0 310 -219q136 67 137 191q0 96 -71 154t-180 58q-139 0 -251 -157l-133 64q160 222 384 222q199 0 328 -142
q120 145 325 145q175 0 289 -96t114 -248q0 -154 -112 -247t-291 -93zM-323 -46q-107 0 -177.5 -61t-70.5 -152.5t70.5 -150.5t177.5 -59t177 59t70 150q0 93 -70 153.5t-177 60.5zM-1115 -345q-69 0 -69 -14v-21q48 -79 230 -91q-13 126 -161 126z" />
    <glyph glyph-name="uniF168" unicode="&#xf168;" 
d="M-222 -562q-183 22 -177 160q-193 34 -193 190q0 91 57 141q-40 15 -75 14q-107 0 -173 -59t-66 -150q0 -88 63.5 -145t166.5 -57q51 0 140 14l20 -126q-80 -20 -154 -20q-163 0 -275.5 96.5t-112.5 237.5q0 146 111.5 241.5t279.5 95.5q175 0 285.5 -91t110.5 -241
q0 -129 -53 -141q-10 -60 51 -60q11 0 42 5zM-459 -97q-29 -38 -29 -98q0 -42 34.5 -72.5t83.5 -30.5h13q6 20 6 31q1 119 -108 170z" />
    <glyph glyph-name="uniF169" unicode="&#xf169;" horiz-adv-x="265" 
d="M-610 -601q-163 0 -277 99t-114 244q0 147 112 245.5t279 98.5t278.5 -98.5t111.5 -245.5q0 -63 -19 -121l228 -54v1554h159v-1632q0 -75 -91 -76q-24 0 -46 6l-345 81q-111 -101 -276 -101zM-610 -44q-13 0 -79 -19q51 -86 51 -190q0 -100 -51 -201q34 -16 79 -16
q103 0 172.5 60.5t69.5 151.5q0 93 -67.5 153.5t-174.5 60.5zM-784 -108q-65 -51 -65 -150q0 -106 65 -158q49 64 51 138q4 98 -51 170z" />
    <glyph glyph-name="uniF16A" unicode="&#xf16a;" horiz-adv-x="1156" 
d="M530 115q-196 0 -353 139v-478q0 -142 97 -142h107v-139h-107q-264 0 -262 285l2 669l23 4l134 76q145 -252 359 -252q156 0 258.5 103.5t102.5 260.5q0 154 -103.5 259.5t-257.5 105.5q-214 0 -359 -254l-134 74q190 336 493 336q230 0 374.5 -144.5t144.5 -376.5
q0 -236 -142.5 -381t-376.5 -145z" />
    <glyph glyph-name="uniF16B" unicode="&#xf16b;" horiz-adv-x="2028" 
d="M154 498l4 -4l7 11v-22q150 -180 331 -180q158 0 260.5 88.5t102.5 237.5v55q0 146 -105 232.5t-258 86.5q-206 0 -355 -238l-137 77l40 68q141 244 452 244q231 0 378 -140t147 -363v-28q0 -149 104 -235.5t260 -86.5q160 0 264 97.5t104 252.5q0 150 -105 251t-263 101
q-67 0 -205 -49l-51 143l73 26q78 27 183 27q230 0 377 -140t147 -359t-149 -362t-375 -143q-289 1 -446 237q-158 -233 -443 -234q-181 0 -331 111v-512q0 -116 101 -116h1032v-140h-1032q-266 0 -266 253v639l112 77z" />
    <glyph glyph-name="uniF16C" unicode="&#xf16c;" 
d="M-373 -194q-78 -95 -258 -95q-108 0 -194 45q-99 55 -99 143q0 91 99 144q85 46 194 46q169 0 292 -137l-116 -39q-80 90 -176 90q-59 0 -109 -23q-57 -29 -56 -81q0 -49 56 -79q49 -25 109 -24q96 0 176 92l116 -39zM-287 -585h-113q-81 0 -80 64v119q-77 -14 -153 -14
q-156 0 -228 45l-49 29l60 72l73 -34q88 -24 146 -24q54 0 163 28q25 7 46 8q68 0 68 -69v-144h67v-80z" />
    <glyph glyph-name="uniF16D" unicode="&#xf16d;" 
d="M-495 -568l-12 -8l-85 112q96 73 97 181q0 102 -68.5 168t-176.5 66q-109 0 -176 -64t-69 -165q-10 -317 -272 -317h-525q-104 0 -183 72t-79 170v188q0 248 256 248q107 0 185 -62.5t82 -159.5l-135 -26q-2 116 -132 116q-104 10 -104 -116v-180q0 -46 31.5 -85.5
t78.5 -39.5h525q120 0 120 154v29q0 169 109.5 268t289.5 99q167 0 279 -104t112 -259q0 -182 -148 -285z" />
    <glyph glyph-name="uniF16E" unicode="&#xf16e;" horiz-adv-x="1133" 
d="M975 -510q-116 0 -116 121v431q-185 -63 -346 -59q-290 6 -452 149q-38 45 -38 116q0 165 203 158q42 -4 120 -40q38 -19 98 -27q16 0 18 4h34q158 0 260.5 95.5t102.5 239.5q0 142 -105 239t-258 97q-217 0 -360 -234l-136 68q190 309 496 309q231 0 374 -133t143 -346
q0 -224 -135 -356q-142 -143 -382 -128q-16 2 -162 19q-100 46 -129 46q-31 0 -13 -26q57 -101 319 -101h2q76 0 160 13q118 20 141 43q70 25 104 25q91 0 95 -130v0v-430q0 -29 40 -25h91v-138h-169zM776 -508q-59 0 -60 41v120q-80 -19 -163 -19h-6q-69 0 -76 3
q-67 1 -141 42q-17 13 -16 38q0 52 106 48q26 -7 97 -16h29q171 0 170 93q0 88 -170 89q-101 0 -176 -67l-69 25q102 94 245 94q252 0 252 -141q0 -77 -91 -115q-72 -32 -161 -31q-9 4 -78 6q-7 4 -29 8l-6 -10q40 -10 120 -10q32 0 96.5 11t97.5 11q51 0 51 -47v-126h61
v-47h-83z" />
    <glyph glyph-name="uniF16F" unicode="&#xf16f;" horiz-adv-x="1156" 
d="M718 161v-570h51v-99h-82q-64 0 -64 109l2 534q-58 -11 -103 -12q-234 0 -380 147.5t-146 380.5q0 207 265 365l28 18q-24 19 -28 18q-50 0 -103 -40l-62 130q65 51 181 51q63 0 115 -50.5t52 -112.5q0 -63 -91 -137q-6 -7 -137 -110q-62 -63 -62 -132
q0 -161 103.5 -264.5t264.5 -103.5q47 0 103 15v69q-103 -21 -141 -15l-56 9q-34 7 -98 58q-13 36 -13 63q0 80 86 80q14 0 81 -23h10q132 0 131 120q0 50 -33.5 84.5t-80.5 34.5q-67 0 -129 -107l-88 51q90 158 217 158q93 0 152 -63t59 -158q0 -96 -57 -160
q-59 -68 -154 -62q-27 -4 -67 9q-9 0 -11 2v9h-7l2 -9q17 -6 79 -13q80 2 113 24l18 16q18 2 40 6q40 -9 40 -75v-63q165 112 165 308q0 209 -258 359l71 134l71 -34q270 -129 270 -459q0 -352 -319 -490z" />
    <glyph glyph-name="uniF170" unicode="&#xf170;" 
d="M-655 -599l-78 119q198 90 198 220q0 99 -71.5 159t-183.5 60q-109 0 -178 -61t-69 -158v-171q0 -61 -43.5 -103.5t-114.5 -42.5q-68 0 -114.5 43t-46.5 103v198q-11 85 -81.5 138.5t-167.5 53.5q-110 0 -180 -59.5t-70 -159.5q0 -131 199 -222l-74 -121l-69 34
q-207 99 -207 309q0 154 113.5 253t287.5 99q163 0 285 -104q49 53 125 53q69 0 120 -53q125 105 285 104q178 0 291.5 -97.5t113.5 -254.5q0 -206 -270 -339zM-1166 -122q0 40 -29 41q-36 0 -36 -41v-303q0 -40 36 -41q29 0 29 41v303z" />
    </font>
</defs>
</svg>
