<svg height="512pt" viewBox="0 -26 512 512" width="512pt" xmlns="http://www.w3.org/2000/svg"><path d="m421 340h-330c-8.285156 0-15-6.714844-15-15v-231.078125c0-4.617187 2.125-8.976563 5.761719-11.816406 3.636719-2.847657 8.378906-3.855469 12.863281-2.738281l161.375 40.175781 161.375-40.175781c4.480469-1.117188 9.222656-.109376 12.863281 2.734374 3.636719 2.84375 5.761719 7.203126 5.761719 11.820313v231.078125c0 8.285156-6.714844 15-15 15zm0 0" fill="#3f4a4a"/><path d="m421 340c8.285156 0 15-6.714844 15-15v-231.078125c0-4.617187-2.125-8.976563-5.761719-11.816406-3.640625-2.847657-8.382812-3.855469-12.863281-2.738281l-161.375 40.175781v220.457031zm0 0" fill="#323c3c"/><path d="m15 385c0 33.136719 26.863281 60 60 60h407v-120h-407c-33.136719 0-60 26.863281-60 60zm0 0" fill="#e1ebf0"/><path d="m256 325h226v120h-226zm0 0" fill="#cde1e6"/><path d="m256 310c-3.820312 0-7.636719-1.449219-10.5625-4.347656l-51.210938-50.789063c-17.589843-17.589843-17.589843-46.136719-.046874-63.683593 16.953124-16.949219 44.171874-17.523438 61.820312-1.722657 17.648438-15.800781 44.867188-15.226562 61.820312 1.722657 17.542969 17.546874 17.542969 46.09375 0 63.640624l-51.257812 50.832032c-2.925781 2.898437-6.742188 4.347656-10.5625 4.347656zm0 0" fill="#ff6379"/><path d="m266.5625 305.652344 51.257812-50.832032c17.542969-17.542968 17.542969-46.09375 0-63.636718-16.953124-16.953125-44.171874-17.527344-61.820312-1.726563v120.542969c3.820312 0 7.636719-1.449219 10.5625-4.347656zm0 0" fill="#ff415b"/><path d="m497 180c-8.285156 0-15-6.714844-15-15v-90c0-8.285156 6.714844-15 15-15s15 6.714844 15 15v90c0 8.285156-6.714844 15-15 15zm0 0" fill="#ff415b"/><path d="m497 460h-422c-41.355469 0-75-33.644531-75-75s33.644531-75 75-75h422c8.285156 0 15 6.714844 15 15s-6.714844 15-15 15h-422c-24.8125 0-45 20.1875-45 45s20.1875 45 45 45h422c8.285156 0 15 6.714844 15 15s-6.714844 15-15 15zm0 0" fill="#00d7df"/><path d="m497 430h-241v30h241c8.285156 0 15-6.714844 15-15s-6.714844-15-15-15zm0 0" fill="#00c7ce"/><path d="m497 310h-241v30h241c8.285156 0 15-6.714844 15-15s-6.714844-15-15-15zm0 0" fill="#00c7ce"/><path d="m467 400h-50c-8.285156 0-15-6.714844-15-15s6.714844-15 15-15h50c8.285156 0 15 6.714844 15 15s-6.714844 15-15 15zm0 0" fill="#bfd2d9"/><path d="m256 150c-1.21875 0-2.433594-.148438-3.625-.441406l-241-60c-6.683594-1.664063-11.375-7.667969-11.375-14.558594 0-6.886719 4.691406-12.890625 11.375-14.554688l241-60c2.382812-.59375 4.867188-.59375 7.25 0l241 60c6.683594 1.664063 11.375 7.667969 11.375 14.554688 0 6.890625-4.691406 12.894531-11.375 14.558594l-241 60c-1.191406.292968-2.40625.441406-3.625.441406zm0 0" fill="#545e5e"/><path d="m500.625 60.445312-241-60c-1.191406-.296874-2.40625-.445312-3.625-.445312v150c1.21875 0 2.433594-.148438 3.625-.441406l241-60c6.683594-1.664063 11.375-7.667969 11.375-14.558594 0-6.886719-4.691406-12.890625-11.375-14.554688zm0 0" fill="#3f4a4a"/></svg>