<svg height="512pt" viewBox="0 0 512 512" width="512pt" xmlns="http://www.w3.org/2000/svg"><path d="m245.5 512c-47.144531 0-85.5-38.355469-85.5-85.5v-131.5c0-8.285156 6.714844-15 15-15s15 6.714844 15 15v131.5c0 30.601562 24.898438 55.5 55.5 55.5s55.5-24.898438 55.5-55.5v-91c0-47.144531 38.355469-85.5 85.5-85.5s85.5 38.355469 85.5 85.5v29.5c0 8.285156-6.714844 15-15 15s-15-6.714844-15-15v-29.5c0-30.601562-24.898438-55.5-55.5-55.5s-55.5 24.898438-55.5 55.5v91c0 47.144531-38.355469 85.5-85.5 85.5zm0 0" fill="#cde1e6"/><path d="m175 310c-79.953125 0-145-65.046875-145-145v-90c0-8.285156 6.714844-15 15-15s15 6.714844 15 15v90c0 63.410156 51.589844 115 115 115s115-51.589844 115-115v-90c0-8.285156 6.714844-15 15-15s15 6.714844 15 15v90c0 79.953125-65.046875 145-145 145zm0 0" fill="#e1ebf0"/><path d="m205 135h-15v-15c0-8.285156-6.714844-15-15-15s-15 6.714844-15 15v15h-15c-8.285156 0-15 6.714844-15 15s6.714844 15 15 15h15v15c0 8.285156 6.714844 15 15 15s15-6.714844 15-15v-15h15c8.285156 0 15-6.714844 15-15s-6.714844-15-15-15zm0 0" fill="#fc0023"/><path d="m457 460c-30.328125 0-55-24.671875-55-55s24.671875-55 55-55 55 24.671875 55 55-24.671875 55-55 55zm0 0" fill="#ff6379"/><path d="m457 350v110c30.328125 0 55-24.671875 55-55s-24.671875-55-55-55zm0 0" fill="#ff415b"/><path d="m305 90c-24.8125 0-45-20.1875-45-45s20.1875-45 45-45 45 20.1875 45 45-20.1875 45-45 45zm0 0" fill="#ff6379"/><path d="m45 90c-24.8125 0-45-20.1875-45-45s20.1875-45 45-45 45 20.1875 45 45-20.1875 45-45 45zm0 0" fill="#ff6379"/><path d="m305 0v90c24.8125 0 45-20.1875 45-45s-20.1875-45-45-45zm0 0" fill="#ff415b"/><path d="m45 0v90c24.8125 0 45-20.1875 45-45s-20.1875-45-45-45zm0 0" fill="#ff415b"/><path d="m205 135h-15v-15c0-8.285156-6.714844-15-15-15v90c8.285156 0 15-6.714844 15-15v-15h15c8.285156 0 15-6.714844 15-15s-6.714844-15-15-15zm0 0" fill="#c9001c"/></svg>