<?xml version="1.0" encoding="iso-8859-1"?>
<!-- Generator: Adobe Illustrator 19.0.0, SVG Export Plug-In . SVG Version: 6.00 Build 0)  -->
<svg version="1.1" id="Capa_1" xmlns="http://www.w3.org/2000/svg" xmlns:xlink="http://www.w3.org/1999/xlink" x="0px" y="0px"
	 viewBox="0 0 512 512" style="enable-background:new 0 0 512 512;" xml:space="preserve">
<path style="fill:#FEDB41;" d="M326.499,155.899C308.8,138.2,296.201,114.001,290.2,89.701l-19.801-78.9
	C268.599,4.2,262.301,0.6,256,0.6s-12.599,3.6-14.399,10.2L221.8,89.7c-6,24.3-18.6,48.5-36.299,66.199
	c-4.501,4.2-5.7,10.501-3.301,16.201c2.401,5.7,7.8,9.3,13.801,9.3h120c6,0,11.4-3.6,13.801-9.3
	C332.199,166.4,331,160.1,326.499,155.899z"/>
<path style="fill:#FCBF29;" d="M316,181.4h-60V0.6c6.301,0,12.599,3.6,14.399,10.201l19.801,78.9c6,24.3,18.6,48.5,36.299,66.199
	c4.501,4.2,5.7,10.501,3.301,16.201C327.4,177.8,322,181.4,316,181.4z"/>
<path style="fill:#FEA832;" d="M316,151.4H196c-24.901,0-45,20.099-45,45v30c0,8.399,6.599,15,15,15h180c8.401,0,15-6.601,15-15v-30
	C361,171.5,340.901,151.4,316,151.4z"/>
<path style="fill:#FE9923;" d="M346,241.4h-90v-90h60c24.901,0,45,20.099,45,45v30C361,234.799,354.401,241.4,346,241.4z"/>
<path style="fill:#FEA832;" d="M451,391.4v75c0,8.399-6.599,15-15,15H76c-8.401,0-15-6.601-15-15v-75l30-30h330L451,391.4z"/>
<path style="fill:#FE9923;" d="M451,391.4v75c0,8.399-6.599,15-15,15H256v-120h165L451,391.4z"/>
<path style="fill:#FEDB41;" d="M451,316.4v75H61v-75c0-57.9,47.1-105,105-105h180C403.9,211.4,451,258.501,451,316.4z"/>
<path style="fill:#FCBF29;" d="M451,316.4v75H256v-180h90C403.9,211.4,451,258.501,451,316.4z"/>
<path style="fill:#994C0F;" d="M294.401,303.501L266.499,275.9c-2.699-3-6.599-4.5-10.499-4.5s-7.8,1.5-10.499,4.499L217.599,303.5
	C193.9,327.2,181,358.7,181,391.999V466.4c0,8.399,6.599,15,15,15h120c8.401,0,15-6.601,15-15v-74.401
	C331,358.7,318.1,327.2,294.401,303.501z"/>
<path style="fill:#713708;" d="M331,391.999V466.4c0,8.399-6.599,15-15,15h-60v-210c3.9,0,7.8,1.5,10.499,4.499l27.902,27.601
	C318.1,327.2,331,358.7,331,391.999z"/>
<path style="fill:#E5741A;" d="M467,451.4H331l-15,30l45,30h136c8.284,0,15-6.716,15-15C512,471.547,491.853,451.4,467,451.4z"/>
<path style="fill:#FE8821;" d="M45,451.4c-24.853,0-45,20.147-45,45c0,8.284,6.716,15,15,15h136l45.015-30.029L181,451.4H45z"/>
<polygon style="fill:#FEDB41;" points="361,511.4 151,511.4 181,451.4 331,451.4 "/>
<polygon style="fill:#FCBF29;" points="361,511.4 256,511.4 256,451.4 331,451.4 "/>
<g>
</g>
<g>
</g>
<g>
</g>
<g>
</g>
<g>
</g>
<g>
</g>
<g>
</g>
<g>
</g>
<g>
</g>
<g>
</g>
<g>
</g>
<g>
</g>
<g>
</g>
<g>
</g>
<g>
</g>
</svg>
