<svg height="512pt" viewBox="0 0 512 512" width="512pt" xmlns="http://www.w3.org/2000/svg"><path d="m437.019531 74.980469c-48.351562-48.351563-112.640625-74.980469-181.019531-74.980469s-132.667969 26.628906-181.019531 74.980469c-48.351563 48.351562-74.980469 112.640625-74.980469 181.019531s26.628906 132.667969 74.980469 181.019531c48.351562 48.351563 112.640625 74.980469 181.019531 74.980469s132.667969-26.628906 181.019531-74.980469c48.351563-48.351562 74.980469-112.640625 74.980469-181.019531s-26.628906-132.667969-74.980469-181.019531zm0 0" fill="#e0f4ff"/><path d="m437.019531 74.980469c-48.351562-48.351563-112.640625-74.980469-181.019531-74.980469v512c68.378906 0 132.667969-26.628906 181.019531-74.980469 48.351563-48.351562 74.980469-112.640625 74.980469-181.019531s-26.628906-132.667969-74.980469-181.019531zm0 0" fill="#bbdcff"/><path d="m344.855469 425.648438h-177.710938c-8.285156 0-15-6.71875-15-15v-62.402344c0-8.285156 6.714844-15 15-15h177.710938c8.285156 0 15 6.714844 15 15v62.402344c0 8.28125-6.714844 15-15 15zm0 0" fill="#24d8f7"/><path d="m344.855469 333.246094h-88.855469v92.402344h88.855469c8.285156 0 15-6.71875 15-15v-62.402344c0-8.285156-6.714844-15-15-15zm0 0" fill="#00c1f1"/><path d="m0 256c0 34.191406 6.65625 67.355469 19.359375 98.019531l73.164063-30.304687c-8.675782-20.871094-13.476563-43.742188-13.476563-67.714844 0-36.335938 11.015625-70.144531 29.871094-98.277344l-65.835938-43.988281c-28.023437 41.75-43.082031 90.851563-43.082031 142.265625zm0 0" fill="#ff455a"/><path d="m74.980469 74.980469c-11.996094 11.996093-22.652344 24.972656-31.898438 38.753906l65.835938 43.988281c31.78125-47.40625 85.84375-78.675781 147.082031-78.675781v-79.046875c-68.378906 0-132.667969 26.628906-181.019531 74.980469zm0 0" fill="#fff559"/><path d="m437.019531 74.980469c-48.351562-48.351563-112.640625-74.980469-181.019531-74.980469v79.046875c61.234375 0 115.300781 31.269531 147.082031 78.675781l65.835938-43.988281c-9.246094-13.777344-19.902344-26.757813-31.898438-38.753906zm0 0" fill="#f4ca00"/><path d="m468.917969 113.734375-65.835938 43.988281c18.859375 28.128906 29.871094 61.941406 29.871094 98.277344 0 23.972656-4.800781 46.84375-13.476563 67.714844l73.167969 30.304687c12.699219-30.664062 19.355469-63.828125 19.355469-98.019531 0-51.414062-15.058594-100.515625-43.082031-142.265625zm0 0" fill="#5bcb80"/><path d="m256 299.472656c-23.96875 0-43.472656-19.503906-43.472656-43.472656s19.503906-43.472656 43.472656-43.472656 43.472656 19.503906 43.472656 43.472656-19.503906 43.472656-43.472656 43.472656zm0 0" fill="#515e84"/><path d="m316.757812 142.328125c-7.304687-3.90625-16.394531-1.148437-20.296874 6.15625l-34.460938 64.46875c-1.964844-.273437-3.964844-.425781-6-.425781v86.945312c23.96875 0 43.46875-19.503906 43.46875-43.472656 0-11.082031-4.171875-21.199219-11.023438-28.886719l34.46875-64.488281c3.90625-7.304688 1.152344-16.394531-6.15625-20.296875zm0 0" fill="#394670"/></svg>