<?xml version="1.0" encoding="iso-8859-1"?>
<!-- Generator: Adobe Illustrator 19.0.0, SVG Export Plug-In . SVG Version: 6.00 Build 0)  -->
<svg version="1.1" id="Capa_1" xmlns="http://www.w3.org/2000/svg" xmlns:xlink="http://www.w3.org/1999/xlink" x="0px" y="0px"
	 viewBox="0 0 512 512" style="enable-background:new 0 0 512 512;" xml:space="preserve">
<rect x="220" y="196" style="fill:#FEA02C;" width="72" height="36"/>
<path style="fill:#FFC66C;" d="M387.355,454v-36.833l0,0c-22.648-12.965-36.62-37.064-36.62-63.16v-42.47
	c0-31.87-15.806-61.665-42.193-79.537l0,0H203.458l0,0c-26.387,17.872-42.193,47.667-42.193,79.537v42.47
	c0,26.096-13.972,50.195-36.62,63.16l0,0V454H387.355z"/>
<g>
	<rect x="88" y="454" style="fill:#FFB954;" width="136" height="48"/>
	<rect x="288" y="454" style="fill:#FFB954;" width="136" height="48"/>
</g>
<rect x="224" y="417" style="fill:#FFFFFF;" width="64" height="85"/>
<path style="fill:#FEA02C;" d="M256.127,416.996h32v-70.732c0-10.24-5.412-19.718-14.231-24.923l-3.538-2.088
	c-8.819-5.205-14.231-14.683-14.231-24.923l0,0l0,0c0,10.24-5.412,19.718-14.231,24.923l-3.538,2.088
	c-8.819,5.205-14.231,14.683-14.231,24.923v70.732H256.127z"/>
<polygon style="fill:#FFC66C;" points="218.254,196 256.127,10 294,196 "/>
<path d="M424,444h-26.645v-26.833c0-3.586-1.92-6.897-5.032-8.679c-19.484-11.154-31.588-32.03-31.588-54.481v-42.47
	c0-35.231-17.415-68.06-46.586-87.816c-1.655-1.121-3.608-1.721-5.607-1.721H302v-16h3c5.522,0,10-4.478,10-10s-4.478-10-10-10
	h-2.831L265.926,8.005C264.978,3.347,260.881,0,256.127,0s-8.851,3.347-9.799,8.005L210.085,186H207c-5.522,0-10,4.478-10,10
	s4.478,10,10,10h3v16h-6.542c-1.999,0-3.952,0.6-5.607,1.72c-16.057,10.874-28.82,25.938-36.913,43.564
	c-2.305,5.02-0.104,10.956,4.915,13.261c5.02,2.306,10.956,0.104,13.261-4.915c6.149-13.396,15.626-24.968,27.505-33.63h98.764
	c22.193,16.177,35.354,41.949,35.354,69.537v42.47c0,19.619,7.016,38.321,19.222,52.989h-61.83v-60.732
	c0-13.716-7.338-26.565-19.148-33.534l-3.537-2.089c-5.745-3.391-9.314-9.641-9.314-16.312c0-5.522-4.478-10-10-10s-10,4.478-10,10
	c0,6.671-3.569,12.921-9.314,16.313l-3.536,2.087c-11.812,6.97-19.149,19.819-19.149,33.535v60.732h-62.084
	c12.206-14.668,19.222-33.37,19.222-52.989c0-5.522-4.478-10-10-10s-10,4.478-10,10c0,22.451-12.104,43.327-31.588,54.481
	c-3.112,1.781-5.032,5.093-5.032,8.679V444H88c-5.522,0-10,4.478-10,10v48c0,5.522,4.478,10,10,10h240.333c5.522,0,10-4.478,10-10
	s-4.478-10-10-10H298v-28h116v28h-8.333c-5.522,0-10,4.478-10,10s4.478,10,10,10H424c5.522,0,10-4.478,10-10v-48
	C434,448.478,429.522,444,424,444z M273.614,146H238.64l4.073-20h26.829L273.614,146z M234.567,166h43.119l4.072,20h-51.264
	L234.567,166z M256.127,60.119L265.469,106h-18.685L256.127,60.119z M230,206h52v16h-52V206z M234,426.996h44V444h-44V426.996z
	 M298,426.996h79.355V444H298V426.996z M234.127,346.264c0-6.671,3.568-12.921,9.314-16.312l3.537-2.087
	c3.456-2.04,6.53-4.584,9.148-7.506c2.618,2.922,5.691,5.465,9.148,7.505l3.538,2.089c5.745,3.39,9.313,9.64,9.313,16.311v60.732
	h-44v-60.732H234.127z M134.645,426.996H214V444h-79.355L134.645,426.996L134.645,426.996z M98,464h116v28H98V464z M234,464h44v28
	h-44V464z"/>
<path d="M366.33,492c-2.63,0-5.21,1.069-7.07,2.93s-2.93,4.44-2.93,7.07s1.069,5.21,2.93,7.069c1.86,1.86,4.44,2.931,7.07,2.931
	c2.64,0,5.21-1.07,7.069-2.931c1.86-1.859,2.931-4.439,2.931-7.069s-1.07-5.21-2.931-7.07C371.54,493.069,368.97,492,366.33,492z"/>
<path d="M161.26,321.54c2.64,0,5.21-1.07,7.07-2.931c1.87-1.859,2.939-4.439,2.939-7.069s-1.069-5.21-2.939-7.07
	c-1.86-1.87-4.431-2.93-7.07-2.93c-2.63,0-5.2,1.06-7.07,2.93c-1.859,1.86-2.93,4.43-2.93,7.07c0,2.63,1.07,5.21,2.93,7.069
	C156.06,320.47,158.63,321.54,161.26,321.54z"/>
<g>
</g>
<g>
</g>
<g>
</g>
<g>
</g>
<g>
</g>
<g>
</g>
<g>
</g>
<g>
</g>
<g>
</g>
<g>
</g>
<g>
</g>
<g>
</g>
<g>
</g>
<g>
</g>
<g>
</g>
</svg>
